<svg width="24" height="24" viewBox="0 0 24 24" fill="none" xmlns="http://www.w3.org/2000/svg">
<g clip-path="url(#clip0_100_515)">
<path d="M23.6265 0.147321C23.9211 0.361607 24.0417 0.647321 23.9881 1.00446L20.5595 21.5759C20.5149 21.8348 20.372 22.0357 20.131 22.1786C20.006 22.25 19.8676 22.2857 19.7158 22.2857C19.6176 22.2857 19.5104 22.2634 19.3943 22.2188L13.3274 19.7411L10.0863 23.692C9.9256 23.8973 9.70685 24 9.43006 24C9.31399 24 9.21577 23.9821 9.13542 23.9464C8.96577 23.8839 8.82961 23.779 8.72693 23.6317C8.62426 23.4844 8.57292 23.3214 8.57292 23.1429V18.4688L20.1443 4.28571L5.82738 16.6741L0.537202 14.5045C0.206845 14.3795 0.0282738 14.1339 0.0014881 13.7679C-0.016369 13.4107 0.126488 13.1473 0.43006 12.9777L22.7158 0.120536C22.8497 0.0401786 22.9926 0 23.1443 0C23.3229 0 23.4836 0.0491071 23.6265 0.147321Z" fill="white"/>
</g>
<defs>
<clipPath id="clip0_100_515">
<rect width="24" height="24" fill="white"/>
</clipPath>
</defs>
</svg>
