<svg width="66" height="70" viewBox="0 0 66 70" fill="none" xmlns="http://www.w3.org/2000/svg">
<g clip-path="url(#clip0_153_17725)">
<path d="M20.2429 46.0898V57.3081H18.5049V46.0898H20.2429Z" fill="white"/>
<path d="M43.0703 57.3035V56.151C42.3965 56.9828 41.3137 57.3918 39.9521 57.3918C37.912 57.3918 36.6387 56.1324 36.6387 54.4687C36.6387 52.805 37.9306 51.6479 40.203 51.6339H43.0564V51.3505C43.0564 50.1608 42.2943 49.4544 40.8072 49.4544C39.901 49.4544 38.9622 49.7751 38.0235 50.4117L37.1917 48.9944C38.5022 48.2136 39.4595 47.8047 41.2533 47.8047C43.6837 47.8047 45.0454 49.0455 45.064 51.1181L45.0825 57.3035H43.0796H43.0703ZM43.0564 53.9854V53.1164H40.5051C39.176 53.1164 38.5533 53.4696 38.5533 54.3758C38.5533 55.2262 39.2457 55.7745 40.3796 55.7745C41.8342 55.7745 42.9495 55.0124 43.0564 53.9854Z" fill="white"/>
<path d="M50.4639 49.4136C49.6646 49.4136 49.0791 49.6785 49.0791 50.3523C49.0791 52.0904 54.098 51.1516 54.0794 54.5719C54.0794 56.5052 52.36 57.3742 50.4639 57.3742C49.0791 57.3742 47.6106 56.9141 46.6719 56.0637L47.3968 54.6091C48.2101 55.3341 49.5252 55.7802 50.5522 55.7802C51.4213 55.7802 52.0951 55.4781 52.0951 54.7718C52.0951 52.8386 47.1319 53.9213 47.1505 50.515C47.1505 48.6004 48.8189 47.7871 50.6266 47.7871C51.8163 47.7871 53.071 48.1403 53.9261 48.7444L53.1825 50.2501C52.3507 49.7343 51.3051 49.4183 50.4686 49.4183L50.4639 49.4136Z" fill="white"/>
<path d="M61.4352 47.8008V49.7526C59.5392 49.6457 58.3309 50.761 58.1729 52.3782V57.3088H56.1328V47.8798H58.1729V49.7572C58.8096 48.4793 59.9435 47.8054 61.4352 47.8054V47.8008Z" fill="white"/>
<path d="M9.00655 67.802L8.99726 66.4683C8.47213 67.3931 7.58453 67.802 6.52498 67.802C5.38643 67.802 4.61035 67.0817 4.61035 66.1058C4.61035 65.1299 5.45149 64.5908 6.79916 64.5908H8.98797V63.8705C8.97867 62.7877 8.3606 62.1371 7.11981 62.1371C6.33444 62.1371 5.69314 62.4578 5.05648 62.9597L4.92171 62.7784C5.58161 62.2533 6.28797 61.9141 7.11981 61.9141C8.47678 61.9141 9.20638 62.6762 9.21568 63.8752L9.23891 67.8067H9.0112L9.00655 67.802ZM8.99261 65.9524L8.98332 64.8139H6.79451C5.53978 64.8139 4.83341 65.2832 4.83341 66.1011C4.83341 66.9655 5.49331 67.5696 6.52962 67.5696C7.66818 67.5696 8.52325 67.1142 8.99261 65.9524Z" fill="white"/>
<path d="M16.6509 59.3438V67.8016H16.4232V66.0682C15.991 67.1277 15.0105 67.8248 13.7697 67.8248C12.106 67.8248 10.8838 66.5701 10.8838 64.8599C10.8838 63.1498 12.1013 61.8857 13.7697 61.8857C15.0105 61.8857 15.991 62.5828 16.4232 63.6424V59.3438H16.6509ZM16.4232 64.8599C16.4232 63.2752 15.3079 62.1135 13.7697 62.1135C12.2315 62.1135 11.1161 63.2752 11.1161 64.8599C11.1161 66.4446 12.2315 67.5971 13.7697 67.5971C15.3079 67.5971 16.4232 66.4446 16.4232 64.8599Z" fill="white"/>
<path d="M18.3381 61.9102L20.6152 67.5425L22.883 61.9102H23.1572L20.7407 67.8027H20.4898L18.0732 61.9102H18.3335H18.3381Z" fill="white"/>
<path d="M28.5246 66.72L28.6826 66.878C28.1482 67.4589 27.3489 67.8027 26.438 67.8027C24.8069 67.8027 23.5986 66.5712 23.5986 64.8518C23.5986 63.1324 24.8069 61.9102 26.438 61.9102C28.0692 61.9102 29.1752 63.1417 29.1752 64.8518H23.831C23.831 66.4597 24.9231 67.575 26.4427 67.575C27.2978 67.575 28.0367 67.2683 28.5293 66.72H28.5246ZM23.8403 64.6194H28.9475C28.8453 63.1509 27.8972 62.1332 26.438 62.1332C24.9788 62.1332 23.9286 63.1463 23.8403 64.6194Z" fill="white"/>
<path d="M33.4599 61.9102V62.1379C32.1261 62.1704 31.3036 63.0719 31.2013 64.5776V67.8027H30.9736V61.9102H31.2013V63.5181C31.5545 62.5143 32.3399 61.9334 33.4599 61.9102Z" fill="white"/>
<path d="M37.4283 67.3781C37.0845 67.6383 36.6895 67.787 36.2666 67.8009C35.444 67.8102 35.0118 67.2526 35.0118 66.1837V62.2522H34.1475V62.0245H35.0118V60.6211H35.2395V62.0245H37.3122V62.2522H35.2395V66.1837C35.2395 67.0946 35.5927 67.5872 36.2666 67.5732C36.629 67.5639 36.9962 67.4385 37.2936 67.1968L37.4283 67.3781Z" fill="white"/>
<path d="M39.3614 60.2076C39.3614 60.3656 39.2267 60.505 39.064 60.505C38.9014 60.505 38.7666 60.3702 38.7666 60.2076C38.7666 60.0449 38.9014 59.9102 39.064 59.9102C39.2267 59.9102 39.3614 60.0449 39.3614 60.2076ZM39.1802 61.9084V67.801H38.9525V61.9084H39.1802Z" fill="white"/>
<path d="M42.9772 62.1379C42.0524 62.1379 41.3228 62.5003 41.3228 63.2997C41.3228 65.0656 44.8686 64.2244 44.8686 66.2738C44.8686 67.3334 43.9112 67.8027 42.8842 67.8027C42.0617 67.8027 41.2995 67.5053 40.7744 66.9802L40.9231 66.8082C41.425 67.2962 42.1081 67.5704 42.8842 67.5704C43.809 67.5704 44.6037 67.1847 44.6408 66.3296C44.7105 64.5172 41.0951 65.3026 41.0951 63.3229C41.0951 62.3563 41.9501 61.9102 42.9632 61.9102C43.5906 61.9102 44.1018 62.0821 44.534 62.333L44.4224 62.5282C44.046 62.2866 43.5581 62.1425 42.9725 62.1425L42.9772 62.1379Z" fill="white"/>
<path d="M46.964 60.2076C46.964 60.3656 46.8292 60.505 46.6666 60.505C46.5039 60.505 46.3691 60.3702 46.3691 60.2076C46.3691 60.0449 46.5039 59.9102 46.6666 59.9102C46.8292 59.9102 46.964 60.0449 46.964 60.2076ZM46.7827 61.9084V67.801H46.555V61.9084H46.7827Z" fill="white"/>
<path d="M54.3163 64.2337V67.8027H54.0886V64.2337C54.0886 62.9093 53.3125 62.1379 52.002 62.1379C50.5335 62.1704 49.632 63.0859 49.5158 64.6009V67.8027H49.2881V61.9102H49.5158V63.5738C49.8922 62.5375 50.7705 61.9334 52.002 61.9102C53.4612 61.9102 54.3163 62.7745 54.3163 64.2337Z" fill="white"/>
<path d="M61.482 61.9102V67.1289C61.482 68.8855 60.376 70.0148 58.6798 70.0008C57.7317 69.9683 56.9928 69.6477 56.3097 68.9738L56.4677 68.8158C57.0951 69.4432 57.7921 69.7406 58.6798 69.7731C60.2412 69.7824 61.2543 68.7461 61.2543 67.1289V65.9114C60.8453 66.9244 59.8973 67.589 58.7123 67.589C57.1276 67.589 55.9658 66.39 55.9658 64.7635C55.9658 63.137 57.1276 61.9148 58.7123 61.9148C59.8973 61.9148 60.8453 62.5747 61.2543 63.6017V61.9148H61.482V61.9102ZM61.2543 64.7589C61.2543 63.2439 60.1808 62.1239 58.7123 62.1239C57.2438 62.1239 56.1842 63.2392 56.1842 64.7589C56.1842 66.2785 57.2438 67.3706 58.7123 67.3706C60.1808 67.3706 61.2543 66.2645 61.2543 64.7589Z" fill="white"/>
<path fill-rule="evenodd" clip-rule="evenodd" d="M36.7686 28.7936C44.1389 23.8769 53.7539 18.9602 63.3549 10.5117C62.9366 12.8306 62.6067 15.0985 62.3465 17.3012C54.0559 23.1566 46.2999 27.0927 40.5885 31.5308C39.3895 30.606 38.1209 29.6998 36.7686 28.7936Z" fill="#5BBFCD"/>
<path fill-rule="evenodd" clip-rule="evenodd" d="M2.50977 10.5117C12.1294 18.9602 21.7304 23.8769 29.11 28.7936C27.7531 29.6998 26.4705 30.6106 25.2761 31.5308C19.5648 27.0881 11.8087 23.152 3.53214 17.3012C3.2719 15.0938 2.94195 12.8306 2.50977 10.5117Z" fill="#5BBFCD"/>
<path fill-rule="evenodd" clip-rule="evenodd" d="M29.1101 34.9369C30.2487 33.7565 31.5313 32.6319 32.9301 31.5352C34.3428 32.6319 35.6254 33.7565 36.764 34.9369C35.3652 36.41 34.1987 37.9668 33.2879 39.6955C33.1578 39.914 33.0416 40.1417 32.9254 40.374C32.8092 40.1417 32.6931 39.914 32.5815 39.6955C31.6753 37.9668 30.4903 36.41 29.1055 34.9369H29.1101Z" fill="#5BBFCD"/>
<path fill-rule="evenodd" clip-rule="evenodd" d="M32.9346 26.3447C42.5216 20.3731 54.7483 13.5697 65.8689 0C64.8001 3.60619 63.9775 7.11014 63.3595 10.5118C53.7584 18.9604 44.1388 23.877 36.7731 28.7937C35.5463 27.9851 34.2637 27.1812 32.9392 26.3447H32.9346Z" fill="#0D7375"/>
<path fill-rule="evenodd" clip-rule="evenodd" d="M0 0C11.116 13.5697 23.3426 20.3731 32.9343 26.3447C31.6099 27.1812 30.3226 27.9898 29.1144 28.7937C21.7301 23.877 12.1291 18.9604 2.51411 10.5118C1.88674 7.11014 1.06884 3.60619 0 0Z" fill="#0D7375"/>
<path fill-rule="evenodd" clip-rule="evenodd" d="M25.2754 31.536C26.4744 30.6112 27.757 29.705 29.1093 28.7988C30.4663 29.705 31.7489 30.6159 32.9292 31.536C31.5305 32.6327 30.2478 33.7573 29.1093 34.9377C27.9707 33.7573 26.6881 32.6327 25.2754 31.536Z" fill="#0D7375"/>
<path fill-rule="evenodd" clip-rule="evenodd" d="M36.7685 34.9377C35.6299 33.7573 34.3473 32.6327 32.9346 31.536C34.1289 30.6112 35.4161 29.705 36.7685 28.7988C38.1254 29.705 39.3941 30.6159 40.5884 31.536C39.1757 32.6327 37.8931 33.7573 36.7685 34.9377Z" fill="#0D7375"/>
<path fill-rule="evenodd" clip-rule="evenodd" d="M36.7681 28.7928C35.4111 29.699 34.1285 30.6098 32.9342 31.53C31.7538 30.6052 30.4666 29.699 29.1143 28.7928C30.3272 27.9842 31.6098 27.1802 32.9342 26.3438C34.2587 27.1802 35.5459 27.9888 36.7681 28.7928Z" fill="#026161"/>
<path d="M7.25905 57.3471H5.10742L9.91257 46.0312H12.1664L17.0738 57.3471H14.82L13.5281 54.2613H9.76851L10.4888 52.4397H12.7659L10.9861 48.1922L7.25905 57.3471Z" fill="white"/>
<path d="M23.9004 57.3471V46.0312H25.9963L31.9725 54.2753V46.0312H33.9894V57.3471H31.8935L25.9219 48.9264V57.3471H23.905H23.9004Z" fill="white"/>
</g>
<defs>
<clipPath id="clip0_153_17725">
<rect width="65.864" height="70" fill="white"/>
</clipPath>
</defs>
</svg>
