<svg width="17" height="16" viewBox="0 0 17 16" fill="none" xmlns="http://www.w3.org/2000/svg">
<path d="M1.05954 7.11111H6.39288C6.62862 7.11111 6.85472 7.01746 7.02142 6.85076C7.18811 6.68406 7.28177 6.45797 7.28177 6.22222V0.888889C7.28177 0.653141 7.18811 0.427048 7.02142 0.260349C6.85472 0.0936505 6.62862 0 6.39288 0H1.05954C0.823795 0 0.597703 0.0936505 0.431004 0.260349C0.264305 0.427048 0.170654 0.653141 0.170654 0.888889V6.22222C0.170654 6.45797 0.264305 6.68406 0.431004 6.85076C0.597703 7.01746 0.823795 7.11111 1.05954 7.11111ZM9.94843 7.11111H15.2818C15.5175 7.11111 15.7436 7.01746 15.9103 6.85076C16.077 6.68406 16.1707 6.45797 16.1707 6.22222V0.888889C16.1707 0.653141 16.077 0.427048 15.9103 0.260349C15.7436 0.0936505 15.5175 0 15.2818 0H9.94843C9.71268 0 9.48659 0.0936505 9.31989 0.260349C9.15319 0.427048 9.05954 0.653141 9.05954 0.888889V6.22222C9.05954 6.45797 9.15319 6.68406 9.31989 6.85076C9.48659 7.01746 9.71268 7.11111 9.94843 7.11111ZM1.05954 16H6.39288C6.62862 16 6.85472 15.9064 7.02142 15.7397C7.18811 15.573 7.28177 15.3469 7.28177 15.1111V9.77778C7.28177 9.54203 7.18811 9.31594 7.02142 9.14924C6.85472 8.98254 6.62862 8.88889 6.39288 8.88889H1.05954C0.823795 8.88889 0.597703 8.98254 0.431004 9.14924C0.264305 9.31594 0.170654 9.54203 0.170654 9.77778V15.1111C0.170654 15.3469 0.264305 15.573 0.431004 15.7397C0.597703 15.9064 0.823795 16 1.05954 16ZM12.6151 16C14.576 16 16.1707 14.4053 16.1707 12.4444C16.1707 10.4836 14.576 8.88889 12.6151 8.88889C10.6542 8.88889 9.05954 10.4836 9.05954 12.4444C9.05954 14.4053 10.6542 16 12.6151 16Z" fill="#243770"/>
</svg>
