<svg width="32" height="32" viewBox="0 0 32 32" fill="none" xmlns="http://www.w3.org/2000/svg">
<path d="M5.92195 5.92195C6.10746 5.73618 6.32777 5.5888 6.57028 5.48825C6.81279 5.38769 7.07275 5.33594 7.33528 5.33594C7.59782 5.33594 7.85777 5.38769 8.10029 5.48825C8.3428 5.5888 8.56311 5.73618 8.74862 5.92195L16.0019 13.1726L23.2553 5.92195C23.4409 5.73635 23.6612 5.58912 23.9037 5.48867C24.1462 5.38823 24.4061 5.33653 24.6686 5.33653C24.9311 5.33653 25.191 5.38823 25.4335 5.48867C25.676 5.58912 25.8963 5.73635 26.0819 5.92195C26.2675 6.10755 26.4148 6.32789 26.5152 6.57039C26.6157 6.81289 26.6674 7.0728 26.6674 7.33528C26.6674 7.59776 26.6157 7.85767 26.5152 8.10017C26.4148 8.34267 26.2675 8.56301 26.0819 8.74862L18.8313 16.0019L26.0819 23.2553C26.4568 23.6301 26.6674 24.1385 26.6674 24.6686C26.6674 25.1987 26.4568 25.7071 26.0819 26.0819C25.7071 26.4568 25.1987 26.6674 24.6686 26.6674C24.1385 26.6674 23.6301 26.4568 23.2553 26.0819L16.0019 18.8313L8.74862 26.0819C8.37378 26.4568 7.86539 26.6674 7.33528 26.6674C6.80518 26.6674 6.29679 26.4568 5.92195 26.0819C5.54711 25.7071 5.33653 25.1987 5.33653 24.6686C5.33653 24.1385 5.54711 23.6301 5.92195 23.2553L13.1726 16.0019L5.92195 8.74862C5.73618 8.56311 5.5888 8.3428 5.48825 8.10029C5.38769 7.85777 5.33594 7.59782 5.33594 7.33528C5.33594 7.07275 5.38769 6.81279 5.48825 6.57028C5.5888 6.32777 5.73618 6.10746 5.92195 5.92195Z" fill="#221F1F"/>
</svg>
