<svg width="110" height="64" viewBox="0 0 110 64" fill="none" xmlns="http://www.w3.org/2000/svg">
<g clip-path="url(#clip0_153_17874)">
<path d="M105.368 54.5098C105.104 54.5098 104.921 54.6104 104.921 54.7989C104.921 55.4589 106.788 55.0944 106.782 56.3829C106.782 57.0806 106.185 57.4641 105.412 57.4641C104.833 57.4641 104.261 57.2378 103.865 56.8921L104.18 56.2321C104.538 56.5589 105.053 56.7664 105.424 56.7664C105.751 56.7664 105.946 56.6469 105.946 56.4206C105.946 55.7481 104.079 56.1378 104.079 54.8744C104.079 54.2269 104.626 53.8184 105.437 53.8184C105.927 53.8184 106.417 53.9755 106.769 54.2081L106.461 54.8744C106.09 54.6481 105.65 54.5098 105.368 54.5098Z" fill="#243770"/>
<path d="M106.75 61.0781V61.5998H105.462V61.0781H106.75Z" fill="#243770"/>
<path d="M104.695 42.4735H103.834V41.7821H104.481C104.645 41.7821 104.758 41.7003 104.758 41.5181C104.758 41.1346 104.739 39.2678 104.739 38.8906H105.506C105.506 39.5255 105.525 41.1598 105.525 41.7003C105.525 42.1718 105.236 42.4735 104.695 42.4735Z" fill="#243770"/>
<path d="M106.26 42.4735L106.234 38.8906H106.995L107.02 42.4735H106.26Z" fill="#243770"/>
<path d="M105.116 47.9216V47.6953H106.826V47.9216H105.116Z" fill="#243770"/>
<path d="M4.52012 56.7343H2.8984L2.62183 57.432H1.80469L3.32583 53.8555H4.14297L5.63897 57.432H4.7904L4.51383 56.7343H4.52012ZM4.26869 56.0869L3.71554 54.6978L3.1624 56.0869H4.26869Z" fill="#243770"/>
<path d="M6.81348 53.8555V56.728H8.31577V57.432H6.02148V53.8555H6.81348Z" fill="#243770"/>
<path d="M9.51735 53.8555L11.2208 56.156V53.8555H11.9751V57.432H11.2522L9.55507 55.1378V57.432H8.80078V53.8555H9.52364H9.51735Z" fill="#243770"/>
<path d="M15.0729 56.7343H13.4511L13.1746 57.432H12.3574L13.8786 53.8555H14.6957L16.1917 57.432H15.3431L15.0666 56.7343H15.0729ZM14.8151 56.0869L14.262 54.6978L13.7089 56.0869H14.8151Z" fill="#243770"/>
<path d="M17.7699 54.5098C17.5059 54.5098 17.3236 54.6104 17.3236 54.7989C17.3236 55.4589 19.1904 55.0944 19.1842 56.3829C19.1842 57.0806 18.587 57.4641 17.8139 57.4641C17.2356 57.4641 16.6636 57.2378 16.2676 56.8921L16.5819 56.2321C16.9401 56.5589 17.4556 56.7664 17.8264 56.7664C18.1533 56.7664 18.3482 56.6469 18.3482 56.4206C18.3482 55.7481 16.4813 56.1378 16.4813 54.8744C16.4813 54.2269 17.0281 53.8184 17.839 53.8184C18.3293 53.8184 18.8196 53.9755 19.1716 54.2081L18.8636 54.8744C18.4927 54.6481 18.0527 54.5098 17.7699 54.5098Z" fill="#243770"/>
<path d="M21.9056 57.432L21.3524 56.4075H20.5479V57.432H19.7559V53.8555H21.277C22.1947 53.8555 22.7164 54.3018 22.7164 55.0938C22.7164 55.6469 22.4901 56.0429 22.0627 56.2503L22.8107 57.432H21.9119H21.9056ZM20.5479 55.7349H21.277C21.7107 55.7349 21.9621 55.5275 21.9621 55.1189C21.9621 54.7103 21.7107 54.5218 21.277 54.5218H20.5479V55.7349Z" fill="#243770"/>
<path d="M27.4877 53.8555V54.5406H26.4192V57.432H25.6272V54.5406H24.5586V53.8555H27.4877Z" fill="#243770"/>
<path d="M30.5933 53.8555V54.528H28.7139V55.3012H30.3984V55.9738H28.7139V56.7658H30.6436V57.4383H27.9219V53.8618H30.587L30.5933 53.8555Z" fill="#243770"/>
<path d="M32.9122 54.5282C32.3151 54.5282 31.8436 55.0059 31.8436 55.6282C31.8436 56.2505 32.3088 56.7282 32.9122 56.7282C33.2265 56.7282 33.5722 56.5648 33.8236 56.3071L34.2888 56.8225C33.9179 57.2122 33.3836 57.4636 32.8745 57.4636C31.8248 57.4636 31.0391 56.6717 31.0391 55.6345C31.0391 54.5974 31.8436 53.8242 32.9059 53.8242C33.4088 53.8242 33.9431 54.0568 34.2888 54.4151L33.8299 54.9871C33.5911 54.7042 33.2453 54.5219 32.9185 54.5219L32.9122 54.5282Z" fill="#243770"/>
<path d="M35.5654 53.8555V55.3515H37.1494V53.8555H37.9414V57.432H37.1494V56.024H35.5654V57.432H34.7734V53.8555H35.5654Z" fill="#243770"/>
<path d="M39.449 53.8555L41.1524 56.156V53.8555H41.9067V57.432H41.1838L39.4867 55.1378V57.432H38.7324V53.8555H39.4553H39.449Z" fill="#243770"/>
<path d="M43.4785 53.8555V57.432H42.6865V53.8555H43.4785Z" fill="#243770"/>
<path d="M45.8868 54.5282C45.2897 54.5282 44.8182 55.0059 44.8182 55.6282C44.8182 56.2505 45.2834 56.7282 45.8868 56.7282C46.2011 56.7282 46.5468 56.5648 46.7982 56.3071L47.2634 56.8225C46.8925 57.2122 46.3582 57.4636 45.8491 57.4636C44.7994 57.4636 44.0137 56.6717 44.0137 55.6345C44.0137 54.5974 44.8182 53.8242 45.8805 53.8242C46.3834 53.8242 46.9177 54.0568 47.2634 54.4151L46.8045 54.9871C46.5657 54.7042 46.22 54.5219 45.8931 54.5219L45.8868 54.5282Z" fill="#243770"/>
<path d="M50.0279 56.7343H48.4062L48.1296 57.432H47.3125L48.8336 53.8555H49.6508L51.1468 57.432H50.2982L50.0216 56.7343H50.0279ZM49.7702 56.0869L49.2171 54.6978L48.6639 56.0869H49.7702Z" fill="#243770"/>
<path d="M52.3232 53.8555V56.728H53.8255V57.432H51.5312V53.8555H52.3232Z" fill="#243770"/>
<path d="M58.394 53.8555V54.5406H57.3254V57.432H56.5334V54.5406H55.4648V53.8555H58.394Z" fill="#243770"/>
<path d="M60.9905 57.432L60.4374 56.4075H59.6328V57.432H58.8408V53.8555H60.362C61.2797 53.8555 61.8014 54.3018 61.8014 55.0938C61.8014 55.6469 61.5751 56.0429 61.1477 56.2503L61.8957 57.432H60.9968H60.9905ZM59.6265 55.7349H60.3557C60.7894 55.7349 61.0408 55.5275 61.0408 55.1189C61.0408 54.7103 60.7894 54.5218 60.3557 54.5218H59.6265V55.7349Z" fill="#243770"/>
<path d="M64.7877 56.7343H63.166L62.8894 57.432H62.0723L63.5934 53.8555H64.4106L65.9066 57.432H65.058L64.7814 56.7343H64.7877ZM64.5363 56.0869L63.9831 54.6978L63.43 56.0869H64.5363Z" fill="#243770"/>
<path d="M69.621 55.641C69.621 56.6908 68.8542 57.4262 67.7479 57.4262H66.2959V53.8496H67.7793C68.8668 53.8496 69.621 54.5788 69.621 55.641ZM68.8165 55.6473C68.8165 54.9873 68.3639 54.5348 67.7668 54.5348H67.0879V56.7473H67.8045C68.389 56.7473 68.8228 56.301 68.8228 55.6473H68.8165Z" fill="#243770"/>
<path d="M70.9473 53.8555V57.432H70.1553V53.8555H70.9473Z" fill="#243770"/>
<path d="M72.449 53.8555L74.1524 56.156V53.8555H74.9067V57.432H74.1838L72.4867 55.1378V57.432H71.7324V53.8555H72.4553H72.449Z" fill="#243770"/>
<path d="M78.0437 55.6278H78.7288V57.0044C78.358 57.2809 77.7923 57.4695 77.3083 57.4695C76.246 57.4695 75.4414 56.6775 75.4414 55.6466C75.4414 54.6158 76.2648 53.8301 77.3523 53.8301C77.874 53.8301 78.402 54.0375 78.7603 54.3518L78.314 54.9301C78.0563 54.6849 77.6917 54.5341 77.3523 54.5341C76.73 54.5341 76.2523 55.0181 76.2523 55.6529C76.2523 56.2878 76.7363 56.7718 77.3586 56.7718C77.5723 56.7718 77.8174 56.6964 78.0437 56.5769V55.6341V55.6278Z" fill="#243770"/>
<path d="M83.2545 56.7343H81.6328L81.3562 57.432H80.5391L82.0602 53.8555H82.8773L84.3733 57.432H83.5248L83.2482 56.7343H83.2545ZM83.0031 56.0869L82.4499 54.6978L81.8968 56.0869H83.0031Z" fill="#243770"/>
<path d="M87.0203 55.6278H87.7054V57.0044C87.3345 57.2809 86.7688 57.4695 86.2848 57.4695C85.2225 57.4695 84.418 56.6775 84.418 55.6466C84.418 54.6158 85.2414 53.8301 86.3288 53.8301C86.8505 53.8301 87.3785 54.0375 87.7368 54.3518L87.2905 54.9301C87.0328 54.6849 86.6683 54.5341 86.3288 54.5341C85.7065 54.5341 85.2288 55.0181 85.2288 55.6529C85.2288 56.2878 85.7128 56.7718 86.3351 56.7718C86.5488 56.7718 86.794 56.6964 87.0203 56.5769V55.6341V55.6278Z" fill="#243770"/>
<path d="M91.0806 53.8555V54.528H89.2012V55.3012H90.8858V55.9738H89.2012V56.7658H91.1309V57.4383H88.4092V53.8618H91.0743L91.0806 53.8555Z" fill="#243770"/>
<path d="M92.4881 53.8555L94.1915 56.156V53.8555H94.9458V57.432H94.2229L92.5258 55.1378V57.432H91.7715V53.8555H92.4943H92.4881Z" fill="#243770"/>
<path d="M97.3536 54.5282C96.7565 54.5282 96.285 55.0059 96.285 55.6282C96.285 56.2505 96.7502 56.7282 97.3536 56.7282C97.6679 56.7282 98.0136 56.5648 98.265 56.3071L98.7302 56.8225C98.3593 57.2122 97.825 57.4636 97.3159 57.4636C96.2662 57.4636 95.4805 56.6717 95.4805 55.6345C95.4805 54.5974 96.285 53.8242 97.3473 53.8242C97.8502 53.8242 98.3845 54.0568 98.7302 54.4151L98.2713 54.9871C98.0325 54.7042 97.6868 54.5219 97.3599 54.5219L97.3536 54.5282Z" fill="#243770"/>
<path d="M100.013 53.8555V57.432H99.2207V53.8555H100.013Z" fill="#243770"/>
<path d="M103.457 53.8555V54.528H101.577V55.3012H103.262V55.9738H101.577V56.7658H103.507V57.4383H100.785V53.8618H103.45L103.457 53.8555Z" fill="#243770"/>
<path d="M3.46435 61.0781V61.5998H2.17578V61.0781H3.46435Z" fill="#243770"/>
<path d="M8.3228 59.3242V59.9968H6.44337V60.7699H8.12794V61.4425H6.44337V62.2345H8.37308V62.9071H5.65137V59.3305H8.31651L8.3228 59.3242Z" fill="#243770"/>
<path d="M12.7101 63.3343C12.4398 63.5794 12.0627 63.7303 11.7233 63.7303C11.2456 63.7303 10.8433 63.4285 10.5981 62.9383C9.54841 62.9131 8.7627 62.1337 8.7627 61.1154C8.7627 60.0971 9.57355 59.2988 10.6421 59.2988C11.7107 59.2988 12.5278 60.0783 12.5278 61.1154C12.5278 61.9137 12.0501 62.5611 11.3336 62.8188C11.4718 62.9885 11.6416 63.0891 11.8113 63.0891C11.981 63.0891 12.2073 62.9823 12.4273 62.8063L12.7101 63.3343ZM10.6547 62.228C11.2393 62.228 11.717 61.7377 11.717 61.1091C11.717 60.4805 11.2393 59.9965 10.6547 59.9965C10.0701 59.9965 9.57355 60.4743 9.57355 61.1091C9.57355 61.744 10.0701 62.228 10.6547 62.228Z" fill="#243770"/>
<path d="M14.6215 62.2282C15.093 62.2282 15.401 61.9202 15.401 61.4048V59.3242H16.193V61.4048C16.193 62.3477 15.5895 62.9385 14.6215 62.9385C13.6535 62.9385 13.0312 62.3477 13.0312 61.4048V59.3242H13.8233V61.4048C13.8233 61.9202 14.1564 62.2282 14.6215 62.2282Z" fill="#243770"/>
<path d="M17.707 59.3242V62.9008H16.915V59.3242H17.707Z" fill="#243770"/>
<path d="M21.3778 60.5625C21.3778 61.3985 20.8686 61.8762 19.976 61.8762H19.2783V62.9008H18.4863V59.3242H19.9698C20.8623 59.3242 21.3715 59.7705 21.3715 60.5625H21.3778ZM20.6235 60.5939C20.6235 60.1979 20.372 59.9968 19.932 59.9968H19.2783V61.2099H19.932C20.372 61.2099 20.6235 61.0025 20.6235 60.5939Z" fill="#243770"/>
<path d="M22.7798 59.3242L23.8044 61.5116L24.8164 59.3242H25.6964V62.9008H24.9861V60.4871L24.0558 62.5362H23.5404L22.6101 60.4871V62.9008H21.8936V59.3242H22.7798Z" fill="#243770"/>
<path d="M29.1597 59.3242V59.9968H27.2803V60.7699H28.9649V61.4425H27.2803V62.2345H29.21V62.9071H26.4883V59.3305H29.1534L29.1597 59.3242Z" fill="#243770"/>
<path d="M30.574 59.3242L32.2774 61.6248V59.3242H33.0317V62.9008H32.3089L30.6117 60.6065V62.9008H29.8574V59.3242H30.5803H30.574Z" fill="#243770"/>
<path d="M36.394 59.3242V60.0094H35.3254V62.9008H34.5334V60.0094H33.4648V59.3242H36.394Z" fill="#243770"/>
<path d="M38.054 59.9785C37.79 59.9785 37.6078 60.0791 37.6078 60.2677C37.6078 60.9277 39.4746 60.5631 39.4683 61.8517C39.4683 62.5494 38.8712 62.9328 38.098 62.9328C37.5198 62.9328 36.9478 62.7065 36.5518 62.3608L36.866 61.7008C37.2243 62.0277 37.7398 62.2351 38.1106 62.2351C38.4375 62.2351 38.6323 62.1157 38.6323 61.8894C38.6323 61.2168 36.7655 61.6065 36.7655 60.3431C36.7655 59.6957 37.3123 59.2871 38.1232 59.2871C38.6135 59.2871 39.1038 59.4443 39.4558 59.6768L39.1478 60.3431C38.7769 60.1168 38.3369 59.9785 38.054 59.9785Z" fill="#243770"/>
<path d="M44.1264 59.3242V60.0094H43.0578V62.9008H42.2658V60.0094H41.1973V59.3242H44.1264Z" fill="#243770"/>
<path d="M47.2378 59.3242V59.9968H45.3584V60.7699H47.043V61.4425H45.3584V62.2345H47.2881V62.9071H44.5664V59.3305H47.2315L47.2378 59.3242Z" fill="#243770"/>
<path d="M49.5509 59.997C48.9537 59.997 48.4823 60.4747 48.4823 61.097C48.4823 61.7193 48.9475 62.197 49.5509 62.197C49.8652 62.197 50.2109 62.0335 50.4623 61.7758L50.9274 62.2913C50.5566 62.681 50.0223 62.9324 49.5132 62.9324C48.4634 62.9324 47.6777 62.1404 47.6777 61.1033C47.6777 60.0661 48.4823 59.293 49.5446 59.293C50.0474 59.293 50.5817 59.5255 50.9274 59.8838L50.4686 60.4558C50.2297 60.173 49.884 59.9907 49.5572 59.9907L49.5509 59.997Z" fill="#243770"/>
<path d="M52.2031 59.3242V60.8202H53.7871V59.3242H54.5791V62.9008H53.7871V61.4928H52.2031V62.9008H51.4111V59.3242H52.2031Z" fill="#243770"/>
<path d="M56.0877 59.3242L57.7911 61.6248V59.3242H58.5454V62.9008H57.8225L56.1254 60.6065V62.9008H55.3711V59.3242H56.094H56.0877Z" fill="#243770"/>
<path d="M60.1231 59.3242V62.9008H59.3311V59.3242H60.1231Z" fill="#243770"/>
<path d="M62.5313 59.997C61.9342 59.997 61.4628 60.4747 61.4628 61.097C61.4628 61.7193 61.9279 62.197 62.5313 62.197C62.8456 62.197 63.1913 62.0335 63.4428 61.7758L63.9079 62.2913C63.5371 62.681 63.0028 62.9324 62.4936 62.9324C61.4439 62.9324 60.6582 62.1404 60.6582 61.1033C60.6582 60.0661 61.4628 59.293 62.5251 59.293C63.0279 59.293 63.5622 59.5255 63.9079 59.8838L63.4491 60.4558C63.2102 60.173 62.8645 59.9907 62.5376 59.9907L62.5313 59.997Z" fill="#243770"/>
<path d="M66.6666 62.2031H65.0449L64.7683 62.9008H63.9512L65.4723 59.3242H66.2895L67.7855 62.9008H66.9369L66.6603 62.2031H66.6666ZM66.4152 61.5556L65.862 60.1665L65.3089 61.5556H66.4152Z" fill="#243770"/>
<path d="M68.9609 59.3242V62.1968H70.4632V62.9008H68.1689V59.3242H68.9609Z" fill="#243770"/>
<path d="M73.2481 59.3242V62.9008H72.4561V59.3242H73.2481Z" fill="#243770"/>
<path d="M74.7498 59.3242L76.4532 61.6248V59.3242H77.2075V62.9008H76.4846L74.7875 60.6065V62.9008H74.0332V59.3242H74.7561H74.7498Z" fill="#243770"/>
<path d="M79.2064 59.9785C78.9424 59.9785 78.7601 60.0791 78.7601 60.2677C78.7601 60.9277 80.627 60.5631 80.6207 61.8517C80.6207 62.5494 80.0235 62.9328 79.2504 62.9328C78.6721 62.9328 78.1001 62.7065 77.7041 62.3608L78.0184 61.7008C78.3767 62.0277 78.8921 62.2351 79.263 62.2351C79.5898 62.2351 79.7847 62.1157 79.7847 61.8894C79.7847 61.2168 77.9178 61.6065 77.9178 60.3431C77.9178 59.6957 78.4647 59.2871 79.2755 59.2871C79.7658 59.2871 80.2561 59.4443 80.6081 59.6768L80.3001 60.3431C79.9292 60.1168 79.4892 59.9785 79.2064 59.9785Z" fill="#243770"/>
<path d="M84.0779 60.5625C84.0779 61.3985 83.5688 61.8762 82.6762 61.8762H81.9785V62.9008H81.1865V59.3242H82.67C83.5625 59.3242 84.0717 59.7705 84.0717 60.5625H84.0779ZM83.33 60.5939C83.33 60.1979 83.0785 59.9968 82.6385 59.9968H81.9848V61.2099H82.6385C83.0785 61.2099 83.33 61.0025 83.33 60.5939Z" fill="#243770"/>
<path d="M87.2652 59.3242V59.9968H85.3857V60.7699H87.0703V61.4425H85.3857V62.2345H87.3155V62.9071H84.5938V59.3305H87.2589L87.2652 59.3242Z" fill="#243770"/>
<path d="M89.5841 59.997C88.9869 59.997 88.5155 60.4747 88.5155 61.097C88.5155 61.7193 88.9807 62.197 89.5841 62.197C89.8984 62.197 90.2441 62.0335 90.4955 61.7758L90.9607 62.2913C90.5898 62.681 90.0555 62.9324 89.5464 62.9324C88.4967 62.9324 87.7109 62.1404 87.7109 61.1033C87.7109 60.0661 88.5155 59.293 89.5778 59.293C90.0807 59.293 90.6149 59.5255 90.9607 59.8838L90.5018 60.4558C90.2629 60.173 89.9172 59.9907 89.5904 59.9907L89.5841 59.997Z" fill="#243770"/>
<path d="M94.0288 59.3242V60.0094H92.9602V62.9008H92.1682V60.0094H91.0996V59.3242H94.0288Z" fill="#243770"/>
<path d="M95.2608 59.3242V62.9008H94.4688V59.3242H95.2608Z" fill="#243770"/>
<path d="M99.5532 61.1154C99.5532 62.1463 98.7424 62.9383 97.6675 62.9383C96.5927 62.9383 95.7881 62.1463 95.7881 61.1154C95.7881 60.0845 96.5989 59.2988 97.6675 59.2988C98.7361 59.2988 99.5532 60.0783 99.5532 61.1154ZM96.5989 61.1154C96.5989 61.744 97.0955 62.2343 97.6801 62.2343C98.2647 62.2343 98.7424 61.744 98.7424 61.1154C98.7424 60.4868 98.2647 60.0028 97.6801 60.0028C97.0955 60.0028 96.5989 60.4805 96.5989 61.1154Z" fill="#243770"/>
<path d="M100.81 59.3242L102.514 61.6248V59.3242H103.268V62.9008H102.545L100.848 60.6065V62.9008H100.094V59.3242H100.817H100.81Z" fill="#243770"/>
<path d="M1.97461 47.9216V47.6953H3.68432V47.9216H1.97461Z" fill="#243770"/>
<path d="M8.1842 48.7338H6.41792C5.07906 48.7338 4.77734 47.5206 4.77734 46.5463H5.56306C5.56306 47.3383 5.77049 48.0172 6.45563 48.0172H7.89506C7.98306 48.0172 8.03334 47.9732 8.03334 47.8098C8.02077 47.2692 8.01449 47.1812 8.00191 46.5463H8.8002C8.81277 47.1498 8.81277 47.596 8.81277 48.124C8.81277 48.564 8.52363 48.74 8.19049 48.74L8.1842 48.7338ZM5.97163 46.4143V45.748H6.65049V46.4143H5.97163ZM6.93334 46.4143V45.748H7.61849V46.4143H6.93334Z" fill="#243770"/>
<path d="M9.56756 48.7341L9.53613 44.9941H10.3344L10.3658 48.7341H9.56756Z" fill="#243770"/>
<path d="M11.0438 48.7319L11.4273 48.0154H12.9484C12.8855 47.5062 12.4455 47.2359 12.169 47.2359V46.5508C13.0301 46.5508 13.5707 47.0599 13.7404 48.0154H14.369V48.7319H11.0312H11.0438Z" fill="#243770"/>
<path d="M19.3537 48.7326C19.0897 48.7326 18.8697 48.5943 18.7566 48.4937C18.4548 48.6383 18.128 48.7326 17.7948 48.7326H14.2686V48.016H17.7886C17.9897 48.016 18.1154 48.0034 18.2788 47.9594C17.9834 47.6388 17.6503 47.3811 17.1034 47.3497V46.7777C18.1971 46.0234 19.5988 46.2497 20.3531 46.9537C20.1394 47.3371 19.844 47.708 19.492 48.0097H23.0183V48.7263H19.36L19.3537 48.7326ZM18.2726 47.048C18.5303 47.1674 18.7628 47.3811 18.9326 47.576C19.0897 47.4503 19.228 47.312 19.3348 47.1548C19.1211 47.048 18.6937 46.9411 18.2726 47.048Z" fill="#243770"/>
<path d="M25.6028 48.733C25.4331 49.0724 25.0874 49.2987 24.5657 49.2987C24.044 49.2987 23.7045 49.0724 23.5285 48.733H22.9062V48.0164H23.4091C23.472 47.4633 23.8617 47.0547 24.5594 47.0547C25.2571 47.0547 25.6468 47.4633 25.7097 48.0164H26.2314V48.733H25.5965H25.6028ZM24.5657 47.6895C24.2765 47.6895 24.1885 47.9473 24.1885 48.1798C24.1885 48.4124 24.2765 48.6701 24.5657 48.6701C24.8548 48.6701 24.9491 48.4187 24.9491 48.1798C24.9491 47.941 24.8611 47.6895 24.5657 47.6895Z" fill="#243770"/>
<path d="M30.5552 48.7341C30.2471 48.7341 30.0586 48.5393 29.9706 48.3947C29.8134 48.6147 29.5369 48.7341 29.2666 48.7341H26.1426V48.0176H29.0403C29.1911 48.0176 29.4049 47.9233 29.4049 47.7221L29.3923 44.9941H30.1906C30.1906 45.3021 30.1906 47.1879 30.2031 47.5021C30.2031 47.8667 30.4734 48.0113 30.6054 48.0113H31.146V48.7279H30.5614L30.5552 48.7341Z" fill="#243770"/>
<path d="M36.4071 48.7337H31.0391V48.0171H36.1808C36.3505 48.0171 36.4699 47.9291 36.4699 47.7406C36.4699 47.3383 36.4511 45.396 36.4448 45H37.2431C37.2431 45.66 37.2619 47.3697 37.2619 47.9291C37.2619 48.4194 36.9602 48.7337 36.4008 48.7337H36.4071Z" fill="#243770"/>
<path d="M43.4344 48.7337C42.9316 48.7337 42.7178 48.4069 42.5607 48.0235C42.3784 47.5835 42.1081 47.2 41.6933 47.2063C41.3978 47.2063 41.2093 47.376 41.1213 47.596H42.171V48.3566C42.171 49.2617 41.4544 49.9909 40.5681 49.9909C39.6818 49.9909 38.9653 49.2555 38.959 48.3566C38.959 48.1869 38.959 47.9543 38.959 47.596H39.751C39.751 47.9669 39.751 48.2057 39.751 48.3566C39.751 48.9349 40.2287 49.2052 40.5556 49.2052C40.9327 49.2052 41.3978 48.9349 41.379 48.3566V48.3252H40.1658C40.1658 47.068 40.7881 46.4395 41.6681 46.4395C42.5984 46.4395 42.9378 47.0743 43.2836 47.7469C43.3716 47.904 43.4407 48.0235 43.6796 48.0235H43.931V48.74H43.4407L43.4344 48.7337ZM39.663 51.1097V50.4435H40.3481V51.1097H39.663ZM40.631 51.1097V50.4435H41.3161V51.1097H40.631Z" fill="#243770"/>
<path d="M48.2368 48.7321C47.9288 48.7321 47.7402 48.5372 47.6522 48.3926C47.4951 48.6126 47.2185 48.7321 46.9482 48.7321C46.6276 48.7321 44.1385 48.7321 43.8242 48.7321V48.0155H46.7219C46.8728 48.0155 47.0865 47.9212 47.0865 47.7201L47.0739 46.5384H47.8722C47.8722 46.8464 47.8722 47.1858 47.8848 47.5001C47.8848 47.8646 48.1551 48.0092 48.2871 48.0092H48.8276V48.7258H48.2431L48.2368 48.7321ZM47.1116 46.0984V45.4258H47.7968V46.0984H47.1116Z" fill="#243770"/>
<path d="M53.5921 48.7332C53.2653 48.7332 52.9447 48.6703 52.6493 48.5635C52.3601 48.6703 52.0521 48.7332 51.7253 48.7332H48.7207V48.0166H51.4236C51.5681 48.0166 51.7127 48.0166 51.8447 47.9915C51.6121 47.7275 51.5241 47.4572 51.5241 47.2309C51.5241 46.5646 52.071 46.2126 52.6556 46.2126C53.2401 46.2126 53.787 46.5646 53.787 47.2309C53.787 47.4572 53.699 47.7275 53.4727 47.9915C53.6361 48.0229 53.7493 48.0166 53.9001 48.0166H54.3464V48.7332H53.6047H53.5921ZM52.2847 45.7663V45.0938H52.9698V45.7663H52.2847ZM52.6493 46.8098C52.423 46.8098 52.291 46.9858 52.291 47.2183C52.291 47.5766 52.6241 47.7903 52.6493 47.7903C52.6807 47.7903 53.0076 47.5766 53.0076 47.2183C53.0076 46.9858 52.8818 46.8098 52.6493 46.8098Z" fill="#243770"/>
<path d="M57.3637 48.7337H54.2334V48.0171H57.1437C57.3134 48.0171 57.4328 47.9291 57.4328 47.7406C57.4328 47.3383 57.414 45.396 57.4077 45H58.206C58.206 45.66 58.2248 47.3697 58.2248 47.9291C58.2248 48.4194 57.9231 48.7337 57.3637 48.7337Z" fill="#243770"/>
<path d="M58.9914 48.7341L58.96 44.9941H59.7582L59.7897 48.7341H58.9914Z" fill="#243770"/>
<path d="M64.5926 48.7329C64.4417 49.4432 63.7943 49.9838 63.0274 49.9838C62.1348 49.9838 61.4246 49.2546 61.4246 48.3746C61.4246 48.2049 61.3994 47.5323 61.3994 47.1866H62.1914C62.1914 47.4946 62.204 48.2552 62.204 48.3809C62.204 48.846 62.5811 49.2232 63.0211 49.2232C63.4611 49.2232 63.8508 48.846 63.8383 48.3809L63.8131 47.1866H64.6114V47.8466C65.1583 46.7278 66.0446 46.5203 66.4091 46.5518C67.2954 46.6398 67.5846 47.306 67.6788 48.0163H70.6331V48.7329H64.5863H64.5926ZM66.2646 47.2369C66.0006 47.2369 65.5731 47.4129 65.1708 48.0163H66.912C66.8931 47.6643 66.7423 47.2369 66.2646 47.2369Z" fill="#243770"/>
<path d="M68.2817 48.7323V48.0158H73.0085C72.8702 47.5443 72.5245 47.2615 72.1222 47.2615C71.6131 47.2615 71.3554 47.5192 71.3554 47.5192L71.0411 46.9472C71.1354 46.8341 71.4811 46.5449 72.1222 46.5449C73.0588 46.5449 73.5742 47.2301 73.7565 48.0095H76.5788V48.7261H68.2754L68.2817 48.7323Z" fill="#243770"/>
<path d="M79.1253 48.7332C78.7985 48.7332 78.4779 48.6703 78.1825 48.5635C77.8933 48.6703 77.5853 48.7332 77.2585 48.7332H74.2539V48.0166H76.9568C77.1013 48.0166 77.2459 48.0166 77.3779 47.9915C77.1453 47.7275 77.0573 47.4572 77.0573 47.2309C77.0573 46.5646 77.6042 46.2126 78.1888 46.2126C78.7733 46.2126 79.3202 46.5646 79.3202 47.2309C79.3202 47.4572 79.2322 47.7275 79.0059 47.9915C79.1693 48.0229 79.2825 48.0166 79.4333 48.0166H79.8796V48.7332H79.1379H79.1253ZM77.8179 45.7663V45.0938H78.5031V45.7663H77.8179ZM78.1825 46.8098C77.9562 46.8098 77.8242 46.9858 77.8242 47.2183C77.8242 47.5766 78.1573 47.7903 78.1825 47.7903C78.2139 47.7903 78.5408 47.5766 78.5408 47.2183C78.5408 46.9858 78.415 46.8098 78.1825 46.8098Z" fill="#243770"/>
<path d="M82.8959 48.7337H79.7656V48.0171H82.6759C82.8456 48.0171 82.9651 47.9291 82.9651 47.7406C82.9651 47.3383 82.9462 45.396 82.9399 45H83.7382C83.7382 45.66 83.7571 47.3697 83.7571 47.9291C83.7571 48.4194 83.4553 48.7337 82.8959 48.7337Z" fill="#243770"/>
<path d="M84.5246 48.7341L84.4932 44.9941H85.2915L85.3229 48.7341H84.5246Z" fill="#243770"/>
<path d="M91.3509 48.7347C90.8921 48.7347 90.5778 48.6089 90.3578 48.3261C90.1629 48.5712 89.8549 48.7284 89.4275 48.7284C88.8052 48.7284 88.4218 48.389 88.3086 47.9175H87.9818C87.7618 47.9175 87.7366 48.0181 87.7366 48.2821L87.7681 49.9604H86.9698L86.9446 47.9741C86.9321 47.3581 87.3218 47.1632 87.7743 47.1632H88.3401C88.4909 46.7609 88.8555 46.4844 89.4275 46.4844C90.0686 46.4844 90.4458 46.7924 90.5778 47.4147C90.6658 47.8169 90.9612 48.0181 91.4452 48.0118V48.7284H91.3572L91.3509 48.7347ZM89.4275 47.1192C89.1383 47.1192 89.0503 47.3769 89.0503 47.6095C89.0503 47.8421 89.1383 48.1061 89.4275 48.1061C89.7166 48.1061 89.8109 47.8484 89.8109 47.6095C89.8109 47.3707 89.7229 47.1192 89.4275 47.1192Z" fill="#243770"/>
<path d="M98.5853 48.7332C98.3213 48.7332 98.1453 48.5823 98.0385 48.4566C97.8876 48.6703 97.6236 48.7646 97.3219 48.7772C97.083 48.7772 96.7876 48.7332 96.5613 48.4503C96.3916 48.6766 96.1339 48.7646 95.8322 48.7772C95.6562 48.7772 95.4487 48.7458 95.2665 48.6263V48.7269H91.3379V48.0103H94.4682L94.4556 46.7029H95.2539C95.2539 47.1869 95.2539 47.2498 95.2539 47.5452C95.2539 47.9098 95.4613 48.0481 95.6876 48.0481C95.8447 48.0481 95.9453 47.9789 95.9453 47.7778C95.9453 47.4321 95.9453 47.0423 95.9327 46.6966H96.731C96.731 47.0298 96.7499 47.5452 96.7499 47.5452C96.7499 47.9098 96.9573 48.0481 97.1836 48.0481C97.3345 48.0481 97.435 47.9789 97.435 47.7778C97.435 47.2309 97.435 47.1806 97.4225 46.5332H98.2207C98.2207 47.0298 98.2207 47.1869 98.2207 47.4886C98.2333 47.8595 98.491 48.0041 98.6293 48.0041H99.1196V48.7206H98.579L98.5853 48.7332Z" fill="#243770"/>
<path d="M103.332 48.7341H99.0322V48.0176H102.999C103.087 48.0176 103.143 47.9798 103.143 47.8478V47.8038H102.741C102.093 47.8038 101.697 47.257 101.716 46.729C101.76 45.2141 103.91 45.2456 103.929 46.5656C103.929 47.0684 103.929 47.6718 103.929 48.1684C103.929 48.5204 103.709 48.7404 103.325 48.7404L103.332 48.7341ZM102.018 45.1198V44.4473H102.697V45.1198H102.018ZM103.137 46.509C103.137 46.377 103.074 46.1884 102.854 46.1884C102.389 46.1884 102.345 47.0998 102.829 47.0998H103.143C103.143 46.9113 103.143 46.7101 103.143 46.5153L103.137 46.509ZM102.986 45.1198V44.4473H103.671V45.1198H102.986Z" fill="#243770"/>
<path d="M3.68989 42.4735C3.23103 42.4735 3.00475 42.0649 2.99218 41.9203H2.48932C1.83561 41.9203 1.65332 41.2541 1.65332 40.9586C1.65332 40.1918 2.16875 39.9529 2.52703 39.9529C2.70932 39.9529 2.85389 39.9906 2.97332 40.1038V39.9529H3.72761V41.5181C3.72761 41.6438 3.79046 41.7821 3.97903 41.7821H7.17846V42.4735H3.68361H3.68989ZM2.03046 39.5381V38.8906H2.69046V39.5381H2.03046ZM2.97332 40.7575C2.87275 40.6443 2.82246 40.6129 2.67161 40.6129C2.55846 40.6129 2.42018 40.6946 2.40761 40.9523C2.39503 41.0529 2.46418 41.2855 2.64018 41.2855H2.97961V40.7575H2.97332ZM2.95446 39.5381V38.8906H3.61446V39.5381H2.95446Z" fill="#243770"/>
<path d="M9.17768 42.4729C8.88225 42.4729 8.70625 42.2843 8.61825 42.146C8.46739 42.3535 8.20339 42.4729 7.94568 42.4729C7.63768 42.4729 7.39253 42.4729 7.09082 42.4729V41.7815H7.72568C7.87025 41.7815 8.07139 41.6935 8.07139 41.4986L8.05882 40.3672H8.81939C8.81939 40.6626 8.81939 40.9895 8.83196 41.2849C8.83196 41.6306 9.08968 41.7752 9.22168 41.7752H9.73711V42.4666H9.17768V42.4729ZM7.67539 43.554V42.9066H8.33539V43.554H7.67539ZM8.60568 43.554V42.9066H9.26568V43.554H8.60568Z" fill="#243770"/>
<path d="M14.3134 42.4727C14.018 42.4727 13.842 42.2841 13.754 42.1458C13.6031 42.3533 13.3391 42.4727 13.0814 42.4727C12.7734 42.4727 9.95113 42.4727 9.64941 42.4727V41.7813H12.8677C13.0123 41.7813 13.2134 41.6933 13.2134 41.4984L13.2008 40.367H13.9614C13.9614 40.6624 13.9614 40.9893 13.974 41.2847C13.974 41.6304 14.2317 41.775 14.3637 41.775H17.4626V42.4664H14.3197L14.3134 42.4727ZM13.2323 39.9521V39.3047H13.8923V39.9521H13.2323Z" fill="#243770"/>
<path d="M19.8818 42.4729C19.5675 42.4729 19.2595 42.4101 18.9766 42.3095C18.7001 42.4164 18.4046 42.4729 18.0903 42.4729H17.3486V41.7815H17.7949C17.9395 41.7815 18.0715 41.7815 18.1972 41.7564C17.9709 41.5049 17.8892 41.2409 17.8892 41.0272C17.8892 40.3861 18.4109 40.0529 18.9766 40.0529C19.5423 40.0529 20.0578 40.3861 20.0578 41.0272C20.0578 41.2409 19.9761 41.4987 19.7561 41.7564C19.9132 41.7815 20.0201 41.7815 20.1646 41.7815H23.1692V42.4729H19.8755H19.8818ZM18.6246 39.6318V38.9844H19.2846V39.6318H18.6246ZM18.9766 40.6312C18.7566 40.6312 18.6309 40.8009 18.6309 41.0209C18.6309 41.3604 18.9515 41.5741 18.9766 41.5741C19.0018 41.5741 19.3223 41.3729 19.3223 41.0209C19.3223 40.8009 19.2029 40.6312 18.9766 40.6312Z" fill="#243770"/>
<path d="M23.9305 42.4735H23.0693V41.7821H23.7168C23.8802 41.7821 23.9933 41.7003 23.9933 41.5181C23.9933 41.1346 23.9745 39.2678 23.9745 38.8906H24.7413C24.7413 39.5255 24.7602 41.1598 24.7602 41.7003C24.7602 42.1718 24.471 42.4735 23.9305 42.4735Z" fill="#243770"/>
<path d="M25.4949 42.4735L25.4697 38.8906H26.2303L26.2554 42.4735H25.4949Z" fill="#243770"/>
<path d="M29.8383 42.4735C29.3795 42.4735 29.1532 42.0649 29.1406 41.9203H28.6378C27.984 41.9203 27.8018 41.2541 27.8018 40.9586C27.8018 40.1918 28.3172 39.9529 28.6755 39.9529C28.8578 39.9529 29.0023 39.9906 29.1218 40.1038V39.9529H29.876V41.5181C29.876 41.6438 29.9389 41.7821 30.1275 41.7821H33.5532V42.4735H29.832H29.8383ZM28.1852 39.5381V38.8906H28.8452V39.5381H28.1852ZM29.128 40.7575C29.0275 40.6443 28.9772 40.6129 28.8263 40.6129C28.7132 40.6129 28.5749 40.6946 28.5623 40.9523C28.5498 41.0529 28.6189 41.2855 28.7949 41.2855H29.1343V40.7575H29.128ZM29.1092 39.5381V38.8906H29.7692V39.5381H29.1092Z" fill="#243770"/>
<path d="M34.3201 42.4725H33.459V41.781H34.1064C34.2698 41.781 34.383 41.6993 34.383 41.517C34.383 41.1336 34.383 40.7502 34.3704 40.373H35.131C35.131 41.0016 35.1436 41.1588 35.1436 41.693C35.1436 42.1645 34.8544 42.4662 34.3138 42.4662L34.3201 42.4725ZM33.4967 43.5536V42.9062H34.1504V43.5536H33.4967ZM34.4207 43.5536V42.9062H35.0744V43.5536H34.4207Z" fill="#243770"/>
<path d="M36.3574 41.9948V40.373H37.1116L37.1305 41.9319C37.0928 42.881 36.5334 43.5662 35.5716 43.6479C35.3454 43.4028 35.3076 43.321 35.0625 43.057C35.6219 43.013 36.3574 42.6296 36.3574 41.9948Z" fill="#243770"/>
<path d="M38.5134 42.4735C38.1802 42.4735 37.866 42.2346 37.8597 41.7758L37.8408 38.8906H38.5951L38.614 41.5369C38.614 41.6941 38.6894 41.7632 38.7962 41.7821H39.4122V42.4735H38.5197H38.5134Z" fill="#243770"/>
<path d="M39.3047 42.4725V41.781H41.6995C41.5675 41.3285 41.2344 41.0582 40.851 41.0582C40.3607 41.0582 40.1155 41.3033 40.1155 41.3033L39.8138 40.7565C39.9081 40.6433 40.235 40.373 40.851 40.373C41.7498 40.373 42.2401 41.0268 42.4224 41.781H45.7915V42.4725H39.311H39.3047ZM40.5493 43.5536V42.9062H41.2093V43.5536H40.5493Z" fill="#243770"/>
<path d="M47.7841 42.4727C47.4887 42.4727 47.3127 42.2841 47.2247 42.1458C47.0738 42.3533 46.8098 42.4727 46.5521 42.4727C46.2441 42.4727 45.999 42.4727 45.6973 42.4727V41.7813H46.3321C46.4767 41.7813 46.6778 41.6933 46.6778 41.4984L46.6653 40.367H47.4258C47.4258 40.6624 47.4258 40.9893 47.4384 41.2847C47.4384 41.6304 47.6961 41.775 47.8281 41.775H48.3436V42.4664H47.7841V42.4727ZM46.2441 39.9521V39.3047H46.9041V39.9521H46.2441ZM47.1744 39.9521V39.3047H47.8344V39.9458H47.1744V39.9521Z" fill="#243770"/>
<path d="M51.9077 42.4735H48.2432V41.7821H51.694C51.8574 41.7821 51.9706 41.7003 51.9706 41.5181C51.9706 41.1346 51.9517 39.2678 51.9517 38.8906H52.7186C52.7186 39.5255 52.7375 41.1598 52.7375 41.7003C52.7375 42.1718 52.4483 42.4735 51.9077 42.4735Z" fill="#243770"/>
<path d="M53.4734 42.4735L53.4482 38.8906H54.2088L54.234 42.4735H53.4734Z" fill="#243770"/>
<path d="M59.0551 42.4718H57.358C56.0694 42.4718 55.7803 41.3089 55.7803 40.3723H56.5346C56.5346 41.1329 56.7357 41.7803 57.3894 41.7803H58.766C58.8477 41.7803 58.898 41.7363 58.898 41.5792C58.8854 41.0638 58.8791 40.9758 58.8728 40.366H59.6334C59.646 40.9443 59.646 41.3718 59.646 41.8746C59.646 42.2958 59.3694 42.4655 59.0551 42.4655V42.4718ZM56.9368 40.2466V39.6055H57.5906V40.2466H56.9368ZM57.8608 40.2466V39.6055H58.5208V40.2466H57.8608Z" fill="#243770"/>
<path d="M60.8836 42.4735H60.2236V41.7821H60.6573C61.0282 41.7821 61.6128 41.6501 61.6128 41.1095C61.6128 41.1095 61.6128 41.0466 61.5876 38.8906H62.3545C62.3796 41.1723 62.3796 41.3609 62.3796 41.3609C62.3796 42.0335 61.7322 42.4735 60.8836 42.4735ZM60.5442 41.4238H60.3493L60.3179 38.8906H61.0722L61.0973 41.2101C60.9653 41.3986 60.7705 41.4175 60.5442 41.4175V41.4238Z" fill="#243770"/>
<path d="M63.7624 42.4735C63.4293 42.4735 63.115 42.2346 63.1087 41.7758L63.0898 38.8906H63.8441L63.863 41.5369C63.863 41.6941 63.9384 41.7632 64.0453 41.7821H67.3516V42.4735H63.7687H63.7624Z" fill="#243770"/>
<path d="M67.2451 42.4729V41.7814H69.7594C69.5834 41.0397 68.7097 40.8637 67.9931 41.354L67.7103 40.7946L69.2817 39.2734L69.8034 39.77L69.1308 40.4112C70.2057 40.4992 70.5388 41.5112 70.5388 42.4729H67.2451Z" fill="#243770"/>
<path d="M73.2796 42.4725C73.0848 43.1199 72.563 43.5913 71.815 43.6542C71.5888 43.409 71.5385 43.321 71.2996 43.0633C71.6956 43.0382 72.2362 42.8119 72.4625 42.4725H72.1922C71.6013 42.4725 71.2305 41.9382 71.2305 41.4479C71.2305 40.6119 71.8968 40.373 72.3116 40.373C72.431 40.373 73.2985 40.4296 73.355 41.2468C73.355 41.2719 73.355 41.3788 73.355 41.781H73.9962V42.4725H73.2796ZM72.5945 41.3348C72.5945 41.1336 72.563 40.9325 72.3053 40.9325C72.0728 40.9325 71.947 41.1588 71.947 41.3788C71.947 41.5988 72.0539 41.7873 72.2865 41.7873H72.5945V41.3348Z" fill="#243770"/>
<path d="M78.7985 42.472C78.5031 42.472 78.3271 42.2834 78.2391 42.1451C78.0882 42.3525 77.8242 42.472 77.5665 42.472H73.9082V41.7805H77.3465C77.4911 41.7805 77.6922 41.6925 77.6922 41.4977L77.6796 38.8828H78.4402C78.4402 39.1782 78.4402 40.9885 78.4528 41.284C78.4528 41.6297 78.7105 41.7742 78.8425 41.7742H79.3579V42.4657H78.7985V42.472Z" fill="#243770"/>
<path d="M82.9282 42.4735H79.2637V41.7821H82.7145C82.878 41.7821 82.9911 41.7003 82.9911 41.5181C82.9911 41.1346 82.9722 39.2678 82.9722 38.8906H83.7391C83.7391 39.5255 83.758 41.1598 83.758 41.7003C83.758 42.1718 83.4688 42.4735 82.9282 42.4735Z" fill="#243770"/>
<path d="M87.2644 42.4725C87.1136 42.4725 86.9879 42.4222 86.8936 42.353C86.749 43.0822 86.1833 43.585 85.3724 43.6479C85.1461 43.4028 85.1084 43.321 84.8633 43.057C85.4227 43.013 86.1644 42.6296 86.1581 41.9948L86.1393 40.373H86.9061L86.9187 41.3033C86.9187 41.6365 87.1827 41.781 87.3084 41.781H90.6336V42.4725H87.2581H87.2644Z" fill="#243770"/>
<path d="M90.5332 42.4733V41.7819H91.3943V40.8453H92.1486V41.7002C92.6704 40.5562 93.5503 40.3362 93.9086 40.3802C94.7572 40.4619 95.0338 41.103 95.1218 41.7882H98.6166V42.4796H90.5332V42.4733ZM93.7578 41.0402C93.5063 41.0402 93.0915 41.2099 92.7143 41.7882H94.3801C94.3612 41.455 94.2166 41.0402 93.7578 41.0402Z" fill="#243770"/>
<path d="M100.565 42.4727C100.27 42.4727 100.094 42.2841 100.006 42.1458C99.8548 42.3533 99.5908 42.4727 99.3331 42.4727C99.0251 42.4727 95.9765 42.4727 95.6748 42.4727V41.7813H99.1131C99.2577 41.7813 99.4588 41.6933 99.4588 41.4984L99.4462 40.367H100.207C100.207 40.6624 100.207 40.9893 100.219 41.2847C100.219 41.6304 100.477 41.775 100.609 41.775H103.928V42.4664H100.565V42.4727ZM99.4902 39.9521V39.3047H100.15V39.9521H99.4902Z" fill="#243770"/>
<mask id="mask0_153_17874" style="mask-type:luminance" maskUnits="userSpaceOnUse" x="58" y="13" width="7" height="17">
<path d="M64.6176 13.9668L58.4199 13.9731V29.1845L64.6176 21.6165V13.9668Z" fill="white"/>
</mask>
<g mask="url(#mask0_153_17874)">
<path d="M110.001 0H0.000976562V34.5714H110.001V0Z" fill="url(#paint0_linear_153_17874)"/>
</g>
<mask id="mask1_153_17874" style="mask-type:luminance" maskUnits="userSpaceOnUse" x="53" y="6" width="24" height="7">
<path d="M58.9981 6.50586L53.9004 12.6784H71.9404L77.0004 6.50586H58.9981Z" fill="white"/>
</mask>
<g mask="url(#mask1_153_17874)">
<path d="M110 0H0V34.5714H110V0Z" fill="url(#paint1_linear_153_17874)"/>
</g>
<mask id="mask2_153_17874" style="mask-type:luminance" maskUnits="userSpaceOnUse" x="73" y="6" width="36" height="28">
<path d="M90.7037 11.4087C90.4899 11.1384 90.2574 10.8807 90.0248 10.6293C88.5728 9.07672 86.7939 7.92015 84.8328 7.235C83.4625 6.75729 82.0042 6.50586 80.5082 6.50586H78.7231L73.6631 12.6784H80.5082C82.6139 12.6784 84.2294 13.6213 85.5431 15.2619L85.7505 15.5259L100.176 33.0504H108.14L90.7037 11.4087Z" fill="white"/>
</mask>
<g mask="url(#mask2_153_17874)">
<path d="M110.001 0H0.000976562V34.5714H110.001V0Z" fill="url(#paint2_linear_153_17874)"/>
</g>
<mask id="mask3_153_17874" style="mask-type:luminance" maskUnits="userSpaceOnUse" x="56" y="13" width="39" height="21">
<path d="M91.3 24.1999L89.5777 22.1571H74.0332L79.3195 15.6011L79.112 15.3371C79.112 15.3371 79.0995 15.3182 79.0932 15.3119C78.4206 14.4634 77.4023 13.9668 76.3275 13.9668H72.6189L56.9863 33.0502H65.3338L69.0863 28.3548H94.7132L91.3126 24.1999H91.3Z" fill="white"/>
</mask>
<g mask="url(#mask3_153_17874)">
<path d="M110 0H0V34.5714H110V0Z" fill="url(#paint3_linear_153_17874)"/>
</g>
<mask id="mask4_153_17874" style="mask-type:luminance" maskUnits="userSpaceOnUse" x="44" y="13" width="7" height="17">
<path d="M44.7549 13.9668L50.9526 13.9731V29.1845L44.7549 21.6165V13.9668Z" fill="white"/>
</mask>
<g mask="url(#mask4_153_17874)">
<path d="M110.001 0H0.000976562V34.5714H110.001V0Z" fill="url(#paint4_linear_153_17874)"/>
</g>
<mask id="mask5_153_17874" style="mask-type:luminance" maskUnits="userSpaceOnUse" x="32" y="6" width="26" height="7">
<path d="M57.2824 6.50586L52.1155 12.6784H37.4321L32.3721 6.50586H57.2824Z" fill="white"/>
</mask>
<g mask="url(#mask5_153_17874)">
<path d="M110.001 0H0.000976562V34.5714H110.001V0Z" fill="url(#paint5_linear_153_17874)"/>
</g>
<mask id="mask6_153_17874" style="mask-type:luminance" maskUnits="userSpaceOnUse" x="1" y="6" width="35" height="28">
<path d="M18.669 11.4087C18.8827 11.1384 19.1153 10.8807 19.3479 10.6293C20.7999 9.07672 22.5787 7.92015 24.5399 7.235C25.9101 6.75729 27.3684 6.50586 28.8644 6.50586H30.6496L35.7096 12.6784H28.921H28.8644C26.7587 12.6784 25.1433 13.6213 23.8296 15.2619L23.6221 15.5259L9.19642 33.0504H1.23242L18.669 11.4087Z" fill="white"/>
</mask>
<g mask="url(#mask6_153_17874)">
<path d="M110 0H0V34.5714H110V0Z" fill="url(#paint6_linear_153_17874)"/>
</g>
<mask id="mask7_153_17874" style="mask-type:luminance" maskUnits="userSpaceOnUse" x="14" y="13" width="39" height="21">
<path d="M18.0715 24.1999L19.7938 22.1571H35.3383L30.052 15.6011L30.2595 15.3371C30.2595 15.3371 30.272 15.3182 30.2783 15.3119C30.9509 14.4634 31.9692 13.9668 33.044 13.9668H36.7526L52.3852 33.0502H44.0378L40.2852 28.3548H14.6709L18.0715 24.1999Z" fill="white"/>
</mask>
<g mask="url(#mask7_153_17874)">
<path d="M110 0H0V34.5714H110V0Z" fill="url(#paint7_linear_153_17874)"/>
</g>
</g>
<defs>
<linearGradient id="paint0_linear_153_17874" x1="0.000976562" y1="17.2857" x2="110.001" y2="17.2857" gradientUnits="userSpaceOnUse">
<stop stop-color="#111D2F"/>
<stop offset="0.5" stop-color="#223F7D"/>
<stop offset="0.98" stop-color="#111E31"/>
<stop offset="1" stop-color="#111D2F"/>
</linearGradient>
<linearGradient id="paint1_linear_153_17874" x1="0" y1="17.2857" x2="110" y2="17.2857" gradientUnits="userSpaceOnUse">
<stop stop-color="#111D2F"/>
<stop offset="0.5" stop-color="#223F7D"/>
<stop offset="0.98" stop-color="#111E31"/>
<stop offset="1" stop-color="#111D2F"/>
</linearGradient>
<linearGradient id="paint2_linear_153_17874" x1="0.000976562" y1="17.2857" x2="110.001" y2="17.2857" gradientUnits="userSpaceOnUse">
<stop stop-color="#111D2F"/>
<stop offset="0.5" stop-color="#223F7D"/>
<stop offset="0.98" stop-color="#111E31"/>
<stop offset="1" stop-color="#111D2F"/>
</linearGradient>
<linearGradient id="paint3_linear_153_17874" x1="0" y1="17.2857" x2="110" y2="17.2857" gradientUnits="userSpaceOnUse">
<stop stop-color="#111D2F"/>
<stop offset="0.5" stop-color="#223F7D"/>
<stop offset="0.98" stop-color="#111E31"/>
<stop offset="1" stop-color="#111D2F"/>
</linearGradient>
<linearGradient id="paint4_linear_153_17874" x1="0.000976562" y1="17.2857" x2="110.001" y2="17.2857" gradientUnits="userSpaceOnUse">
<stop stop-color="#111D2F"/>
<stop offset="0.5" stop-color="#223F7D"/>
<stop offset="0.98" stop-color="#111E31"/>
<stop offset="1" stop-color="#111D2F"/>
</linearGradient>
<linearGradient id="paint5_linear_153_17874" x1="0.000976562" y1="17.2857" x2="110.001" y2="17.2857" gradientUnits="userSpaceOnUse">
<stop stop-color="#111D2F"/>
<stop offset="0.5" stop-color="#223F7D"/>
<stop offset="0.98" stop-color="#111E31"/>
<stop offset="1" stop-color="#111D2F"/>
</linearGradient>
<linearGradient id="paint6_linear_153_17874" x1="0" y1="17.2857" x2="110" y2="17.2857" gradientUnits="userSpaceOnUse">
<stop stop-color="#111D2F"/>
<stop offset="0.5" stop-color="#223F7D"/>
<stop offset="0.98" stop-color="#111E31"/>
<stop offset="1" stop-color="#111D2F"/>
</linearGradient>
<linearGradient id="paint7_linear_153_17874" x1="0" y1="17.2857" x2="110" y2="17.2857" gradientUnits="userSpaceOnUse">
<stop stop-color="#111D2F"/>
<stop offset="0.5" stop-color="#223F7D"/>
<stop offset="0.98" stop-color="#111E31"/>
<stop offset="1" stop-color="#111D2F"/>
</linearGradient>
<clipPath id="clip0_153_17874">
<rect width="110" height="63.7309" fill="white"/>
</clipPath>
</defs>
</svg>
