<svg width="22" height="16" viewBox="0 0 22 16" fill="none" xmlns="http://www.w3.org/2000/svg">
<path d="M1 10.5013C1 11.0922 1.1164 11.6774 1.34254 12.2234C1.56869 12.7693 1.90016 13.2654 2.31802 13.6833C3.16193 14.5272 4.30653 15.0013 5.5 15.0013H17.5C18.386 15.0029 19.2396 14.6684 19.8886 14.0654C20.5377 13.4623 20.9339 12.6356 20.9973 11.7519C21.0608 10.8682 20.7867 9.99335 20.2304 9.30378C19.6742 8.61421 18.8771 8.16126 18 8.03629C18.0098 6.33505 17.3996 4.68849 16.2837 3.40438C15.1677 2.12028 13.6223 1.28653 11.9363 1.059C10.2503 0.831466 8.5392 1.22572 7.12277 2.16806C5.70633 3.1104 4.68156 4.53633 4.24 6.17929C3.30512 6.4523 2.48398 7.02112 1.8998 7.80039C1.31562 8.57966 0.999892 9.52736 1 10.5013Z" stroke="#404040" stroke-width="1.5" stroke-linejoin="round"/>
<path d="M9 9L11 11M11 11L13 9M11 11V5" stroke="#404040" stroke-width="1.5" stroke-linecap="round" stroke-linejoin="round"/>
</svg>
