<svg width="111" height="70" viewBox="0 0 111 70" fill="none" xmlns="http://www.w3.org/2000/svg">
<g clip-path="url(#clip0_153_17754)">
<path d="M4.7903 55.1497C3.82664 55.1497 3.34157 54.3025 3.32217 53.9985H2.26796C0.890374 53.9985 0.508789 52.608 0.508789 51.9871C0.508789 50.3896 1.6018 49.8981 2.34557 49.8981C2.72716 49.8981 3.0376 49.9757 3.28983 50.2085V49.8981H4.88732L4.90025 53.1577C4.90025 53.4229 5.01667 53.7074 5.41766 53.7074H6.73057V55.1432H4.80324L4.7903 55.1497ZM1.29783 49.0249V47.6797H2.68835V49.0249H1.29783ZM3.28337 51.5602C3.06347 51.3339 2.95999 51.2627 2.64955 51.2627C2.41025 51.2627 2.11921 51.4373 2.08687 51.9741C2.06747 52.1811 2.20329 52.6662 2.5784 52.6662H3.28983L3.2769 51.5602H3.28337ZM3.25103 49.0249V47.6797H4.64155V49.0249H3.25103Z" fill="#253169"/>
<path d="M6.51074 55.1506V53.7148H9.15597V55.1506H6.51074Z" fill="#253169"/>
<path d="M13.3601 55.15C12.7392 55.15 12.3576 54.762 12.1765 54.4709C11.8531 54.9042 11.3034 55.15 10.7537 55.15C10.1069 55.1629 9.59597 55.15 8.94922 55.15V53.7142H10.2945C10.6049 53.7142 11.0318 53.5331 11.0318 53.1257L11.0124 50.7715H12.6228C12.6357 51.3924 12.6357 52.0715 12.6487 52.6923C12.6616 53.4167 13.1855 53.7142 13.4636 53.7142H14.5566V55.15H13.373H13.3601ZM10.2039 57.4007V56.0555H11.5944V57.4007H10.2039ZM12.1571 57.4007V56.0555H13.5476V57.4007H12.1571Z" fill="#253169"/>
<path d="M16.1533 55.151H14.3359V53.7153H15.7006C16.0434 53.7153 16.2891 53.5406 16.2891 53.1655C16.2891 52.3635 16.2568 48.4765 16.2439 47.6875H17.8607C17.8737 49.0069 17.8931 52.4217 17.8931 53.5471C17.8931 54.5237 17.2851 55.1575 16.1469 55.1575L16.1533 55.151Z" fill="#253169"/>
<path d="M21.9418 55.1494H21.3661C20.1244 55.1494 19.3418 54.037 19.3418 53.0151C19.3418 51.2689 20.7453 50.7773 21.6184 50.7773C21.8706 50.7773 23.8109 50.8938 23.8109 52.6012V52.7952C23.8109 52.9763 23.8238 53.3126 23.8238 53.9076C23.8238 55.835 22.6273 57.4324 20.5706 57.6071C20.0985 57.0897 19.9821 56.915 19.4776 56.3782C20.3184 56.32 21.4567 55.8479 21.9353 55.1494H21.9418ZM22.2199 52.4912C22.2199 52.239 22 51.9286 21.6119 51.9286C21.1204 51.9286 20.8681 52.4007 20.8681 52.8599C20.8681 53.3191 21.0945 53.7136 21.5666 53.7136H22.2199V52.4977V52.4912Z" fill="#253169"/>
<path d="M25.2148 55.1488L25.9974 53.713H29.076C28.9466 52.6911 28.0541 52.1479 27.5044 52.1479V50.7832C29.2377 50.7832 30.3436 51.7921 30.6864 53.713H31.9605V55.1488H25.2148Z" fill="#253169"/>
<path d="M33.5576 55.151H31.7402V53.7153H33.1049C33.4477 53.7153 33.6934 53.5406 33.6934 53.1655C33.6934 52.3635 33.6611 48.4765 33.6482 47.6875H35.265C35.278 49.0069 35.2974 52.4217 35.2974 53.5471C35.2974 54.5237 34.6894 55.1575 33.5511 55.1575L33.5576 55.151Z" fill="#253169"/>
<path d="M36.8561 55.151L36.7979 47.6875H38.4083L38.4665 55.151H36.8561Z" fill="#253169"/>
<path d="M48.2973 55.1498C47.2949 55.1498 46.7904 54.6776 46.5188 54.1473H44.3457C43.6537 54.1473 43.2979 54.5289 43.2979 55.1498C43.2979 55.7707 43.8477 56.1587 44.3457 56.1587H46.0596V57.5945H44.0805C42.677 57.5945 41.7393 56.4886 41.7393 55.1562C41.7393 53.9274 42.6124 52.7115 44.0805 52.7115H45.9884C45.7685 51.6573 45.0377 51.4568 44.5526 51.4503C43.977 51.4503 43.4402 51.8643 43.2527 52.0259L42.6641 50.8294C42.6641 50.8294 43.5114 50.0469 44.6949 50.0469C46.6481 50.0469 47.3013 51.4568 47.5794 52.7956C47.7153 53.4035 48.1745 53.714 48.7501 53.714C49.4162 53.714 48.8277 53.714 49.2416 53.714L49.2545 55.1498H48.2909H48.2973ZM44.4686 55.8353V54.4901H45.8591V55.8353H44.4686Z" fill="#253169"/>
<path d="M48.9639 55.1506V53.7148H51.6091V55.1506H48.9639Z" fill="#253169"/>
<path d="M51.3955 55.1506V53.7148H54.0407V55.1506H51.3955Z" fill="#253169"/>
<path d="M58.2448 55.15C57.624 55.15 57.2424 54.762 57.0613 54.4709C56.7379 54.9042 56.1882 55.15 55.6384 55.15C54.9981 55.1629 54.4807 55.15 53.834 55.15V53.7142H55.1792C55.4897 53.7142 55.9165 53.5331 55.9165 53.1257L55.8907 50.7715H57.5011C57.514 51.3924 57.514 52.0715 57.527 52.6923C57.5399 53.4167 58.0638 53.7142 58.3419 53.7142H59.4349V55.15H58.2513H58.2448ZM55.0822 57.4007V56.0555H56.4727V57.4007H55.0822ZM57.0354 57.4007V56.0555H58.4259V57.4007H57.0354Z" fill="#253169"/>
<path d="M63.6316 55.1497C63.0107 55.1497 62.6291 54.7616 62.448 54.4706C62.1246 54.9039 61.5749 55.1497 61.0251 55.1497H59.2207V53.7139H60.566C60.8764 53.7139 61.3033 53.5328 61.3033 53.1254L61.2839 47.6797H62.8943C62.9072 48.3006 62.9072 52.0647 62.9201 52.6856C62.9331 53.4099 63.4569 53.7074 63.735 53.7074H64.8281V55.1432H63.6445L63.6316 55.1497Z" fill="#253169"/>
<path d="M64.6084 55.1501V53.7143H69.6531C69.375 52.7701 68.6765 52.2074 67.8616 52.2074C66.8268 52.2074 66.3094 52.7248 66.3094 52.7248L65.6755 51.5865C65.8696 51.3601 66.5616 50.7845 67.8551 50.7845C69.7501 50.7845 70.7849 52.1492 71.1665 53.7143H72.363V55.1501H64.6084ZM67.1437 49.8726V48.5273H68.5342V49.8726H67.1437Z" fill="#253169"/>
<path d="M73.9805 55.151H72.1631V53.7153H73.5277C73.8705 53.7153 74.1163 53.5406 74.1163 53.1655C74.1163 52.3635 74.0839 48.4765 74.071 47.6875H75.6879C75.7008 49.0069 75.7202 52.4217 75.7202 53.5471C75.7202 54.5237 75.1123 55.1575 73.974 55.1575L73.9805 55.151Z" fill="#253169"/>
<path d="M77.2789 55.151L77.2207 47.6875H78.8311L78.8893 55.151H77.2789Z" fill="#253169"/>
<path d="M91.3517 55.1492C90.3298 55.1492 89.9029 54.496 89.5796 53.7263C89.2109 52.8532 88.6612 52.0836 87.8204 52.0965C87.2254 52.0965 86.8438 52.4393 86.6627 52.8791H88.7905V54.3925C88.7905 56.1969 87.3418 57.6521 85.5503 57.6521C83.7588 57.6521 82.3101 56.184 82.2971 54.3925C82.2971 54.0627 82.2971 53.5905 82.2842 52.8791H83.8817C83.8946 53.6164 83.8946 54.095 83.8946 54.3925C83.8946 55.5502 84.8583 56.0935 85.5244 56.0935C86.2811 56.0935 87.2254 55.5567 87.193 54.3925V54.3214L84.7354 54.3084C84.7354 51.8055 85.9901 50.5508 87.7687 50.5508C89.6507 50.5508 90.3298 51.812 91.0283 53.1572C91.2029 53.4676 91.3517 53.7069 91.8303 53.7069H92.3347V55.1427H91.3452L91.3517 55.1492ZM83.72 59.8899V58.5576H85.1105V59.8899H83.72ZM85.6732 59.8899V58.5576H87.0637V59.8899H85.6732Z" fill="#253169"/>
<path d="M92.1348 55.1506V53.7148H94.78V55.1506H92.1348Z" fill="#253169"/>
<path d="M94.5664 55.1506V53.7148H97.2116V55.1506H94.5664Z" fill="#253169"/>
<path d="M101.416 55.15C100.795 55.15 100.413 54.762 100.232 54.4709C99.9088 54.9042 99.3591 55.15 98.8093 55.15C98.1626 55.1629 97.6516 55.15 97.0049 55.15V53.7142H98.3501C98.6606 53.7142 99.0874 53.5331 99.0874 53.1257L99.068 50.7715H100.678C100.691 51.3924 100.691 52.0715 100.704 52.6923C100.717 53.4167 101.241 53.7142 101.519 53.7142H102.612V55.15H101.429H101.416ZM99.1974 57.4007V56.0555H100.588V57.4007H99.1974Z" fill="#253169"/>
<path d="M102.405 55.1494V53.7136H103.945L103.925 48.3262H105.464L105.406 51.6117C106.292 50.9455 107.243 50.7386 107.728 50.7838C110.128 51.0167 110.347 53.3579 110.347 55.1494H102.412H102.405ZM107.385 52.1485C106.868 52.1485 105.995 52.5042 105.193 53.7136H108.705C108.672 53.0151 108.362 52.1485 107.385 52.1485ZM106.719 49.8719V48.5396H108.097V49.8719H106.719Z" fill="#253169"/>
<path d="M5.58539 63.8486H7.21521V66.6944C6.44557 67.2312 5.21674 67.6192 4.2078 67.6192C2.00237 67.6192 0.34668 66.0347 0.34668 63.9327C0.34668 61.8308 2.04764 60.2656 4.33069 60.2656C5.41077 60.2656 6.55552 60.6795 7.29929 61.3392L6.22568 62.6586C5.70827 62.1735 4.97744 61.8631 4.31775 61.8631C3.15359 61.8631 2.28048 62.7621 2.28048 63.9327C2.28048 65.1033 3.16653 66.0153 4.33715 66.0153C4.69934 66.0153 5.15206 65.8924 5.58539 65.6725V63.8486Z" fill="#253169"/>
<path d="M14.4909 61.9668V67.5418H12.6606V66.6364C12.279 67.2831 11.6711 67.613 10.882 67.6259C9.67906 67.6259 8.89648 66.7916 8.89648 65.4916V61.9668H10.7268V64.9613C10.7268 65.5886 11.076 65.9702 11.6258 65.9702C12.2725 65.9573 12.6671 65.4463 12.6671 64.7155V61.9668H14.4974H14.4909Z" fill="#253169"/>
<path d="M18.3782 59.8984V67.5431H16.5479V59.8984H18.3782Z" fill="#253169"/>
<path d="M22.5819 61.8698V62.232H23.8172V63.4479H22.5819V67.5354H20.758V63.4479H20.0078V62.232H20.758V61.7146C20.758 60.4858 21.6829 59.8002 22.8988 59.8067C23.455 59.8067 24.063 59.949 24.4834 60.1947L23.8431 61.4947C23.649 61.3524 23.3968 61.2684 23.2028 61.2684C22.8406 61.2684 22.5754 61.4624 22.5754 61.8634L22.5819 61.8698Z" fill="#253169"/>
<path d="M35.685 63.9188C35.685 66.0725 34.1069 67.5342 31.7722 67.5342H28.7324V60.3164H31.8433C34.1328 60.3164 35.685 61.7781 35.685 63.9188ZM33.7577 63.9447C33.7577 62.6965 32.9428 61.8557 31.798 61.8557H30.6145V66.0143H31.8886C32.9816 66.0143 33.7512 65.18 33.7512 63.9447H33.7577Z" fill="#253169"/>
<path d="M42.9807 64.024V67.5359H41.144V64.5479C41.144 63.9205 40.7818 63.526 40.1997 63.526C39.5206 63.5389 39.1067 64.0499 39.1067 64.7807V67.5294H37.2764V59.8848H39.1067V62.8598C39.4947 62.2196 40.135 61.8832 40.9499 61.8832C42.1723 61.8832 42.9807 62.7046 42.9807 64.0175V64.024Z" fill="#253169"/>
<path d="M49.765 63.9138V67.542H47.9606V66.9147C47.5984 67.3804 47.0357 67.6261 46.279 67.6261C45.0825 67.6261 44.3711 66.9018 44.3711 65.8864C44.3711 64.8709 45.1213 64.2177 46.5054 64.1983H47.9606V64.1336C47.9606 63.6098 47.5984 63.2993 46.8999 63.2993C46.4342 63.2993 45.8263 63.4546 45.2313 63.7456L44.7268 62.5103C45.5999 62.1158 46.4084 61.9023 47.3203 61.9023C48.8531 61.9023 49.7521 62.6461 49.7586 63.9202L49.765 63.9138ZM47.967 65.6535V65.1685H46.874C46.3566 65.1685 46.1044 65.356 46.1044 65.7441C46.1044 66.1321 46.3825 66.3714 46.8546 66.3714C47.3979 66.3714 47.8506 66.0739 47.967 65.6471V65.6535Z" fill="#253169"/>
<path d="M57.7199 64.7801C57.7199 66.4811 56.7109 67.5999 55.1652 67.5999C54.4538 67.5999 53.8782 67.3218 53.4836 66.8174V67.5353H51.6533V59.8906H53.4836V62.6846C53.8717 62.1801 54.4279 61.902 55.1199 61.902C56.6721 61.902 57.7134 63.0468 57.7134 64.7736L57.7199 64.7801ZM55.8766 64.7348C55.8766 63.907 55.3916 63.3443 54.6737 63.3443C53.9558 63.3443 53.4901 63.907 53.4901 64.7348C53.4901 65.5627 53.9752 66.1124 54.6737 66.1124C55.3722 66.1124 55.8766 65.5562 55.8766 64.7348Z" fill="#253169"/>
<path d="M61.0895 61.9671V67.5421H59.2656V61.9671H61.0895ZM61.0183 60.4019C61.0183 60.887 60.6691 61.2362 60.184 61.2362C59.6989 61.2362 59.3497 60.887 59.3497 60.4019C59.3497 59.9169 59.6989 59.5547 60.184 59.5547C60.6691 59.5547 61.0183 59.9039 61.0183 60.4019Z" fill="#253169"/>
<path d="M72.3373 60.3164V61.8686H70.1771V67.5342H68.2951V61.8686H66.1543V60.3164H72.3437H72.3373Z" fill="#253169"/>
<path d="M77.1619 61.8945V63.5696C76.14 63.4661 75.4609 63.9189 75.3704 64.695V67.5407H73.54V61.9657H75.3704V62.8905C75.7519 62.2502 76.3793 61.8945 77.1619 61.8945Z" fill="#253169"/>
<path d="M83.3578 63.9138V67.542H81.5534V66.9147C81.1912 67.3804 80.6285 67.6261 79.8718 67.6261C78.6753 67.6261 77.9639 66.9018 77.9639 65.8864C77.9639 64.8709 78.7141 64.2177 80.0982 64.1983H81.5534V64.1336C81.5534 63.6098 81.1912 63.2993 80.4927 63.2993C80.027 63.2993 79.4191 63.4546 78.8241 63.7456L78.3196 62.5103C79.1927 62.1158 80.0011 61.9023 80.9131 61.9023C82.4459 61.9023 83.3449 62.6461 83.3513 63.9202L83.3578 63.9138ZM81.5598 65.6535V65.1685H80.4668C79.9494 65.1685 79.6972 65.356 79.6972 65.7441C79.6972 66.1321 79.9753 66.3714 80.4474 66.3714C80.9907 66.3714 81.4434 66.0739 81.5598 65.6471V65.6535Z" fill="#253169"/>
<path d="M90.8211 59.8984V67.5431H88.9908V66.8252C88.6092 67.3426 88.0465 67.6207 87.3415 67.6207C85.7764 67.6207 84.748 66.4695 84.748 64.7362C84.748 63.0029 85.7699 61.9163 87.3027 61.9163C88.0271 61.9163 88.6027 62.2073 88.9908 62.7118V59.9114H90.8211V59.8984ZM88.9843 64.7814C88.9843 63.9471 88.4992 63.3909 87.7878 63.3909C87.0764 63.3909 86.5848 63.9536 86.5848 64.7814C86.5848 65.6093 87.0699 66.172 87.7878 66.172C88.5057 66.172 88.9843 65.6093 88.9843 64.7814Z" fill="#253169"/>
<path d="M94.6949 61.9671V67.5421H92.8711V61.9671H94.6949ZM94.6238 60.4019C94.6238 60.887 94.2745 61.2362 93.7895 61.2362C93.3044 61.2362 92.9552 60.887 92.9552 60.4019C92.9552 59.9169 93.3044 59.5547 93.7895 59.5547C94.2745 59.5547 94.6238 59.9039 94.6238 60.4019Z" fill="#253169"/>
<path d="M102.385 64.0236V67.5354H100.561V64.5474C100.561 63.9201 100.192 63.5256 99.6167 63.5256C98.9958 63.5385 98.5948 63.9589 98.5237 64.5862V67.529H96.6934V61.954H98.5237V62.8594C98.9117 62.2191 99.552 61.8828 100.367 61.8828C101.583 61.8828 102.385 62.7042 102.385 64.0171V64.0236Z" fill="#253169"/>
<path d="M109.571 61.967V67.044C109.571 68.6221 108.349 69.6117 106.544 69.6117C105.568 69.6117 104.682 69.3012 104.054 68.8938L104.695 67.6261C105.199 67.9754 105.82 68.1694 106.415 68.1694C107.249 68.1694 107.754 67.749 107.754 67.0958V66.5008C107.391 66.9729 106.855 67.2316 106.169 67.2316C104.779 67.2316 103.789 66.158 103.789 64.5411C103.789 62.9242 104.746 61.9023 106.124 61.9023C106.822 61.9023 107.379 62.174 107.754 62.6461V61.967H109.578H109.571ZM107.747 64.5928C107.747 63.8103 107.294 63.2864 106.622 63.2864C105.949 63.2864 105.49 63.8232 105.49 64.5928C105.49 65.3625 105.943 65.8928 106.622 65.8928C107.301 65.8928 107.747 65.356 107.747 64.5928Z" fill="#253169"/>
<path d="M78.2413 10.8789C76.2622 12.9485 73.7528 15.5873 70.5643 16.2858C68.1972 16.8032 64.4395 17.1266 61.7167 18.2519C60.6301 18.6982 59.7117 19.2802 59.1038 20.0434C58.0366 21.4016 58.0431 22.1001 58.3148 22.4623C58.9356 22.6498 59.5501 22.9732 60.0287 23.523C60.352 23.1866 61.8913 21.7573 64.64 21.8091C64.64 21.8091 65.5002 21.4016 65.9853 21.4921C66.0952 21.6215 66.1987 21.7573 66.3022 21.8931C66.2181 22.9473 63.9868 28.0244 60.7789 26.9702C60.0351 30.7601 55.9476 35.9471 55.3332 35.9471C54.7188 35.9471 50.6313 30.7537 49.8875 26.9702C48.607 27.3905 47.4881 26.8343 46.5891 25.9483C45.1274 24.4996 44.2802 22.1777 44.3707 21.7703C44.513 21.1041 46.0264 21.8155 46.0264 21.8155C46.9707 21.7961 47.7727 21.9578 48.4323 22.1842C49.6935 22.6175 50.4243 23.3095 50.6378 23.5294C51.1164 22.9732 51.7243 22.6498 52.3517 22.4687C52.6233 22.1066 52.6298 21.4016 51.5626 20.0499C51.4139 19.8623 51.2457 19.6812 51.0582 19.5131C48.607 17.3076 43.1807 16.9584 40.1086 16.2922C36.9201 15.5937 34.4107 12.9615 32.4316 10.8854C32.5675 11.0018 36.8813 14.837 41.1822 14.9858C43.2001 15.0569 49.7388 15.5808 53.1795 18.2842C54.4795 19.3061 55.3397 20.6384 55.3397 22.3847C55.3397 20.1275 56.7819 18.5559 58.761 17.4564C62.344 15.4709 67.6992 15.0505 69.4907 14.9858C73.7851 14.837 78.1054 11.0083 78.2413 10.8854V10.8789Z" fill="url(#paint0_linear_153_17754)"/>
<path d="M66.3023 21.8932C66.1988 21.7574 66.0953 21.6215 65.9854 21.4922C66.147 21.5181 66.2635 21.6021 66.2958 21.7638C66.2958 21.7962 66.3023 21.835 66.2958 21.8867L66.3023 21.8932Z" fill="url(#paint1_linear_153_17754)"/>
<path d="M81.5271 1.10595V29.1557L80.6734 30.2358C73.9342 31.8203 56.446 37.6799 56.446 45.7191H54.2276C54.2276 37.6734 36.7394 31.8139 30.0002 30.2358L29.1465 29.1557V1.10595L30.2524 0H46.279V2.21837H31.3584V28.289C35.2777 29.298 51.0003 33.78 55.3336 41.6186C59.6604 33.78 75.3894 29.298 79.3088 28.289V2.21837H64.3946V0H80.4212L81.5271 1.10595Z" fill="url(#paint2_linear_153_17754)"/>
</g>
<defs>
<linearGradient id="paint0_linear_153_17754" x1="25.0379" y1="1.42596" x2="61.2221" y2="38.7913" gradientUnits="userSpaceOnUse">
<stop stop-color="#283170"/>
<stop offset="0.49" stop-color="#242A53"/>
<stop offset="0.98" stop-color="#202432"/>
<stop offset="1" stop-color="#202432"/>
</linearGradient>
<linearGradient id="paint1_linear_153_17754" x1="23.7117" y1="-1.18485" x2="59.8899" y2="36.1742" gradientUnits="userSpaceOnUse">
<stop stop-color="#283170"/>
<stop offset="0.49" stop-color="#242A53"/>
<stop offset="0.98" stop-color="#202432"/>
<stop offset="1" stop-color="#202432"/>
</linearGradient>
<linearGradient id="paint2_linear_153_17754" x1="22.3795" y1="2.17273" x2="58.5638" y2="39.538" gradientUnits="userSpaceOnUse">
<stop stop-color="#283170"/>
<stop offset="0.49" stop-color="#242A53"/>
<stop offset="0.98" stop-color="#202432"/>
<stop offset="1" stop-color="#202432"/>
</linearGradient>
<clipPath id="clip0_153_17754">
<rect width="110" height="69.6037" fill="white" transform="translate(0.339844)"/>
</clipPath>
</defs>
</svg>
