<svg width="16" height="16" viewBox="0 0 16 16" fill="none" xmlns="http://www.w3.org/2000/svg">
<path d="M1.33203 1.33203H6.33203V6.33203H1.33203V1.33203ZM9.66536 1.33203H14.6654V6.33203H9.66536V1.33203ZM1.33203 9.66536H6.33203V14.6654H1.33203V9.66536ZM9.66536 12.1654C9.66536 12.8284 9.92876 13.4643 10.3976 13.9331C10.8664 14.402 11.5023 14.6654 12.1654 14.6654C12.8284 14.6654 13.4643 14.402 13.9331 13.9331C14.402 13.4643 14.6654 12.8284 14.6654 12.1654C14.6654 11.5023 14.402 10.8664 13.9331 10.3976C13.4643 9.92876 12.8284 9.66536 12.1654 9.66536C11.5023 9.66536 10.8664 9.92876 10.3976 10.3976C9.92876 10.8664 9.66536 11.5023 9.66536 12.1654Z" stroke="#373737" stroke-width="1.5" stroke-linecap="round" stroke-linejoin="round"/>
</svg>
