<svg width="46" height="46" viewBox="0 0 46 46" fill="none" xmlns="http://www.w3.org/2000/svg">
<path d="M23 29C21.8133 29 20.6533 28.6481 19.6666 27.9888C18.6799 27.3295 17.9109 26.3925 17.4567 25.2961C17.0026 24.1997 16.8838 22.9933 17.1153 21.8295C17.3468 20.6656 17.9182 19.5965 18.7574 18.7574C19.5965 17.9182 20.6656 17.3468 21.8295 17.1153C22.9933 16.8838 24.1997 17.0026 25.2961 17.4567C26.3925 17.9109 27.3295 18.6799 27.9888 19.6666C28.6481 20.6533 29 21.8133 29 23C28.998 24.5907 28.3652 26.1157 27.2405 27.2405C26.1157 28.3652 24.5907 28.998 23 29ZM23 20C22.4067 20 21.8266 20.1759 21.3333 20.5056C20.8399 20.8352 20.4554 21.3038 20.2284 21.852C20.0013 22.4001 19.9419 23.0033 20.0576 23.5853C20.1734 24.1672 20.4591 24.7018 20.8787 25.1213C21.2982 25.5409 21.8328 25.8266 22.4147 25.9424C22.9967 26.0581 23.5999 25.9987 24.1481 25.7716C24.6962 25.5446 25.1648 25.1601 25.4944 24.6667C25.8241 24.1734 26 23.5933 26 23C25.9992 22.2046 25.6829 21.442 25.1204 20.8796C24.558 20.3171 23.7954 20.0008 23 20ZM6.5 29C5.31331 29 4.15328 28.6481 3.16658 27.9888C2.17989 27.3295 1.41085 26.3925 0.956725 25.2961C0.5026 24.1997 0.38378 22.9933 0.615291 21.8295C0.846802 20.6656 1.41825 19.5965 2.25736 18.7574C3.09648 17.9182 4.16558 17.3468 5.32946 17.1153C6.49335 16.8838 7.69975 17.0026 8.7961 17.4567C9.89246 17.9109 10.8295 18.6799 11.4888 19.6666C12.1481 20.6533 12.5 21.8133 12.5 23C12.498 24.5907 11.8652 26.1157 10.7405 27.2405C9.61566 28.3652 8.09069 28.998 6.5 29ZM6.5 20C5.90666 20 5.32664 20.1759 4.83329 20.5056C4.33994 20.8352 3.95543 21.3038 3.72836 21.852C3.5013 22.4001 3.44189 23.0033 3.55765 23.5853C3.6734 24.1672 3.95912 24.7018 4.37868 25.1213C4.79824 25.5409 5.33279 25.8266 5.91473 25.9424C6.49668 26.0581 7.09987 25.9987 7.64805 25.7716C8.19623 25.5446 8.66477 25.1601 8.99441 24.6667C9.32406 24.1734 9.5 23.5933 9.5 23C9.49921 22.2046 9.18288 21.442 8.62045 20.8796C8.05801 20.3171 7.29541 20.0008 6.5 20ZM14 45.5C12.8133 45.5 11.6533 45.1481 10.6666 44.4888C9.67989 43.8295 8.91085 42.8925 8.45673 41.7961C8.0026 40.6997 7.88378 39.4933 8.11529 38.3295C8.3468 37.1656 8.91825 36.0965 9.75736 35.2574C10.5965 34.4182 11.6656 33.8468 12.8295 33.6153C13.9933 33.3838 15.1997 33.5026 16.2961 33.9567C17.3925 34.4109 18.3295 35.1799 18.9888 36.1666C19.6481 37.1533 20 38.3133 20 39.5C19.998 41.0907 19.3652 42.6157 18.2405 43.7405C17.1157 44.8652 15.5907 45.498 14 45.5ZM14 36.5C13.4067 36.5 12.8266 36.6759 12.3333 37.0056C11.8399 37.3352 11.4554 37.8038 11.2284 38.352C11.0013 38.9001 10.9419 39.5033 11.0576 40.0853C11.1734 40.6672 11.4591 41.2018 11.8787 41.6213C12.2982 42.0409 12.8328 42.3266 13.4147 42.4424C13.9967 42.5581 14.5999 42.4987 15.1481 42.2716C15.6962 42.0446 16.1648 41.6601 16.4944 41.1667C16.8241 40.6734 17 40.0933 17 39.5C16.9992 38.7046 16.6829 37.942 16.1204 37.3796C15.558 36.8171 14.7954 36.5008 14 36.5ZM32 45.5C30.8133 45.5 29.6533 45.1481 28.6666 44.4888C27.6799 43.8295 26.9109 42.8925 26.4567 41.7961C26.0026 40.6997 25.8838 39.4933 26.1153 38.3295C26.3468 37.1656 26.9182 36.0965 27.7574 35.2574C28.5965 34.4182 29.6656 33.8468 30.8295 33.6153C31.9933 33.3838 33.1997 33.5026 34.2961 33.9567C35.3925 34.4109 36.3295 35.1799 36.9888 36.1666C37.6481 37.1533 38 38.3133 38 39.5C37.998 41.0907 37.3652 42.6157 36.2405 43.7405C35.1157 44.8652 33.5907 45.498 32 45.5ZM32 36.5C31.4067 36.5 30.8266 36.6759 30.3333 37.0056C29.8399 37.3352 29.4554 37.8038 29.2284 38.352C29.0013 38.9001 28.9419 39.5033 29.0576 40.0853C29.1734 40.6672 29.4591 41.2018 29.8787 41.6213C30.2982 42.0409 30.8328 42.3266 31.4147 42.4424C31.9967 42.5581 32.5999 42.4987 33.1481 42.2716C33.6962 42.0446 34.1648 41.6601 34.4944 41.1667C34.8241 40.6734 35 40.0933 35 39.5C34.9992 38.7046 34.6829 37.942 34.1204 37.3796C33.558 36.8171 32.7954 36.5008 32 36.5ZM39.5 29C38.3133 29 37.1533 28.6481 36.1666 27.9888C35.1799 27.3295 34.4109 26.3925 33.9567 25.2961C33.5026 24.1997 33.3838 22.9933 33.6153 21.8295C33.8468 20.6656 34.4182 19.5965 35.2574 18.7574C36.0965 17.9182 37.1656 17.3468 38.3295 17.1153C39.4933 16.8838 40.6997 17.0026 41.7961 17.4567C42.8925 17.9109 43.8295 18.6799 44.4888 19.6666C45.1481 20.6533 45.5 21.8133 45.5 23C45.498 24.5907 44.8652 26.1157 43.7405 27.2405C42.6157 28.3652 41.0907 28.998 39.5 29ZM39.5 20C38.9067 20 38.3266 20.1759 37.8333 20.5056C37.3399 20.8352 36.9554 21.3038 36.7284 21.852C36.5013 22.4001 36.4419 23.0033 36.5576 23.5853C36.6734 24.1672 36.9591 24.7018 37.3787 25.1213C37.7982 25.5409 38.3328 25.8266 38.9147 25.9424C39.4967 26.0581 40.0999 25.9987 40.6481 25.7716C41.1962 25.5446 41.6648 25.1601 41.9944 24.6667C42.3241 24.1734 42.5 23.5933 42.5 23C42.4992 22.2046 42.1829 21.442 41.6204 20.8796C41.058 20.3171 40.2954 20.0008 39.5 20ZM32 12.5C30.8133 12.5 29.6533 12.1481 28.6666 11.4888C27.6799 10.8295 26.9109 9.89246 26.4567 8.7961C26.0026 7.69975 25.8838 6.49335 26.1153 5.32946C26.3468 4.16558 26.9182 3.09648 27.7574 2.25736C28.5965 1.41825 29.6656 0.846802 30.8295 0.615291C31.9933 0.38378 33.1997 0.5026 34.2961 0.956725C35.3925 1.41085 36.3295 2.17989 36.9888 3.16658C37.6481 4.15328 38 5.31331 38 6.5C37.998 8.09069 37.3652 9.61566 36.2405 10.7405C35.1157 11.8652 33.5907 12.498 32 12.5ZM32 3.5C31.4067 3.5 30.8266 3.67595 30.3333 4.00559C29.8399 4.33524 29.4554 4.80377 29.2284 5.35195C29.0013 5.90013 28.9419 6.50333 29.0576 7.08527C29.1734 7.66722 29.4591 8.20177 29.8787 8.62132C30.2982 9.04088 30.8328 9.3266 31.4147 9.44236C31.9967 9.55812 32.5999 9.4987 33.1481 9.27164C33.6962 9.04458 34.1648 8.66006 34.4944 8.16671C34.8241 7.67337 35 7.09335 35 6.5C34.9992 5.7046 34.6829 4.942 34.1204 4.37956C33.558 3.81712 32.7954 3.5008 32 3.5ZM14 12.5C12.8133 12.5 11.6533 12.1481 10.6666 11.4888C9.67989 10.8295 8.91085 9.89246 8.45673 8.7961C8.0026 7.69975 7.88378 6.49335 8.11529 5.32946C8.3468 4.16558 8.91825 3.09648 9.75736 2.25736C10.5965 1.41825 11.6656 0.846802 12.8295 0.615291C13.9933 0.38378 15.1997 0.5026 16.2961 0.956725C17.3925 1.41085 18.3295 2.17989 18.9888 3.16658C19.6481 4.15328 20 5.31331 20 6.5C19.998 8.09069 19.3652 9.61566 18.2405 10.7405C17.1157 11.8652 15.5907 12.498 14 12.5ZM14 3.5C13.4067 3.5 12.8266 3.67595 12.3333 4.00559C11.8399 4.33524 11.4554 4.80377 11.2284 5.35195C11.0013 5.90013 10.9419 6.50333 11.0576 7.08527C11.1734 7.66722 11.4591 8.20177 11.8787 8.62132C12.2982 9.04088 12.8328 9.3266 13.4147 9.44236C13.9967 9.55812 14.5999 9.4987 15.1481 9.27164C15.6962 9.04458 16.1648 8.66006 16.4944 8.16671C16.8241 7.67337 17 7.09335 17 6.5C16.9992 5.7046 16.6829 4.942 16.1204 4.37956C15.558 3.81712 14.7954 3.5008 14 3.5Z" fill="white"/>
</svg>
