<svg width="20" height="20" viewBox="0 0 20 20" fill="none" xmlns="http://www.w3.org/2000/svg">
<path d="M3.33203 3.33203H8.33203V8.33203H3.33203V3.33203ZM11.6654 3.33203H16.6654V8.33203H11.6654V3.33203ZM3.33203 11.6654H8.33203V16.6654H3.33203V11.6654ZM11.6654 14.1654C11.6654 14.8284 11.9288 15.4643 12.3976 15.9331C12.8664 16.402 13.5023 16.6654 14.1654 16.6654C14.8284 16.6654 15.4643 16.402 15.9331 15.9331C16.402 15.4643 16.6654 14.8284 16.6654 14.1654C16.6654 13.5023 16.402 12.8664 15.9331 12.3976C15.4643 11.9288 14.8284 11.6654 14.1654 11.6654C13.5023 11.6654 12.8664 11.9288 12.3976 12.3976C11.9288 12.8664 11.6654 13.5023 11.6654 14.1654Z" stroke="#243770" stroke-width="1.5" stroke-linecap="round" stroke-linejoin="round"/>
</svg>
