<svg width="42" height="42" viewBox="0 0 42 42" fill="none" xmlns="http://www.w3.org/2000/svg">
<path d="M40.4194 14.4194C42.9194 11.9194 41.7794 8.99937 40.4194 7.57937L34.4194 1.57937C31.8994 -0.92063 28.9994 0.21937 27.5794 1.57937L24.1794 4.99937H18.9994C15.1994 4.99937 12.9994 6.99937 11.8794 9.29937L2.99937 18.1794V26.1794L1.57937 27.5794C-0.92063 30.0994 0.21937 32.9994 1.57937 34.4194L7.57937 40.4194C8.65937 41.4994 9.81937 41.8994 10.9194 41.8994C12.3394 41.8994 13.6394 41.1994 14.4194 40.4194L19.8194 34.9994H26.9994C30.3994 34.9994 32.1194 32.8794 32.7394 30.7994C34.9994 30.1994 36.2394 28.4794 36.7394 26.7994C39.8394 25.9994 40.9994 23.0594 40.9994 20.9994V14.9994H39.8194L40.4194 14.4194ZM36.9994 20.9994C36.9994 21.8994 36.6194 22.9994 34.9994 22.9994H32.9994V24.9994C32.9994 25.8994 32.6194 26.9994 30.9994 26.9994H28.9994V28.9994C28.9994 29.8994 28.6194 30.9994 26.9994 30.9994H18.1794L11.6194 37.5594C10.9994 38.1394 10.6394 37.7994 10.4194 37.5794L4.43937 31.6194C3.85937 30.9994 4.19937 30.6394 4.41937 30.4194L6.99937 27.8194V19.8194L10.9994 15.8194V18.9994C10.9994 21.4194 12.5994 24.9994 16.9994 24.9994C21.3994 24.9994 22.9994 21.4194 22.9994 18.9994H36.9994V20.9994ZM37.5794 11.5794L34.1794 14.9994H18.9994V18.9994C18.9994 19.8994 18.6194 20.9994 16.9994 20.9994C15.3794 20.9994 14.9994 19.8994 14.9994 18.9994V12.9994C14.9994 12.0794 15.3394 8.99937 18.9994 8.99937H25.8194L30.3794 4.43937C30.9994 3.85937 31.3594 4.19937 31.5794 4.41937L37.5594 10.3794C38.1394 10.9994 37.7994 11.3594 37.5794 11.5794Z" fill="white"/>
</svg>
