<svg width="20" height="20" viewBox="0 0 20 20" fill="none" xmlns="http://www.w3.org/2000/svg">
<path d="M14.375 17L12.75 15.375L11.875 16.25L14.375 18.75L18.75 14.375L17.875 13.5L14.375 17ZM7.5 11.25H12.5V12.5H7.5V11.25ZM7.5 8.125H12.5V9.375H7.5V8.125ZM7.5 5H12.5V6.25H7.5V5Z" fill="#243770"/>
<path d="M10 17.5H3.75V15H5V13.75H3.75V10.625H5V9.375H3.75V6.25H5V5H3.75V2.5H15V12.5H16.25V2.5C16.25 1.8125 15.6875 1.25 15 1.25H3.75C3.0625 1.25 2.5 1.8125 2.5 2.5V5H1.25V6.25H2.5V9.375H1.25V10.625H2.5V13.75H1.25V15H2.5V17.5C2.5 18.1875 3.0625 18.75 3.75 18.75H10V17.5Z" fill="#243770"/>
</svg>
