<svg width="67" height="71" viewBox="0 0 67 71" fill="none" xmlns="http://www.w3.org/2000/svg">
<g clip-path="url(#clip0_53_3299)">
<path d="M21.0837 47.0762V58.2944H19.3457V47.0762H21.0837Z" fill="white"/>
<path d="M43.9102 58.2898V57.1373C43.2363 57.9691 42.1535 58.3781 40.7919 58.3781C38.7518 58.3781 37.4785 57.1187 37.4785 55.455C37.4785 53.7913 38.7704 52.6342 41.0429 52.6203H43.8962V52.3368C43.8962 51.1471 43.1341 50.4408 41.647 50.4408C40.7408 50.4408 39.8021 50.7614 38.8634 51.3981L38.0315 49.9807C39.342 49.2 40.2993 48.791 42.0931 48.791C44.5236 48.791 45.8852 50.0318 45.9038 52.1044L45.9224 58.2898H43.9195H43.9102ZM43.8962 54.9717V54.1027H41.3449C40.0159 54.1027 39.3931 54.4559 39.3931 55.3621C39.3931 56.2125 40.0856 56.7609 41.2195 56.7609C42.674 56.7609 43.7893 55.9987 43.8962 54.9717Z" fill="white"/>
<path d="M51.3038 50.3999C50.5045 50.3999 49.9189 50.6648 49.9189 51.3387C49.9189 53.0767 54.9379 52.138 54.9193 55.5583C54.9193 57.4915 53.1998 58.3605 51.3038 58.3605C49.9189 58.3605 48.4504 57.9004 47.5117 57.05L48.2367 55.5955C49.0499 56.3204 50.3651 56.7665 51.3921 56.7665C52.2611 56.7665 52.9349 56.4645 52.9349 55.7581C52.9349 53.8249 47.9718 54.9077 47.9904 51.5013C47.9904 49.5867 49.6587 48.7734 51.4664 48.7734C52.6561 48.7734 53.9108 49.1266 54.7659 49.7307L54.0224 51.2364C53.1905 50.7206 52.1449 50.4046 51.3084 50.4046L51.3038 50.3999Z" fill="white"/>
<path d="M62.2751 48.7871V50.7389C60.379 50.632 59.1708 51.7473 59.0128 53.3646V58.2952H56.9727V48.8661H59.0128V50.7436C59.6494 49.4656 60.7833 48.7918 62.2751 48.7918V48.7871Z" fill="white"/>
<path d="M9.84542 68.7883L9.83613 67.4546C9.311 68.3794 8.42339 68.7883 7.36384 68.7883C6.22529 68.7883 5.44922 68.068 5.44922 67.0921C5.44922 66.1162 6.29035 65.5772 7.63803 65.5772H9.82683V64.8568C9.81754 63.7741 9.19947 63.1235 7.95868 63.1235C7.17331 63.1235 6.532 63.4441 5.89535 63.946L5.76058 63.7648C6.42047 63.2396 7.12684 62.9004 7.95868 62.9004C9.31565 62.9004 10.0452 63.6625 10.0545 64.8615L10.0778 68.793H9.85007L9.84542 68.7883ZM9.83148 66.9388L9.82219 65.8002H7.63338C6.37865 65.8002 5.67228 66.2696 5.67228 67.0875C5.67228 67.9518 6.33218 68.556 7.36849 68.556C8.50704 68.556 9.36212 68.1006 9.83148 66.9388Z" fill="white"/>
<path d="M17.4898 60.3301V68.7879H17.2621V67.0545C16.8299 68.1141 15.8493 68.8111 14.6085 68.8111C12.9449 68.8111 11.7227 67.5564 11.7227 65.8462C11.7227 64.1361 12.9402 62.8721 14.6085 62.8721C15.8493 62.8721 16.8299 63.5691 17.2621 64.6287V60.3301H17.4898ZM17.2621 65.8462C17.2621 64.2616 16.1467 63.0998 14.6085 63.0998C13.0703 63.0998 11.955 64.2616 11.955 65.8462C11.955 67.4309 13.0703 68.5834 14.6085 68.5834C16.1467 68.5834 17.2621 67.4309 17.2621 65.8462Z" fill="white"/>
<path d="M19.177 62.8965L21.4541 68.5288L23.7219 62.8965H23.9961L21.5796 68.7891H21.3286L18.9121 62.8965H19.1724H19.177Z" fill="white"/>
<path d="M29.3635 67.7063L29.5215 67.8643C28.9871 68.4452 28.1877 68.7891 27.2769 68.7891C25.6458 68.7891 24.4375 67.5576 24.4375 65.8381C24.4375 64.1187 25.6458 62.8965 27.2769 62.8965C28.9081 62.8965 30.0141 64.128 30.0141 65.8381H24.6699C24.6699 67.446 25.7619 68.5614 27.2816 68.5614C28.1366 68.5614 28.8755 68.2546 29.3681 67.7063H29.3635ZM24.6792 65.6058H29.7864C29.6841 64.1373 28.7361 63.1195 27.2769 63.1195C25.8177 63.1195 24.7674 64.1326 24.6792 65.6058Z" fill="white"/>
<path d="M34.2987 62.8965V63.1242C32.965 63.1567 32.1424 64.0583 32.0402 65.564V68.7891H31.8125V62.8965H32.0402V64.5044C32.3934 63.5006 33.1788 62.9197 34.2987 62.8965Z" fill="white"/>
<path d="M38.2672 68.3644C37.9233 68.6246 37.5283 68.7733 37.1054 68.7873C36.2829 68.7966 35.8507 68.2389 35.8507 67.1701V63.2386H34.9863V63.0109H35.8507V61.6074H36.0784V63.0109H38.151V63.2386H36.0784V67.1701C36.0784 68.0809 36.4316 68.5735 37.1054 68.5596C37.4679 68.5503 37.835 68.4248 38.1324 68.1831L38.2672 68.3644Z" fill="white"/>
<path d="M40.2003 61.1939C40.2003 61.3519 40.0655 61.4913 39.9029 61.4913C39.7402 61.4913 39.6055 61.3566 39.6055 61.1939C39.6055 61.0313 39.7402 60.8965 39.9029 60.8965C40.0655 60.8965 40.2003 61.0313 40.2003 61.1939ZM40.0191 62.8948V68.7873H39.7914V62.8948H40.0191Z" fill="white"/>
<path d="M43.816 63.1242C42.8912 63.1242 42.1616 63.4867 42.1616 64.286C42.1616 66.0519 45.7074 65.2108 45.7074 67.2602C45.7074 68.3197 44.7501 68.7891 43.7231 68.7891C42.9005 68.7891 42.1384 68.4917 41.6133 67.9665L41.762 67.7946C42.2639 68.2825 42.947 68.5567 43.7231 68.5567C44.6479 68.5567 45.4425 68.171 45.4797 67.3159C45.5494 65.5035 41.9339 66.2889 41.9339 64.3092C41.9339 63.3426 42.789 62.8965 43.8021 62.8965C44.4295 62.8965 44.9406 63.0684 45.3728 63.3194L45.2613 63.5146C44.8849 63.2729 44.3969 63.1288 43.8114 63.1288L43.816 63.1242Z" fill="white"/>
<path d="M47.8038 61.1939C47.8038 61.3519 47.6691 61.4913 47.5064 61.4913C47.3438 61.4913 47.209 61.3566 47.209 61.1939C47.209 61.0313 47.3438 60.8965 47.5064 60.8965C47.6691 60.8965 47.8038 61.0313 47.8038 61.1939ZM47.6226 62.8948V68.7873H47.3949V62.8948H47.6226Z" fill="white"/>
<path d="M55.1552 65.2201V68.7891H54.9275V65.2201C54.9275 63.8956 54.1514 63.1242 52.8409 63.1242C51.3724 63.1567 50.4708 64.0722 50.3547 65.5872V68.7891H50.127V62.8965H50.3547V64.5602C50.7311 63.5239 51.6094 62.9197 52.8409 62.8965C54.3001 62.8965 55.1552 63.7609 55.1552 65.2201Z" fill="white"/>
<path d="M62.3209 62.8965V68.1152C62.3209 69.8719 61.2148 71.0011 59.5186 70.9872C58.5706 70.9546 57.8317 70.634 57.1486 69.9601L57.3066 69.8021C57.9339 70.4295 58.631 70.7269 59.5186 70.7595C61.0801 70.7688 62.0931 69.7324 62.0931 68.1152V66.8977C61.6842 67.9108 60.7362 68.5753 59.5512 68.5753C57.9665 68.5753 56.8047 67.3763 56.8047 65.7498C56.8047 64.1233 57.9665 62.9011 59.5512 62.9011C60.7362 62.9011 61.6842 63.561 62.0931 64.588V62.9011H62.3209V62.8965ZM62.0931 65.7452C62.0931 64.2302 61.0196 63.1102 59.5512 63.1102C58.0827 63.1102 57.0231 64.2256 57.0231 65.7452C57.0231 67.2648 58.0827 68.3569 59.5512 68.3569C61.0196 68.3569 62.0931 67.2509 62.0931 65.7452Z" fill="white"/>
<path fill-rule="evenodd" clip-rule="evenodd" d="M37.6074 29.7799C44.9778 24.8632 54.5928 19.9466 64.1938 11.498C63.7755 13.817 63.4456 16.0848 63.1853 18.2875C54.8948 24.1429 47.1387 28.0791 41.4274 32.5171C40.2284 31.5923 38.9597 30.6861 37.6074 29.7799Z" fill="white"/>
<path fill-rule="evenodd" clip-rule="evenodd" d="M3.34961 11.498C12.9692 19.9466 22.5702 24.8632 29.9499 29.7799C28.5929 30.6861 27.3103 31.597 26.116 32.5171C20.4046 28.0744 12.6486 24.1383 4.37198 18.2875C4.11174 16.0801 3.78179 13.817 3.34961 11.498Z" fill="white"/>
<path fill-rule="evenodd" clip-rule="evenodd" d="M29.95 35.9232C31.0885 34.7428 32.3711 33.6182 33.7699 32.5215C35.1826 33.6182 36.4653 34.7428 37.6038 35.9232C36.205 37.3963 35.0386 38.9531 34.1277 40.6819C33.9976 40.9003 33.8814 41.128 33.7653 41.3604C33.6491 41.128 33.5329 40.9003 33.4214 40.6819C32.5152 38.9531 31.3302 37.3963 29.9453 35.9232H29.95Z" fill="white"/>
<path fill-rule="evenodd" clip-rule="evenodd" d="M33.7734 27.331C43.3605 21.3594 55.5872 14.556 66.7078 0.986328C65.6389 4.59252 64.8164 8.09647 64.1983 11.4982C54.5973 19.9467 44.9777 24.8634 37.612 29.7801C36.3851 28.9715 35.1025 28.1675 33.7781 27.331H33.7734Z" fill="white"/>
<path fill-rule="evenodd" clip-rule="evenodd" d="M0.839844 0.986328C11.9558 14.556 24.1825 21.3594 33.7742 27.331C32.4498 28.1675 31.1625 28.9761 29.9542 29.7801C22.5699 24.8634 12.9689 19.9467 3.35395 11.4982C2.72659 8.09647 1.90869 4.59252 0.839844 0.986328Z" fill="white"/>
<path fill-rule="evenodd" clip-rule="evenodd" d="M26.1152 32.5223C27.3142 31.5975 28.5968 30.6914 29.9491 29.7852C31.3061 30.6914 32.5887 31.6022 33.7691 32.5223C32.3703 33.6191 31.0877 34.7437 29.9491 35.924C28.8106 34.7437 27.528 33.6191 26.1152 32.5223Z" fill="white"/>
<path fill-rule="evenodd" clip-rule="evenodd" d="M37.6073 35.924C36.4688 34.7437 35.1862 33.6191 33.7734 32.5223C34.9678 31.5975 36.255 30.6914 37.6073 29.7852C38.9643 30.6914 40.233 31.6022 41.4273 32.5223C40.0146 33.6191 38.7319 34.7437 37.6073 35.924Z" fill="white"/>
<path fill-rule="evenodd" clip-rule="evenodd" d="M37.6089 29.7791C36.252 30.6853 34.9694 31.5962 33.775 32.5163C32.5947 31.5915 31.3074 30.6853 29.9551 29.7791C31.168 28.9705 32.4506 28.1666 33.775 27.3301C35.0995 28.1666 36.3867 28.9752 37.6089 29.7791Z" fill="white"/>
<path d="M8.0989 58.3314H5.94727L10.7524 47.0156H13.0063L17.9137 58.3314H15.6598L14.3679 55.2457H10.6084L11.3287 53.424H13.6058L11.8259 49.1765L8.0989 58.3314Z" fill="white"/>
<path d="M24.7402 58.3314V47.0156H26.8361L32.8123 55.2597V47.0156H34.8292V58.3314H32.7333L26.7617 49.9108V58.3314H24.7449H24.7402Z" fill="white"/>
</g>
<defs>
<clipPath id="clip0_53_3299">
<rect width="65.864" height="70" fill="white" transform="translate(0.839844 0.986328)"/>
</clipPath>
</defs>
</svg>
