<svg width="240" height="51" viewBox="0 0 240 51" fill="none" xmlns="http://www.w3.org/2000/svg">
<g clip-path="url(#clip0_53_3558)">
<path d="M153.262 0.986328V49.6115" stroke="white" stroke-width="0.55" stroke-miterlimit="10"/>
<path d="M169.423 9.09954H165.535C165.113 10.0864 164.573 11.3937 164.236 12.2878H162.549L166.901 1.31445H168.048L172.4 12.2878H170.73L169.431 9.09954H169.423ZM166.125 7.63193H168.816L167.483 3.81108L166.117 7.63193H166.125Z" fill="white"/>
<path d="M174.078 10.7279H179.172V12.2883H172.518V1.4668H174.078V10.7279Z" fill="white"/>
<path d="M179.84 12.2882V1.44141L181.046 1.45828L186.326 9.09154V1.44984H187.878V12.2882H186.638L181.409 4.71401V12.2882H179.848H179.84Z" fill="white"/>
<path d="M194.903 9.09954H191.015C190.593 10.0864 190.054 11.3937 189.716 12.2878H188.029L192.382 1.31445H193.529L197.881 12.2878H196.211L194.912 9.09954H194.903ZM191.606 7.63193H194.296L192.964 3.81108L191.597 7.63193H191.606Z" fill="white"/>
<path d="M203.801 4.25891C203.582 3.2805 202.528 2.86721 201.591 2.88408C200.866 2.90094 200.056 3.14555 199.626 3.70223C199.407 3.98057 199.331 4.33482 199.365 4.70594C199.441 5.8193 200.664 5.96269 201.828 6.07233C203.312 6.25789 205.159 6.64588 205.573 8.3834C205.615 8.61957 205.648 8.88104 205.648 9.0919C205.648 11.1837 203.574 12.3898 201.625 12.3898C199.955 12.3898 197.922 11.403 197.72 9.46302L197.703 9.16781L199.28 9.13408L199.297 9.37024V9.3112C199.407 10.3149 200.63 10.8463 201.634 10.8463C202.798 10.8463 204.063 10.1968 204.063 9.08347C204.063 8.97382 204.046 8.8473 204.012 8.71235C203.827 7.8942 202.713 7.75081 201.625 7.64116C199.938 7.47247 197.956 7.10135 197.787 4.84089V4.85776C197.728 4.13239 197.914 3.39858 198.378 2.79973C199.103 1.85506 200.402 1.35742 201.659 1.35742C203.329 1.35742 205.066 2.22618 205.345 4.2083L203.793 4.26734L203.801 4.25891Z" fill="white"/>
<path d="M208.6 6.79868H210.43C211.746 6.79868 212.396 5.85401 212.396 4.90934C212.396 3.96467 211.746 3.03687 210.43 3.03687H208.027V12.298H206.475V1.45117H210.422C212.775 1.45117 213.948 3.18869 213.948 4.9009C213.948 6.43599 213.003 7.88673 211.147 8.21568L214.572 12.2896H212.547L208.6 7.53248V6.79024V6.79868Z" fill="white"/>
<path d="M163.56 30.8696H163.324V20.0312H163.569L168.056 26.6692L172.56 20.0312H172.805V30.8696H172.568V20.3855L168.157 26.9476H167.955L163.544 20.3855V30.8696H163.56Z" fill="white"/>
<path d="M180.827 27.226H175.344L173.877 30.8613H173.615L177.967 19.8711H178.229L182.581 30.8613H182.32L180.835 27.226H180.827ZM175.454 26.9983H180.734L178.086 20.2L175.454 26.9983Z" fill="white"/>
<path d="M183.381 30.8709V20.0156L183.6 20.0325L190.803 30.4323V20.0325H191.039V30.8709H190.795L183.642 20.5301V30.8709H183.398H183.381Z" fill="white"/>
<path d="M192.482 20.0312H196.227C200.563 20.0312 200.563 26.7536 196.227 26.7536H192.727V30.8696H192.482V20.0312ZM196.227 26.5174C200.251 26.5174 200.251 20.2759 196.227 20.2759H192.727V26.5174H196.227Z" fill="white"/>
<path d="M201.768 21.5158C202.755 20.4953 204.155 19.8711 205.674 19.8711C207.192 19.8711 208.584 20.4868 209.587 21.5158C210.574 22.5195 211.215 23.9197 211.215 25.4463C211.215 26.973 210.583 28.3731 209.587 29.3768C208.584 30.3974 207.2 31.0216 205.674 31.0216C204.147 31.0216 202.764 30.4058 201.768 29.3768C200.782 28.3731 200.141 26.973 200.141 25.4463C200.141 23.9197 200.773 22.5195 201.768 21.5158ZM209.419 21.7014C208.457 20.723 207.124 20.1241 205.674 20.1241C204.223 20.1241 202.899 20.7314 201.946 21.7014C201.001 22.6629 200.394 23.9787 200.394 25.4463C200.394 26.9139 201.001 28.2297 201.946 29.1913C202.907 30.1697 204.223 30.7685 205.674 30.7685C207.124 30.7685 208.457 30.1612 209.419 29.1913C210.363 28.2297 210.954 26.9139 210.954 25.4463C210.954 23.9787 210.363 22.6629 209.419 21.7014Z" fill="white"/>
<path d="M217.794 23.4058L215.129 30.98H214.909L211.291 20.0488H211.536L215.019 30.5751L217.617 23.2033H217.954L220.552 30.5751L224.052 20.0488H224.297L220.67 30.98H220.451L217.769 23.4058H217.794Z" fill="white"/>
<path d="M225.377 30.6342H231.138V30.8704H225.133V20.0488H231.113V20.285H225.386V25.3289H230.986V25.5735H225.386V30.6342H225.377Z" fill="white"/>
<path d="M232.496 30.8696H232.26V20.0312H236.005C240.34 20.0312 240.34 26.3656 236.005 26.3656H234.259L239.244 30.8696H238.889L233.905 26.3656V26.1294H236.013C240.036 26.1294 240.036 20.2759 236.013 20.2759H232.496V30.8696Z" fill="white"/>
<path d="M170.097 40.8816C170.004 40.4346 169.818 40.0466 169.506 39.7008C168.84 38.9923 167.769 38.6971 166.799 38.7139C165.778 38.7308 164.614 39.1019 163.965 39.9538C163.577 40.4346 163.442 41.0081 163.484 41.607C163.762 45.4025 169.844 42.4251 170.594 45.8917C171.092 48.1859 168.907 49.5439 166.849 49.5439C165.272 49.5439 163.349 48.6498 163.163 46.8954L163.146 46.7858L163.391 46.7521L163.408 46.8617C163.577 48.4896 165.39 49.3077 166.858 49.3077C168.747 49.3077 170.788 48.0847 170.341 45.9339C169.641 42.7119 163.526 45.6556 163.248 41.6154C163.189 40.966 163.357 40.3334 163.762 39.802C165.339 37.7608 169.801 38.0223 170.324 40.8226L170.341 40.9491L170.105 40.9997L170.088 40.8732L170.097 40.8816Z" fill="white"/>
<path d="M172.079 49.2143H177.839V49.4504H171.834V38.6289H177.814V38.8651H172.087V43.9089H177.688V44.1535H172.087V49.2143H172.079Z" fill="white"/>
<path d="M179.197 49.4419H178.961V38.6035H182.706C187.041 38.6035 187.041 44.9379 182.706 44.9379H180.96L185.945 49.4419H185.59L180.606 44.9379V44.7017H182.714C186.738 44.7017 186.738 38.8481 182.714 38.8481H179.197V49.4419Z" fill="white"/>
<path d="M195.038 38.6211H195.3L190.948 49.6113H190.686L186.334 38.6211H186.595L190.804 49.3077L195.03 38.6211H195.038Z" fill="white"/>
<path d="M200.436 38.8404H198.133V49.2149H200.436V49.4511H195.586V49.2149H197.889V38.8404H195.586V38.6211H200.436V38.8404Z" fill="white"/>
<path d="M210.489 41.9184C210.245 41.3448 209.882 40.8388 209.469 40.4002C208.558 39.4555 207.284 38.8819 205.893 38.8819C204.501 38.8819 203.227 39.4555 202.316 40.4002C201.405 41.3448 200.832 42.6269 200.832 44.0355C200.832 45.444 201.405 46.7429 202.316 47.6707C203.227 48.6154 204.501 49.2058 205.893 49.2058C207.284 49.2058 208.558 48.6154 209.469 47.6707C209.891 47.2406 210.245 46.7429 210.489 46.1694H210.751C210.489 46.802 210.101 47.3755 209.638 47.8563C208.676 48.8431 207.36 49.4504 205.893 49.4504C204.425 49.4504 203.109 48.8431 202.148 47.8563C201.203 46.8779 200.596 45.5368 200.596 44.0355C200.596 42.5341 201.203 41.2014 202.148 40.223C203.109 39.2362 204.425 38.6289 205.893 38.6289C207.36 38.6289 208.676 39.2362 209.638 40.223C210.101 40.7038 210.489 41.2774 210.751 41.9099H210.489V41.9184Z" fill="white"/>
<path d="M212.143 49.2143H217.904V49.4504H211.898V38.6289H217.879V38.8651H212.151V43.9089H217.752V44.1535H212.151V49.2143H212.143Z" fill="white"/>
<path d="M225.8 40.8816C225.707 40.4346 225.521 40.0466 225.209 39.7008C224.543 38.9923 223.472 38.6971 222.502 38.7139C221.481 38.7308 220.317 39.1019 219.668 39.9538C219.28 40.4346 219.145 41.0081 219.187 41.607C219.465 45.4025 225.547 42.4251 226.297 45.8917C226.795 48.1859 224.61 49.5439 222.552 49.5439C220.975 49.5439 219.052 48.6498 218.866 46.8954L218.85 46.7858L219.094 46.7521L219.111 46.8617C219.28 48.4896 221.093 49.3077 222.561 49.3077C224.45 49.3077 226.491 48.0847 226.044 45.9339C225.344 42.7119 219.229 45.6556 218.951 41.6154C218.892 40.966 219.06 40.3334 219.465 39.802C221.043 37.7608 225.504 38.0223 226.027 40.8226L226.044 40.9491L225.808 40.9997L225.791 40.8732L225.8 40.8816Z" fill="white"/>
<mask id="mask0_53_3558" style="mask-type:luminance" maskUnits="userSpaceOnUse" x="79" y="23" width="9" height="21">
<path d="M87.4122 23.3379H79.0957V43.7495L87.4122 33.6027V23.3379Z" fill="white"/>
</mask>
<g mask="url(#mask0_53_3558)">
<path d="M148.31 4.5957H0.705078V50.9857H148.31V4.5957Z" fill="white"/>
</g>
<mask id="mask1_53_3558" style="mask-type:luminance" maskUnits="userSpaceOnUse" x="73" y="13" width="32" height="9">
<path d="M79.8632 13.3262L73.0312 21.6089H97.2384L104.02 13.3262H79.8632Z" fill="white"/>
</mask>
<g mask="url(#mask1_53_3558)">
<path d="M148.31 4.5957H0.705078V50.9857H148.31V4.5957Z" fill="white"/>
</g>
<mask id="mask2_53_3558" style="mask-type:luminance" maskUnits="userSpaceOnUse" x="99" y="13" width="47" height="36">
<path d="M122.415 19.9051C122.128 19.5424 121.816 19.1966 121.504 18.8592C119.556 16.7759 117.169 15.2239 114.537 14.3046C112.698 13.6636 110.741 13.3262 108.734 13.3262H106.339L99.5488 21.6089H108.734C111.56 21.6089 113.727 22.8741 115.49 25.0755L115.768 25.4297L135.126 48.9453H145.812L122.415 19.9051Z" fill="white"/>
</mask>
<g mask="url(#mask2_53_3558)">
<path d="M148.31 4.5957H0.705078V50.9857H148.31V4.5957Z" fill="white"/>
</g>
<mask id="mask3_53_3558" style="mask-type:luminance" maskUnits="userSpaceOnUse" x="77" y="23" width="51" height="26">
<path d="M123.216 37.0693L120.905 34.3281H100.046L107.14 25.5309L106.861 25.1766C106.861 25.1766 106.845 25.1513 106.836 25.1429C105.934 24.0042 104.567 23.3379 103.125 23.3379H98.1486L77.1719 48.9452H88.373L93.4084 42.6446H127.796L123.233 37.0693H123.216Z" fill="white"/>
</mask>
<g mask="url(#mask3_53_3558)">
<path d="M148.31 4.5957H0.705078V50.9857H148.31V4.5957Z" fill="white"/>
</g>
<mask id="mask4_53_3558" style="mask-type:luminance" maskUnits="userSpaceOnUse" x="60" y="23" width="10" height="21">
<path d="M60.7578 23.3379H69.0743V43.7495L60.7578 33.6027V23.3379Z" fill="white"/>
</mask>
<g mask="url(#mask4_53_3558)">
<path d="M148.308 4.5957H0.703125V50.9857H148.308V4.5957Z" fill="white"/>
</g>
<mask id="mask5_53_3558" style="mask-type:luminance" maskUnits="userSpaceOnUse" x="44" y="13" width="34" height="9">
<path d="M77.5603 13.3262L70.6355 21.6089H50.9324L44.1426 13.3262H77.5603Z" fill="white"/>
</mask>
<g mask="url(#mask5_53_3558)">
<path d="M148.31 4.5957H0.705078V50.9857H148.31V4.5957Z" fill="white"/>
</g>
<mask id="mask6_53_3558" style="mask-type:luminance" maskUnits="userSpaceOnUse" x="2" y="13" width="47" height="36">
<path d="M25.7549 19.9051C26.0416 19.5424 26.3537 19.1966 26.6658 18.8592C28.6142 16.7759 31.0011 15.2239 33.6327 14.3046C35.4715 13.6636 37.4283 13.3262 39.4357 13.3262H41.8311L48.6209 21.6089H39.5116H39.4357C36.6101 21.6089 34.4424 22.8741 32.6796 25.0755L32.4013 25.4297L13.044 48.9453H2.35742L25.7549 19.9051Z" fill="white"/>
</mask>
<g mask="url(#mask6_53_3558)">
<path d="M148.31 4.5957H0.705078V50.9857H148.31V4.5957Z" fill="white"/>
</g>
<mask id="mask7_53_3558" style="mask-type:luminance" maskUnits="userSpaceOnUse" x="20" y="23" width="51" height="26">
<path d="M24.9543 37.0693L27.2654 34.3281H48.124L41.0306 25.5309L41.3089 25.1766C41.3089 25.1766 41.3258 25.1513 41.3342 25.1429C42.2367 24.0042 43.6031 23.3379 45.0454 23.3379H50.0218L70.9985 48.9452H59.7975L54.762 42.6446H20.3828L24.9459 37.0693H24.9543Z" fill="white"/>
</mask>
<g mask="url(#mask7_53_3558)">
<path d="M148.31 4.5957H0.705078V50.9857H148.31V4.5957Z" fill="white"/>
</g>
</g>
<defs>
<clipPath id="clip0_53_3558">
<rect width="238.554" height="50" fill="white" transform="translate(0.705078 0.986328)"/>
</clipPath>
</defs>
</svg>
