<svg width="111" height="70" viewBox="0 0 111 70" fill="none" xmlns="http://www.w3.org/2000/svg">
<g clip-path="url(#clip0_53_3325)">
<path d="M5.15456 55.3352C4.1909 55.3352 3.70583 54.488 3.68643 54.184H2.63222C1.25463 54.184 0.873047 52.7935 0.873047 52.1726C0.873047 50.5751 1.96606 50.0836 2.70983 50.0836C3.09141 50.0836 3.40186 50.1612 3.65409 50.394V50.0836H5.25157L5.26451 53.3432C5.26451 53.6084 5.38093 53.893 5.78191 53.893H7.09482V55.3288H5.1675L5.15456 55.3352ZM1.66209 49.2105V47.8652H3.05261V49.2105H1.66209ZM3.64762 51.7458C3.42773 51.5194 3.32425 51.4483 3.0138 51.4483C2.7745 51.4483 2.48347 51.6229 2.45113 52.1597C2.43173 52.3666 2.56754 52.8517 2.94266 52.8517H3.65409L3.64116 51.7458H3.64762ZM3.61529 49.2105V47.8652H5.00581V49.2105H3.61529Z" fill="white"/>
<path d="M6.875 55.3362V53.9004H9.52023V55.3362H6.875Z" fill="white"/>
<path d="M13.7234 55.3356C13.1025 55.3356 12.7209 54.9475 12.5398 54.6565C12.2164 55.0898 11.6667 55.3356 11.1169 55.3356C10.4702 55.3485 9.95925 55.3356 9.3125 55.3356V53.8998H10.6577C10.9682 53.8998 11.395 53.7187 11.395 53.3112L11.3756 50.957H12.9861C12.999 51.5779 12.999 52.257 13.0119 52.8779C13.0249 53.6023 13.5487 53.8998 13.8268 53.8998H14.9199V55.3356H13.7363H13.7234ZM10.5672 57.5863V56.241H11.9577V57.5863H10.5672ZM12.5204 57.5863V56.241H13.9109V57.5863H12.5204Z" fill="white"/>
<path d="M16.5186 55.3346H14.7012V53.8988H16.0658C16.4086 53.8988 16.6544 53.7242 16.6544 53.3491C16.6544 52.5471 16.622 48.6601 16.6091 47.8711H18.226C18.2389 49.1905 18.2583 52.6053 18.2583 53.7307C18.2583 54.7073 17.6504 55.3411 16.5121 55.3411L16.5186 55.3346Z" fill="white"/>
<path d="M22.307 55.3349H21.7314C20.4896 55.3349 19.707 54.2225 19.707 53.2007C19.707 51.4544 21.1105 50.9629 21.9836 50.9629C22.2358 50.9629 24.1761 51.0793 24.1761 52.7867V52.9808C24.1761 53.1619 24.189 53.4982 24.189 54.0932C24.189 56.0205 22.9925 57.618 20.9359 57.7926C20.4637 57.2752 20.3473 57.1006 19.8429 56.5638C20.6836 56.5056 21.8219 56.0334 22.3005 55.3349H22.307ZM22.5851 52.6768C22.5851 52.4246 22.3652 52.1141 21.9771 52.1141C21.4856 52.1141 21.2334 52.5862 21.2334 53.0454C21.2334 53.5046 21.4597 53.8992 21.9319 53.8992H22.5851V52.6833V52.6768Z" fill="white"/>
<path d="M25.5781 55.3343L26.3607 53.8986H29.4392C29.3099 52.8767 28.4174 52.3334 27.8676 52.3334V50.9688C29.6009 50.9688 30.7069 51.9777 31.0497 53.8986H32.3238V55.3343H25.5781Z" fill="white"/>
<path d="M33.9228 55.3346H32.1055V53.8988H33.4701C33.8129 53.8988 34.0587 53.7242 34.0587 53.3491C34.0587 52.5471 34.0263 48.6601 34.0134 47.8711H35.6303C35.6432 49.1905 35.6626 52.6053 35.6626 53.7307C35.6626 54.7073 35.0547 55.3411 33.9164 55.3411L33.9228 55.3346Z" fill="white"/>
<path d="M37.2203 55.3346L37.1621 47.8711H38.7725L38.8307 55.3346H37.2203Z" fill="white"/>
<path d="M48.6616 55.3353C47.6591 55.3353 47.1547 54.8632 46.883 54.3328H44.7099C44.0179 54.3328 43.6622 54.7144 43.6622 55.3353C43.6622 55.9562 44.2119 56.3443 44.7099 56.3443H46.4238V57.78H44.4448C43.0413 57.78 42.1035 56.6741 42.1035 55.3418C42.1035 54.1129 42.9766 52.8971 44.4448 52.8971H46.3527C46.1328 51.8428 45.402 51.6424 44.9169 51.6359C44.3413 51.6359 43.8045 52.0498 43.6169 52.2115L43.0284 51.015C43.0284 51.015 43.8756 50.2324 45.0592 50.2324C47.0124 50.2324 47.6656 51.6423 47.9437 52.9811C48.0795 53.5891 48.5387 53.8995 49.1143 53.8995C49.7805 53.8995 49.1919 53.8995 49.6059 53.8995L49.6188 55.3353H48.6551H48.6616ZM44.8328 56.0209V54.6756H46.2233V56.0209H44.8328Z" fill="white"/>
<path d="M49.3281 55.3362V53.9004H51.9733V55.3362H49.3281Z" fill="white"/>
<path d="M51.7598 55.3362V53.9004H54.405V55.3362H51.7598Z" fill="white"/>
<path d="M58.6081 55.3356C57.9872 55.3356 57.6057 54.9475 57.4246 54.6565C57.1012 55.0898 56.5515 55.3356 56.0017 55.3356C55.3614 55.3485 54.844 55.3356 54.1973 55.3356V53.8998H55.5425C55.853 53.8998 56.2798 53.7187 56.2798 53.3112L56.2539 50.957H57.8644C57.8773 51.5779 57.8773 52.257 57.8902 52.8779C57.9032 53.6023 58.427 53.8998 58.7051 53.8998H59.7982V55.3356H58.6146H58.6081ZM55.4455 57.5863V56.241H56.836V57.5863H55.4455ZM57.3987 57.5863V56.241H58.7892V57.5863H57.3987Z" fill="white"/>
<path d="M63.9968 55.3352C63.3759 55.3352 62.9943 54.9472 62.8132 54.6562C62.4899 55.0895 61.9401 55.3352 61.3904 55.3352H59.5859V53.8995H60.9312C61.2416 53.8995 61.6685 53.7184 61.6685 53.3109L61.6491 47.8652H63.2595C63.2724 48.4861 63.2724 52.2502 63.2854 52.8711C63.2983 53.5955 63.8222 53.893 64.1003 53.893H65.1933V55.3288H64.0097L63.9968 55.3352Z" fill="white"/>
<path d="M64.9727 55.3357V53.8999H70.0173C69.7392 52.9556 69.0407 52.3929 68.2258 52.3929C67.191 52.3929 66.6736 52.9103 66.6736 52.9103L66.0398 51.772C66.2338 51.5457 66.9259 50.9701 68.2194 50.9701C70.1144 50.9701 71.1492 52.3347 71.5307 53.8999H72.7272V55.3357H64.9727ZM67.5079 50.0581V48.7129H68.8985V50.0581H67.5079Z" fill="white"/>
<path d="M74.3447 55.3346H72.5273V53.8988H73.892C74.2348 53.8988 74.4805 53.7242 74.4805 53.3491C74.4805 52.5471 74.4482 48.6601 74.4353 47.8711H76.0522C76.0651 49.1905 76.0845 52.6053 76.0845 53.7307C76.0845 54.7073 75.4765 55.3411 74.3383 55.3411L74.3447 55.3346Z" fill="white"/>
<path d="M77.6422 55.3346L77.584 47.8711H79.1944L79.2526 55.3346H77.6422Z" fill="white"/>
<path d="M91.7159 55.3347C90.6941 55.3347 90.2672 54.6815 89.9438 53.9119C89.5752 53.0388 89.0254 52.2691 88.1847 52.2821C87.5896 52.2821 87.2081 52.6249 87.027 53.0646H89.1548V54.578C89.1548 56.3825 87.7061 57.8377 85.9145 57.8377C84.123 57.8377 82.6743 56.3696 82.6614 54.578C82.6614 54.2482 82.6614 53.7761 82.6484 53.0646H84.2459C84.2589 53.8019 84.2589 54.2805 84.2589 54.578C84.2589 55.7357 85.2225 56.279 85.8887 56.279C86.6454 56.279 87.5896 55.7422 87.5573 54.578V54.5069L85.0996 54.494C85.0996 51.991 86.3543 50.7363 88.1329 50.7363C90.015 50.7363 90.6941 51.9975 91.3926 53.3427C91.5672 53.6532 91.7159 53.8925 92.1945 53.8925H92.699V55.3283H91.7095L91.7159 55.3347ZM84.0842 60.0755V58.7431H85.4748V60.0755H84.0842ZM86.0374 60.0755V58.7431H87.428V60.0755H86.0374Z" fill="white"/>
<path d="M92.498 55.3362V53.9004H95.1433V55.3362H92.498Z" fill="white"/>
<path d="M94.9297 55.3362V53.9004H97.5749V55.3362H94.9297Z" fill="white"/>
<path d="M101.78 55.3356C101.159 55.3356 100.778 54.9475 100.596 54.6565C100.273 55.0898 99.7233 55.3356 99.1736 55.3356C98.5268 55.3485 98.0159 55.3356 97.3691 55.3356V53.8998H98.7144C99.0248 53.8998 99.4517 53.7187 99.4517 53.3112L99.4323 50.957H101.043C101.056 51.5779 101.056 52.257 101.069 52.8779C101.082 53.6023 101.605 53.8998 101.883 53.8998H102.977V55.3356H101.793H101.78ZM99.5616 57.5863V56.241H100.952V57.5863H99.5616Z" fill="white"/>
<path d="M102.77 55.335V53.8992H104.309L104.289 48.5117H105.829L105.77 51.7972C106.657 51.1311 107.607 50.9241 108.092 50.9694C110.492 51.2022 110.712 53.5435 110.712 55.335H102.776H102.77ZM107.75 52.334C107.232 52.334 106.359 52.6898 105.557 53.8992H109.069C109.037 53.2007 108.726 52.334 107.75 52.334ZM107.083 50.0575V48.7251H108.461V50.0575H107.083Z" fill="white"/>
<path d="M5.94965 64.0342H7.57947V66.8799C6.80983 67.4167 5.581 67.8048 4.57206 67.8048C2.36663 67.8048 0.710938 66.2202 0.710938 64.1183C0.710938 62.0163 2.4119 60.4512 4.69494 60.4512C5.77502 60.4512 6.91978 60.8651 7.66355 61.5248L6.58994 62.8442C6.07253 62.3591 5.3417 62.0487 4.68201 62.0487C3.51785 62.0487 2.64473 62.9476 2.64473 64.1183C2.64473 65.2889 3.53079 66.2008 4.70141 66.2008C5.06359 66.2008 5.51632 66.0779 5.94965 65.858V64.0342Z" fill="white"/>
<path d="M14.8561 62.1523V67.7274H13.0258V66.8219C12.6442 67.4687 12.0363 67.7985 11.2473 67.8114C10.0443 67.8114 9.26172 66.9771 9.26172 65.6772V62.1523H11.092V65.1468C11.092 65.7742 11.4413 66.1558 11.991 66.1558C12.6378 66.1428 13.0323 65.6319 13.0323 64.9011V62.1523H14.8626H14.8561Z" fill="white"/>
<path d="M18.7424 60.084V67.7286H16.9121V60.084H18.7424Z" fill="white"/>
<path d="M22.9471 62.0554V62.4176H24.1824V63.6335H22.9471V67.7209H21.1233V63.6335H20.373V62.4176H21.1233V61.9002C21.1233 60.6713 22.0481 59.9858 23.264 59.9922C23.8202 59.9922 24.4282 60.1345 24.8486 60.3803L24.2083 61.6803C24.0143 61.538 23.762 61.4539 23.568 61.4539C23.2058 61.4539 22.9407 61.6479 22.9407 62.0489L22.9471 62.0554Z" fill="white"/>
<path d="M36.0503 64.1063C36.0503 66.26 34.4722 67.7217 32.1374 67.7217H29.0977V60.5039H32.2085C34.4981 60.5039 36.0503 61.9656 36.0503 64.1063ZM34.1229 64.1322C34.1229 62.884 33.308 62.0432 32.1633 62.0432H30.9797V66.2018H32.2538C33.3468 66.2018 34.1165 65.3675 34.1165 64.1322H34.1229Z" fill="white"/>
<path d="M43.345 64.2095V67.7214H41.5082V64.7334C41.5082 64.1061 41.146 63.7115 40.564 63.7115C39.8849 63.7245 39.4709 64.2354 39.4709 64.9662V67.715H37.6406V60.0703H39.4709V63.0454C39.859 62.4051 40.4993 62.0688 41.3142 62.0688C42.5366 62.0688 43.345 62.8902 43.345 64.2031V64.2095Z" fill="white"/>
<path d="M50.1303 64.0993V67.7276H48.3258V67.1002C47.9636 67.5659 47.401 67.8117 46.6443 67.8117C45.4478 67.8117 44.7363 67.0873 44.7363 66.0719C44.7363 65.0565 45.4866 64.4033 46.8706 64.3839H48.3258V64.3192C48.3258 63.7953 47.9636 63.4849 47.2651 63.4849C46.7995 63.4849 46.1915 63.6401 45.5965 63.9311L45.092 62.6958C45.9652 62.3013 46.7736 62.0879 47.6855 62.0879C49.2183 62.0879 50.1173 62.8317 50.1238 64.1058L50.1303 64.0993ZM48.3323 65.8391V65.354H47.2393C46.7219 65.354 46.4696 65.5416 46.4696 65.9296C46.4696 66.3177 46.7477 66.557 47.2199 66.557C47.7631 66.557 48.2159 66.2595 48.3323 65.8326V65.8391Z" fill="white"/>
<path d="M58.0841 64.9656C58.0841 66.6666 57.0752 67.7855 55.5295 67.7855C54.818 67.7855 54.2424 67.5074 53.8479 67.0029V67.7208H52.0176V60.0762H53.8479V62.8702C54.2359 62.3657 54.7922 62.0876 55.4842 62.0876C57.0364 62.0876 58.0777 63.2323 58.0777 64.9592L58.0841 64.9656ZM56.2409 64.9204C56.2409 64.0925 55.7558 63.5298 55.0379 63.5298C54.32 63.5298 53.8544 64.0925 53.8544 64.9204C53.8544 65.7482 54.3394 66.298 55.0379 66.298C55.7364 66.298 56.2409 65.7417 56.2409 64.9204Z" fill="white"/>
<path d="M61.4547 62.1526V67.7277H59.6309V62.1526H61.4547ZM61.3836 60.5875C61.3836 61.0725 61.0343 61.4218 60.5492 61.4218C60.0642 61.4218 59.7149 61.0725 59.7149 60.5875C59.7149 60.1024 60.0642 59.7402 60.5492 59.7402C61.0343 59.7402 61.3836 60.0895 61.3836 60.5875Z" fill="white"/>
<path d="M72.7005 60.5039V62.0561H70.5404V67.7217H68.6583V62.0561H66.5176V60.5039H72.707H72.7005Z" fill="white"/>
<path d="M77.5261 62.082V63.7571C76.5042 63.6536 75.8252 64.1064 75.7346 64.8825V67.7282H73.9043V62.1532H75.7346V63.078C76.1162 62.4377 76.7435 62.082 77.5261 62.082Z" fill="white"/>
<path d="M83.7221 64.0993V67.7276H81.9176V67.1002C81.5554 67.5659 80.9928 67.8117 80.2361 67.8117C79.0396 67.8117 78.3281 67.0873 78.3281 66.0719C78.3281 65.0565 79.0784 64.4033 80.4624 64.3839H81.9176V64.3192C81.9176 63.7953 81.5554 63.4849 80.8569 63.4849C80.3913 63.4849 79.7833 63.6401 79.1883 63.9311L78.6838 62.6958C79.557 62.3013 80.3654 62.0879 81.2773 62.0879C82.8101 62.0879 83.7091 62.8317 83.7156 64.1058L83.7221 64.0993ZM81.9241 65.8391V65.354H80.8311C80.3137 65.354 80.0614 65.5416 80.0614 65.9296C80.0614 66.3177 80.3395 66.557 80.8117 66.557C81.3549 66.557 81.8077 66.2595 81.9241 65.8326V65.8391Z" fill="white"/>
<path d="M91.1863 60.084V67.7286H89.356V67.0107C88.9744 67.5281 88.4117 67.8062 87.7068 67.8062C86.1416 67.8062 85.1133 66.655 85.1133 64.9217C85.1133 63.1884 86.1352 62.1019 87.668 62.1019C88.3923 62.1019 88.9679 62.3929 89.356 62.8974V60.0969H91.1863V60.084ZM89.3495 64.967C89.3495 64.1327 88.8645 63.5765 88.153 63.5765C87.4416 63.5765 86.9501 64.1391 86.9501 64.967C86.9501 65.7948 87.4351 66.3575 88.153 66.3575C88.8709 66.3575 89.3495 65.7948 89.3495 64.967Z" fill="white"/>
<path d="M95.0602 62.1526V67.7277H93.2363V62.1526H95.0602ZM94.989 60.5875C94.989 61.0725 94.6398 61.4218 94.1547 61.4218C93.6697 61.4218 93.3204 61.0725 93.3204 60.5875C93.3204 60.1024 93.6697 59.7402 94.1547 59.7402C94.6398 59.7402 94.989 60.0895 94.989 60.5875Z" fill="white"/>
<path d="M102.75 64.2091V67.721H100.926V64.733C100.926 64.1056 100.558 63.7111 99.9819 63.7111C99.361 63.7241 98.9601 64.1444 98.8889 64.7718V67.7145H97.0586V62.1395H98.8889V63.045C99.277 62.4047 99.9173 62.0684 100.732 62.0684C101.948 62.0684 102.75 62.8897 102.75 64.2027V64.2091Z" fill="white"/>
<path d="M109.934 62.1526V67.2296C109.934 68.8077 108.712 69.7972 106.908 69.7972C105.931 69.7972 105.045 69.4868 104.418 69.0793L105.058 67.8117C105.562 68.1609 106.183 68.3549 106.778 68.3549C107.612 68.3549 108.117 67.9345 108.117 67.2813V66.6863C107.755 67.1584 107.218 67.4171 106.532 67.4171C105.142 67.4171 104.152 66.3435 104.152 64.7266C104.152 63.1098 105.11 62.0879 106.487 62.0879C107.186 62.0879 107.742 62.3595 108.117 62.8317V62.1526H109.941H109.934ZM108.11 64.7784C108.11 63.9958 107.658 63.4719 106.985 63.4719C106.313 63.4719 105.853 64.0088 105.853 64.7784C105.853 65.548 106.306 66.0784 106.985 66.0784C107.664 66.0784 108.11 65.5416 108.11 64.7784Z" fill="white"/>
<path d="M78.6065 11.0645C76.6274 13.1341 74.118 15.7728 70.9295 16.4713C68.5624 16.9887 64.8048 17.3121 62.0819 18.4375C60.9954 18.8837 60.077 19.4658 59.469 20.229C58.4019 21.5871 58.4084 22.2856 58.68 22.6478C59.3009 22.8354 59.9153 23.1588 60.3939 23.7085C60.7173 23.3722 62.2565 21.9429 65.0052 21.9946C65.0052 21.9946 65.8654 21.5871 66.3505 21.6777C66.4604 21.807 66.5639 21.9429 66.6674 22.0787C66.5833 23.1329 64.352 28.2099 61.1441 27.1557C60.4004 30.9457 56.3129 36.1327 55.6985 36.1327C55.084 36.1327 50.9965 30.9392 50.2528 27.1557C48.9722 27.5761 47.8533 27.0199 46.9543 26.1338C45.4927 24.6851 44.6454 22.3633 44.736 21.9558C44.8783 21.2896 46.3917 22.0011 46.3917 22.0011C47.3359 21.9817 48.1379 22.1434 48.7976 22.3697C50.0588 22.803 50.7896 23.4951 51.003 23.715C51.4816 23.1588 52.0896 22.8354 52.7169 22.6543C52.9885 22.2921 52.995 21.5871 51.9279 20.2354C51.7791 20.0479 51.611 19.8668 51.4234 19.6986C48.9722 17.4932 43.5459 17.1439 40.4739 16.4778C37.2854 15.7793 34.7759 13.147 32.7969 11.0709C32.9327 11.1873 37.2465 15.0226 41.5475 15.1713C43.5653 15.2425 50.104 15.7664 53.5448 18.4698C54.8447 19.4917 55.7049 20.824 55.7049 22.5702C55.7049 20.313 57.1472 18.7414 59.1263 17.6419C62.7093 15.6564 68.0644 15.236 69.8559 15.1713C74.1504 15.0226 78.4707 11.1938 78.6065 11.0709V11.0645Z" fill="white"/>
<path d="M66.6685 22.0787C66.565 21.9429 66.4615 21.8071 66.3516 21.6777C66.5133 21.7036 66.6297 21.7877 66.662 21.9494C66.662 21.9817 66.6685 22.0205 66.662 22.0723L66.6685 22.0787Z" fill="white"/>
<path d="M81.8924 1.2915V29.3412L81.0386 30.4213C74.2995 32.0059 56.8112 37.8655 56.8112 45.9046H54.5929C54.5929 37.859 37.1046 31.9994 30.3654 30.4213L29.5117 29.3412V1.2915L30.6177 0.185547H46.6442V2.40391H31.7236V28.4746C35.6429 29.4835 51.3656 33.9655 55.6988 41.8042C60.0256 33.9655 75.7547 29.4835 79.674 28.4746V2.40391H64.7598V0.185547H80.7864L81.8924 1.2915Z" fill="white"/>
</g>
<defs>
<clipPath id="clip0_53_3325">
<rect width="110" height="69.6037" fill="white" transform="translate(0.705078 0.185547)"/>
</clipPath>
</defs>
</svg>
