<svg width="136" height="80" viewBox="0 0 136 80" fill="none" xmlns="http://www.w3.org/2000/svg">
<path d="M8.39982 67.7363L3.21484 79.8758H5.99665L6.93164 77.519H12.4566L13.3916 79.8758H16.2739L11.1739 67.7363H8.39209H8.39982ZM7.82027 75.309L9.71344 70.5877L11.5912 75.309H7.82027Z" fill="#243770"/>
<path d="M15.0996 70.0545H18.7314V79.8758H21.4282V70.0545H25.0755V67.7363H15.0996V70.0545Z" fill="#243770"/>
<path d="M35.3294 67.7363H25.3535V70.0545H28.9853V79.8758H31.6744V70.0545H35.3294V67.7363Z" fill="#243770"/>
<path d="M39.3471 67.7363L34.1621 79.8758H36.9439L37.8789 77.519H43.4039L44.3389 79.8758H47.2211L42.1212 67.7363H39.3394H39.3471ZM38.7675 75.309L40.6607 70.5877L42.5384 75.309H38.7675Z" fill="#243770"/>
<path d="M61.686 72.7977H56.2847V67.7363H53.5879V79.8758H56.2847V75.0849H61.686V79.8758H64.3828V67.7363H61.686V72.7977Z" fill="#243770"/>
<path d="M72.5659 67.6445C68.9187 67.6445 66.1523 70.2641 66.1523 73.8031C66.1523 77.3422 68.9187 79.9926 72.5659 79.9926C76.2132 79.9926 78.9795 77.3036 78.9795 73.8031C78.9795 70.3027 76.2132 67.6445 72.5659 67.6445ZM72.6046 77.6049C70.611 77.6049 68.9187 75.9436 68.9187 73.8031C68.9187 71.6627 70.5878 70.04 72.6046 70.04C74.6214 70.04 76.2209 71.6704 76.2209 73.8031C76.2209 75.9358 74.5982 77.6049 72.6046 77.6049Z" fill="#243770"/>
<path d="M83.4468 67.7363H80.75V79.8758H88.5622V77.4804H83.4468V67.7363Z" fill="#243770"/>
<path d="M95.2313 67.7382H90.1699V79.8777H95.1308C98.9017 79.8777 101.506 77.3818 101.506 73.8041C101.506 70.2264 98.9326 67.7305 95.2313 67.7305V67.7382ZM95.3008 77.5672H92.859V70.0409H95.1772C97.2249 70.0409 98.7549 71.5864 98.7549 73.8195C98.7549 76.0527 97.2867 77.5672 95.2931 77.5672H95.3008Z" fill="#243770"/>
<path d="M105.98 67.7363H103.283V79.8758H105.98V67.7363Z" fill="#243770"/>
<path d="M116.866 75.5408L111.071 67.7363H108.613V79.8758H111.194V72.0868L116.974 79.8758H119.431V67.7363H116.866V75.5408Z" fill="#243770"/>
<path d="M127.715 70.0245C128.874 70.0245 130.103 70.5422 130.992 71.3768L132.506 69.4141C131.293 68.34 129.485 67.6445 127.715 67.6445C123.998 67.6445 121.201 70.295 121.201 73.8031C121.201 77.3113 123.944 79.9926 127.561 79.9926C129.214 79.9926 131.138 79.3513 132.406 78.4163V73.749H130.072V76.9404C129.307 77.3422 128.449 77.5972 127.738 77.5972C125.621 77.5972 123.968 75.9513 123.968 73.7954C123.968 71.6395 125.606 70.0168 127.723 70.0168L127.715 70.0245Z" fill="#243770"/>
<path d="M50.9007 62.7988H49.1621V64.5066H50.9007V62.7988Z" fill="#243770"/>
<path d="M6.67613 52.1602H4.9375V53.8679H6.67613V52.1602Z" fill="#243770"/>
<path d="M4.24253 52.1602H2.50391V53.8679H4.24253V52.1602Z" fill="#243770"/>
<path d="M32.1685 53.2422H30.4453V54.9499H32.1685V53.2422Z" fill="#243770"/>
<path d="M52.3453 59.5994C52.3453 58.1699 52.3298 57.7603 52.3143 56.099H50.3053C50.3207 57.088 50.3362 58.1003 50.3362 59.1203C50.3362 59.5994 50.0348 59.8235 49.6021 59.8235H34.6731C34.4413 58.0153 33.7149 56.3231 31.474 56.1067C30.5236 56.0062 28.2208 56.5703 26.8531 59.6071L26.8377 57.343H24.844L24.8595 59.8235H7.63551C7.13324 59.8235 6.98642 59.4603 6.98642 59.1203L6.97096 54.9785H4.97734V55.3726C4.66052 55.079 4.27416 54.9785 3.8028 54.9785C2.8678 54.9785 1.50781 55.6044 1.50781 57.6367C1.50781 58.4249 1.97917 60.1867 3.70235 60.1867H5.0237C5.05461 60.5653 5.65734 61.6471 6.86278 61.6471H50.1585C51.5803 61.6471 52.3375 60.8435 52.3375 59.6071L52.3453 59.5994ZM4.11189 58.4944C3.64053 58.4944 3.4628 57.884 3.49371 57.6212C3.54007 56.9335 3.89553 56.7171 4.19689 56.7171C4.58325 56.7171 4.71461 56.8021 4.98507 57.0958L5.00052 58.4944H4.11189ZM28.3368 59.8235C29.3413 58.2935 30.4308 57.8376 31.0876 57.8376C32.2931 57.8376 32.6795 58.9349 32.7258 59.8235H28.3368Z" fill="#243770"/>
<path d="M75.5261 52.4141H73.8184V54.1218H75.5261V52.4141Z" fill="#243770"/>
<path d="M77.9616 52.4141H76.2539V54.1218H77.9616V52.4141Z" fill="#243770"/>
<path d="M95.8801 52.1602C95.8955 53.1647 95.9342 58.0947 95.9342 59.1224C95.9342 59.6015 95.6328 59.8256 95.2001 59.8256H79.0656C78.6947 59.8256 78.4088 59.841 77.9915 59.7637C78.5633 59.0915 78.7797 58.4038 78.7797 57.8397C78.7797 56.1474 77.4043 55.2588 75.9284 55.2588C74.4525 55.2588 73.077 56.1474 73.077 57.8397C73.077 58.4115 73.2934 59.0915 73.8806 59.7637C73.5484 59.8101 73.1929 59.8256 72.822 59.8256H56.7262C56.4557 59.7637 56.2548 59.5783 56.2548 59.1688L56.2085 52.1679H54.2148L54.2689 59.7947C54.2844 61.0233 55.1189 61.6492 55.9921 61.6492H73.5947C74.4293 61.6492 75.202 61.4869 75.9361 61.2087C76.6856 61.4869 77.4815 61.6492 78.3161 61.6492H95.7719C97.1937 61.6492 97.951 60.8456 97.951 59.6092C97.951 58.1797 97.9201 53.8447 97.9046 52.1679H95.8801V52.1602ZM75.9206 59.2538C75.8665 59.2538 75.0165 58.6974 75.0165 57.7933C75.0165 57.206 75.3488 56.7579 75.9206 56.7579C76.4924 56.7579 76.8247 57.2138 76.8247 57.7933C76.8247 58.7128 75.9902 59.2538 75.9206 59.2538Z" fill="#243770"/>
<path d="M101.814 52.1602H99.8047L99.8742 61.6492H101.883L101.814 52.1602Z" fill="#243770"/>
<path d="M108.685 61.6494H126.613C128.034 61.6494 128.792 60.8457 128.792 59.6094C128.792 58.1798 128.776 57.7703 128.761 56.1089H126.752C126.767 57.098 126.783 58.1103 126.783 59.1303C126.783 59.6094 126.481 59.8335 126.048 59.8335H109.412C109.141 59.7717 108.94 59.5862 108.94 59.1767L108.894 52.1758H106.9L106.954 59.8026C106.97 61.0312 107.804 61.6571 108.678 61.6571L108.685 61.6494Z" fill="#243770"/>
<path d="M128.598 53.2559H126.875V54.9636H128.598V53.2559Z" fill="#243770"/>
<path d="M126.157 53.2559H124.434V54.9636H126.157V53.2559Z" fill="#243770"/>
<path d="M130.66 52.1602L130.73 61.6492H132.739L132.669 52.1602H130.66Z" fill="#243770"/>
<path d="M131.805 50.2348C131.805 50.0339 131.959 49.9103 132.122 49.9103C132.284 49.9103 132.438 49.9953 132.508 50.2194C132.508 50.2194 132.941 49.6089 132.941 49.578C132.67 49.1994 132.307 49.0371 131.905 49.0371C131.287 49.0371 130.885 49.5316 130.885 50.1035C130.885 50.173 130.885 50.4357 131.032 50.6289H130.499L130.043 51.5794H132.925V50.6289H132.207C131.905 50.6289 131.805 50.3971 131.805 50.2348Z" fill="#243770"/>
<mask id="mask0_298_3472" style="mask-type:luminance" maskUnits="userSpaceOnUse" x="71" y="17" width="9" height="19">
<path d="M79.4374 17.1699H71.8184V35.8775L79.4374 26.574V17.1699Z" fill="white"/>
</mask>
<g mask="url(#mask0_298_3472)">
<path d="M135.228 0H0.00195312V42.4998H135.228V0Z" fill="#243770"/>
</g>
<mask id="mask1_298_3472" style="mask-type:luminance" maskUnits="userSpaceOnUse" x="66" y="7" width="29" height="9">
<path d="M72.5208 7.99805L66.2617 15.5862H88.4389L94.6516 7.99805H72.5208Z" fill="white"/>
</mask>
<g mask="url(#mask1_298_3472)">
<path d="M135.227 0H0V42.4998H135.227V0Z" fill="#243770"/>
</g>
<mask id="mask2_298_3472" style="mask-type:luminance" maskUnits="userSpaceOnUse" x="90" y="7" width="43" height="34">
<path d="M111.505 14.0253C111.242 13.693 110.957 13.3762 110.671 13.0671C108.886 11.1585 106.699 9.73667 104.288 8.89441C102.603 8.30714 100.811 7.99805 98.9716 7.99805H96.7771L90.5566 15.5862H98.9716C101.56 15.5862 103.546 16.7453 105.161 18.7621L105.416 19.0866L123.15 40.6301H132.94L111.505 14.0253Z" fill="white"/>
</mask>
<g mask="url(#mask2_298_3472)">
<path d="M135.228 0H0.00195312V42.4998H135.228V0Z" fill="#243770"/>
</g>
<mask id="mask3_298_3472" style="mask-type:luminance" maskUnits="userSpaceOnUse" x="70" y="17" width="47" height="24">
<path d="M112.238 29.7498L110.12 27.2385H91.0109L97.5095 19.179L97.2545 18.8545C97.2545 18.8545 97.2391 18.8313 97.2314 18.8235C96.4045 17.7804 95.1527 17.1699 93.8314 17.1699H89.2723L70.0547 40.6298H80.3165L84.9296 34.8575H116.434L112.253 29.7498H112.238Z" fill="white"/>
</mask>
<g mask="url(#mask3_298_3472)">
<path d="M135.227 0H0V42.4998H135.227V0Z" fill="#243770"/>
</g>
<mask id="mask4_298_3472" style="mask-type:luminance" maskUnits="userSpaceOnUse" x="55" y="17" width="8" height="19">
<path d="M55.0195 17.1699H62.6386V35.8775L55.0195 26.574V17.1699Z" fill="white"/>
</mask>
<g mask="url(#mask4_298_3472)">
<path d="M135.228 0H0.00195312V42.4998H135.228V0Z" fill="#243770"/>
</g>
<mask id="mask5_298_3472" style="mask-type:luminance" maskUnits="userSpaceOnUse" x="39" y="7" width="32" height="9">
<path d="M70.4122 7.99805L64.0681 15.5862H46.0173L39.7969 7.99805H70.4122Z" fill="white"/>
</mask>
<g mask="url(#mask5_298_3472)">
<path d="M135.228 0H0.00195312V42.4998H135.228V0Z" fill="#243770"/>
</g>
<mask id="mask6_298_3472" style="mask-type:luminance" maskUnits="userSpaceOnUse" x="1" y="7" width="43" height="34">
<path d="M22.951 14.0253C23.2137 13.693 23.4996 13.3762 23.7855 13.0671C25.5705 11.1585 27.7573 9.73667 30.1682 8.89441C31.8527 8.30714 33.6454 7.99805 35.4845 7.99805H37.6791L43.8995 15.5862H35.5541H35.4845C32.8959 15.5862 30.91 16.7453 29.295 18.7621L29.04 19.0866L11.306 40.6301H1.51562L22.951 14.0253Z" fill="white"/>
</mask>
<g mask="url(#mask6_298_3472)">
<path d="M135.227 0H0V42.4998H135.227V0Z" fill="#243770"/>
</g>
<mask id="mask7_298_3472" style="mask-type:luminance" maskUnits="userSpaceOnUse" x="18" y="17" width="47" height="24">
<path d="M22.2175 29.7498L24.3347 27.2385H43.4442L36.9456 19.179L37.2006 18.8545C37.2006 18.8545 37.216 18.8313 37.2237 18.8235C38.0505 17.7804 39.3024 17.1699 40.6237 17.1699H45.1828L64.4004 40.6298H54.1386L49.5255 34.8575H18.0293L22.2097 29.7498H22.2175Z" fill="white"/>
</mask>
<g mask="url(#mask7_298_3472)">
<path d="M135.228 0H0.00195312V42.4998H135.228V0Z" fill="#243770"/>
</g>
<path d="M122.453 17.8898V13.1375H120.676V12.5039H124.941V13.1375H123.156V17.8898H122.445H122.453Z" fill="#243770"/>
<path d="M125.66 17.8897V12.5038H126.734L128.009 16.3133C128.125 16.6688 128.21 16.9315 128.264 17.1092C128.326 16.9161 128.419 16.6224 128.55 16.2438L129.841 12.4961H130.799V17.882H130.111V13.377L128.542 17.882H127.901L126.34 13.2997V17.882H125.652L125.66 17.8897Z" fill="#243770"/>
<path d="M125.737 22.4016C129.714 22.4016 132.939 19.1773 132.939 15.1998C132.939 11.2224 129.714 7.99805 125.737 7.99805C121.76 7.99805 118.535 11.2224 118.535 15.1998C118.535 19.1773 121.76 22.4016 125.737 22.4016Z" stroke="#243770" stroke-miterlimit="10"/>
</svg>
