<svg width="110" height="76" viewBox="0 0 110 76" fill="none" xmlns="http://www.w3.org/2000/svg">
<g clip-path="url(#clip0_153_17837)">
<mask id="mask0_153_17837" style="mask-type:luminance" maskUnits="userSpaceOnUse" x="39" y="3" width="33" height="33">
<path d="M71.2982 30.1705L55.5174 35.5127L39.8789 30.675V3.64062H71.2982V30.1705Z" fill="white"/>
</mask>
<g mask="url(#mask0_153_17837)">
<path d="M74.1767 35.5127H36.6778L36.5938 3.64062H74.0926L74.1767 35.5127Z" fill="url(#paint0_linear_153_17837)"/>
<path d="M55.5187 35.5132L39.0977 1.84961" stroke="white" stroke-width="3.15" stroke-miterlimit="10"/>
<path d="M55.5173 35.5138L38.1973 13.8281" stroke="white" stroke-width="3.15" stroke-miterlimit="10"/>
<path d="M55.5175 35.5124L38.4238 23.4375" stroke="white" stroke-width="3.15" stroke-miterlimit="10"/>
<path d="M55.5176 35.5132L72.2491 1.84961" stroke="white" stroke-width="3.15" stroke-miterlimit="10"/>
<path d="M55.5176 35.5138L73.1481 13.8281" stroke="white" stroke-width="3.15" stroke-miterlimit="10"/>
<path d="M55.5176 35.5124L72.9217 23.4375" stroke="white" stroke-width="3.15" stroke-miterlimit="10"/>
<path d="M54.6765 34.7433V22.0993H53.1178L52.6716 16.5954H50.6602V0.439453H60.5167V16.5954H58.5053L58.059 22.0993H56.4357V34.7433H54.6765Z" fill="white"/>
<path d="M60.0772 0.879586V16.1559H58.0982L57.6519 21.6663H55.9962V34.3103H55.1166V21.6663H53.5191L53.0729 16.1559H51.0938V0.879586H60.0772ZM60.9568 0H50.2207V17.029H52.2709L52.6525 21.7309L52.7172 22.5394H54.2435V35.1834H56.8758V22.5394H58.4668L58.5315 21.7309L58.9131 17.029H60.9633V0H60.9568Z" fill="white"/>
</g>
<path d="M3.51834 62.6641H0L7.83866 44.1992H11.5187L19.5255 62.6641H15.8455L13.7435 57.6258H7.6123L8.78939 54.6572H12.5082L9.6043 47.724L3.52481 62.6641H3.51834Z" fill="white"/>
<path d="M25.2104 44.1992V59.6955H32.5446V62.6641H21.7891V44.1992H25.2104Z" fill="white"/>
<path d="M35.7715 62.6641V44.1992H39.1928L48.9394 57.6517V44.1992H52.2314V62.6641H48.8101L39.0635 48.927V62.6641H35.7715Z" fill="white"/>
<path d="M58.008 62.6641H54.4961L62.3348 44.1992H66.0148L74.0216 62.6641H70.3416L68.2396 57.6258H62.1084L63.2855 54.6572H67.0043L64.1004 47.724L58.0209 62.6641H58.008Z" fill="white"/>
<path d="M75.9553 61.8871V58.7891C77.8051 59.4811 79.9005 59.8239 82.2289 59.8239C85.0616 59.8239 86.478 58.8796 86.478 56.9847C86.478 55.6071 85.6114 54.915 83.8716 54.915H80.9806C77.2036 54.915 75.3086 53.1947 75.3086 49.7475C75.3086 45.9575 77.9991 44.0625 83.3801 44.0625C85.4432 44.0625 87.4029 44.3665 89.2526 44.968V48.0659C87.4029 47.3739 85.4432 47.0311 83.3801 47.0311C80.2821 47.0311 78.7299 47.9366 78.7299 49.741C78.7299 51.1186 79.4802 51.8042 80.9742 51.8042H83.8652C87.888 51.8042 89.8929 53.5245 89.8929 56.9717C89.8929 60.8458 87.3382 62.7796 82.2224 62.7796C79.8876 62.7796 77.7986 62.4756 75.9489 61.8741L75.9553 61.8871Z" fill="white"/>
<path d="M92.8086 62.6382V44.1992H101.203C104.974 44.1992 106.856 45.8484 106.856 49.1469C106.856 51.3782 105.388 53.2214 102.452 54.6896L108.298 62.6705H103.985L98.3707 54.6249V53.0598C101.643 52.5035 103.28 51.2294 103.28 49.2504C103.28 47.8922 102.51 47.2066 100.984 47.2066H96.2946V62.6382H92.8086Z" fill="white"/>
<path d="M0 75.9165V67.541H1.61042L4.44967 73.8986L7.23071 67.541H8.78293V75.9165H7.34713V70.0828L5.07702 75.9165H3.75118L1.42933 70.0828V75.9165H0Z" fill="#87959E"/>
<path d="M16.2785 67.541V68.8733H12.0875V70.9817H16.0844V72.3723H12.0746V74.5712H16.369V75.9165H10.5547V67.541H16.2914H16.2785Z" fill="#87959E"/>
<path d="M23.2711 67.541V68.8863H20.8716V75.9165H19.3194V68.8863H16.9199V67.541H23.2775H23.2711Z" fill="#87959E"/>
<path d="M24.1301 75.9165H22.5391L26.0962 67.541H27.7648L31.3996 75.9165H29.731L28.7738 73.6334H25.9927L26.5231 72.2882H28.2111L26.8917 69.145L24.1301 75.923V75.9165Z" fill="#87959E"/>
<path d="M33.9682 67.541V74.5712H37.2925V75.9165H32.416V67.541H33.9682Z" fill="#87959E"/>
<path d="M42.9506 67.541V75.9165H41.3984V67.541H42.9506Z" fill="#87959E"/>
<path d="M44.7031 75.9165V67.541H46.2553L50.6791 73.6464V67.541H52.1731V75.9165H50.6209L46.1971 69.6818V75.9165H44.7031Z" fill="#87959E"/>
<path d="M53.9336 75.9165V67.541H57.2126C59.9872 67.541 61.3713 68.8604 61.3713 71.4992C61.3713 74.4419 59.9872 75.9165 57.2126 75.9165H53.9336ZM57.2126 74.5712C58.9524 74.5712 59.8191 73.5494 59.8191 71.4992C59.8191 69.7594 58.9524 68.8863 57.2126 68.8863H55.4858V74.5648H57.2126V74.5712Z" fill="#87959E"/>
<path d="M62.6895 72.6245V67.541H64.2417V72.6245C64.2417 73.9568 64.9272 74.6294 66.2919 74.6294C67.6565 74.6294 68.3421 73.9633 68.3421 72.6245V67.541H69.8943V72.6245C69.8943 74.8558 68.6913 75.9747 66.2919 75.9747C63.8924 75.9747 62.6895 74.8558 62.6895 72.6245Z" fill="#87959E"/>
<path d="M71.4987 75.5662V74.1628C72.3395 74.4732 73.2902 74.6285 74.3444 74.6285C75.6314 74.6285 76.2717 74.2016 76.2717 73.3414C76.2717 72.7141 75.8772 72.4036 75.0882 72.4036H73.7753C72.0614 72.4036 71.2012 71.621 71.2012 70.0624C71.2012 68.342 72.4235 67.4883 74.8618 67.4883C75.7996 67.4883 76.6857 67.6241 77.5264 67.8957V69.2992C76.6857 68.9888 75.7996 68.8335 74.8618 68.8335C73.4583 68.8335 72.7534 69.241 72.7534 70.0624C72.7534 70.6897 73.0897 71.0002 73.7753 71.0002H75.0882C76.912 71.0002 77.8239 71.7827 77.8239 73.3414C77.8239 75.1006 76.6662 75.9737 74.3444 75.9737C73.2837 75.9737 72.3395 75.8379 71.4987 75.5662Z" fill="#87959E"/>
<path d="M84.6207 67.541V68.8863H82.2212V75.9165H80.669V68.8863H78.2695V67.541H84.6271H84.6207Z" fill="#87959E"/>
<path d="M85.5006 75.9036V67.541H89.31C91.0174 67.541 91.8776 68.2913 91.8776 69.7853C91.8776 70.7942 91.2114 71.635 89.8791 72.3011L92.5308 75.923H90.5712L88.023 72.2753V71.5638C89.504 71.3116 90.2478 70.736 90.2478 69.837C90.2478 69.2226 89.8985 68.9121 89.2065 68.9121H87.0787V75.91H85.4941L85.5006 75.9036Z" fill="#87959E"/>
<path d="M94.8139 67.541V75.9165H93.2617V67.541H94.8139Z" fill="#87959E"/>
<path d="M102.304 67.541V68.8733H98.1129V70.9817H102.11V72.3723H98.0999V74.5712H102.394V75.9165H96.5801V67.541H102.317H102.304Z" fill="#87959E"/>
<path d="M103.674 75.5662V74.1628C104.515 74.4732 105.466 74.6285 106.52 74.6285C107.807 74.6285 108.448 74.2016 108.448 73.3414C108.448 72.7141 108.053 72.4036 107.264 72.4036H105.951C104.237 72.4036 103.377 71.621 103.377 70.0624C103.377 68.342 104.599 67.4883 107.038 67.4883C107.975 67.4883 108.861 67.6241 109.702 67.8957V69.2992C108.861 68.9888 107.975 68.8335 107.038 68.8335C105.634 68.8335 104.929 69.241 104.929 70.0624C104.929 70.6897 105.265 71.0002 105.951 71.0002H107.264C109.088 71.0002 110 71.7827 110 73.3414C110 75.1006 108.842 75.9737 106.52 75.9737C105.46 75.9737 104.515 75.8379 103.674 75.5662Z" fill="#87959E"/>
</g>
<defs>
<linearGradient id="paint0_linear_153_17837" x1="36.5938" y1="19.5767" x2="74.1767" y2="19.5767" gradientUnits="userSpaceOnUse">
<stop stop-color="#263878"/>
<stop offset="0.44" stop-color="#1E2E5B"/>
<stop offset="0.98" stop-color="#142032"/>
<stop offset="1" stop-color="#142032"/>
</linearGradient>
<clipPath id="clip0_153_17837">
<rect width="110" height="75.9743" fill="white"/>
</clipPath>
</defs>
</svg>
