<svg width="18" height="17" viewBox="0 0 18 17" fill="none" xmlns="http://www.w3.org/2000/svg">
<path d="M16.9515 16.0002L13.244 12.381M13.244 12.381C13.8782 11.7619 14.3813 11.027 14.7245 10.2181C15.0677 9.40927 15.2443 8.54234 15.2443 7.66684C15.2443 6.79134 15.0677 5.92441 14.7245 5.11555C14.3813 4.30669 13.8782 3.57174 13.244 2.95267C12.6099 2.3336 11.857 1.84252 11.0284 1.50748C10.1998 1.17244 9.31175 1 8.41489 1C7.51804 1 6.62996 1.17244 5.80138 1.50748C4.97279 1.84252 4.21992 2.3336 3.58575 2.95267C2.30498 4.20295 1.58545 5.89868 1.58545 7.66684C1.58545 9.43499 2.30498 11.1307 3.58575 12.381C4.86652 13.6313 6.60361 14.3337 8.41489 14.3337C10.2262 14.3337 11.9633 13.6313 13.244 12.381Z" stroke="#243770" stroke-width="2" stroke-linecap="round" stroke-linejoin="round"/>
</svg>
