<svg width="24" height="24" viewBox="0 0 24 24" fill="none" xmlns="http://www.w3.org/2000/svg">
<path d="M5.99973 6C5.6019 6 5.22037 6.15804 4.93907 6.43934C4.65776 6.72064 4.49973 7.10218 4.49973 7.5V11.163C4.49973 11.5608 4.65776 11.9424 4.93907 12.2237C5.22037 12.505 5.6019 12.663 5.99973 12.663H8.08173C8.08173 13.19 8.05073 13.717 7.98873 14.244C7.89573 14.802 7.74073 15.298 7.52373 15.732C7.30673 16.166 7.02723 16.5075 6.68523 16.7565C6.34523 17.0355 5.91123 17.175 5.38323 17.175V19.5C6.25123 19.5 7.01123 19.314 7.66323 18.942C8.31071 18.5747 8.86702 18.0661 9.29073 17.454C9.71731 16.7803 10.0314 16.0416 10.2207 15.267C10.4122 14.4124 10.5058 13.5388 10.4997 12.663V7.5C10.4997 7.10218 10.3417 6.72064 10.0604 6.43934C9.77908 6.15804 9.39755 6 8.99973 6H5.99973ZM14.9997 6C14.6019 6 14.2204 6.15804 13.9391 6.43934C13.6578 6.72064 13.4997 7.10218 13.4997 7.5V11.163C13.4997 11.5608 13.6578 11.9424 13.9391 12.2237C14.2204 12.505 14.6019 12.663 14.9997 12.663H17.0817C17.0817 13.19 17.0507 13.717 16.9887 14.244C16.8947 14.802 16.7397 15.298 16.5237 15.732C16.3067 16.166 16.0272 16.5075 15.6852 16.7565C15.3452 17.0355 14.9112 17.175 14.3832 17.175V19.5C15.2512 19.5 16.0112 19.314 16.6632 18.942C17.3107 18.5747 17.867 18.0661 18.2907 17.454C18.7173 16.7803 19.0314 16.0416 19.2207 15.267C19.4122 14.4124 19.5058 13.5388 19.4997 12.663V7.5C19.4997 7.10218 19.3417 6.72064 19.0604 6.43934C18.7791 6.15804 18.3976 6 17.9997 6H14.9997Z" fill="black"/>
</svg>
