<svg width="111" height="50" viewBox="0 0 111 50" fill="none" xmlns="http://www.w3.org/2000/svg">
<mask id="mask0_153_17623" style="mask-type:luminance" maskUnits="userSpaceOnUse" x="58" y="14" width="7" height="16">
<path d="M64.8185 14.0098H58.6016V29.2746L64.8185 21.6832V14.0098Z" fill="white"/>
</mask>
<g mask="url(#mask0_153_17623)">
<path d="M110.342 0H0.00195312V34.6784H110.342V0Z" fill="url(#paint0_linear_153_17623)"/>
</g>
<mask id="mask1_153_17623" style="mask-type:luminance" maskUnits="userSpaceOnUse" x="54" y="6" width="24" height="7">
<path d="M59.1736 6.52539L54.0664 12.7171H72.1622L77.2316 6.52539H59.1736Z" fill="white"/>
</mask>
<g mask="url(#mask1_153_17623)">
<path d="M110.34 0H0V34.6784H110.34V0Z" fill="url(#paint1_linear_153_17623)"/>
</g>
<mask id="mask2_153_17623" style="mask-type:luminance" maskUnits="userSpaceOnUse" x="73" y="6" width="36" height="28">
<path d="M90.9839 11.4434C90.7696 11.1723 90.5363 10.9138 90.303 10.6616C88.8465 9.1042 87.0621 7.94405 85.0949 7.25679C83.7204 6.7776 82.2576 6.52539 80.757 6.52539H78.9663L73.8906 12.7171H80.757C82.8692 12.7171 84.4896 13.6628 85.8074 15.3085L86.0155 15.5733L100.486 33.1521H108.474L90.9839 11.4434Z" fill="white"/>
</mask>
<g mask="url(#mask2_153_17623)">
<path d="M110.34 0H0V34.6784H110.34V0Z" fill="url(#paint2_linear_153_17623)"/>
</g>
<mask id="mask3_153_17623" style="mask-type:luminance" maskUnits="userSpaceOnUse" x="57" y="14" width="39" height="20">
<path d="M91.584 24.2746L89.8564 22.2254H74.2637L79.5663 15.6491L79.3583 15.3843C79.3583 15.3843 79.3456 15.3654 79.3393 15.3591C78.6647 14.5079 77.6433 14.0098 76.5651 14.0098H72.845L57.1641 33.1523H65.5373L69.3015 28.4423H95.0077L91.5966 24.2746H91.584Z" fill="white"/>
</mask>
<g mask="url(#mask3_153_17623)">
<path d="M110.342 0H0.00195312V34.6784H110.342V0Z" fill="url(#paint3_linear_153_17623)"/>
</g>
<mask id="mask4_153_17623" style="mask-type:luminance" maskUnits="userSpaceOnUse" x="44" y="14" width="8" height="16">
<path d="M44.8926 14.0098H51.1095V29.2746L44.8926 21.6832V14.0098Z" fill="white"/>
</mask>
<g mask="url(#mask4_153_17623)">
<path d="M110.34 0H0V34.6784H110.34V0Z" fill="url(#paint4_linear_153_17623)"/>
</g>
<mask id="mask5_153_17623" style="mask-type:luminance" maskUnits="userSpaceOnUse" x="32" y="6" width="26" height="7">
<path d="M57.4537 6.52539L52.2772 12.7171H37.5483L32.4727 6.52539H57.4537Z" fill="white"/>
</mask>
<g mask="url(#mask5_153_17623)">
<path d="M110.342 0H0.00195312V34.6784H110.342V0Z" fill="url(#paint5_linear_153_17623)"/>
</g>
<mask id="mask6_153_17623" style="mask-type:luminance" maskUnits="userSpaceOnUse" x="1" y="6" width="35" height="28">
<path d="M18.7269 11.4434C18.9412 11.1723 19.1745 10.9138 19.4078 10.6616C20.8643 9.1042 22.6487 7.94405 24.6159 7.25679C25.9904 6.7776 27.4532 6.52539 28.9538 6.52539H30.7445L35.8202 12.7171H29.0106H28.9538C26.8416 12.7171 25.2212 13.6628 23.9034 15.3085L23.6953 15.5733L9.22498 33.1521H1.23633L18.7269 11.4434Z" fill="white"/>
</mask>
<g mask="url(#mask6_153_17623)">
<path d="M110.34 0H0V34.6784H110.34V0Z" fill="url(#paint6_linear_153_17623)"/>
</g>
<mask id="mask7_153_17623" style="mask-type:luminance" maskUnits="userSpaceOnUse" x="14" y="14" width="39" height="20">
<path d="M18.1283 24.2746L19.856 22.2254H35.4486L30.146 15.6491L30.3541 15.3843C30.3541 15.3843 30.3667 15.3654 30.373 15.3591C31.0476 14.5079 32.0691 14.0098 33.1473 14.0098H36.8673L52.5483 33.1523H44.175L40.4108 28.4423H14.7109L18.122 24.2746H18.1283Z" fill="white"/>
</mask>
<g mask="url(#mask7_153_17623)">
<path d="M110.34 0H0V34.6784H110.34V0Z" fill="url(#paint7_linear_153_17623)"/>
</g>
<path d="M4.40815 49.2692H2.75619L2.47877 49.9628H1.64648L3.19125 46.4004H4.02353L5.54308 49.9628H4.68558L4.40815 49.2692ZM4.14964 48.6261L3.58848 47.239L3.02101 48.6261H4.14333H4.14964Z" fill="#243770"/>
<path d="M6.72894 46.4004V49.2629H8.25479V49.9628H5.92188V46.4004H6.72894Z" fill="#243770"/>
<path d="M9.46427 46.4004L11.1919 48.6892V46.4004H11.9548V49.9628H11.2234L9.49579 47.6803V49.9628H8.72656V46.4004H9.45796H9.46427Z" fill="#243770"/>
<path d="M15.0956 49.2692H13.4437L13.1663 49.9628H12.334L13.8788 46.4004H14.711L16.2306 49.9628H15.3731L15.0956 49.2692ZM14.8371 48.6261L14.276 47.239L13.7085 48.6261H14.8308H14.8371Z" fill="#243770"/>
<path d="M17.8247 47.049C17.5536 47.049 17.3707 47.1436 17.3707 47.3391C17.3707 47.9948 19.2686 47.6291 19.2623 48.9091C19.2623 49.6089 18.657 49.9809 17.8688 49.9809C17.2824 49.9809 16.6961 49.754 16.2988 49.4135L16.6204 48.7577C16.9861 49.0856 17.5031 49.2937 17.8814 49.2937C18.2093 49.2937 18.4111 49.1739 18.4111 48.9532C18.4111 48.2785 16.5132 48.6758 16.5132 47.4084C16.5132 46.759 17.0681 46.3555 17.894 46.3555C18.3921 46.3555 18.8903 46.5068 19.2496 46.7401L18.9407 47.4084C18.5624 47.1814 18.1147 47.0427 17.831 47.0427L17.8247 47.049Z" fill="#243770"/>
<path d="M22.0184 49.9628L21.451 48.9477H20.6313V49.9628H19.8242V46.4004H21.369C22.3021 46.4004 22.8318 46.8481 22.8318 47.6362C22.8318 48.1848 22.5985 48.582 22.1634 48.7837L22.9201 49.9565H22.0058L22.0184 49.9628ZM20.6313 48.273H21.3753C21.8167 48.273 22.0752 48.0713 22.0752 47.6614C22.0752 47.2516 21.823 47.0687 21.3753 47.0687H20.6313V48.273Z" fill="#243770"/>
<path d="M27.6679 46.4004V47.0814H26.5771V49.9628H25.77V47.0814H24.6855V46.4004H27.6616H27.6679Z" fill="#243770"/>
<path d="M30.8147 46.4004V47.0687H28.9043V47.8443H30.6193V48.5126H28.9043V49.3008H30.8715V49.9691H28.1035V46.4067H30.8147V46.4004Z" fill="#243770"/>
<path d="M33.1542 47.0686C32.5426 47.0686 32.0697 47.5415 32.0697 48.1657C32.0697 48.7899 32.5426 49.2628 33.1542 49.2628C33.4757 49.2628 33.8288 49.0988 34.081 48.8466L34.5539 49.3636C34.1756 49.7483 33.6334 50.0005 33.1163 50.0005C32.0508 50.0005 31.25 49.2123 31.25 48.1783C31.25 47.1442 32.0697 46.375 33.1479 46.375C33.6649 46.375 34.2008 46.602 34.5539 46.9677L34.0873 47.5351C33.8414 47.2577 33.4946 47.0749 33.1605 47.0749L33.1542 47.0686Z" fill="#243770"/>
<path d="M35.8403 46.4004V47.8884H37.4544V46.4004H38.2614V49.9628H37.4544V48.5568H35.8403V49.9628H35.0332V46.4004H35.8403Z" fill="#243770"/>
<path d="M39.7748 46.4004L41.5024 48.6892V46.4004H42.2654V49.9628H41.534L39.8063 47.6803V49.9628H39.0371V46.4004H39.7685H39.7748Z" fill="#243770"/>
<path d="M43.8539 46.4004V49.9628H43.0469V46.4004H43.8539Z" fill="#243770"/>
<path d="M46.3006 47.0686C45.689 47.0686 45.2162 47.5415 45.2162 48.1657C45.2162 48.7899 45.689 49.2628 46.3006 49.2628C46.6222 49.2628 46.9753 49.0988 47.2275 48.8466L47.7004 49.3636C47.3221 49.7483 46.7798 50.0005 46.2628 50.0005C45.1972 50.0005 44.3965 49.2123 44.3965 48.1783C44.3965 47.1442 45.2162 46.375 46.2943 46.375C46.8114 46.375 47.3473 46.602 47.7004 46.9677L47.2338 47.5351C46.9879 47.2577 46.6411 47.0749 46.3069 47.0749L46.3006 47.0686Z" fill="#243770"/>
<path d="M50.4921 49.2692H48.8402L48.5628 49.9628H47.7305L49.2752 46.4004H50.1075L51.6271 49.9628H50.7696L50.4921 49.2692ZM50.2336 48.6261L49.6725 47.239L49.105 48.6261H50.2273H50.2336Z" fill="#243770"/>
<path d="M52.8071 46.4004V49.2629H54.3329V49.9628H52V46.4004H52.8071Z" fill="#243770"/>
<path d="M58.9667 46.4004V47.0814H57.8759V49.9628H57.0689V47.0814H55.9844V46.4004H58.9604H58.9667Z" fill="#243770"/>
<path d="M61.5907 49.9628L61.0232 48.9477H60.2036V49.9628H59.3965V46.4004H60.9413C61.8744 46.4004 62.4041 46.8481 62.4041 47.6362C62.4041 48.1848 62.1708 48.582 61.7357 48.7837L62.4923 49.9565H61.5781L61.5907 49.9628ZM60.2036 48.273H60.9476C61.3889 48.273 61.6474 48.0713 61.6474 47.6614C61.6474 47.2516 61.3952 47.0687 60.9476 47.0687H60.2036V48.273Z" fill="#243770"/>
<path d="M65.4355 49.2692H63.7835L63.5061 49.9628H62.6738L64.2186 46.4004H65.0509L66.5704 49.9628H65.7129L65.4355 49.2692ZM65.177 48.6261L64.6158 47.239L64.0484 48.6261H65.1707H65.177Z" fill="#243770"/>
<path d="M70.3351 48.1785C70.3351 49.2251 69.5533 49.9628 68.4309 49.9628H66.9492V46.4004H68.4625C69.5659 46.4004 70.3351 47.1255 70.3351 48.1848V48.1785ZM69.5154 48.1848C69.5154 47.529 69.0551 47.075 68.4435 47.075H67.75V49.2819H68.4751C69.0678 49.2819 69.5091 48.8342 69.5091 48.1848H69.5154Z" fill="#243770"/>
<path d="M71.6645 46.4004V49.9628H70.8574V46.4004H71.6645Z" fill="#243770"/>
<path d="M73.1908 46.4004L74.9184 48.6892V46.4004H75.6814V49.9628H74.95L73.2224 47.6803V49.9628H72.4531V46.4004H73.1845H73.1908Z" fill="#243770"/>
<path d="M78.8587 48.1642H79.5585V49.5324C79.1802 49.8098 78.6065 49.9927 78.1147 49.9927C77.0365 49.9927 76.2168 49.2108 76.2168 48.1768C76.2168 47.1427 77.0491 46.3672 78.1588 46.3672C78.6884 46.3672 79.2307 46.569 79.5901 46.8842L79.1361 47.458C78.8713 47.2121 78.5056 47.0608 78.1588 47.0608C77.5283 47.0608 77.0365 47.5463 77.0365 48.1705C77.0365 48.7947 77.5283 49.2865 78.1588 49.2865C78.3732 49.2865 78.6254 49.2108 78.8587 49.091V48.1516V48.1642Z" fill="#243770"/>
<path d="M84.1367 49.2692H82.4847L82.2073 49.9628H81.375L82.9198 46.4004H83.7521L85.2716 49.9628H84.4141L84.1367 49.2692ZM83.8782 48.6261L83.317 47.239L82.7495 48.6261H83.8719H83.8782Z" fill="#243770"/>
<path d="M87.9446 48.1642H88.6445V49.5324C88.2662 49.8098 87.6924 49.9927 87.2006 49.9927C86.1224 49.9927 85.3027 49.2108 85.3027 48.1768C85.3027 47.1427 86.135 46.3672 87.2447 46.3672C87.7744 46.3672 88.3166 46.569 88.676 46.8842L88.222 47.458C87.9572 47.2121 87.5915 47.0608 87.2447 47.0608C86.6142 47.0608 86.1224 47.5463 86.1224 48.1705C86.1224 48.7947 86.6142 49.2865 87.2447 49.2865C87.4591 49.2865 87.7113 49.2108 87.9446 49.091V48.1516V48.1642Z" fill="#243770"/>
<path d="M92.0569 46.4004V47.0687H90.1465V47.8443H91.8615V48.5126H90.1465V49.3008H92.1137V49.9691H89.3457V46.4067H92.0569V46.4004Z" fill="#243770"/>
<path d="M93.474 46.4004L95.2017 48.6892V46.4004H95.9646V49.9628H95.2332L93.5056 47.6803V49.9628H92.7363V46.4004H93.4677H93.474Z" fill="#243770"/>
<path d="M98.412 47.0686C97.8004 47.0686 97.3275 47.5415 97.3275 48.1657C97.3275 48.7899 97.8004 49.2628 98.412 49.2628C98.7335 49.2628 99.0866 49.0988 99.3388 48.8466L99.8117 49.3636C99.4334 49.7483 98.8912 50.0005 98.3741 50.0005C97.3086 50.0005 96.5078 49.2123 96.5078 48.1783C96.5078 47.1442 97.3275 46.375 98.4057 46.375C98.9227 46.375 99.4586 46.602 99.8117 46.9677L99.3451 47.5351C99.0992 47.2577 98.7525 47.0749 98.4183 47.0749L98.412 47.0686Z" fill="#243770"/>
<path d="M101.092 46.4004V49.9628H100.285V46.4004H101.092Z" fill="#243770"/>
<path d="M104.598 46.4004V47.0687H102.687V47.8443H104.402V48.5126H102.687V49.3008H104.655V49.9691H101.887V46.4067H104.598V46.4004Z" fill="#243770"/>
<path d="M106.52 47.049C106.249 47.049 106.066 47.1436 106.066 47.3391C106.066 47.9948 107.964 47.6291 107.958 48.9091C107.958 49.6089 107.352 49.9809 106.564 49.9809C105.978 49.9809 105.391 49.754 104.994 49.4135L105.316 48.7577C105.681 49.0856 106.198 49.2937 106.577 49.2937C106.905 49.2937 107.106 49.1739 107.106 48.9532C107.106 48.2785 105.209 48.6758 105.209 47.4084C105.209 46.759 105.763 46.3555 106.589 46.3555C107.087 46.3555 107.586 46.5068 107.945 46.7401L107.636 47.4084C107.258 47.1814 106.81 47.0427 106.526 47.0427L106.52 47.049Z" fill="#243770"/>
<path d="M3.83434 42.3641C3.37406 42.3641 3.14077 41.9606 3.12816 41.8155H2.62374C1.9617 41.8155 1.78516 41.1535 1.78516 40.8509C1.78516 40.0879 2.30849 39.8483 2.66157 39.8483C2.84442 39.8483 2.98944 39.8862 3.10924 39.9997V39.8483H3.87217V41.412C3.87217 41.5381 3.93522 41.6768 4.12437 41.6768H7.35262V42.3641H3.82803H3.83434ZM2.16347 39.4322V38.7891H2.82551V39.4322H2.16347ZM3.10924 40.6491C3.00205 40.5419 2.95792 40.5041 2.80659 40.5041C2.6931 40.5041 2.55439 40.586 2.53547 40.8445C2.52286 40.9454 2.59222 41.1724 2.76876 41.1724H3.10924V40.6428V40.6491ZM3.09663 39.4322V38.7891H3.75867V39.4322H3.09663Z" fill="#243770"/>
<path d="M9.37004 42.3648C9.0737 42.3648 8.89085 42.1756 8.80258 42.0432C8.65125 42.2513 8.38644 42.3648 8.12162 42.3648C7.81267 42.3648 7.56677 42.3648 7.25781 42.3648V41.6775H7.90094C8.05226 41.6775 8.25403 41.5893 8.25403 41.4001L8.24142 40.2715H9.01065C9.01065 40.5678 9.01065 40.8894 9.02326 41.192C9.02326 41.5388 9.28177 41.6838 9.41418 41.6838H9.93751V42.3711H9.37004V42.3648ZM7.8568 43.4367V42.7936H8.51885V43.4367H7.8568ZM8.78997 43.4367V42.7936H9.45201V43.4367H8.78997Z" fill="#243770"/>
<path d="M14.5459 42.3644C14.2496 42.3644 14.0667 42.1753 13.9784 42.0429C13.8271 42.2509 13.5623 42.3644 13.2975 42.3644C12.9885 42.3644 10.1386 42.3644 9.83594 42.3644V41.6772H13.0831C13.2344 41.6772 13.4362 41.5889 13.4362 41.3997L13.4236 40.2711H14.1928C14.1928 40.5674 14.1928 40.889 14.2054 41.1917C14.2054 41.5384 14.4639 41.6835 14.5963 41.6835H17.7174V42.3707H14.5522L14.5459 42.3644ZM13.4551 39.8423V39.1992H14.1171V39.8423H13.4551Z" fill="#243770"/>
<path d="M20.1654 42.3633C19.8438 42.3633 19.5412 42.3002 19.2511 42.1993C18.9737 42.3065 18.671 42.3633 18.3558 42.3633H17.6055V41.676H18.0531C18.1982 41.676 18.3306 41.676 18.4567 41.6571C18.2297 41.4049 18.1477 41.1464 18.1477 40.932C18.1477 40.2952 18.6773 39.961 19.2385 39.961C19.7997 39.961 20.3293 40.2952 20.3293 40.932C20.3293 41.1464 20.2473 41.4049 20.0267 41.6571C20.1843 41.6823 20.2978 41.676 20.4365 41.676H23.4693V42.3633H20.1465H20.1654ZM18.898 39.5259V38.8828H19.5601V39.5259H18.898ZM19.2511 40.5222C19.0304 40.5222 18.9043 40.6924 18.9043 40.9131C18.9043 41.2536 19.2259 41.4616 19.2511 41.4616C19.2763 41.4616 19.5979 41.2599 19.5979 40.9131C19.5979 40.6924 19.4781 40.5222 19.2511 40.5222Z" fill="#243770"/>
<path d="M24.251 42.3641H23.3809V41.6768H24.0366C24.2005 41.6768 24.314 41.5949 24.314 41.412C24.314 41.0274 24.2951 39.1674 24.2951 38.7891H25.0706C25.0706 39.4196 25.0896 41.0526 25.0896 41.5949C25.0896 42.0614 24.7995 42.3641 24.2573 42.3641H24.251Z" fill="#243770"/>
<path d="M25.826 42.3641L25.8008 38.7891H26.57L26.5952 42.3641H25.826Z" fill="#243770"/>
<path d="M30.2093 42.3641C29.7491 42.3641 29.5158 41.9606 29.5032 41.8155H28.9987C28.3367 41.8155 28.1602 41.1535 28.1602 40.8509C28.1602 40.0879 28.6835 39.8483 29.0366 39.8483C29.2194 39.8483 29.3644 39.8862 29.4842 39.9997V39.8483H30.2472V41.412C30.2472 41.5381 30.3102 41.6768 30.4994 41.6768H33.9546V42.3641H30.203H30.2093ZM28.5385 39.4322V38.7891H29.2005V39.4322H28.5385ZM29.4905 40.6491C29.3834 40.5419 29.3392 40.5041 29.1879 40.5041C29.0744 40.5041 28.9357 40.586 28.9168 40.8445C28.9042 40.9454 28.9735 41.1724 29.1501 41.1724H29.4905V40.6428V40.6491ZM29.4779 39.4322V38.7891H30.14V39.4322H29.4779Z" fill="#243770"/>
<path d="M34.7295 42.3644H33.8594V41.6771H34.5151C34.679 41.6771 34.7925 41.5951 34.7925 41.4123C34.7925 41.0277 34.7925 40.6493 34.7799 40.2773H35.5492C35.5492 40.9016 35.5618 41.0592 35.5618 41.5951C35.5618 42.0617 35.2717 42.3644 34.7295 42.3644ZM33.8972 43.4362V42.7931H34.5592V43.4362H33.8972ZM34.8304 43.4362V42.7931H35.4924V43.4362H34.8304Z" fill="#243770"/>
<path d="M36.7783 41.8856V40.2715H37.5349L37.5538 41.8289C37.516 42.7746 36.9485 43.4619 35.9838 43.5376C35.7568 43.2917 35.7127 43.216 35.4668 42.9512C36.0343 42.907 36.772 42.5224 36.772 41.8919L36.7783 41.8856Z" fill="#243770"/>
<path d="M38.9544 42.3641C38.6202 42.3641 38.2987 42.1308 38.2924 41.6642L38.2734 38.7891H39.0364L39.0553 41.4246C39.0553 41.5759 39.1309 41.6516 39.2381 41.6705H39.856V42.3578H38.9544V42.3641Z" fill="#243770"/>
<path d="M39.7559 42.3644V41.6771H42.1707C42.0383 41.2294 41.7042 40.9583 41.3132 40.9583C40.8214 40.9583 40.5692 41.2042 40.5692 41.2042L40.2666 40.662C40.3612 40.5548 40.689 40.2773 41.3132 40.2773C42.2212 40.2773 42.713 40.9331 42.8958 41.6771H46.2943V42.3644H39.7559ZM41.0106 43.4362V42.7931H41.6726V43.4362H41.0106Z" fill="#243770"/>
<path d="M48.3056 42.3644C48.0092 42.3644 47.8264 42.1753 47.7381 42.0429C47.5868 42.2509 47.322 42.3644 47.0572 42.3644C46.7482 42.3644 46.5023 42.3644 46.1934 42.3644V41.6772H46.8365C46.9878 41.6772 47.1896 41.5889 47.1896 41.3997L47.177 40.2711H47.9462C47.9462 40.5674 47.9462 40.889 47.9588 41.1917C47.9588 41.5384 48.2173 41.6835 48.3497 41.6835H48.8731V42.3707H48.3056V42.3644ZM46.7608 39.8423V39.1992H47.4229V39.8423H46.7608ZM47.694 39.8423V39.1992H48.356V39.836H47.694V39.8423Z" fill="#243770"/>
<path d="M52.4722 42.3641H48.7773V41.6768H52.2578C52.4217 41.6768 52.5352 41.5949 52.5352 41.412C52.5352 41.0274 52.5163 39.1674 52.5163 38.7891H53.2918C53.2918 39.4196 53.3108 41.0526 53.3108 41.5949C53.3108 42.0614 53.0207 42.3641 52.4785 42.3641H52.4722Z" fill="#243770"/>
<path d="M54.0487 42.3641L54.0234 38.7891H54.7927L54.8179 42.3641H54.0487Z" fill="#243770"/>
<path d="M59.6785 42.3645H57.9698C56.6709 42.3645 56.3809 41.2043 56.3809 40.2712H57.1375C57.1375 41.0278 57.3392 41.6772 58.0013 41.6772H59.3947C59.4767 41.6772 59.5271 41.6331 59.5271 41.4818C59.5145 40.9648 59.5082 40.8828 59.5019 40.2712H60.2711C60.2838 40.8513 60.2838 41.2737 60.2838 41.7781C60.2838 42.1943 60.0063 42.3645 59.6848 42.3645H59.6785ZM57.541 40.1388V39.502H58.2031V40.1388H57.541ZM58.4679 40.1388V39.502H59.1299V40.1388H58.4679Z" fill="#243770"/>
<path d="M61.5195 42.3641H60.8574V41.6768H61.2988C61.6708 41.6768 62.2635 41.5444 62.2635 41.0085C62.2635 41.0085 62.2635 40.9454 62.2383 38.7954H63.0138C63.039 41.0715 63.039 41.2544 63.039 41.2544C63.039 41.9227 62.3833 42.3641 61.5258 42.3641H61.5195ZM61.179 41.3111H60.9835L60.952 38.7891H61.7149L61.7401 41.1031C61.6077 41.2922 61.4123 41.3111 61.179 41.3111Z" fill="#243770"/>
<path d="M64.4271 42.3641C64.0929 42.3641 63.7713 42.1308 63.765 41.6642L63.7461 38.7891H64.509L64.5279 41.4246C64.5279 41.5759 64.6036 41.6516 64.7108 41.6705H68.0462V42.3578H64.4271V42.3641Z" fill="#243770"/>
<path d="M67.9395 42.3642V41.677H70.4741C70.2976 40.933 69.4149 40.7564 68.6961 41.2482L68.4123 40.6934L69.9949 39.1738L70.5246 39.6656L69.8436 40.3025C70.9281 40.3907 71.2686 41.3996 71.2686 42.3579H67.9521L67.9395 42.3642Z" fill="#243770"/>
<path d="M74.0305 42.3644C73.8351 43.0075 73.3054 43.4804 72.5551 43.5434C72.3281 43.2975 72.2777 43.2156 72.0318 42.957C72.4353 42.9318 72.9776 42.7048 73.2109 42.3707H72.9334C72.3408 42.3707 71.9688 41.8347 71.9688 41.3492C71.9688 40.5169 72.6371 40.2773 73.0595 40.2773C73.1793 40.2773 74.0558 40.3341 74.1062 41.1538C74.1062 41.179 74.1062 41.2862 74.1062 41.6897H74.7556V42.377H74.0305V42.3644ZM73.337 41.2231C73.337 41.0277 73.3054 40.8196 73.0469 40.8196C72.8136 40.8196 72.6812 41.0466 72.6812 41.2673C72.6812 41.4879 72.7884 41.6708 73.0217 41.6708H73.337V41.2231Z" fill="#243770"/>
<path d="M79.5912 42.3637C79.2949 42.3637 79.1121 42.1745 79.0238 42.0421C78.8725 42.2502 78.6076 42.3637 78.3428 42.3637H74.6543V41.6764H78.1221C78.2735 41.6764 78.4752 41.5881 78.4752 41.399L78.4626 38.7949H79.2319C79.2319 39.0913 79.2318 40.8945 79.2445 41.1909C79.2445 41.5377 79.503 41.6827 79.6354 41.6827H80.1587V42.37H79.5912V42.3637Z" fill="#243770"/>
<path d="M83.7515 42.3641H80.0566V41.6768H83.5371C83.701 41.6768 83.8145 41.5949 83.8145 41.412C83.8145 41.0274 83.7956 39.1674 83.7956 38.7891H84.5711C84.5711 39.4196 84.5901 41.0526 84.5901 41.5949C84.5901 42.0614 84.3 42.3641 83.7578 42.3641H83.7515Z" fill="#243770"/>
<path d="M88.1282 42.3644C87.9769 42.3644 87.8508 42.3139 87.7562 42.2446C87.6049 42.9697 87.0437 43.4678 86.2241 43.5371C85.9971 43.2912 85.9529 43.2156 85.707 42.9507C86.2745 42.9066 87.0185 42.522 87.0122 41.8915L86.9933 40.2773H87.7688L87.7814 41.2042C87.7814 41.5384 88.0463 41.6834 88.1787 41.6834H91.533V42.3707H88.1282V42.3644Z" fill="#243770"/>
<path d="M91.4258 42.3645V41.6772H92.2959V40.744H93.0525V41.5952C93.5822 40.454 94.4649 40.2396 94.8306 40.2774C95.6881 40.3594 95.9655 40.9962 96.0538 41.6772H99.5784V42.3645H91.4258ZM94.6793 40.9269C94.427 40.9269 94.0109 41.0971 93.6263 41.6772H95.3098C95.2909 41.343 95.1458 40.9269 94.6856 40.9269H94.6793Z" fill="#243770"/>
<path d="M101.546 42.3644C101.25 42.3644 101.067 42.1753 100.979 42.0429C100.828 42.2509 100.563 42.3644 100.298 42.3644C99.9889 42.3644 96.912 42.3644 96.6094 42.3644V41.6772H100.077C100.229 41.6772 100.43 41.5889 100.43 41.3997L100.418 40.2711H101.187C101.187 40.5674 101.187 40.889 101.2 41.1917C101.2 41.5384 101.458 41.6835 101.59 41.6835H104.938V42.3707H101.546V42.3644ZM100.462 39.8423V39.1992H101.124V39.8423H100.462Z" fill="#243770"/>
<path d="M105.714 42.3641H104.844V41.6768H105.499C105.663 41.6768 105.777 41.5949 105.777 41.412C105.777 41.0274 105.758 39.1674 105.758 38.7891H106.534C106.534 39.4196 106.552 41.0526 106.552 41.5949C106.552 42.0614 106.262 42.3641 105.72 42.3641H105.714Z" fill="#243770"/>
<path d="M107.289 42.3641L107.264 38.7891H108.033L108.058 42.3641H107.289Z" fill="#243770"/>
<defs>
<linearGradient id="paint0_linear_153_17623" x1="0.00195312" y1="17.3392" x2="110.342" y2="17.3392" gradientUnits="userSpaceOnUse">
<stop stop-color="#111D2F"/>
<stop offset="0.5" stop-color="#223F7D"/>
<stop offset="0.98" stop-color="#111E31"/>
<stop offset="1" stop-color="#111D2F"/>
</linearGradient>
<linearGradient id="paint1_linear_153_17623" x1="0" y1="17.3392" x2="110.34" y2="17.3392" gradientUnits="userSpaceOnUse">
<stop stop-color="#111D2F"/>
<stop offset="0.5" stop-color="#223F7D"/>
<stop offset="0.98" stop-color="#111E31"/>
<stop offset="1" stop-color="#111D2F"/>
</linearGradient>
<linearGradient id="paint2_linear_153_17623" x1="0" y1="17.3392" x2="110.34" y2="17.3392" gradientUnits="userSpaceOnUse">
<stop stop-color="#111D2F"/>
<stop offset="0.5" stop-color="#223F7D"/>
<stop offset="0.98" stop-color="#111E31"/>
<stop offset="1" stop-color="#111D2F"/>
</linearGradient>
<linearGradient id="paint3_linear_153_17623" x1="0.00195312" y1="17.3392" x2="110.342" y2="17.3392" gradientUnits="userSpaceOnUse">
<stop stop-color="#111D2F"/>
<stop offset="0.5" stop-color="#223F7D"/>
<stop offset="0.98" stop-color="#111E31"/>
<stop offset="1" stop-color="#111D2F"/>
</linearGradient>
<linearGradient id="paint4_linear_153_17623" x1="0" y1="17.3392" x2="110.34" y2="17.3392" gradientUnits="userSpaceOnUse">
<stop stop-color="#111D2F"/>
<stop offset="0.5" stop-color="#223F7D"/>
<stop offset="0.98" stop-color="#111E31"/>
<stop offset="1" stop-color="#111D2F"/>
</linearGradient>
<linearGradient id="paint5_linear_153_17623" x1="0.00195312" y1="17.3392" x2="110.342" y2="17.3392" gradientUnits="userSpaceOnUse">
<stop stop-color="#111D2F"/>
<stop offset="0.5" stop-color="#223F7D"/>
<stop offset="0.98" stop-color="#111E31"/>
<stop offset="1" stop-color="#111D2F"/>
</linearGradient>
<linearGradient id="paint6_linear_153_17623" x1="0" y1="17.3392" x2="110.34" y2="17.3392" gradientUnits="userSpaceOnUse">
<stop stop-color="#111D2F"/>
<stop offset="0.5" stop-color="#223F7D"/>
<stop offset="0.98" stop-color="#111E31"/>
<stop offset="1" stop-color="#111D2F"/>
</linearGradient>
<linearGradient id="paint7_linear_153_17623" x1="0" y1="17.3392" x2="110.34" y2="17.3392" gradientUnits="userSpaceOnUse">
<stop stop-color="#111D2F"/>
<stop offset="0.5" stop-color="#223F7D"/>
<stop offset="0.98" stop-color="#111E31"/>
<stop offset="1" stop-color="#111D2F"/>
</linearGradient>
</defs>
</svg>
