<svg width="100" height="100" viewBox="0 0 100 100" fill="none" xmlns="http://www.w3.org/2000/svg">
<path d="M95.8327 94.791H4.16602C2.45768 94.791 1.04102 93.3743 1.04102 91.666C1.04102 89.9577 2.45768 88.541 4.16602 88.541H95.8327C97.541 88.541 98.9577 89.9577 98.9577 91.666C98.9577 93.3743 97.541 94.791 95.8327 94.791Z" fill="#243770"/>
<path d="M82.418 94.8334C80.7096 94.8334 79.293 93.4168 79.293 91.7084V73.125C79.293 71.4167 80.7096 70 82.418 70C84.1263 70 85.543 71.4167 85.543 73.125V91.7084C85.543 93.4168 84.168 94.8334 82.418 94.8334Z" fill="#243770"/>
<path d="M82.5007 76.2506C75.709 76.2506 70.209 70.7505 70.209 63.9589V54.5007C70.209 47.709 75.709 42.209 82.5007 42.209C89.2924 42.209 94.7924 47.709 94.7924 54.5007V63.9589C94.7924 70.7505 89.2924 76.2506 82.5007 76.2506ZM82.5007 48.5007C79.1674 48.5007 76.459 51.2091 76.459 54.5424V64.0006C76.459 67.3339 79.1674 70.0423 82.5007 70.0423C85.834 70.0423 88.5424 67.3339 88.5424 64.0006V54.5424C88.5424 51.2091 85.834 48.5007 82.5007 48.5007Z" fill="#243770"/>
<path d="M59.5819 94.791C57.8735 94.791 56.4569 93.3743 56.4569 91.666V25.1244C56.4569 18.4994 53.6653 15.666 47.1653 15.666H21.207C14.6654 15.666 11.832 18.4994 11.832 25.1244V91.666C11.832 93.3743 10.4154 94.791 8.70703 94.791C6.9987 94.791 5.58203 93.3743 5.58203 91.666V25.1244C5.58203 14.9994 11.1237 9.41602 21.207 9.41602H47.1653C57.2069 9.41602 62.7069 14.9994 62.7069 25.1244V91.666C62.7069 93.3743 61.2902 94.791 59.5819 94.791Z" fill="#243770"/>
<path d="M44.7911 37.5H24.166C22.4577 37.5 21.041 36.0833 21.041 34.375C21.041 32.6667 22.4577 31.25 24.166 31.25H44.7911C46.4994 31.25 47.9161 32.6667 47.9161 34.375C47.9161 36.0833 46.4994 37.5 44.7911 37.5Z" fill="#243770"/>
<path d="M44.7911 53.125H24.166C22.4577 53.125 21.041 51.7083 21.041 50C21.041 48.2917 22.4577 46.875 24.166 46.875H44.7911C46.4994 46.875 47.9161 48.2917 47.9161 50C47.9161 51.7083 46.4994 53.125 44.7911 53.125Z" fill="#243770"/>
<path d="M34.375 94.791C32.6667 94.791 31.25 93.3743 31.25 91.666V76.041C31.25 74.3327 32.6667 72.916 34.375 72.916C36.0833 72.916 37.5 74.3327 37.5 76.041V91.666C37.5 93.3743 36.0833 94.791 34.375 94.791Z" fill="#243770"/>
</svg>
