<svg width="100" height="100" viewBox="0 0 100 100" fill="none" xmlns="http://www.w3.org/2000/svg">
<path d="M91.6673 94.791H8.33398C6.62565 94.791 5.20898 93.3743 5.20898 91.666C5.20898 89.9577 6.62565 88.541 8.33398 88.541H91.6673C93.3756 88.541 94.7923 89.9577 94.7923 91.666C94.7923 93.3743 93.3756 94.791 91.6673 94.791Z" fill="#243770"/>
<path d="M87.5 94.7923H12.5C10.7917 94.7923 9.375 93.3756 9.375 91.6673V25.0007C9.375 12.4173 16.5833 5.20898 29.1667 5.20898H70.8333C83.4167 5.20898 90.625 12.4173 90.625 25.0007V91.6673C90.625 93.3756 89.2083 94.7923 87.5 94.7923ZM15.625 88.5423H84.375V25.0007C84.375 15.7507 80.0833 11.459 70.8333 11.459H29.1667C19.9167 11.459 15.625 15.7507 15.625 25.0007V88.5423Z" fill="#243770"/>
<path d="M41.666 71.875H29.166C27.4577 71.875 26.041 70.4583 26.041 68.75C26.041 67.0417 27.4577 65.625 29.166 65.625H41.666C43.3743 65.625 44.791 67.0417 44.791 68.75C44.791 70.4583 43.3743 71.875 41.666 71.875Z" fill="#243770"/>
<path d="M70.834 71.875H58.334C56.6257 71.875 55.209 70.4583 55.209 68.75C55.209 67.0417 56.6257 65.625 58.334 65.625H70.834C72.5423 65.625 73.959 67.0417 73.959 68.75C73.959 70.4583 72.5423 71.875 70.834 71.875Z" fill="#243770"/>
<path d="M41.666 53.125H29.166C27.4577 53.125 26.041 51.7083 26.041 50C26.041 48.2917 27.4577 46.875 29.166 46.875H41.666C43.3743 46.875 44.791 48.2917 44.791 50C44.791 51.7083 43.3743 53.125 41.666 53.125Z" fill="#243770"/>
<path d="M70.834 53.125H58.334C56.6257 53.125 55.209 51.7083 55.209 50C55.209 48.2917 56.6257 46.875 58.334 46.875H70.834C72.5423 46.875 73.959 48.2917 73.959 50C73.959 51.7083 72.5423 53.125 70.834 53.125Z" fill="#243770"/>
<path d="M41.666 34.375H29.166C27.4577 34.375 26.041 32.9583 26.041 31.25C26.041 29.5417 27.4577 28.125 29.166 28.125H41.666C43.3743 28.125 44.791 29.5417 44.791 31.25C44.791 32.9583 43.3743 34.375 41.666 34.375Z" fill="#243770"/>
<path d="M70.834 34.375H58.334C56.6257 34.375 55.209 32.9583 55.209 31.25C55.209 29.5417 56.6257 28.125 58.334 28.125H70.834C72.5423 28.125 73.959 29.5417 73.959 31.25C73.959 32.9583 72.5423 34.375 70.834 34.375Z" fill="#243770"/>
</svg>
