<svg width="100" height="100" viewBox="0 0 100 100" fill="none" xmlns="http://www.w3.org/2000/svg">
<path d="M54.1673 94.7923H20.834C10.7507 94.7923 5.20898 89.2506 5.20898 79.1673V45.834C5.20898 35.7507 10.7507 30.209 20.834 30.209H41.6673C43.3757 30.209 44.7923 31.6257 44.7923 33.334V79.1673C44.7923 85.7506 47.584 88.5423 54.1673 88.5423C55.8757 88.5423 57.2923 89.959 57.2923 91.6673C57.2923 93.3756 55.8757 94.7923 54.1673 94.7923ZM20.834 36.459C14.2507 36.459 11.459 39.2507 11.459 45.834V79.1673C11.459 85.7506 14.2507 88.5423 20.834 88.5423H40.8339C39.3339 86.084 38.5423 82.959 38.5423 79.1673V36.459H20.834Z" fill="#243770"/>
<path d="M41.6673 36.4577H20.834C19.1257 36.4577 17.709 35.041 17.709 33.3327V24.9993C17.709 18.666 22.834 13.541 29.1673 13.541H42.1256C43.0839 13.541 44.0007 13.9993 44.584 14.7493C45.1674 15.5409 45.3756 16.541 45.1256 17.4577C44.8756 18.3744 44.7923 19.416 44.7923 20.8327V33.3327C44.7923 35.041 43.3757 36.4577 41.6673 36.4577ZM23.959 30.2077H38.5423V20.8327C38.5423 20.4577 38.5423 20.1243 38.5423 19.791H29.1673C26.2923 19.791 23.959 22.1243 23.959 24.9993V30.2077Z" fill="#243770"/>
<path d="M58.334 57.2923C56.6257 57.2923 55.209 55.8757 55.209 54.1673V33.334C55.209 31.6257 56.6257 30.209 58.334 30.209C60.0423 30.209 61.459 31.6257 61.459 33.334V54.1673C61.459 55.8757 60.0423 57.2923 58.334 57.2923Z" fill="#243770"/>
<path d="M75 57.2923C73.2917 57.2923 71.875 55.8757 71.875 54.1673V33.334C71.875 31.6257 73.2917 30.209 75 30.209C76.7083 30.209 78.125 31.6257 78.125 33.334V54.1673C78.125 55.8757 76.7083 57.2923 75 57.2923Z" fill="#243770"/>
<path d="M75.0007 94.7923H58.334C56.6257 94.7923 55.209 93.3756 55.209 91.6673V75.0006C55.209 71.0007 58.5007 67.709 62.5007 67.709H70.834C74.834 67.709 78.1257 71.0007 78.1257 75.0006V91.6673C78.1257 93.3756 76.709 94.7923 75.0007 94.7923ZM61.459 88.5423H71.8757V75.0006C71.8757 74.4173 71.4173 73.959 70.834 73.959H62.5007C61.9173 73.959 61.459 74.4173 61.459 75.0006V88.5423Z" fill="#243770"/>
<path d="M25 73.9577C23.2917 73.9577 21.875 72.541 21.875 70.8327V54.166C21.875 52.4577 23.2917 51.041 25 51.041C26.7083 51.041 28.125 52.4577 28.125 54.166V70.8327C28.125 72.541 26.7083 73.9577 25 73.9577Z" fill="#243770"/>
<path d="M79.166 94.7923H54.166C44.0827 94.7923 38.541 89.2506 38.541 79.1673V20.834C38.541 10.7507 44.0827 5.20898 54.166 5.20898H79.166C89.2493 5.20898 94.791 10.7507 94.791 20.834V79.1673C94.791 89.2506 89.2493 94.7923 79.166 94.7923ZM54.166 11.459C47.5827 11.459 44.791 14.2507 44.791 20.834V79.1673C44.791 85.7506 47.5827 88.5423 54.166 88.5423H79.166C85.7493 88.5423 88.541 85.7506 88.541 79.1673V20.834C88.541 14.2507 85.7493 11.459 79.166 11.459H54.166Z" fill="#243770"/>
</svg>
