<svg width="111" height="64" viewBox="0 0 111 64" fill="none" xmlns="http://www.w3.org/2000/svg">
<g clip-path="url(#clip0_53_3406)">
<path d="M106.073 54.6309C105.809 54.6309 105.626 54.7315 105.626 54.92C105.626 55.58 107.493 55.2154 107.487 56.504C107.487 57.2017 106.89 57.5852 106.117 57.5852C105.538 57.5852 104.966 57.3589 104.57 57.0132L104.885 56.3532C105.243 56.68 105.758 56.8874 106.129 56.8874C106.456 56.8874 106.651 56.768 106.651 56.5417C106.651 55.8692 104.784 56.2589 104.784 54.9955C104.784 54.348 105.331 53.9395 106.142 53.9395C106.632 53.9395 107.122 54.0966 107.474 54.3292L107.166 54.9955C106.795 54.7692 106.355 54.6309 106.073 54.6309Z" fill="#1D1F22"/>
<path d="M107.455 61.1992V61.7209H106.166V61.1992H107.455Z" fill="#1D1F22"/>
<path d="M105.4 42.5946H104.539V41.9031H105.186C105.35 41.9031 105.463 41.8214 105.463 41.6391C105.463 41.2557 105.444 39.3889 105.444 39.0117H106.211C106.211 39.6466 106.23 41.2809 106.23 41.8214C106.23 42.2929 105.941 42.5946 105.4 42.5946Z" fill="#1D1F22"/>
<path d="M106.965 42.5946L106.939 39.0117H107.7L107.725 42.5946H106.965Z" fill="#1D1F22"/>
<path d="M105.82 48.0427V47.8164H107.53V48.0427H105.82Z" fill="#1D1F22"/>
<path d="M5.22519 56.8554H3.60348L3.32691 57.5531H2.50977L4.03091 53.9766H4.84805L6.34405 57.5531H5.49548L5.21891 56.8554H5.22519ZM4.97377 56.208L4.42062 54.8188L3.86748 56.208H4.97377Z" fill="#1D1F22"/>
<path d="M7.51856 53.9766V56.8491H9.02085V57.5531H6.72656V53.9766H7.51856Z" fill="#1D1F22"/>
<path d="M10.2224 53.9766L11.9259 56.2771V53.9766H12.6801V57.5531H11.9573L10.2601 55.2588V57.5531H9.50586V53.9766H10.2287H10.2224Z" fill="#1D1F22"/>
<path d="M15.7779 56.8554H14.1562L13.8796 57.5531H13.0625L14.5836 53.9766H15.4008L16.8968 57.5531H16.0482L15.7716 56.8554H15.7779ZM15.5202 56.208L14.9671 54.8188L14.4139 56.208H15.5202Z" fill="#1D1F22"/>
<path d="M18.4749 54.6309C18.2109 54.6309 18.0287 54.7315 18.0287 54.92C18.0287 55.58 19.8955 55.2154 19.8892 56.504C19.8892 57.2017 19.2921 57.5852 18.5189 57.5852C17.9407 57.5852 17.3687 57.3589 16.9727 57.0132L17.2869 56.3532C17.6452 56.68 18.1607 56.8874 18.5315 56.8874C18.8584 56.8874 19.0532 56.768 19.0532 56.5417C19.0532 55.8692 17.1864 56.2589 17.1864 54.9955C17.1864 54.348 17.7332 53.9395 18.5441 53.9395C19.0344 53.9395 19.5247 54.0966 19.8767 54.3292L19.5687 54.9955C19.1978 54.7692 18.7578 54.6309 18.4749 54.6309Z" fill="#1D1F22"/>
<path d="M22.6107 57.5531L22.0575 56.5286H21.2529V57.5531H20.4609V53.9766H21.9821C22.8998 53.9766 23.4215 54.4228 23.4215 55.2148C23.4215 55.768 23.1952 56.164 22.7678 56.3714L23.5158 57.5531H22.6169H22.6107ZM21.2529 55.856H21.9821C22.4158 55.856 22.6672 55.6486 22.6672 55.24C22.6672 54.8314 22.4158 54.6428 21.9821 54.6428H21.2529V55.856Z" fill="#1D1F22"/>
<path d="M28.1928 53.9766V54.6617H27.1242V57.5531H26.3322V54.6617H25.2637V53.9766H28.1928Z" fill="#1D1F22"/>
<path d="M31.2984 53.9766V54.6491H29.419V55.4223H31.1035V56.0949H29.419V56.8868H31.3487V57.5594H28.627V53.9828H31.2921L31.2984 53.9766Z" fill="#1D1F22"/>
<path d="M33.6173 54.6493C33.0201 54.6493 32.5487 55.127 32.5487 55.7493C32.5487 56.3716 33.0139 56.8493 33.6173 56.8493C33.9316 56.8493 34.2773 56.6859 34.5287 56.4282L34.9939 56.9436C34.623 57.3333 34.0887 57.5847 33.5796 57.5847C32.5299 57.5847 31.7441 56.7927 31.7441 55.7556C31.7441 54.7185 32.5487 53.9453 33.611 53.9453C34.1139 53.9453 34.6481 54.1779 34.9939 54.5362L34.535 55.1082C34.2961 54.8253 33.9504 54.643 33.6236 54.643L33.6173 54.6493Z" fill="#1D1F22"/>
<path d="M36.2705 53.9766V55.4726H37.8545V53.9766H38.6465V57.5531H37.8545V56.1451H36.2705V57.5531H35.4785V53.9766H36.2705Z" fill="#1D1F22"/>
<path d="M40.1541 53.9766L41.8575 56.2771V53.9766H42.6118V57.5531H41.8889L40.1918 55.2588V57.5531H39.4375V53.9766H40.1604H40.1541Z" fill="#1D1F22"/>
<path d="M44.1846 53.9766V57.5531H43.3926V53.9766H44.1846Z" fill="#1D1F22"/>
<path d="M46.5919 54.6493C45.9948 54.6493 45.5233 55.127 45.5233 55.7493C45.5233 56.3716 45.9885 56.8493 46.5919 56.8493C46.9062 56.8493 47.2519 56.6859 47.5033 56.4282L47.9685 56.9436C47.5976 57.3333 47.0633 57.5847 46.5542 57.5847C45.5045 57.5847 44.7188 56.7927 44.7188 55.7556C44.7188 54.7185 45.5233 53.9453 46.5856 53.9453C47.0885 53.9453 47.6228 54.1779 47.9685 54.5362L47.5096 55.1082C47.2708 54.8253 46.925 54.643 46.5982 54.643L46.5919 54.6493Z" fill="#1D1F22"/>
<path d="M50.733 56.8554H49.1113L48.8347 57.5531H48.0176L49.5387 53.9766H50.3559L51.8519 57.5531H51.0033L50.7267 56.8554H50.733ZM50.4753 56.208L49.9222 54.8188L49.369 56.208H50.4753Z" fill="#1D1F22"/>
<path d="M53.0283 53.9766V56.8491H54.5306V57.5531H52.2363V53.9766H53.0283Z" fill="#1D1F22"/>
<path d="M59.0991 53.9766V54.6617H58.0305V57.5531H57.2385V54.6617H56.1699V53.9766H59.0991Z" fill="#1D1F22"/>
<path d="M61.6966 57.5531L61.1434 56.5286H60.3389V57.5531H59.5469V53.9766H61.068C61.9857 53.9766 62.5074 54.4228 62.5074 55.2148C62.5074 55.768 62.2812 56.164 61.8537 56.3714L62.6017 57.5531H61.7029H61.6966ZM60.3326 55.856H61.0617C61.4954 55.856 61.7469 55.6486 61.7469 55.24C61.7469 54.8314 61.4954 54.6428 61.0617 54.6428H60.3326V55.856Z" fill="#1D1F22"/>
<path d="M65.4928 56.8554H63.8711L63.5945 57.5531H62.7773L64.2985 53.9766H65.1156L66.6116 57.5531H65.7631L65.4865 56.8554H65.4928ZM65.2413 56.208L64.6882 54.8188L64.1351 56.208H65.2413Z" fill="#1D1F22"/>
<path d="M70.3251 55.7621C70.3251 56.8118 69.5583 57.5473 68.452 57.5473H67V53.9707H68.4834C69.5709 53.9707 70.3251 54.6998 70.3251 55.7621ZM69.5206 55.7684C69.5206 55.1084 69.068 54.6558 68.4709 54.6558H67.792V56.8684H68.5086C69.0931 56.8684 69.5269 56.4221 69.5269 55.7684H69.5206Z" fill="#1D1F22"/>
<path d="M71.6533 53.9766V57.5531H70.8613V53.9766H71.6533Z" fill="#1D1F22"/>
<path d="M73.1541 53.9766L74.8575 56.2771V53.9766H75.6118V57.5531H74.8889L73.1918 55.2588V57.5531H72.4375V53.9766H73.1604H73.1541Z" fill="#1D1F22"/>
<path d="M78.7488 55.7489H79.4339V57.1255C79.0631 57.402 78.4973 57.5906 78.0133 57.5906C76.9511 57.5906 76.1465 56.7986 76.1465 55.7677C76.1465 54.7369 76.9699 53.9512 78.0573 53.9512C78.5791 53.9512 79.1071 54.1586 79.4653 54.4729L79.0191 55.0512C78.7613 54.806 78.3968 54.6552 78.0573 54.6552C77.4351 54.6552 76.9573 55.1392 76.9573 55.774C76.9573 56.4089 77.4413 56.8929 78.0636 56.8929C78.2773 56.8929 78.5225 56.8175 78.7488 56.698V55.7552V55.7489Z" fill="#1D1F22"/>
<path d="M83.9596 56.8554H82.3378L82.0613 57.5531H81.2441L82.7653 53.9766H83.5824L85.0784 57.5531H84.2299L83.9533 56.8554H83.9596ZM83.7081 56.208L83.155 54.8188L82.6018 56.208H83.7081Z" fill="#1D1F22"/>
<path d="M87.7253 55.7489H88.4105V57.1255C88.0396 57.402 87.4739 57.5906 86.9899 57.5906C85.9276 57.5906 85.123 56.7986 85.123 55.7677C85.123 54.7369 85.9465 53.9512 87.0339 53.9512C87.5556 53.9512 88.0836 54.1586 88.4419 54.4729L87.9956 55.0512C87.7379 54.806 87.3733 54.6552 87.0339 54.6552C86.4116 54.6552 85.9339 55.1392 85.9339 55.774C85.9339 56.4089 86.4179 56.8929 87.0402 56.8929C87.2539 56.8929 87.499 56.8175 87.7253 56.698V55.7552V55.7489Z" fill="#1D1F22"/>
<path d="M91.7847 53.9766V54.6491H89.9053V55.4223H91.5899V56.0949H89.9053V56.8868H91.835V57.5594H89.1133V53.9828H91.7784L91.7847 53.9766Z" fill="#1D1F22"/>
<path d="M93.1931 53.9766L94.8966 56.2771V53.9766H95.6509V57.5531H94.928L93.2308 55.2588V57.5531H92.4766V53.9766H93.1994H93.1931Z" fill="#1D1F22"/>
<path d="M98.0587 54.6493C97.4616 54.6493 96.9901 55.127 96.9901 55.7493C96.9901 56.3716 97.4553 56.8493 98.0587 56.8493C98.373 56.8493 98.7187 56.6859 98.9701 56.4282L99.4353 56.9436C99.0644 57.3333 98.5301 57.5847 98.021 57.5847C96.9713 57.5847 96.1855 56.7927 96.1855 55.7556C96.1855 54.7185 96.9901 53.9453 98.0524 53.9453C98.5553 53.9453 99.0896 54.1779 99.4353 54.5362L98.9764 55.1082C98.7375 54.8253 98.3918 54.643 98.065 54.643L98.0587 54.6493Z" fill="#1D1F22"/>
<path d="M100.718 53.9766V57.5531H99.9258V53.9766H100.718Z" fill="#1D1F22"/>
<path d="M104.162 53.9766V54.6491H102.282V55.4223H103.967V56.0949H102.282V56.8868H104.212V57.5594H101.49V53.9828H104.155L104.162 53.9766Z" fill="#1D1F22"/>
<path d="M4.16943 61.1992V61.7209H2.88086V61.1992H4.16943Z" fill="#1D1F22"/>
<path d="M9.0269 59.4453V60.1179H7.14747V60.891H8.83204V61.5636H7.14747V62.3556H9.07718V63.0282H6.35547V59.4516H9.02061L9.0269 59.4453Z" fill="#1D1F22"/>
<path d="M13.4162 63.4554C13.1459 63.7005 12.7688 63.8514 12.4293 63.8514C11.9516 63.8514 11.5493 63.5496 11.3042 63.0594C10.2545 63.0342 9.46875 62.2548 9.46875 61.2365C9.46875 60.2182 10.2796 59.4199 11.3482 59.4199C12.4168 59.4199 13.2339 60.1994 13.2339 61.2365C13.2339 62.0348 12.7562 62.6822 12.0396 62.9399C12.1779 63.1096 12.3476 63.2102 12.5173 63.2102C12.687 63.2102 12.9133 63.1034 13.1333 62.9274L13.4162 63.4554ZM11.3608 62.3491C11.9453 62.3491 12.423 61.8588 12.423 61.2302C12.423 60.6016 11.9453 60.1176 11.3608 60.1176C10.7762 60.1176 10.2796 60.5954 10.2796 61.2302C10.2796 61.8651 10.7762 62.3491 11.3608 62.3491Z" fill="#1D1F22"/>
<path d="M15.3266 62.3493C15.798 62.3493 16.106 62.0413 16.106 61.5259V59.4453H16.898V61.5259C16.898 62.4687 16.2946 63.0596 15.3266 63.0596C14.3586 63.0596 13.7363 62.4687 13.7363 61.5259V59.4453H14.5283V61.5259C14.5283 62.0413 14.8615 62.3493 15.3266 62.3493Z" fill="#1D1F22"/>
<path d="M18.4131 59.4453V63.0219H17.6211V59.4453H18.4131Z" fill="#1D1F22"/>
<path d="M22.0828 60.6836C22.0828 61.5196 21.5737 61.9973 20.6811 61.9973H19.9834V63.0219H19.1914V59.4453H20.6748C21.5674 59.4453 22.0765 59.8916 22.0765 60.6836H22.0828ZM21.3285 60.715C21.3285 60.319 21.0771 60.1179 20.6371 60.1179H19.9834V61.331H20.6371C21.0771 61.331 21.3285 61.1236 21.3285 60.715Z" fill="#1D1F22"/>
<path d="M23.4859 59.4453L24.5105 61.6327L25.5225 59.4453H26.4025V63.0219H25.6922V60.6082L24.7619 62.6573H24.2465L23.3162 60.6082V63.0219H22.5996V59.4453H23.4859Z" fill="#1D1F22"/>
<path d="M29.8648 59.4453V60.1179H27.9854V60.891H29.6699V61.5636H27.9854V62.3556H29.9151V63.0282H27.1934V59.4516H29.8585L29.8648 59.4453Z" fill="#1D1F22"/>
<path d="M31.2791 59.4453L32.9825 61.7459V59.4453H33.7368V63.0219H33.0139L31.3168 60.7276V63.0219H30.5625V59.4453H31.2854H31.2791Z" fill="#1D1F22"/>
<path d="M37.0991 59.4453V60.1305H36.0305V63.0219H35.2385V60.1305H34.1699V59.4453H37.0991Z" fill="#1D1F22"/>
<path d="M38.7601 60.0996C38.4961 60.0996 38.3138 60.2002 38.3138 60.3888C38.3138 61.0488 40.1807 60.6842 40.1744 61.9728C40.1744 62.6705 39.5772 63.0539 38.8041 63.0539C38.2258 63.0539 37.6538 62.8276 37.2578 62.4819L37.5721 61.8219C37.9304 62.1488 38.4458 62.3562 38.8167 62.3562C39.1435 62.3562 39.3384 62.2368 39.3384 62.0105C39.3384 61.3379 37.4715 61.7276 37.4715 60.4642C37.4715 59.8168 38.0184 59.4082 38.8292 59.4082C39.3195 59.4082 39.8098 59.5653 40.1618 59.7979L39.8538 60.4642C39.483 60.2379 39.043 60.0996 38.7601 60.0996Z" fill="#1D1F22"/>
<path d="M44.8315 59.4453V60.1305H43.7629V63.0219H42.9709V60.1305H41.9023V59.4453H44.8315Z" fill="#1D1F22"/>
<path d="M47.9429 59.4453V60.1179H46.0635V60.891H47.7481V61.5636H46.0635V62.3556H47.9932V63.0282H45.2715V59.4516H47.9366L47.9429 59.4453Z" fill="#1D1F22"/>
<path d="M50.256 60.1181C49.6588 60.1181 49.1874 60.5958 49.1874 61.2181C49.1874 61.8403 49.6525 62.3181 50.256 62.3181C50.5702 62.3181 50.916 62.1546 51.1674 61.8969L51.6325 62.4123C51.2617 62.8021 50.7274 63.0535 50.2182 63.0535C49.1685 63.0535 48.3828 62.2615 48.3828 61.2243C48.3828 60.1872 49.1874 59.4141 50.2497 59.4141C50.7525 59.4141 51.2868 59.6466 51.6325 60.0049L51.1737 60.5769C50.9348 60.2941 50.5891 60.1118 50.2622 60.1118L50.256 60.1181Z" fill="#1D1F22"/>
<path d="M52.9092 59.4453V60.9413H54.4932V59.4453H55.2852V63.0219H54.4932V61.6139H52.9092V63.0219H52.1172V59.4453H52.9092Z" fill="#1D1F22"/>
<path d="M56.7927 59.4453L58.4962 61.7459V59.4453H59.2505V63.0219H58.5276L56.8305 60.7276V63.0219H56.0762V59.4453H56.799H56.7927Z" fill="#1D1F22"/>
<path d="M60.8291 59.4453V63.0219H60.0371V59.4453H60.8291Z" fill="#1D1F22"/>
<path d="M63.2364 60.1181C62.6393 60.1181 62.1679 60.5958 62.1679 61.2181C62.1679 61.8403 62.633 62.3181 63.2364 62.3181C63.5507 62.3181 63.8964 62.1546 64.1479 61.8969L64.613 62.4123C64.2421 62.8021 63.7079 63.0535 63.1987 63.0535C62.149 63.0535 61.3633 62.2615 61.3633 61.2243C61.3633 60.1872 62.1679 59.4141 63.2301 59.4141C63.733 59.4141 64.2673 59.6466 64.613 60.0049L64.1541 60.5769C63.9153 60.2941 63.5696 60.1118 63.2427 60.1118L63.2364 60.1181Z" fill="#1D1F22"/>
<path d="M67.3717 62.3242H65.75L65.4734 63.0219H64.6562L66.1774 59.4453H66.9945L68.4905 63.0219H67.642L67.3654 62.3242H67.3717ZM67.1203 61.6767L66.5671 60.2876L66.014 61.6767H67.1203Z" fill="#1D1F22"/>
<path d="M69.667 59.4453V62.3179H71.1693V63.0219H68.875V59.4453H69.667Z" fill="#1D1F22"/>
<path d="M73.9522 59.4453V63.0219H73.1602V59.4453H73.9522Z" fill="#1D1F22"/>
<path d="M75.4549 59.4453L77.1583 61.7459V59.4453H77.9126V63.0219H77.1897L75.4926 60.7276V63.0219H74.7383V59.4453H75.4611H75.4549Z" fill="#1D1F22"/>
<path d="M79.9124 60.0996C79.6484 60.0996 79.4662 60.2002 79.4662 60.3888C79.4662 61.0488 81.333 60.6842 81.3267 61.9728C81.3267 62.6705 80.7296 63.0539 79.9564 63.0539C79.3782 63.0539 78.8062 62.8276 78.4102 62.4819L78.7244 61.8219C79.0827 62.1488 79.5982 62.3562 79.969 62.3562C80.2959 62.3562 80.4907 62.2368 80.4907 62.0105C80.4907 61.3379 78.6239 61.7276 78.6239 60.4642C78.6239 59.8168 79.1707 59.4082 79.9816 59.4082C80.4719 59.4082 80.9622 59.5653 81.3142 59.7979L81.0062 60.4642C80.6353 60.2379 80.1953 60.0996 79.9124 60.0996Z" fill="#1D1F22"/>
<path d="M84.784 60.6836C84.784 61.5196 84.2749 61.9973 83.3823 61.9973H82.6846V63.0219H81.8926V59.4453H83.376C84.2686 59.4453 84.7777 59.8916 84.7777 60.6836H84.784ZM84.036 60.715C84.036 60.319 83.7846 60.1179 83.3446 60.1179H82.6909V61.331H83.3446C83.7846 61.331 84.036 61.1236 84.036 60.715Z" fill="#1D1F22"/>
<path d="M87.9703 59.4453V60.1179H86.0908V60.891H87.7754V61.5636H86.0908V62.3556H88.0205V63.0282H85.2988V59.4516H87.964L87.9703 59.4453Z" fill="#1D1F22"/>
<path d="M90.2892 60.1181C89.692 60.1181 89.2206 60.5958 89.2206 61.2181C89.2206 61.8403 89.6857 62.3181 90.2892 62.3181C90.6035 62.3181 90.9492 62.1546 91.2006 61.8969L91.6657 62.4123C91.2949 62.8021 90.7606 63.0535 90.2515 63.0535C89.2017 63.0535 88.416 62.2615 88.416 61.2243C88.416 60.1872 89.2206 59.4141 90.2829 59.4141C90.7857 59.4141 91.32 59.6466 91.6657 60.0049L91.2069 60.5769C90.968 60.2941 90.6223 60.1118 90.2954 60.1118L90.2892 60.1181Z" fill="#1D1F22"/>
<path d="M94.7338 59.4453V60.1305H93.6653V63.0219H92.8733V60.1305H91.8047V59.4453H94.7338Z" fill="#1D1F22"/>
<path d="M95.9658 59.4453V63.0219H95.1738V59.4453H95.9658Z" fill="#1D1F22"/>
<path d="M100.259 61.2365C100.259 62.2674 99.4484 63.0594 98.3736 63.0594C97.2987 63.0594 96.4941 62.2674 96.4941 61.2365C96.4941 60.2056 97.305 59.4199 98.3736 59.4199C99.4421 59.4199 100.259 60.1994 100.259 61.2365ZM97.305 61.2365C97.305 61.8651 97.8016 62.3554 98.3861 62.3554C98.9707 62.3554 99.4484 61.8651 99.4484 61.2365C99.4484 60.6079 98.9707 60.1239 98.3861 60.1239C97.8016 60.1239 97.305 60.6016 97.305 61.2365Z" fill="#1D1F22"/>
<path d="M101.515 59.4453L103.219 61.7459V59.4453H103.973V63.0219H103.25L101.553 60.7276V63.0219H100.799V59.4453H101.522H101.515Z" fill="#1D1F22"/>
<path d="M2.67969 48.0427V47.8164H4.3894V48.0427H2.67969Z" fill="#1D1F22"/>
<path d="M8.88928 48.8549H7.12299C5.78414 48.8549 5.48242 47.6417 5.48242 46.6674H6.26814C6.26814 47.4594 6.47557 48.1383 7.16071 48.1383H8.60014C8.68814 48.1383 8.73842 48.0943 8.73842 47.9309C8.72585 47.3903 8.71956 47.3023 8.70699 46.6674H9.50528C9.51785 47.2709 9.51785 47.7171 9.51785 48.2451C9.51785 48.6851 9.22871 48.8611 8.89556 48.8611L8.88928 48.8549ZM6.67671 46.5354V45.8691H7.35556V46.5354H6.67671ZM7.63842 46.5354V45.8691H8.32356V46.5354H7.63842Z" fill="#1D1F22"/>
<path d="M10.2717 48.8552L10.2402 45.1152H11.0385L11.0699 48.8552H10.2717Z" fill="#1D1F22"/>
<path d="M11.7489 48.855L12.1323 48.1384H13.6535C13.5906 47.6293 13.1506 47.359 12.874 47.359V46.6738C13.7352 46.6738 14.2758 47.183 14.4455 48.1384H15.074V48.855H11.7363H11.7489Z" fill="#1D1F22"/>
<path d="M20.0598 48.8536C19.7958 48.8536 19.5758 48.7154 19.4626 48.6148C19.1609 48.7594 18.834 48.8536 18.5009 48.8536H14.9746V48.1371H18.4946C18.6958 48.1371 18.8215 48.1245 18.9849 48.0805C18.6895 47.7599 18.3563 47.5022 17.8095 47.4708V46.8988C18.9032 46.1445 20.3049 46.3708 21.0592 47.0748C20.8455 47.4582 20.55 47.8291 20.198 48.1308H23.7243V48.8474H20.066L20.0598 48.8536ZM18.9786 47.1691C19.2363 47.2885 19.4689 47.5022 19.6386 47.6971C19.7958 47.5714 19.934 47.4331 20.0409 47.2759C19.8272 47.1691 19.3998 47.0622 18.9786 47.1691Z" fill="#1D1F22"/>
<path d="M26.3079 48.8541C26.1382 49.1935 25.7925 49.4198 25.2708 49.4198C24.749 49.4198 24.4096 49.1935 24.2336 48.8541H23.6113V48.1375H24.1142C24.177 47.5844 24.5668 47.1758 25.2645 47.1758C25.9622 47.1758 26.3519 47.5844 26.4148 48.1375H26.9365V48.8541H26.3016H26.3079ZM25.2708 47.8106C24.9816 47.8106 24.8936 48.0684 24.8936 48.3009C24.8936 48.5335 24.9816 48.7912 25.2708 48.7912C25.5599 48.7912 25.6542 48.5398 25.6542 48.3009C25.6542 48.0621 25.5662 47.8106 25.2708 47.8106Z" fill="#1D1F22"/>
<path d="M31.2602 48.8552C30.9522 48.8552 30.7637 48.6604 30.6757 48.5158C30.5185 48.7358 30.2419 48.8552 29.9717 48.8552H26.8477V48.1387H29.7454C29.8962 48.1387 30.1099 48.0444 30.1099 47.8432L30.0974 45.1152H30.8957C30.8957 45.4232 30.8957 47.3089 30.9082 47.6232C30.9082 47.9878 31.1785 48.1324 31.3105 48.1324H31.8511V48.8489H31.2665L31.2602 48.8552Z" fill="#1D1F22"/>
<path d="M37.1121 48.8548H31.7441V48.1382H36.8859C37.0556 48.1382 37.175 48.0502 37.175 47.8617C37.175 47.4594 37.1561 45.5171 37.1499 45.1211H37.9481C37.9481 45.7811 37.967 47.4908 37.967 48.0502C37.967 48.5405 37.6653 48.8548 37.1059 48.8548H37.1121Z" fill="#1D1F22"/>
<path d="M44.1395 48.8548C43.6366 48.8548 43.4229 48.528 43.2658 48.1445C43.0835 47.7045 42.8132 47.3211 42.3983 47.3274C42.1029 47.3274 41.9143 47.4971 41.8263 47.7171H42.8761V48.4777C42.8761 49.3828 42.1595 50.112 41.2732 50.112C40.3869 50.112 39.6703 49.3765 39.6641 48.4777C39.6641 48.308 39.6641 48.0754 39.6641 47.7171H40.4561C40.4561 48.088 40.4561 48.3268 40.4561 48.4777C40.4561 49.056 40.9338 49.3263 41.2606 49.3263C41.6378 49.3263 42.1029 49.056 42.0841 48.4777V48.4463H40.8709C40.8709 47.1891 41.4932 46.5605 42.3732 46.5605C43.3035 46.5605 43.6429 47.1954 43.9886 47.868C44.0766 48.0251 44.1458 48.1445 44.3846 48.1445H44.6361V48.8611H44.1458L44.1395 48.8548ZM40.3681 51.2308V50.5645H41.0532V51.2308H40.3681ZM41.3361 51.2308V50.5645H42.0212V51.2308H41.3361Z" fill="#1D1F22"/>
<path d="M48.9419 48.8551C48.6339 48.8551 48.4453 48.6603 48.3573 48.5157C48.2002 48.7357 47.9236 48.8551 47.6533 48.8551C47.3327 48.8551 44.8436 48.8551 44.5293 48.8551V48.1385H47.427C47.5779 48.1385 47.7916 48.0443 47.7916 47.8431L47.779 46.6614H48.5773C48.5773 46.9694 48.5773 47.3088 48.5899 47.6231C48.5899 47.9877 48.8602 48.1323 48.9922 48.1323H49.5327V48.8488H48.9482L48.9419 48.8551ZM47.8167 46.2214V45.5488H48.5019V46.2214H47.8167Z" fill="#1D1F22"/>
<path d="M54.2972 48.8543C53.9704 48.8543 53.6498 48.7914 53.3544 48.6846C53.0652 48.7914 52.7572 48.8543 52.4304 48.8543H49.4258V48.1377H52.1286C52.2732 48.1377 52.4178 48.1377 52.5498 48.1126C52.3172 47.8486 52.2292 47.5783 52.2292 47.352C52.2292 46.6857 52.7761 46.3337 53.3606 46.3337C53.9452 46.3337 54.4921 46.6857 54.4921 47.352C54.4921 47.5783 54.4041 47.8486 54.1778 48.1126C54.3412 48.144 54.4544 48.1377 54.6052 48.1377H55.0515V48.8543H54.3098H54.2972ZM52.9898 45.8874V45.2148H53.6749V45.8874H52.9898ZM53.3544 46.9308C53.1281 46.9308 52.9961 47.1068 52.9961 47.3394C52.9961 47.6977 53.3292 47.9114 53.3544 47.9114C53.3858 47.9114 53.7126 47.6977 53.7126 47.3394C53.7126 47.1068 53.5869 46.9308 53.3544 46.9308Z" fill="#1D1F22"/>
<path d="M58.0697 48.8548H54.9395V48.1382H57.8497C58.0195 48.1382 58.1389 48.0502 58.1389 47.8617C58.1389 47.4594 58.12 45.5171 58.1137 45.1211H58.912C58.912 45.7811 58.9309 47.4908 58.9309 48.0502C58.9309 48.5405 58.6292 48.8548 58.0697 48.8548Z" fill="#1D1F22"/>
<path d="M59.6974 48.8552L59.666 45.1152H60.4643L60.4957 48.8552H59.6974Z" fill="#1D1F22"/>
<path d="M65.2967 48.854C65.1458 49.5643 64.4984 50.1049 63.7315 50.1049C62.8389 50.1049 62.1287 49.3757 62.1287 48.4957C62.1287 48.326 62.1035 47.6534 62.1035 47.3077H62.8955C62.8955 47.6157 62.9081 48.3763 62.9081 48.502C62.9081 48.9671 63.2852 49.3443 63.7252 49.3443C64.1652 49.3443 64.5549 48.9671 64.5424 48.502L64.5172 47.3077H65.3155V47.9677C65.8624 46.8489 66.7487 46.6414 67.1132 46.6729C67.9995 46.7609 68.2887 47.4271 68.3829 48.1374H71.3372V48.854H65.2904H65.2967ZM66.9687 47.358C66.7047 47.358 66.2772 47.534 65.8749 48.1374H67.6161C67.5972 47.7854 67.4464 47.358 66.9687 47.358Z" fill="#1D1F22"/>
<path d="M68.9868 48.8534V48.1369H73.7136C73.5753 47.6654 73.2296 47.3826 72.8273 47.3826C72.3182 47.3826 72.0605 47.6403 72.0605 47.6403L71.7462 47.0683C71.8405 46.9552 72.1862 46.666 72.8273 46.666C73.7639 46.666 74.2793 47.3512 74.4616 48.1306H77.2839V48.8472H68.9805L68.9868 48.8534Z" fill="#1D1F22"/>
<path d="M79.8304 48.8543C79.5036 48.8543 79.183 48.7914 78.8876 48.6846C78.5984 48.7914 78.2904 48.8543 77.9636 48.8543H74.959V48.1377H77.6618C77.8064 48.1377 77.951 48.1377 78.083 48.1126C77.8504 47.8486 77.7624 47.5783 77.7624 47.352C77.7624 46.6857 78.3093 46.3337 78.8938 46.3337C79.4784 46.3337 80.0253 46.6857 80.0253 47.352C80.0253 47.5783 79.9373 47.8486 79.711 48.1126C79.8744 48.144 79.9876 48.1377 80.1384 48.1377H80.5847V48.8543H79.843H79.8304ZM78.523 45.8874V45.2148H79.2081V45.8874H78.523ZM78.8876 46.9308C78.6613 46.9308 78.5293 47.1068 78.5293 47.3394C78.5293 47.6977 78.8624 47.9114 78.8876 47.9114C78.919 47.9114 79.2458 47.6977 79.2458 47.3394C79.2458 47.1068 79.1201 46.9308 78.8876 46.9308Z" fill="#1D1F22"/>
<path d="M83.601 48.8548H80.4707V48.1382H83.381C83.5507 48.1382 83.6701 48.0502 83.6701 47.8617C83.6701 47.4594 83.6513 45.5171 83.645 45.1211H84.4433C84.4433 45.7811 84.4621 47.4908 84.4621 48.0502C84.4621 48.5405 84.1604 48.8548 83.601 48.8548Z" fill="#1D1F22"/>
<path d="M85.2287 48.8552L85.1973 45.1152H85.9956L86.027 48.8552H85.2287Z" fill="#1D1F22"/>
<path d="M92.055 48.8538C91.5962 48.8538 91.2819 48.7281 91.0619 48.4452C90.867 48.6904 90.559 48.8475 90.1316 48.8475C89.5093 48.8475 89.1259 48.5081 89.0127 48.0367H88.6859C88.4659 48.0367 88.4407 48.1372 88.4407 48.4012L88.4722 50.0795H87.6739L87.6487 48.0932C87.6362 47.4772 88.0259 47.2824 88.4784 47.2824H89.0442C89.195 46.8801 89.5596 46.6035 90.1316 46.6035C90.7727 46.6035 91.1499 46.9115 91.2819 47.5338C91.3699 47.9361 91.6653 48.1372 92.1493 48.1309V48.8475H92.0613L92.055 48.8538ZM90.1316 47.2384C89.8424 47.2384 89.7544 47.4961 89.7544 47.7287C89.7544 47.9612 89.8424 48.2252 90.1316 48.2252C90.4207 48.2252 90.515 47.9675 90.515 47.7287C90.515 47.4898 90.427 47.2384 90.1316 47.2384Z" fill="#1D1F22"/>
<path d="M99.2904 48.8543C99.0264 48.8543 98.8504 48.7034 98.7435 48.5777C98.5927 48.7914 98.3287 48.8857 98.027 48.8983C97.7881 48.8983 97.4927 48.8543 97.2664 48.5714C97.0967 48.7977 96.839 48.8857 96.5373 48.8983C96.3613 48.8983 96.1538 48.8669 95.9715 48.7474V48.848H92.043V48.1314H95.1733L95.1607 46.824H95.959C95.959 47.308 95.959 47.3709 95.959 47.6663C95.959 48.0309 96.1664 48.1692 96.3927 48.1692C96.5498 48.1692 96.6504 48.1 96.6504 47.8989C96.6504 47.5532 96.6504 47.1634 96.6378 46.8177H97.4361C97.4361 47.1509 97.455 47.6663 97.455 47.6663C97.455 48.0309 97.6624 48.1692 97.8887 48.1692C98.0395 48.1692 98.1401 48.1 98.1401 47.8989C98.1401 47.352 98.1401 47.3017 98.1275 46.6543H98.9258C98.9258 47.1509 98.9258 47.308 98.9258 47.6097C98.9384 47.9806 99.1961 48.1252 99.3344 48.1252H99.8247V48.8417H99.2841L99.2904 48.8543Z" fill="#1D1F22"/>
<path d="M104.036 48.8552H99.7363V48.1386H103.703C103.791 48.1386 103.847 48.1009 103.847 47.9689V47.9249H103.445C102.797 47.9249 102.401 47.3781 102.42 46.8501C102.464 45.3352 104.614 45.3666 104.633 46.6866C104.633 47.1895 104.633 47.7929 104.633 48.2895C104.633 48.6415 104.413 48.8615 104.029 48.8615L104.036 48.8552ZM102.722 45.2409V44.5684H103.401V45.2409H102.722ZM103.841 46.6301C103.841 46.4981 103.778 46.3095 103.558 46.3095C103.093 46.3095 103.049 47.2209 103.533 47.2209H103.847C103.847 47.0324 103.847 46.8312 103.847 46.6364L103.841 46.6301ZM103.69 45.2409V44.5684H104.375V45.2409H103.69Z" fill="#1D1F22"/>
<path d="M4.39595 42.5946C3.93709 42.5946 3.7108 42.186 3.69823 42.0414H3.19537C2.54166 42.0414 2.35938 41.3752 2.35938 41.0797C2.35938 40.3129 2.8748 40.074 3.23309 40.074C3.41537 40.074 3.55995 40.1117 3.67937 40.2249V40.074H4.43366V41.6391C4.43366 41.7649 4.49652 41.9031 4.68509 41.9031H7.88452V42.5946H4.38966H4.39595ZM2.73652 39.6591V39.0117H3.39652V39.6591H2.73652ZM3.67937 40.8786C3.5788 40.7654 3.52852 40.734 3.37766 40.734C3.26452 40.734 3.12623 40.8157 3.11366 41.0734C3.10109 41.174 3.17023 41.4066 3.34623 41.4066H3.68566V40.8786H3.67937ZM3.66052 39.6591V39.0117H4.32052V39.6591H3.66052Z" fill="#1D1F22"/>
<path d="M9.88178 42.594C9.58635 42.594 9.41035 42.4054 9.32235 42.2671C9.17149 42.4746 8.90749 42.594 8.64978 42.594C8.34178 42.594 8.09664 42.594 7.79492 42.594V41.9026H8.42978C8.57435 41.9026 8.77549 41.8146 8.77549 41.6197L8.76292 40.4883H9.52349C9.52349 40.7837 9.52349 41.1106 9.53607 41.406C9.53607 41.7517 9.79378 41.8963 9.92578 41.8963H10.4412V42.5877H9.88178V42.594ZM8.37949 43.6751V43.0277H9.03949V43.6751H8.37949ZM9.30978 43.6751V43.0277H9.96978V43.6751H9.30978Z" fill="#1D1F22"/>
<path d="M15.0175 42.5938C14.7221 42.5938 14.5461 42.4052 14.4581 42.2669C14.3072 42.4744 14.0432 42.5938 13.7855 42.5938C13.4775 42.5938 10.6552 42.5938 10.3535 42.5938V41.9024H13.5718C13.7164 41.9024 13.9175 41.8144 13.9175 41.6195L13.9049 40.4881H14.6655C14.6655 40.7835 14.6655 41.1104 14.6781 41.4058C14.6781 41.7515 14.9358 41.8961 15.0678 41.8961H18.1667V42.5875H15.0238L15.0175 42.5938ZM13.9364 40.0732V39.4258H14.5964V40.0732H13.9364Z" fill="#1D1F22"/>
<path d="M20.5878 42.594C20.2735 42.594 19.9655 42.5312 19.6827 42.4306C19.4061 42.5375 19.1107 42.594 18.7964 42.594H18.0547V41.9026H18.501C18.6455 41.9026 18.7775 41.9026 18.9033 41.8775C18.677 41.626 18.5953 41.362 18.5953 41.1483C18.5953 40.5072 19.117 40.174 19.6827 40.174C20.2484 40.174 20.7638 40.5072 20.7638 41.1483C20.7638 41.362 20.6821 41.6198 20.4621 41.8775C20.6193 41.9026 20.7261 41.9026 20.8707 41.9026H23.8753V42.594H20.5815H20.5878ZM19.3307 39.7529V39.1055H19.9907V39.7529H19.3307ZM19.6827 40.7523C19.4627 40.7523 19.337 40.922 19.337 41.142C19.337 41.4815 19.6575 41.6952 19.6827 41.6952C19.7078 41.6952 20.0284 41.494 20.0284 41.142C20.0284 40.922 19.909 40.7523 19.6827 40.7523Z" fill="#1D1F22"/>
<path d="M24.6346 42.5946H23.7734V41.9031H24.4209C24.5843 41.9031 24.6974 41.8214 24.6974 41.6391C24.6974 41.2557 24.6786 39.3889 24.6786 39.0117H25.4454C25.4454 39.6466 25.4643 41.2809 25.4643 41.8214C25.4643 42.2929 25.1752 42.5946 24.6346 42.5946Z" fill="#1D1F22"/>
<path d="M26.2009 42.5946L26.1758 39.0117H26.9364L26.9615 42.5946H26.2009Z" fill="#1D1F22"/>
<path d="M30.5444 42.5946C30.0855 42.5946 29.8592 42.186 29.8467 42.0414H29.3438C28.6901 42.0414 28.5078 41.3752 28.5078 41.0797C28.5078 40.3129 29.0232 40.074 29.3815 40.074C29.5638 40.074 29.7084 40.1117 29.8278 40.2249V40.074H30.5821V41.6391C30.5821 41.7649 30.645 41.9031 30.8335 41.9031H34.2592V42.5946H30.5381H30.5444ZM28.8912 39.6591V39.0117H29.5512V39.6591H28.8912ZM29.8341 40.8786C29.7335 40.7654 29.6832 40.734 29.5324 40.734C29.4192 40.734 29.281 40.8157 29.2684 41.0734C29.2558 41.174 29.325 41.4066 29.501 41.4066H29.8404V40.8786H29.8341ZM29.8152 39.6591V39.0117H30.4752V39.6591H29.8152Z" fill="#1D1F22"/>
<path d="M35.0252 42.5936H34.1641V41.9021H34.8115C34.9749 41.9021 35.0881 41.8204 35.0881 41.6381C35.0881 41.2547 35.0881 40.8713 35.0755 40.4941H35.8361C35.8361 41.1227 35.8486 41.2799 35.8486 41.8141C35.8486 42.2856 35.5595 42.5873 35.0189 42.5873L35.0252 42.5936ZM34.2018 43.6747V43.0273H34.8555V43.6747H34.2018ZM35.1258 43.6747V43.0273H35.7795V43.6747H35.1258Z" fill="#1D1F22"/>
<path d="M37.0624 42.1159V40.4941H37.8167L37.8356 42.053C37.7979 43.0021 37.2384 43.6873 36.2767 43.769C36.0504 43.5239 36.0127 43.4421 35.7676 43.1781C36.327 43.1341 37.0624 42.7507 37.0624 42.1159Z" fill="#1D1F22"/>
<path d="M39.2175 42.5946C38.8844 42.5946 38.5701 42.3557 38.5638 41.8969L38.5449 39.0117H39.2992L39.3181 41.658C39.3181 41.8151 39.3935 41.8843 39.5004 41.9031H40.1164V42.5946H39.2238H39.2175Z" fill="#1D1F22"/>
<path d="M40.0098 42.5936V41.9021H42.4046C42.2726 41.4496 41.9395 41.1793 41.5561 41.1793C41.0658 41.1793 40.8206 41.4244 40.8206 41.4244L40.5189 40.8776C40.6132 40.7644 40.9401 40.4941 41.5561 40.4941C42.4549 40.4941 42.9452 41.1479 43.1275 41.9021H46.4966V42.5936H40.0161H40.0098ZM41.2543 43.6747V43.0273H41.9143V43.6747H41.2543Z" fill="#1D1F22"/>
<path d="M48.4892 42.5938C48.1938 42.5938 48.0178 42.4052 47.9298 42.2669C47.7789 42.4744 47.5149 42.5938 47.2572 42.5938C46.9492 42.5938 46.7041 42.5938 46.4023 42.5938V41.9024H47.0372C47.1818 41.9024 47.3829 41.8144 47.3829 41.6195L47.3703 40.4881H48.1309C48.1309 40.7835 48.1309 41.1104 48.1435 41.4058C48.1435 41.7515 48.4012 41.8961 48.5332 41.8961H49.0486V42.5875H48.4892V42.5938ZM46.9492 40.0732V39.4258H47.6092V40.0732H46.9492ZM47.8795 40.0732V39.4258H48.5395V40.0669H47.8795V40.0732Z" fill="#1D1F22"/>
<path d="M52.6138 42.5946H48.9492V41.9031H52.4001C52.5635 41.9031 52.6766 41.8214 52.6766 41.6391C52.6766 41.2557 52.6578 39.3889 52.6578 39.0117H53.4246C53.4246 39.6466 53.4435 41.2809 53.4435 41.8214C53.4435 42.2929 53.1544 42.5946 52.6138 42.5946Z" fill="#1D1F22"/>
<path d="M54.1775 42.5946L54.1523 39.0117H54.9129L54.9381 42.5946H54.1775Z" fill="#1D1F22"/>
<path d="M59.7592 42.5928H58.0621C56.7735 42.5928 56.4844 41.43 56.4844 40.4934H57.2387C57.2387 41.254 57.4398 41.9014 58.0935 41.9014H59.4701C59.5518 41.9014 59.6021 41.8574 59.6021 41.7003C59.5895 41.1849 59.5832 41.0968 59.577 40.4871H60.3375C60.3501 41.0654 60.3501 41.4929 60.3501 41.9957C60.3501 42.4169 60.0735 42.5866 59.7592 42.5866V42.5928ZM57.6409 40.3677V39.7266H58.2947V40.3677H57.6409ZM58.5649 40.3677V39.7266H59.2249V40.3677H58.5649Z" fill="#1D1F22"/>
<path d="M61.5897 42.5946H60.9297V41.9031H61.3634C61.7343 41.9031 62.3188 41.7711 62.3188 41.2306C62.3188 41.2306 62.3188 41.1677 62.2937 39.0117H63.0605C63.0857 41.2934 63.0857 41.482 63.0857 41.482C63.0857 42.1546 62.4383 42.5946 61.5897 42.5946ZM61.2503 41.5449H61.0554L61.024 39.0117H61.7783L61.8034 41.3311C61.6714 41.5197 61.4765 41.5386 61.2503 41.5386V41.5449Z" fill="#1D1F22"/>
<path d="M64.4675 42.5946C64.1344 42.5946 63.8201 42.3557 63.8138 41.8969L63.7949 39.0117H64.5492L64.5681 41.658C64.5681 41.8151 64.6435 41.8843 64.7503 41.9031H68.0566V42.5946H64.4738H64.4675Z" fill="#1D1F22"/>
<path d="M67.9492 42.594V41.9025H70.4635C70.2875 41.1608 69.4138 40.9848 68.6972 41.4751L68.4144 40.9157L69.9858 39.3945L70.5075 39.8911L69.8349 40.5322C70.9098 40.6202 71.2429 41.6322 71.2429 42.594H67.9492Z" fill="#1D1F22"/>
<path d="M73.9847 42.5936C73.7898 43.241 73.2681 43.7124 72.5201 43.7753C72.2938 43.5301 72.2435 43.4421 72.0047 43.1844C72.4007 43.1593 72.9413 42.933 73.1675 42.5936H72.8973C72.3064 42.5936 71.9355 42.0593 71.9355 41.569C71.9355 40.733 72.6018 40.4941 73.0167 40.4941C73.1361 40.4941 74.0035 40.5507 74.0601 41.3679C74.0601 41.393 74.0601 41.4999 74.0601 41.9021H74.7013V42.5936H73.9847ZM73.2995 41.4559C73.2995 41.2547 73.2681 41.0536 73.0104 41.0536C72.7778 41.0536 72.6521 41.2799 72.6521 41.4999C72.6521 41.7199 72.759 41.9084 72.9915 41.9084H73.2995V41.4559Z" fill="#1D1F22"/>
<path d="M79.5036 42.593C79.2081 42.593 79.0321 42.4045 78.9441 42.2662C78.7933 42.4736 78.5293 42.593 78.2716 42.593H74.6133V41.9016H78.0516C78.1961 41.9016 78.3973 41.8136 78.3973 41.6188L78.3847 39.0039H79.1453C79.1453 39.2993 79.1453 41.1096 79.1579 41.405C79.1579 41.7508 79.4156 41.8953 79.5476 41.8953H80.063V42.5868H79.5036V42.593Z" fill="#1D1F22"/>
<path d="M83.6333 42.5946H79.9688V41.9031H83.4196C83.583 41.9031 83.6962 41.8214 83.6962 41.6391C83.6962 41.2557 83.6773 39.3889 83.6773 39.0117H84.4442C84.4442 39.6466 84.463 41.2809 84.463 41.8214C84.463 42.2929 84.1739 42.5946 83.6333 42.5946Z" fill="#1D1F22"/>
<path d="M87.9695 42.5936C87.8186 42.5936 87.6929 42.5433 87.5987 42.4741C87.4541 43.2033 86.8884 43.7061 86.0775 43.769C85.8512 43.5239 85.8135 43.4421 85.5684 43.1781C86.1278 43.1341 86.8695 42.7507 86.8632 42.1159L86.8444 40.4941H87.6112L87.6238 41.4244C87.6238 41.7576 87.8878 41.9021 88.0135 41.9021H91.3387V42.5936H87.9632H87.9695Z" fill="#1D1F22"/>
<path d="M91.2383 42.5944V41.903H92.0994V40.9664H92.8537V41.8213C93.3754 40.6773 94.2554 40.4573 94.6137 40.5013C95.4623 40.583 95.7389 41.2241 95.8269 41.9093H99.3217V42.6007H91.2383V42.5944ZM94.4629 41.1613C94.2114 41.1613 93.7966 41.331 93.4194 41.9093H95.0851C95.0663 41.5761 94.9217 41.1613 94.4629 41.1613Z" fill="#1D1F22"/>
<path d="M101.271 42.5938C100.976 42.5938 100.8 42.4052 100.712 42.2669C100.561 42.4744 100.297 42.5938 100.039 42.5938C99.7311 42.5938 96.6826 42.5938 96.3809 42.5938V41.9024H99.8191C99.9637 41.9024 100.165 41.8144 100.165 41.6195L100.152 40.4881H100.913C100.913 40.7835 100.913 41.1104 100.925 41.4058C100.925 41.7515 101.183 41.8961 101.315 41.8961H104.634V42.5875H101.271V42.5938ZM100.196 40.0732V39.4258H100.856V40.0732H100.196Z" fill="#1D1F22"/>
<mask id="mask0_53_3406" style="mask-type:luminance" maskUnits="userSpaceOnUse" x="59" y="14" width="7" height="16">
<path d="M65.3227 14.0879L59.125 14.0942V29.3056L65.3227 21.7376V14.0879Z" fill="white"/>
</mask>
<g mask="url(#mask0_53_3406)">
<path d="M110.705 0.121094H0.705078V34.6925H110.705V0.121094Z" fill="#1D1F22"/>
</g>
<mask id="mask1_53_3406" style="mask-type:luminance" maskUnits="userSpaceOnUse" x="54" y="6" width="24" height="7">
<path d="M59.7032 6.62695L54.6055 12.7995H72.6455L77.7055 6.62695H59.7032Z" fill="white"/>
</mask>
<g mask="url(#mask1_53_3406)">
<path d="M110.705 0.121094H0.705078V34.6925H110.705V0.121094Z" fill="#1D1F22"/>
</g>
<mask id="mask2_53_3406" style="mask-type:luminance" maskUnits="userSpaceOnUse" x="74" y="6" width="35" height="28">
<path d="M91.4078 11.5298C91.194 11.2595 90.9615 11.0018 90.7289 10.7504C89.2769 9.19781 87.498 8.04124 85.5369 7.3561C84.1666 6.87838 82.7083 6.62695 81.2123 6.62695H79.4272L74.3672 12.7995H81.2123C83.318 12.7995 84.9335 13.7424 86.2472 15.383L86.4546 15.647L100.88 33.1715H108.844L91.4078 11.5298Z" fill="white"/>
</mask>
<g mask="url(#mask2_53_3406)">
<path d="M110.705 0.121094H0.705078V34.6925H110.705V0.121094Z" fill="#1D1F22"/>
</g>
<mask id="mask3_53_3406" style="mask-type:luminance" maskUnits="userSpaceOnUse" x="57" y="14" width="39" height="20">
<path d="M92.0051 24.321L90.2828 22.2782H74.7383L80.0245 15.7222L79.8171 15.4582C79.8171 15.4582 79.8045 15.4393 79.7983 15.433C79.1257 14.5845 78.1074 14.0879 77.0325 14.0879H73.324L57.6914 33.1713H66.0388L69.7914 28.4759H95.4183L92.0177 24.321H92.0051Z" fill="white"/>
</mask>
<g mask="url(#mask3_53_3406)">
<path d="M110.705 0.121094H0.705078V34.6925H110.705V0.121094Z" fill="#1D1F22"/>
</g>
<mask id="mask4_53_3406" style="mask-type:luminance" maskUnits="userSpaceOnUse" x="45" y="14" width="7" height="16">
<path d="M45.459 14.0879L51.6567 14.0942V29.3056L45.459 21.7376V14.0879Z" fill="white"/>
</mask>
<g mask="url(#mask4_53_3406)">
<path d="M110.705 0.121094H0.705078V34.6925H110.705V0.121094Z" fill="#1D1F22"/>
</g>
<mask id="mask5_53_3406" style="mask-type:luminance" maskUnits="userSpaceOnUse" x="33" y="6" width="25" height="7">
<path d="M57.9865 6.62695L52.8196 12.7995H38.1362L33.0762 6.62695H57.9865Z" fill="white"/>
</mask>
<g mask="url(#mask5_53_3406)">
<path d="M110.705 0.121094H0.705078V34.6925H110.705V0.121094Z" fill="#1D1F22"/>
</g>
<mask id="mask6_53_3406" style="mask-type:luminance" maskUnits="userSpaceOnUse" x="1" y="6" width="36" height="28">
<path d="M19.3741 11.5298C19.5878 11.2595 19.8204 11.0018 20.0529 10.7504C21.5049 9.19781 23.2838 8.04124 25.2449 7.3561C26.6152 6.87838 28.0735 6.62695 29.5695 6.62695H31.3546L36.4146 12.7995H29.6261H29.5695C27.4638 12.7995 25.8484 13.7424 24.5346 15.383L24.3272 15.647L9.9015 33.1715H1.9375L19.3741 11.5298Z" fill="white"/>
</mask>
<g mask="url(#mask6_53_3406)">
<path d="M110.705 0.121094H0.705078V34.6925H110.705V0.121094Z" fill="#1D1F22"/>
</g>
<mask id="mask7_53_3406" style="mask-type:luminance" maskUnits="userSpaceOnUse" x="15" y="14" width="39" height="20">
<path d="M18.7775 24.321L20.4998 22.2782H36.0444L30.7581 15.7222L30.9655 15.4582C30.9655 15.4582 30.9781 15.4393 30.9844 15.433C31.657 14.5845 32.6752 14.0879 33.7501 14.0879H37.4587L53.0912 33.1713H44.7438L40.9912 28.4759H15.377L18.7775 24.321Z" fill="white"/>
</mask>
<g mask="url(#mask7_53_3406)">
<path d="M110.707 0.121094H0.707031V34.6925H110.707V0.121094Z" fill="#1D1F22"/>
</g>
</g>
<defs>
<clipPath id="clip0_53_3406">
<rect width="110" height="63.7309" fill="white" transform="translate(0.705078 0.121094)"/>
</clipPath>
</defs>
</svg>
