<svg width="111" height="76" viewBox="0 0 111 76" fill="none" xmlns="http://www.w3.org/2000/svg">
<g clip-path="url(#clip0_53_3370)">
<mask id="mask0_53_3370" style="mask-type:luminance" maskUnits="userSpaceOnUse" x="40" y="3" width="33" height="33">
<path d="M72.0033 30.1705L56.2225 35.5127L40.584 30.675V3.64062H72.0033V30.1705Z" fill="white"/>
</mask>
<g mask="url(#mask0_53_3370)">
<path d="M56.2238 35.5132L39.8027 1.84961" stroke="#1D1F22" stroke-width="3.15" stroke-miterlimit="10"/>
<path d="M56.2224 35.5138L38.9023 13.8281" stroke="#1D1F22" stroke-width="3.15" stroke-miterlimit="10"/>
<path d="M56.2226 35.5124L39.1289 23.4375" stroke="#1D1F22" stroke-width="3.15" stroke-miterlimit="10"/>
<path d="M56.2227 35.5132L72.9542 1.84961" stroke="#1D1F22" stroke-width="3.15" stroke-miterlimit="10"/>
<path d="M56.2227 35.5138L73.8532 13.8281" stroke="#1D1F22" stroke-width="3.15" stroke-miterlimit="10"/>
<path d="M56.2227 35.5124L73.6268 23.4375" stroke="#1D1F22" stroke-width="3.15" stroke-miterlimit="10"/>
<path d="M55.3816 34.7433V22.0993H53.8229L53.3766 16.5954H51.3652V0.439453H61.2218V16.5954H59.2104L58.7641 22.0993H57.1408V34.7433H55.3816Z" fill="#1D1F22"/>
<path d="M60.7823 0.879586V16.1559H58.8033L58.357 21.6663H56.7013V34.3103H55.8217V21.6663H54.2242L53.778 16.1559H51.7989V0.879586H60.7823ZM61.6619 0H50.9258V17.029H52.976L53.3576 21.7309L53.4223 22.5394H54.9486V35.1834H57.5809V22.5394H59.1719L59.2366 21.7309L59.6182 17.029H61.6684V0H61.6619Z" fill="#1D1F22"/>
</g>
<path d="M4.22342 62.6641H0.705078L8.54374 44.1992H12.2238L20.2306 62.6641H16.5506L14.4486 57.6258H8.31738L9.49447 54.6572H13.2133L10.3094 47.724L4.22989 62.6641H4.22342Z" fill="#1D1F22"/>
<path d="M25.9155 44.1992V59.6955H33.2497V62.6641H22.4941V44.1992H25.9155Z" fill="#1D1F22"/>
<path d="M36.4766 62.6641V44.1992H39.8979L49.6445 57.6517V44.1992H52.9365V62.6641H49.5151L39.7685 48.927V62.6641H36.4766Z" fill="#1D1F22"/>
<path d="M58.713 62.6641H55.2012L63.0398 44.1992H66.7199L74.7267 62.6641H71.0467L68.9447 57.6258H62.8135L63.9906 54.6572H67.7094L64.8055 47.724L58.726 62.6641H58.713Z" fill="#1D1F22"/>
<path d="M76.6604 61.8871V58.7891C78.5101 59.4811 80.6056 59.8239 82.9339 59.8239C85.7667 59.8239 87.1831 58.8796 87.1831 56.9847C87.1831 55.6071 86.3165 54.915 84.5767 54.915H81.6857C77.9087 54.915 76.0137 53.1947 76.0137 49.7475C76.0137 45.9575 78.7042 44.0625 84.0852 44.0625C86.1483 44.0625 88.108 44.3665 89.9577 44.968V48.0659C88.108 47.3739 86.1483 47.0311 84.0852 47.0311C80.9872 47.0311 79.435 47.9366 79.435 49.741C79.435 51.1186 80.1852 51.8042 81.6792 51.8042H84.5702C88.593 51.8042 90.598 53.5245 90.598 56.9717C90.598 60.8458 88.0433 62.7796 82.9275 62.7796C80.5927 62.7796 78.5037 62.4756 76.654 61.8741L76.6604 61.8871Z" fill="#1D1F22"/>
<path d="M93.5137 62.6382V44.1992H101.909C105.679 44.1992 107.561 45.8484 107.561 49.1469C107.561 51.3782 106.093 53.2214 103.157 54.6896L109.003 62.6705H104.69L99.0758 54.6249V53.0598C102.348 52.5035 103.985 51.2294 103.985 49.2504C103.985 47.8922 103.215 47.2066 101.689 47.2066H96.9997V62.6382H93.5137Z" fill="#1D1F22"/>
<path d="M0.705078 75.9165V67.541H2.3155L5.15475 73.8986L7.93579 67.541H9.488V75.9165H8.05221V70.0828L5.7821 75.9165H4.45625L2.13441 70.0828V75.9165H0.705078Z" fill="#1D1F22"/>
<path d="M16.9835 67.541V68.8733H12.7926V70.9817H16.7895V72.3723H12.7796V74.5712H17.0741V75.9165H11.2598V67.541H16.9965H16.9835Z" fill="#1D1F22"/>
<path d="M23.9761 67.541V68.8863H21.5767V75.9165H20.0245V68.8863H17.625V67.541H23.9826H23.9761Z" fill="#1D1F22"/>
<path d="M24.8352 75.9165H23.2441L26.8013 67.541H28.4699L32.1047 75.9165H30.4361L29.4789 73.6334H26.6978L27.2281 72.2882H28.9162L27.5968 69.145L24.8352 75.923V75.9165Z" fill="#1D1F22"/>
<path d="M34.6733 67.541V74.5712H37.9976V75.9165H33.1211V67.541H34.6733Z" fill="#1D1F22"/>
<path d="M43.6557 67.541V75.9165H42.1035V67.541H43.6557Z" fill="#1D1F22"/>
<path d="M45.4082 75.9165V67.541H46.9604L51.3842 73.6464V67.541H52.8782V75.9165H51.326L46.9022 69.6818V75.9165H45.4082Z" fill="#1D1F22"/>
<path d="M54.6387 75.9165V67.541H57.9177C60.6923 67.541 62.0763 68.8604 62.0763 71.4992C62.0763 74.4419 60.6923 75.9165 57.9177 75.9165H54.6387ZM57.9177 74.5712C59.6575 74.5712 60.5241 73.5494 60.5241 71.4992C60.5241 69.7594 59.6575 68.8863 57.9177 68.8863H56.1909V74.5648H57.9177V74.5712Z" fill="#1D1F22"/>
<path d="M63.3945 72.6245V67.541H64.9467V72.6245C64.9467 73.9568 65.6323 74.6294 66.997 74.6294C68.3616 74.6294 69.0472 73.9633 69.0472 72.6245V67.541H70.5994V72.6245C70.5994 74.8558 69.3964 75.9747 66.997 75.9747C64.5975 75.9747 63.3945 74.8558 63.3945 72.6245Z" fill="#1D1F22"/>
<path d="M72.2038 75.5662V74.1628C73.0445 74.4732 73.9953 74.6285 75.0495 74.6285C76.3365 74.6285 76.9768 74.2016 76.9768 73.3414C76.9768 72.7141 76.5823 72.4036 75.7932 72.4036H74.4803C72.7664 72.4036 71.9062 71.621 71.9062 70.0624C71.9062 68.342 73.1286 67.4883 75.5669 67.4883C76.5047 67.4883 77.3907 67.6241 78.2315 67.8957V69.2992C77.3907 68.9888 76.5047 68.8335 75.5669 68.8335C74.1634 68.8335 73.4585 69.241 73.4585 70.0624C73.4585 70.6897 73.7948 71.0002 74.4803 71.0002H75.7932C77.6171 71.0002 78.529 71.7827 78.529 73.3414C78.529 75.1006 77.3713 75.9737 75.0495 75.9737C73.9888 75.9737 73.0445 75.8379 72.2038 75.5662Z" fill="#1D1F22"/>
<path d="M85.3257 67.541V68.8863H82.9263V75.9165H81.3741V68.8863H78.9746V67.541H85.3322H85.3257Z" fill="#1D1F22"/>
<path d="M86.2057 75.9036V67.541H90.0151C91.7225 67.541 92.5827 68.2913 92.5827 69.7853C92.5827 70.7942 91.9165 71.635 90.5842 72.3011L93.2359 75.923H91.2762L88.728 72.2753V71.5638C90.2091 71.3116 90.9529 70.736 90.9529 69.837C90.9529 69.2226 90.6036 68.9121 89.9116 68.9121H87.7838V75.91H86.1992L86.2057 75.9036Z" fill="#1D1F22"/>
<path d="M95.519 67.541V75.9165H93.9668V67.541H95.519Z" fill="#1D1F22"/>
<path d="M103.009 67.541V68.8733H98.818V70.9817H102.815V72.3723H98.805V74.5712H103.099V75.9165H97.2852V67.541H103.022H103.009Z" fill="#1D1F22"/>
<path d="M104.38 75.5662V74.1628C105.22 74.4732 106.171 74.6285 107.225 74.6285C108.512 74.6285 109.153 74.2016 109.153 73.3414C109.153 72.7141 108.758 72.4036 107.969 72.4036H106.656C104.942 72.4036 104.082 71.621 104.082 70.0624C104.082 68.342 105.304 67.4883 107.743 67.4883C108.68 67.4883 109.567 67.6241 110.407 67.8957V69.2992C109.567 68.9888 108.68 68.8335 107.743 68.8335C106.339 68.8335 105.634 69.241 105.634 70.0624C105.634 70.6897 105.971 71.0002 106.656 71.0002H107.969C109.793 71.0002 110.705 71.7827 110.705 73.3414C110.705 75.1006 109.547 75.9737 107.225 75.9737C106.165 75.9737 105.22 75.8379 104.38 75.5662Z" fill="#1D1F22"/>
</g>
<defs>
<clipPath id="clip0_53_3370">
<rect width="110" height="75.9743" fill="white" transform="translate(0.705078)"/>
</clipPath>
</defs>
</svg>
