<svg width="111" height="68" viewBox="0 0 111 68" fill="none" xmlns="http://www.w3.org/2000/svg">
<g clip-path="url(#clip0_53_3624)">
<path d="M1.1815 67.391C0.801202 67.2746 0.498513 67.1193 0.273438 66.9331L0.614932 66.1725C0.832247 66.3432 1.09613 66.4829 1.41434 66.5916C1.73255 66.7002 2.05076 66.7546 2.36897 66.7546C2.76479 66.7546 3.05972 66.6925 3.25375 66.5683C3.44778 66.4441 3.54868 66.2734 3.54868 66.0638C3.54868 65.9163 3.49435 65.7844 3.38569 65.6913C3.27704 65.5904 3.13733 65.5128 2.97435 65.4584C2.81136 65.4041 2.57852 65.342 2.29136 65.2722C1.88777 65.179 1.5618 65.0781 1.31344 64.985C1.06508 64.8919 0.847769 64.7366 0.669261 64.5348C0.490752 64.333 0.397617 64.0536 0.397617 63.7044C0.397617 63.4095 0.47523 63.1456 0.638216 62.905C0.801202 62.6644 1.03404 62.4704 1.36001 62.3307C1.68598 62.1909 2.07404 62.1211 2.53972 62.1211C2.86569 62.1211 3.1839 62.1599 3.49435 62.2453C3.8048 62.3229 4.07644 62.4393 4.30928 62.5945L3.99883 63.3551C3.76599 63.2154 3.5254 63.1145 3.26927 63.0447C3.01315 62.9748 2.77256 62.936 2.53196 62.936C2.1439 62.936 1.85673 63.0059 1.6627 63.1378C1.46867 63.2698 1.37553 63.4405 1.37553 63.6578C1.37553 63.813 1.42986 63.9372 1.53852 64.0304C1.64718 64.1235 1.78688 64.2011 1.94986 64.2554C2.11285 64.3098 2.34569 64.3719 2.63285 64.4417C3.02868 64.5348 3.34689 64.628 3.60301 64.7289C3.85913 64.8298 4.06868 64.9772 4.24719 65.179C4.4257 65.3808 4.51883 65.6525 4.51883 65.994C4.51883 66.2889 4.44122 66.5528 4.27824 66.7856C4.11525 67.0184 3.87465 67.2125 3.55644 67.3522C3.23047 67.4919 2.84241 67.5617 2.37673 67.5617C1.96539 67.5617 1.56956 67.5074 1.18926 67.391H1.1815Z" fill="#1D1F22"/>
<path d="M8.91958 66.2661H6.26524L5.74524 67.4923H4.72852L7.11121 62.1914H8.08137L10.4718 67.4923H9.43959L8.91182 66.2661H8.91958ZM8.60137 65.4899L7.60017 63.1693L6.60673 65.4899H8.60137Z" fill="#1D1F22"/>
<path d="M12.14 63.0141V64.6284H14.7012V65.4589H12.14V67.4923H11.1543V62.1914H15.0272V63.0141H12.14Z" fill="#1D1F22"/>
<path d="M19.9562 66.6618V67.4845H15.9824V62.1836H19.8553V63.0063H16.9681V64.3878H19.5293V65.195H16.9681V66.6541H19.9562V66.6618Z" fill="#1D1F22"/>
<path d="M22.1369 63.0219H20.3828V62.1914H24.8843V63.0219H23.1303V67.4923H22.1446V63.0219H22.1369Z" fill="#1D1F22"/>
<path d="M27.8333 65.6219V67.4923H26.8476V65.6374L24.7676 62.1914H25.8231L27.3754 64.7759L28.9431 62.1914H29.9133L27.841 65.6219H27.8333Z" fill="#1D1F22"/>
<path d="M32.6387 62.1914H33.6243V66.6619H36.3951V67.4923H32.6387V62.1914Z" fill="#1D1F22"/>
<path d="M37.1777 62.1914H38.1634V67.4923H37.1777V62.1914Z" fill="#1D1F22"/>
<path d="M40.5775 63.0141V64.6284H43.1387V65.4589H40.5775V67.4923H39.5918V62.1914H43.4647V63.0141H40.5775Z" fill="#1D1F22"/>
<path d="M45.5294 63.0219H43.7754V62.1914H48.2769V63.0219H46.5229V67.4923H45.5372V63.0219H45.5294Z" fill="#1D1F22"/>
<path d="M49.0137 62.1914H49.9993V67.4923H49.0137V62.1914Z" fill="#1D1F22"/>
<path d="M56.1466 62.1914V67.4923H55.3394L52.4135 63.8989V67.4923H51.4355V62.1914H52.2427L55.1687 65.7849V62.1914H56.1466Z" fill="#1D1F22"/>
<path d="M61.1845 64.7831H62.1159V66.8942C61.8442 67.1115 61.526 67.2745 61.1613 67.3909C60.7965 67.5073 60.4239 67.5617 60.0436 67.5617C59.5003 67.5617 59.0192 67.4453 58.5845 67.2124C58.1499 66.9796 57.8084 66.6536 57.56 66.2423C57.3117 65.8309 57.1875 65.3575 57.1875 64.8375C57.1875 64.3175 57.3117 63.8518 57.56 63.4327C57.8084 63.0136 58.1499 62.6954 58.5845 62.4625C59.0192 62.2297 59.5081 62.1133 60.0592 62.1133C60.5016 62.1133 60.9051 62.1831 61.2699 62.3306C61.6347 62.4781 61.9374 62.6954 62.1857 62.9748L61.5648 63.5802C61.1613 63.1766 60.6723 62.9748 60.1057 62.9748C59.7332 62.9748 59.3995 63.0524 59.1123 63.2076C58.8251 63.3628 58.5923 63.5879 58.4293 63.8673C58.2663 64.1467 58.1809 64.4727 58.1809 64.8375C58.1809 65.2022 58.2663 65.5127 58.4293 65.7921C58.5923 66.0715 58.8174 66.2966 59.1123 66.4596C59.3995 66.6226 59.7332 66.7002 60.098 66.7002C60.5093 66.7002 60.8741 66.607 61.1923 66.4285V64.7754L61.1845 64.7831Z" fill="#1D1F22"/>
<path d="M65.9647 67.391C65.5844 67.2746 65.2817 67.1193 65.0566 66.9331L65.3981 66.1725C65.6155 66.3432 65.8793 66.4829 66.1975 66.5916C66.5158 66.7002 66.834 66.7546 67.1522 66.7546C67.548 66.7546 67.8429 66.6925 68.037 66.5683C68.231 66.4441 68.3319 66.2734 68.3319 66.0638C68.3319 65.9163 68.2776 65.7844 68.1689 65.6913C68.0602 65.5904 67.9205 65.5128 67.7576 65.4584C67.5946 65.4041 67.3617 65.342 67.0746 65.2722C66.671 65.179 66.345 65.0781 66.0966 64.985C65.8483 64.8919 65.631 64.7366 65.4525 64.5348C65.274 64.333 65.1808 64.0536 65.1808 63.7044C65.1808 63.4095 65.2584 63.1456 65.4214 62.905C65.5844 62.6644 65.8172 62.4704 66.1432 62.3307C66.4692 62.1909 66.8573 62.1211 67.3229 62.1211C67.6489 62.1211 67.9671 62.1599 68.2776 62.2453C68.588 62.3229 68.8596 62.4393 69.0925 62.5945L68.782 63.3551C68.5492 63.2154 68.3086 63.1145 68.0525 63.0447C67.7964 62.9748 67.5558 62.936 67.3152 62.936C66.9271 62.936 66.6399 63.0059 66.4459 63.1378C66.2519 63.2698 66.1587 63.4405 66.1587 63.6578C66.1587 63.813 66.2131 63.9372 66.3217 64.0304C66.4304 64.1235 66.5701 64.2011 66.7331 64.2554C66.8961 64.3098 67.1289 64.3719 67.4161 64.4417C67.8119 64.5348 68.1301 64.628 68.3862 64.7289C68.6423 64.8298 68.8519 64.9772 69.0304 65.179C69.2089 65.3808 69.302 65.6525 69.302 65.994C69.302 66.2889 69.2244 66.5528 69.0614 66.7856C68.8985 67.0184 68.6579 67.2125 68.3396 67.3522C68.0137 67.4919 67.6256 67.5617 67.1599 67.5617C66.7486 67.5617 66.3528 67.5074 65.9725 67.391H65.9647Z" fill="#1D1F22"/>
<path d="M71.2818 67.2124C70.8472 66.9796 70.5057 66.6536 70.2573 66.2345C70.0089 65.8154 69.8848 65.3497 69.8848 64.8375C69.8848 64.3252 70.0089 63.8596 70.2573 63.4405C70.5057 63.0213 70.8472 62.6954 71.2818 62.4625C71.7164 62.2297 72.2054 62.1133 72.7409 62.1133C73.2764 62.1133 73.7654 62.2297 74.2 62.4625C74.6346 62.6954 74.9761 63.0213 75.2245 63.4327C75.4729 63.844 75.597 64.3175 75.597 64.8375C75.597 65.3575 75.4729 65.8232 75.2245 66.2423C74.9761 66.6536 74.6346 66.9796 74.2 67.2124C73.7654 67.4453 73.2764 67.5617 72.7409 67.5617C72.2054 67.5617 71.7164 67.4453 71.2818 67.2124ZM73.7033 66.4673C73.9827 66.3121 74.2078 66.087 74.3708 65.7999C74.5337 65.5127 74.6114 65.1945 74.6114 64.8452C74.6114 64.496 74.5337 64.17 74.3708 63.8906C74.2078 63.6034 73.9905 63.3861 73.7033 63.2231C73.4161 63.0602 73.1057 62.9825 72.7487 62.9825C72.3916 62.9825 72.0734 63.0602 71.794 63.2231C71.5146 63.3861 71.2895 63.6034 71.1266 63.8906C70.9636 64.1778 70.886 64.496 70.886 64.8452C70.886 65.1945 70.9636 65.5205 71.1266 65.7999C71.2895 66.087 71.5069 66.3043 71.794 66.4673C72.0734 66.6226 72.3916 66.7079 72.7487 66.7079C73.1057 66.7079 73.4161 66.6303 73.7033 66.4673Z" fill="#1D1F22"/>
<path d="M76.6445 62.1914H77.6302V66.6619H80.401V67.4923H76.6445V62.1914Z" fill="#1D1F22"/>
<path d="M81.6737 66.949C81.2623 66.5377 81.0605 65.9478 81.0605 65.1795V62.1914H82.0462V65.1484C82.0462 66.1884 82.4964 66.7084 83.3967 66.7084C84.297 66.7084 84.7394 66.1884 84.7394 65.1484V62.1914H85.7095V65.1795C85.7095 65.9478 85.5077 66.5377 85.0964 66.949C84.685 67.3604 84.1185 67.5622 83.3889 67.5622C82.6594 67.5622 82.085 67.3604 81.6814 66.949H81.6737Z" fill="#1D1F22"/>
<path d="M88.0607 63.0219H86.3066V62.1914H90.8082V63.0219H89.0541V67.4923H88.0684V63.0219H88.0607Z" fill="#1D1F22"/>
<path d="M91.5449 62.1914H92.5306V67.4923H91.5449V62.1914Z" fill="#1D1F22"/>
<path d="M94.9751 67.2124C94.5405 66.9796 94.199 66.6536 93.9507 66.2345C93.7023 65.8154 93.5781 65.3497 93.5781 64.8375C93.5781 64.3252 93.7023 63.8596 93.9507 63.4405C94.199 63.0213 94.5405 62.6954 94.9751 62.4625C95.4098 62.2297 95.8987 62.1133 96.4343 62.1133C96.9698 62.1133 97.4587 62.2297 97.8934 62.4625C98.328 62.6954 98.6695 63.0213 98.9179 63.4327C99.1662 63.844 99.2904 64.3175 99.2904 64.8375C99.2904 65.3575 99.1662 65.8232 98.9179 66.2423C98.6695 66.6536 98.328 66.9796 97.8934 67.2124C97.4587 67.4453 96.9698 67.5617 96.4343 67.5617C95.8987 67.5617 95.4098 67.4453 94.9751 67.2124ZM97.3889 66.4673C97.6683 66.3121 97.8934 66.087 98.0564 65.7999C98.2193 65.5127 98.297 65.1945 98.297 64.8452C98.297 64.496 98.2193 64.17 98.0564 63.8906C97.8934 63.6034 97.6761 63.3861 97.3889 63.2231C97.1017 63.0602 96.7913 62.9825 96.4343 62.9825C96.0772 62.9825 95.759 63.0602 95.4796 63.2231C95.2002 63.3861 94.9752 63.6034 94.8122 63.8906C94.6492 64.1778 94.5716 64.496 94.5716 64.8452C94.5716 65.1945 94.6492 65.5205 94.8122 65.7999C94.9752 66.087 95.1925 66.3043 95.4796 66.4673C95.7668 66.6303 96.0772 66.7079 96.4343 66.7079C96.7913 66.7079 97.1017 66.6303 97.3889 66.4673Z" fill="#1D1F22"/>
<path d="M105.051 62.1914V67.4923H104.244L101.318 63.8989V67.4923H100.34V62.1914H101.147L104.073 65.7849V62.1914H105.051Z" fill="#1D1F22"/>
<path d="M106.928 67.391C106.547 67.2746 106.245 67.1193 106.02 66.9331L106.361 66.1725C106.578 66.3432 106.842 66.4829 107.16 66.5916C107.479 66.7002 107.797 66.7546 108.115 66.7546C108.511 66.7546 108.806 66.6925 109 66.5683C109.194 66.4441 109.295 66.2734 109.295 66.0638C109.295 65.9163 109.24 65.7844 109.132 65.6913C109.023 65.5904 108.883 65.5128 108.72 65.4584C108.557 65.4041 108.325 65.342 108.037 65.2722C107.634 65.179 107.308 65.0781 107.06 64.985C106.811 64.8919 106.594 64.7366 106.415 64.5348C106.237 64.333 106.144 64.0536 106.144 63.7044C106.144 63.4095 106.221 63.1456 106.384 62.905C106.547 62.6644 106.78 62.4704 107.106 62.3307C107.432 62.1909 107.82 62.1211 108.286 62.1211C108.612 62.1211 108.93 62.1599 109.24 62.2453C109.551 62.3229 109.823 62.4393 110.055 62.5945L109.745 63.3551C109.512 63.2154 109.271 63.1145 109.015 63.0447C108.759 62.9748 108.519 62.936 108.278 62.936C107.89 62.936 107.603 63.0059 107.409 63.1378C107.215 63.2698 107.122 63.4405 107.122 63.6578C107.122 63.813 107.176 63.9372 107.285 64.0304C107.393 64.1235 107.533 64.2011 107.696 64.2554C107.859 64.3098 108.092 64.3719 108.379 64.4417C108.775 64.5348 109.093 64.628 109.349 64.7289C109.605 64.8298 109.815 64.9772 109.993 65.179C110.172 65.3808 110.265 65.6525 110.265 65.994C110.265 66.2889 110.187 66.5528 110.024 66.7856C109.861 67.0184 109.621 67.2125 109.303 67.3522C108.977 67.4919 108.588 67.5617 108.123 67.5617C107.711 67.5617 107.316 67.5074 106.935 67.391H106.928Z" fill="#1D1F22"/>
<path d="M4.96112 57.8988H2.52409C0.676919 57.8988 0.257812 56.2457 0.257812 54.9107H1.33662C1.33662 55.9896 1.62379 56.9209 2.57066 56.9209H4.55754C4.67396 56.9209 4.74381 56.8588 4.74381 56.6415C4.72828 55.9042 4.72052 55.7878 4.705 54.9185H5.8071C5.82262 55.7412 5.82262 56.3543 5.82262 57.0684C5.82262 57.666 5.41903 57.9066 4.96888 57.9066L4.96112 57.8988ZM1.91096 54.7245V53.8164H2.85007V54.7245H1.91096ZM3.23813 54.7245V53.8164H4.185V54.7245H3.23813Z" fill="#1D1F22"/>
<path d="M7.80219 57.898C7.32099 57.898 6.87084 57.5642 6.86308 56.9045L6.83203 52.7988H7.92637L7.94965 56.563C7.94965 56.7803 8.05831 56.8812 8.20577 56.9123H9.09055V57.8902H7.80219V57.898Z" fill="#1D1F22"/>
<path d="M12.8549 57.8983C12.4901 57.8983 12.1875 57.712 12.0322 57.5723C11.6131 57.7663 11.163 57.8983 10.7051 57.8983H8.92773V56.9203H10.7051C10.9767 56.9203 11.1552 56.9048 11.3803 56.8427C10.9767 56.4003 10.511 56.0511 9.75819 56.0123V55.2362C11.2639 54.2117 13.2042 54.5144 14.2442 55.4768C13.9493 56.0045 13.5379 56.5012 13.0567 56.9203H14.834V57.8983H12.8627H12.8549ZM11.3648 55.5932C11.714 55.7562 12.04 56.0511 12.2728 56.315C12.4901 56.1442 12.6764 55.958 12.8316 55.7406C12.5367 55.5932 11.9469 55.4535 11.3648 55.5932Z" fill="#1D1F22"/>
<path d="M17.5183 57.8989H14.6699V56.921H17.0604C17.1846 56.921 17.2622 56.8666 17.2622 56.6881V56.6261H16.7034C15.8108 56.6261 15.2598 55.881 15.2908 55.1592C15.3529 53.0869 18.3177 53.1335 18.341 54.9419C18.3487 55.6249 18.341 56.4475 18.341 57.1305C18.3487 57.6117 18.0383 57.9067 17.5105 57.9067L17.5183 57.8989ZM17.2544 54.8565C17.2544 54.678 17.169 54.4141 16.8664 54.4141C16.2222 54.4141 16.1601 55.6559 16.8353 55.6559H17.2699C17.2699 55.3998 17.2622 55.1204 17.2622 54.8565H17.2544ZM16.3852 52.9705V52.0547H17.3243V52.9705H16.3852Z" fill="#1D1F22"/>
<path d="M19.404 57.898L19.3652 52.7988H20.4596L20.4984 57.898H19.404Z" fill="#1D1F22"/>
<path d="M23.8209 57.8983C23.6036 57.8983 23.4173 57.8284 23.2854 57.7275C23.0758 58.7675 22.2609 59.4816 21.0967 59.5747C20.7785 59.2255 20.7164 59.109 20.3594 58.7365C21.1665 58.6744 22.2376 58.1234 22.2221 57.2231L22.1988 54.918H23.3009L23.3164 56.2451C23.3242 56.7263 23.6967 56.9281 23.883 56.9281H24.6358V57.906H23.8131L23.8209 57.8983Z" fill="#1D1F22"/>
<path d="M27.4996 57.898C27.0805 57.898 26.8167 57.6341 26.6925 57.4323C26.4752 57.7272 26.0949 57.898 25.7223 57.898H24.4883V56.92H25.4041C25.6137 56.92 25.9086 56.7959 25.9086 56.5165L25.8931 52.7988H26.9952C26.9952 53.2257 26.9952 55.7947 27.0107 56.2215C27.0184 56.7182 27.3755 56.92 27.5695 56.92H28.3146V57.898H27.5074H27.4996Z" fill="#1D1F22"/>
<path d="M29.402 57.898H28.1602V56.92H29.0915C29.3243 56.92 29.4951 56.8036 29.4951 56.5397C29.4951 55.9887 29.4718 53.3421 29.464 52.7988H30.5661C30.5739 53.6991 30.5894 56.0275 30.5894 56.7959C30.5894 57.4633 30.1703 57.898 29.3942 57.898H29.402Z" fill="#1D1F22"/>
<path d="M35.7424 57.8982C35.0827 57.8982 34.7567 57.3161 34.7412 57.1143H34.0194C33.0803 57.1143 32.8164 56.1674 32.8164 55.7406C32.8164 54.6462 33.5615 54.3125 34.0737 54.3125C34.3298 54.3125 34.5472 54.3668 34.7179 54.5221V54.3125H35.8122V56.54C35.82 56.7185 35.8976 56.9203 36.177 56.9203H37.0696V57.8982H35.7502H35.7424ZM34.7179 55.4456C34.5704 55.2904 34.5006 55.2439 34.2833 55.2439C34.1203 55.2439 33.9185 55.3603 33.8952 55.7328C33.8797 55.8725 33.9728 56.2062 34.229 56.2062H34.7179V55.4534V55.4456Z" fill="#1D1F22"/>
<path d="M39.9254 57.898C39.5063 57.898 39.2424 57.6341 39.1183 57.4323C38.9009 57.7272 38.5206 57.898 38.1481 57.898C37.7057 57.9057 37.3565 57.898 36.9141 57.898V56.92H37.8299C38.0394 56.92 38.3344 56.7959 38.3344 56.5165L38.3188 54.9099H39.4209C39.4209 55.3367 39.4209 55.7947 39.4365 56.2215C39.4442 56.7182 39.8012 56.92 39.9953 56.92H40.7404V57.898H39.9332H39.9254ZM38.3732 54.3045V53.3887H39.32V54.3045H38.3732Z" fill="#1D1F22"/>
<path d="M43.0152 57.8998H40.5859V56.9219H41.5018C41.4474 56.7511 41.4242 56.5726 41.4242 56.3786C41.4242 55.5093 41.9674 54.8496 43.0152 54.8496C44.063 54.8496 44.6063 55.5093 44.6063 56.3708C44.6063 57.2323 44.063 57.8998 43.0152 57.8998ZM43.0152 55.7033C42.6116 55.7033 42.4874 56.0448 42.4874 56.3786C42.4874 56.7123 42.6039 57.0383 43.0152 57.0383C43.4266 57.0383 43.543 56.6968 43.543 56.3786C43.543 56.0448 43.4188 55.7033 43.0152 55.7033Z" fill="#1D1F22"/>
<path d="M46.3668 57.898H45.4199V56.92H46.0486C46.5841 56.92 47.4223 56.7338 47.4223 55.9654C47.4223 55.9654 47.4223 55.88 47.3835 52.8066H48.4856C48.5244 56.0508 48.5244 56.3224 48.5244 56.3224C48.5244 57.2771 47.5931 57.9057 46.3668 57.9057V57.898ZM45.8856 56.4H45.6062L45.5596 52.7988H46.6462L46.685 56.1051C46.4987 56.369 46.2116 56.4 45.8856 56.4Z" fill="#1D1F22"/>
<path d="M49.5798 57.898L49.541 52.7988H50.6431L50.6819 57.898H49.5876H49.5798Z" fill="#1D1F22"/>
<path d="M55.1453 59.6054C53.9113 59.6054 52.9334 58.612 52.9334 57.409C52.9334 57.1839 52.9023 56.2603 52.9023 55.7869H53.9967C53.9967 56.2138 54.0122 57.246 54.0122 57.4168C54.02 58.0532 54.5322 58.5654 55.1453 58.5654C55.7585 58.5654 56.2862 58.0454 56.2785 57.409L56.2474 52.7988H57.3495L57.3651 57.4168C57.3651 58.6198 56.3794 59.6054 55.1531 59.6054H55.1453Z" fill="#1D1F22"/>
<path d="M61.293 57.8982C61.0136 58.8141 60.253 59.4893 59.182 59.5747C58.8638 59.2254 58.7861 59.1012 58.4369 58.7364C59.0112 58.6976 59.7873 58.3717 60.1133 57.8982H59.7253C58.8793 57.8982 58.3438 57.1376 58.3438 56.4391C58.3438 55.2439 59.2984 54.9102 59.896 54.9102C60.0667 54.9102 61.3163 54.9878 61.3939 56.1597C61.3939 56.1908 61.3939 56.346 61.3939 56.9203H62.3175V57.8982H61.2853H61.293ZM60.3073 56.2684C60.3073 55.989 60.2608 55.694 59.8882 55.694C59.5545 55.694 59.3682 56.02 59.3682 56.3305C59.3682 56.6254 59.5235 56.9126 59.8572 56.9126H60.3073V56.2684Z" fill="#1D1F22"/>
<path d="M65.1891 57.898C64.77 57.898 64.5061 57.6341 64.3819 57.4323C64.1646 57.7272 63.7843 57.898 63.4118 57.898H62.1777V56.92H63.0936C63.3031 56.92 63.598 56.7959 63.598 56.5165L63.5825 52.7988H64.6846C64.6846 53.2257 64.6846 55.7947 64.7001 56.2215C64.7079 56.7182 65.0649 56.92 65.2589 56.92H66.004V57.898H65.1969H65.1891Z" fill="#1D1F22"/>
<path d="M65.8477 57.8983V56.9204H69.2936C69.1074 56.2762 68.6262 55.8959 68.0674 55.8959C67.3611 55.8959 67.0118 56.2451 67.0118 56.2451L66.5772 55.469C66.7091 55.3138 67.1826 54.918 68.0674 54.918C69.3635 54.918 70.0698 55.8493 70.3259 56.9204H71.1408V57.8983H65.8477Z" fill="#1D1F22"/>
<path d="M72.2359 57.898H70.9941V56.92H71.9255C72.1583 56.92 72.3291 56.8036 72.3291 56.5397C72.3291 55.9887 72.3058 53.3421 72.298 52.7988H73.4001C73.4079 53.6991 73.4234 56.0275 73.4234 56.7959C73.4234 57.4633 73.0043 57.898 72.2282 57.898H72.2359Z" fill="#1D1F22"/>
<path d="M74.4783 57.898L74.4395 52.7988H75.5415L75.5804 57.898H74.486H74.4783Z" fill="#1D1F22"/>
<path d="M85.0809 57.9605C84.7627 57.9605 84.3436 57.8984 84.0487 57.5103C83.8158 57.8208 83.4511 57.945 83.0397 57.9605C82.7991 57.9605 82.5042 57.9217 82.2481 57.7509C82.0928 58.7909 81.1693 59.6136 80.0594 59.6136C78.8254 59.6136 77.8475 58.6202 77.8475 57.4172C77.8475 57.1921 77.8164 56.2685 77.8164 55.7951H78.9107C78.9107 56.222 78.9263 57.2542 78.9263 57.4249C78.934 58.0614 79.4463 58.5736 80.0594 58.5736C80.6725 58.5736 81.2081 58.0536 81.1925 57.4172L81.1615 55.1431H82.2558L82.2714 56.447C82.3334 56.8273 82.5818 56.9826 82.8612 56.9826C83.0708 56.9826 83.2105 56.8894 83.2105 56.6178C83.2105 56.1443 83.2027 55.6166 83.2027 55.1431H84.3048C84.3048 55.6011 84.3048 56.3073 84.3048 56.3073C84.3126 56.804 84.5997 56.9903 84.9102 56.9903C85.1197 56.9903 85.2594 56.8972 85.2594 56.6255C85.2594 55.8805 85.2517 55.8106 85.2517 54.9336H86.346C86.3538 55.8106 86.3771 55.927 86.3615 56.6721C86.3615 57.5647 85.8338 57.9682 85.1042 57.9838L85.0809 57.9605Z" fill="#1D1F22"/>
<path d="M87.4392 57.898L87.4004 52.7988H88.5025L88.5413 57.898H87.447H87.4392Z" fill="#1D1F22"/>
<path d="M98.0419 57.9605C97.7237 57.9605 97.3045 57.8984 97.0096 57.5103C96.7768 57.8208 96.412 57.945 96.0007 57.9605C95.7601 57.9605 95.4651 57.9217 95.209 57.7509C95.0538 58.7909 94.1302 59.6136 93.0203 59.6136C91.7863 59.6136 90.8084 58.6202 90.8084 57.4172C90.8084 57.1921 90.7773 56.2685 90.7773 55.7951H91.8717C91.8717 56.222 91.8872 57.2542 91.8872 57.4249C91.895 58.0614 92.4072 58.5736 93.0203 58.5736C93.6335 58.5736 94.169 58.0536 94.1535 57.4172L94.1224 55.1431H95.2168L95.2323 56.447C95.2944 56.8273 95.5427 56.9826 95.8221 56.9826C96.0317 56.9826 96.1714 56.8894 96.1714 56.6178C96.1714 56.1443 96.1636 55.6166 96.1636 55.1431H97.2657C97.2657 55.6011 97.2657 56.3073 97.2657 56.3073C97.2735 56.804 97.5607 56.9903 97.8711 56.9903C98.0807 56.9903 98.2204 56.8972 98.2204 56.6255C98.2204 55.8805 98.2126 55.8106 98.2126 54.9336H99.3069C99.3147 55.8106 99.338 55.927 99.3225 56.6721C99.3225 57.5647 98.7947 57.9682 98.0651 57.9838L98.0419 57.9605Z" fill="#1D1F22"/>
<path d="M100.408 57.898L100.369 52.7988H101.471L101.51 57.898H100.416H100.408Z" fill="#1D1F22"/>
<path d="M104.956 57.2152V54.9102H106.043L106.074 57.1299C106.02 58.4803 105.213 59.4582 103.831 59.5669C103.513 59.2176 103.451 59.1012 103.094 58.7287C103.901 58.6666 104.956 58.1155 104.956 57.2152Z" fill="#1D1F22"/>
<path d="M107.123 57.898L107.084 52.7988H108.186L108.225 57.898H107.131H107.123Z" fill="#1D1F22"/>
<path d="M50.332 16.2524C50.332 13.893 51.9464 12.1855 54.267 12.1855C56.5876 12.1855 58.1554 13.8465 58.1554 16.2524C58.1554 18.6584 56.5798 20.2728 54.2204 20.2728C51.861 20.2728 50.332 18.5653 50.332 16.2524Z" fill="#1D1F22"/>
<path d="M61.6253 30.5412C67.1435 27.9256 70.9232 22.2134 70.6904 15.6629C70.3877 7.04015 62.8981 0.404297 54.2676 0.404297H35.3147C35.2681 0.404297 35.2448 0.458626 35.2759 0.48967L41.5159 7.67658C41.5159 7.67658 41.5392 7.6921 41.5547 7.6921H54.5004C58.6217 7.6921 62.4247 10.4396 63.2318 14.4754C64.3184 19.9393 60.1506 24.7513 54.8807 24.7513H47.0264C46.9798 24.7513 46.9565 24.8056 46.9876 24.8367L63.5888 44.0535C63.5888 44.0535 63.6121 44.069 63.6277 44.069H73.1274C73.174 44.069 73.1973 44.0147 73.1662 43.9836L61.6097 30.6033C61.6097 30.6033 61.5942 30.5412 61.6253 30.5257V30.5412Z" fill="#1D1F22"/>
<path d="M44.3496 24.8519V35.9349C44.3496 35.9349 44.3496 35.9582 44.3651 35.9737L51.6529 44.0687C51.6529 44.0687 51.6762 44.0842 51.6917 44.0842H61.0362C61.0828 44.0842 61.1061 44.0299 61.075 43.9989L44.4349 24.8208C44.4349 24.8208 44.3418 24.8053 44.3418 24.8519H44.3496Z" fill="#1D1F22"/>
</g>
<defs>
<clipPath id="clip0_53_3624">
<rect width="110" height="67.1657" fill="white" transform="translate(0.257812 0.404297)"/>
</clipPath>
</defs>
</svg>
