<svg width="163" height="51" viewBox="0 0 163 51" fill="none" xmlns="http://www.w3.org/2000/svg">
<g clip-path="url(#clip0_53_3680)">
<path d="M32.5473 46.1731V49.0183C32.6457 49.0675 32.7768 49.1249 32.9162 49.1987H34.5397C36.9175 48.2476 39.1068 46.9439 41.0582 45.345L41.1976 42.877C38.6394 44.5578 35.704 45.7057 32.5391 46.1731H32.5473Z" fill="#1D1F22"/>
<path d="M18.8623 35.5718C19.1902 29.5945 29.3739 28.6761 29.3739 28.6761C28.2424 26.0769 24.7248 26.6837 24.7248 26.6837C22.1092 19.911 8.08825 27.5036 7.98986 27.5528C7.88326 26.6673 7.81767 25.7735 7.81767 24.8552C7.81767 12.9497 17.4684 3.29895 29.3739 3.29895C31.0384 3.29895 32.6619 3.48753 34.2198 3.84831C34.4329 3.47934 34.6297 3.15136 34.8101 2.87258C31.8665 1.65087 28.6442 0.978516 25.2578 0.978516C11.45 0.986715 0.257812 12.1789 0.257812 25.9867C0.257812 39.7945 11.45 50.9867 25.2578 50.9867C25.5448 50.9867 25.84 50.9867 26.1269 50.9703C25.963 50.8883 25.9384 50.6095 26.1269 50.5193C26.2007 50.4865 26.2827 50.4538 26.3565 50.4374C26.7747 50.3472 27.3241 50.298 27.3241 50.298C27.3241 50.298 28.6278 50.2078 28.841 49.9372C29.0541 49.6666 29.3493 49.7486 29.8085 49.4288C30.2759 49.1091 30.817 49.0189 31.0712 48.9205C31.2762 48.8467 31.9731 48.8959 32.2355 48.9123V46.2147C31.6616 46.2885 31.0712 46.3458 30.4808 46.3786C21.9207 46.0179 18.5425 41.2376 18.8541 35.5718H18.8623Z" fill="#1D1F22"/>
<path d="M67.3202 50.5098C67.2465 50.477 67.1645 50.4442 67.0907 50.4278C66.6725 50.3377 66.1231 50.2885 66.1231 50.2885C66.1231 50.2885 65.7214 50.2639 65.336 50.1901V46.2215L64.1389 46.156L63.6059 46.7299L63.4829 45.828C63.4829 45.828 63.5157 45.828 63.5321 45.8198C63.6223 45.7952 63.5813 45.664 63.4911 45.6886C63.4829 45.6886 63.4747 45.6886 63.4665 45.6886L62.458 38.3993C62.5482 38.3829 62.5154 38.2599 62.4334 38.2681L61.3757 30.6099C61.4659 30.6017 61.4659 30.4623 61.3757 30.4705C61.3757 30.4705 61.3593 30.4705 61.3511 30.4705L61.2527 29.7817L61.3511 29.6669L61.4495 29.2324V27.8303L60.1294 26.9775L59.9818 26.6332L59.2848 27.1825L55.7017 27.2563C55.6197 27.1169 55.5213 26.9939 55.3819 26.8873C55.2015 26.7398 54.9555 26.6004 54.7014 26.5184V26.1084L54.2176 25.6082C54.4308 25.559 54.6522 25.5098 54.8653 25.4606C55.0457 25.4197 55.5541 25.3951 55.5623 25.1245C55.5623 24.8375 55.1277 24.8293 54.9309 24.8211C54.4636 24.7965 53.988 24.8457 53.5206 24.8785L37.991 8.77485L38.6059 5.37209L38.6961 4.89653L39.0979 2.66629L38.8109 1.72336L38.3763 1.54297L38.1631 1.88734L37.6876 1.95294V1.67416L35.3098 2.08413C35.3098 2.08413 35.1048 2.38751 34.8014 2.85487C34.6292 3.13365 34.4242 3.46163 34.211 3.8306C33.8503 4.47016 33.4649 5.19991 33.1943 5.88866C32.8417 6.79059 32.4564 7.80732 32.0956 9.12742C31.4232 8.81585 30.2507 8.74205 30.0539 9.57839C29.9555 9.98016 30.1359 10.3655 30.3819 10.6771C30.7017 11.0953 31.1117 11.4643 31.4806 11.8414C31.3576 12.481 31.251 13.1779 31.1363 13.9487C30.5623 18.0812 30.6361 23.4518 30.6361 23.4518H31.251V26.0838L31.0625 26.1166C30.9969 26.1248 30.9477 26.174 30.9477 26.2396L30.8903 26.9283H30.8083C30.8083 26.9283 30.7345 26.9611 30.7345 27.0021C30.7345 27.0349 30.7673 27.0759 30.8083 27.0677H30.8821L30.8411 27.5433C30.8411 27.6253 30.8985 27.6909 30.9805 27.6909H32.317V28.3386H32.1202V28.5928H32.2432V48.8864C31.9808 48.87 31.2838 48.8208 31.0789 48.8946C30.8247 48.9848 30.2753 49.0749 29.8161 49.4029C29.3488 49.7227 29.0536 49.6407 28.8486 49.9113C28.6354 50.1819 27.3317 50.2721 27.3317 50.2721C27.3317 50.2721 26.7824 50.3213 26.3642 50.4114C26.2904 50.4278 26.2084 50.4524 26.1346 50.4934C25.9378 50.5836 25.9624 50.8624 26.1346 50.9444C26.1592 50.9608 26.192 50.969 26.2248 50.969H67.2383C67.4842 50.969 67.5498 50.6 67.3284 50.4934L67.3202 50.5098ZM61.1297 29.9457L61.2035 30.5033C61.2035 30.5033 61.1543 30.5115 61.1297 30.5197L61.0641 30.0277L61.1297 29.9457ZM54.7096 26.6742C54.9555 26.7644 55.1933 26.9119 55.3573 27.0595C55.4311 27.1251 55.4885 27.1989 55.5459 27.2727H55.1113C55.0047 27.1005 54.8817 26.9365 54.7096 26.7971V26.6742ZM55.6443 29.1996V29.5194H55.2097L54.8981 29.1996H55.6443ZM54.7096 26.9857C54.7998 27.0759 54.8735 27.1743 54.9473 27.2891H54.7096V26.9857ZM54.3816 25.0589C54.5784 25.0507 55.0047 24.9687 55.1687 25.0835C55.2917 25.1081 55.2835 25.1327 55.1441 25.1737C55.0539 25.2147 54.9637 25.2475 54.8735 25.2721C54.7752 25.3049 54.6768 25.3295 54.5702 25.3541C54.398 25.3869 54.2176 25.4114 54.0454 25.436L53.742 25.1245C53.9552 25.0999 54.1684 25.0753 54.3816 25.0671V25.0589ZM47.7565 28.8962L47.8057 29.4866C47.7237 29.298 47.6499 29.1094 47.5925 28.9126L47.7565 28.8962ZM45.8378 24.2143V24.3947L45.6246 24.5587L45.4114 24.2143H45.846H45.8378ZM43.8617 30.0523C43.8617 30.0523 43.9273 30.1179 43.9683 30.1507L44.0175 30.3721C43.9273 30.3147 43.8453 30.2655 43.7551 30.2081L43.7715 29.9539C43.7715 29.9539 43.8371 30.0195 43.8699 30.0523H43.8617ZM43.7715 29.7735L43.7961 29.339L43.9191 29.9129C43.8699 29.8719 43.8207 29.8227 43.7715 29.7735ZM44.0585 30.5525L46.0346 39.9654L43.2304 40.0556L43.7469 30.3639C43.8535 30.4295 43.9519 30.4951 44.0585 30.5525ZM44.7719 22.5663C44.7719 22.5663 44.7801 22.5581 44.7883 22.5499C44.8129 22.5335 44.8375 22.5171 44.8539 22.5007V22.5581H44.7719V22.5663ZM44.8211 22.2793L44.8539 22.3121V22.3367C44.7965 22.3695 44.7391 22.4105 44.6817 22.4597C44.6325 22.5007 44.5833 22.5417 44.5423 22.5827L44.3455 22.5991C44.4193 22.4515 44.6325 22.3531 44.7719 22.2957C44.7883 22.2957 44.8047 22.2875 44.8211 22.2793ZM32.4482 22.968L32.7679 22.9516V23.4764H33.3173V25.9362L32.9729 25.9198C32.8991 25.9198 32.8417 25.8542 32.8417 25.7886V24.7965C32.8417 24.7391 32.8007 24.6817 32.7351 24.6653L32.4482 24.5915V22.968ZM30.5951 10.4229C30.4475 10.2589 30.3901 10.1933 30.3901 9.97196C30.3901 9.74238 30.3983 9.76698 30.5951 9.69318C30.7755 9.62759 30.9559 9.57839 31.1445 9.56199C31.4314 9.52919 31.7102 9.55379 31.9808 9.61939C31.8496 10.1196 31.7266 10.6689 31.6036 11.2675C31.2346 11.0215 30.8903 10.7427 30.5951 10.4229ZM32.2596 24.5669L31.7676 24.7309C31.7102 24.7473 31.6774 24.8047 31.6774 24.8539V25.3459C31.6774 25.3459 31.6774 25.3869 31.661 25.4033L31.5954 25.5344C31.5544 25.6082 31.5954 25.6984 31.6774 25.723L31.8004 25.764C31.8578 25.7804 31.8906 25.8296 31.8988 25.8788C31.8988 25.9444 31.8578 26.01 31.784 26.0264L31.3576 26.1002V23.4846H31.6856V23.0008L32.3334 22.9762V24.5669C32.3334 24.5669 32.2842 24.5669 32.2514 24.5669H32.2596ZM42.1235 27.2317C42.0825 27.1169 42.0579 27.0021 42.0415 26.9037C42.0251 26.8136 42.0251 26.7316 42.0415 26.6496C42.0743 26.707 42.1071 26.7726 42.1481 26.8299L42.1235 27.2317ZM42.1563 26.584C42.1317 26.5348 42.1071 26.4774 42.0907 26.42C42.1153 26.3626 42.1399 26.3052 42.1809 26.2478L42.1645 26.584H42.1563ZM42.1891 26.01C42.1317 26.0756 42.0743 26.1412 42.0333 26.2068C41.9841 25.9034 42.0333 25.5836 42.1399 25.2803C42.1727 25.2803 42.1973 25.2721 42.2301 25.2639L42.1891 26.01ZM42.5252 24.8949C42.5252 24.8949 42.5252 24.9277 42.5006 24.9359C42.4842 24.9359 42.435 24.9277 42.4186 24.9195C42.3612 24.9195 42.3039 24.9195 42.2547 24.9441C42.1891 24.9851 42.1563 25.0589 42.1727 25.1327H42.1399C42.1399 25.1327 42.0743 25.1327 42.0497 25.1491C42.0333 25.1491 42.0251 25.1491 42.0087 25.1491C41.9349 25.1573 41.9431 25.2475 42.0005 25.2721C41.8775 25.6492 41.8447 26.0428 41.9431 26.3954C41.8857 26.5512 41.8693 26.7316 41.9021 26.9119C41.9349 27.1005 42.0005 27.3383 42.1071 27.5351L40.8444 49.1323H38.4009C38.4009 49.1323 38.3763 49.1323 38.3599 49.1323L37.1874 48.911C37.1874 48.911 37.1464 48.911 37.1218 48.911L35.195 49.1815C35.195 49.1815 35.1786 49.1815 35.1622 49.1815H32.9073C32.7679 49.1077 32.6449 49.0504 32.5384 49.0012V28.6092H32.6613V28.355H32.4646V27.7073H33.8093C33.8831 27.7073 33.9486 27.6499 33.9486 27.5761V27.0267C33.9896 27.0267 34.0306 27.0267 34.0716 27.0349C34.1126 27.0349 34.1454 27.0021 34.1454 26.9693C34.1454 26.9283 34.1126 26.9037 34.0716 26.9037C34.0306 26.9037 33.9896 26.9037 33.9486 26.8955V26.092C33.9486 26.0182 33.8913 25.9608 33.8175 25.9608L33.4075 25.9444V23.4846H33.8667L36.9004 14.3668L44.6981 22.1727C44.4357 22.2547 44.2061 22.3941 44.1651 22.6073L43.9601 22.6237C43.9683 22.5581 43.9765 22.4925 43.9847 22.4187C43.9929 22.3285 43.8535 22.3285 43.8371 22.4187C43.8289 22.5089 43.8125 22.5909 43.8043 22.681L43.7223 22.9106C43.7223 22.9106 43.3616 22.9352 43.337 23.3698C43.3124 23.8044 43.5256 24.1979 43.5256 24.1979L43.5748 24.9769L42.8778 25.0917C42.8778 25.0917 42.8778 25.0753 42.8778 25.0589C42.8778 24.8949 42.599 24.7227 42.4842 24.8949H42.5252ZM46.8217 49.3291C46.8217 49.3291 46.7971 49.3291 46.7807 49.3291H46.7233H46.6659C46.6495 49.3291 46.6413 49.3291 46.6249 49.3291L45.4688 49.3701L44.5177 49.4603C44.5177 49.4603 44.4849 49.4603 44.4767 49.4603L42.9762 49.2799C42.9762 49.2799 42.9352 49.2799 42.9188 49.2635L42.6154 49.1323L43.1812 41.3511L46.297 41.2855L47.7237 49.3537L46.8299 49.3209L46.8217 49.3291ZM45.6246 29.0602L47.4449 28.9208C47.5433 29.2488 47.6745 29.5686 47.8384 29.8801L48.6912 39.9408H47.8303L45.6246 29.0602ZM48.1172 41.4085H48.3222C48.2648 41.4741 48.2074 41.5397 48.1582 41.6053L48.1172 41.4085ZM48.191 41.7857C48.2894 41.6545 48.396 41.5315 48.5108 41.4167H48.9782L49.5029 47.8942L48.191 41.7939V41.7857ZM50.5607 38.8831L50.0851 36.7266H50.3721L50.8312 38.8831H50.5689H50.5607ZM51.11 31.3314H50.9624L50.8148 30.2491L51.1018 30.4131V31.3314H51.11ZM51.4298 30.8969V30.7903L52.0202 31.3314L52.0775 32.0284C51.8808 31.971 51.6922 31.9054 51.4954 31.848L51.4298 30.8969ZM51.5036 31.9956C51.7004 32.053 51.889 32.1186 52.0857 32.176L52.2333 34.1192C52.0283 34.0618 51.8316 33.9962 51.6348 33.9224L51.5036 31.9956ZM51.7086 34.9556L51.6512 34.07C51.848 34.1438 52.0447 34.2094 52.2497 34.2668L52.3891 36.1117L51.9464 36.0297L51.7086 34.9556ZM51.9792 36.1855C52.1185 36.2101 52.2579 36.2347 52.4055 36.2675L52.5449 38.0631H52.3973L51.9792 36.1937V36.1855ZM52.4301 38.1943H52.5531L52.6187 39.0717L52.4219 38.1943H52.4301ZM59.6456 39.3668L59.2766 39.0881C59.4078 39.0717 59.5472 39.0553 59.6784 39.0553L59.6456 39.3668ZM61.1379 48.911C61.1379 48.911 61.0887 48.911 61.0641 48.9274C60.9821 48.9684 60.7689 49.0667 60.5311 49.1897H60.031V44.4341L59.744 43.6059L59.9818 43.3518L61.1871 48.9028C61.1871 48.9028 61.1543 48.9028 61.1379 48.9028V48.911ZM59.9326 38.7847C59.9326 38.6863 59.9572 38.5879 60.0228 38.5141C60.0228 38.5797 60.0556 38.6453 60.1048 38.7027L60.0884 38.7273L59.9408 38.7929L59.9326 38.7847ZM60.359 38.3829L60.195 38.5797C60.1622 38.5305 60.154 38.4649 60.1622 38.4075C60.2278 38.3829 60.2934 38.3747 60.359 38.3747V38.3829ZM60.277 38.2435C60.277 38.2435 60.3507 38.1943 60.3917 38.1779C60.5311 38.1123 60.6459 38.1287 60.7525 38.2271C60.7607 38.2353 60.7771 38.2517 60.7853 38.2599L60.6049 38.2845C60.4901 38.2517 60.3835 38.2353 60.277 38.2435ZM61.4249 39.7604L61.4495 39.3914L61.4741 38.8831L61.2609 38.5141L61.0969 37.9401H60.9329V38.1943C60.8591 38.1041 60.7771 38.0303 60.6787 37.9893C60.5393 37.9319 60.359 38.0303 60.2442 38.1041C60.1704 38.1533 60.1048 38.2271 60.072 38.3009C60.0474 38.3173 60.0146 38.3337 59.99 38.3501C59.8342 38.4731 59.7768 38.6535 59.8014 38.8339L59.703 38.8749V38.8995C59.5062 38.8995 59.3176 38.9323 59.129 38.9569L58.1451 38.2107L53.8076 38.2763L53.2583 38.9159C53.1845 38.9569 53.1025 38.9979 53.0287 39.0471L52.2989 31.5938L54.0454 33.3403L55.9641 33.2501L56.1772 31.3232L55.7673 31.028L55.7181 30.7903L55.9559 31.0116L56.5052 30.9625L56.6036 30.5689L56.3412 29.052L58.5961 28.888L59.5554 29.6915V30.1261L59.99 29.8719L60.4491 29.8965L60.5475 30.2409L61.7938 39.9326L61.4331 39.7522L61.4249 39.7604ZM61.1461 30.6509C61.1461 30.6509 61.1953 30.6427 61.2199 30.6345L62.2776 38.2927C62.2776 38.2927 62.2284 38.3009 62.1956 38.3091L61.1379 30.6509H61.1461ZM63.2205 45.6804L62.2202 38.4485C62.2202 38.4485 62.2694 38.4403 62.3022 38.4321L63.3107 45.7296C63.3107 45.7296 63.2697 45.7296 63.2451 45.7378L63.2205 45.6804ZM63.3107 45.869C63.3107 45.869 63.3271 45.869 63.3353 45.869V45.9428L63.3107 45.8772V45.869Z" fill="#1D1F22"/>
<path d="M78.0538 30.6017C76.0449 30.6017 74.4953 32.1514 74.4953 34.193C74.4953 36.2347 76.0449 37.8008 78.0538 37.8008C79.1033 37.8008 80.2594 37.2678 81.0958 36.4315L82.6455 38.1206C81.4074 39.3915 79.6199 40.2114 77.9144 40.2114C74.4215 40.2114 71.7812 37.6204 71.7812 34.234C71.7812 30.8477 74.4707 28.3223 78.0128 28.3223C79.7019 28.3223 81.4729 29.0766 82.6209 30.2573L81.0876 32.1268C80.284 31.2085 79.1361 30.6099 78.0456 30.6099L78.0538 30.6017Z" fill="#1D1F22"/>
<path d="M91.4034 40.0888L89.5503 36.7435H86.8609V40.0888H84.2207V28.3965H89.2961C92.3545 28.3965 94.0928 29.8642 94.0928 32.4552C94.0928 34.2591 93.322 35.5628 91.9035 36.2269L94.3962 40.0888H91.4034ZM86.8609 34.546H89.2961C90.7474 34.546 91.5838 33.8737 91.5838 32.5454C91.5838 31.2171 90.7474 30.5939 89.2961 30.5939H86.8609V34.5542V34.546Z" fill="#1D1F22"/>
<path d="M105.219 28.3965V30.5857H98.9547V33.1275H104.588V35.3168H98.9547V37.9078H105.399V40.097H96.3145V28.4047H105.219V28.3965Z" fill="#1D1F22"/>
<path d="M111.531 30.5361C110.646 30.5361 110.047 30.8559 110.047 31.4872C110.047 33.6437 116.279 32.4383 116.262 36.6528C116.262 38.9405 114.278 40.1786 111.687 40.1786C109.768 40.1786 107.842 39.4406 106.521 38.3255L107.571 36.1691C108.776 37.235 110.482 37.9238 111.712 37.9238C112.794 37.9238 113.45 37.522 113.45 36.8004C113.45 34.5948 107.218 35.8821 107.218 31.7414C107.218 29.6178 109.039 28.2812 111.745 28.2812C113.384 28.2812 115.016 28.7814 116.189 29.5522L115.172 31.7414C113.934 31.0035 112.466 30.5361 111.531 30.5361Z" fill="#1D1F22"/>
<path d="M123.544 30.6017C121.543 30.6017 119.985 32.1514 119.985 34.193C119.985 36.2347 121.543 37.8008 123.544 37.8008C124.594 37.8008 125.75 37.2678 126.586 36.4315L128.136 38.1206C126.898 39.3915 125.11 40.2114 123.405 40.2114C119.912 40.2114 117.271 37.6204 117.271 34.234C117.271 30.8477 119.961 28.3223 123.503 28.3223C125.192 28.3223 126.963 29.0766 128.111 30.2573L126.578 32.1268C125.774 31.2085 124.626 30.6099 123.536 30.6099L123.544 30.6017Z" fill="#1D1F22"/>
<path d="M138.615 28.3965V30.5857H132.351V33.1275H137.984V35.3168H132.351V37.9078H138.796V40.097H129.711V28.4047H138.615V28.3965Z" fill="#1D1F22"/>
<path d="M143.272 28.3965L148.954 35.9153V28.3965H151.463V40.0888H149.06L143.395 32.5864V40.0888H140.869V28.3965H143.272Z" fill="#1D1F22"/>
<path d="M162.655 28.3965V30.6349H159.08V40.0888H156.439V30.6349H152.881V28.3965H162.655Z" fill="#1D1F22"/>
<path d="M77.0936 46.3871C77.0936 47.8712 75.8965 49.0191 74.3386 49.0191C72.7807 49.0191 71.5918 47.8712 71.5918 46.3871C71.5918 44.903 72.7971 43.7715 74.3386 43.7715C75.8801 43.7715 77.0936 44.903 77.0936 46.3871ZM72.4773 46.3871C72.4773 47.4202 73.3301 48.232 74.3468 48.232C75.3635 48.232 76.1917 47.4202 76.1917 46.3871C76.1917 45.354 75.3635 44.5586 74.3468 44.5586C73.3301 44.5586 72.4773 45.3622 72.4773 46.3871Z" fill="#1D1F22"/>
<path d="M78.8988 43.7949V48.9851H78.0215V43.7949H78.8988Z" fill="#1D1F22"/>
<path d="M81.1371 43.7949V48.1898H83.3837V48.9851H80.2598V43.7949H81.1371Z" fill="#1D1F22"/>
<path d="M85.8183 46.4355V47.0177H83.998V46.4355H85.8183Z" fill="#1D1F22"/>
<path d="M90.434 43.7949V44.5821H87.8266V46.0826H90.188V46.8615H87.8266V48.9933H86.9492V43.8031H90.434V43.7949Z" fill="#1D1F22"/>
<path d="M92.0902 43.7949V48.9851H91.2129V43.7949H92.0902Z" fill="#1D1F22"/>
<path d="M97.1593 43.7949V44.5821H94.3305V45.9924H96.8641V46.7713H94.3305V48.2062H97.2494V48.9933H93.4531V43.8031H97.1593V43.7949Z" fill="#1D1F22"/>
<path d="M99.1918 43.7949V48.1898H101.438V48.9851H98.3145V43.7949H99.1918Z" fill="#1D1F22"/>
<path d="M107.088 46.3859C107.088 47.8864 105.957 48.9851 104.383 48.9851H102.275V43.7949H104.407C105.965 43.7949 107.088 44.8854 107.088 46.3859ZM106.203 46.3941C106.203 45.3364 105.408 44.5739 104.383 44.5739H103.145V48.1898H104.424C105.432 48.1898 106.203 47.4437 106.203 46.3859V46.3941Z" fill="#1D1F22"/>
<path d="M111.884 44.5817C111.375 44.5817 111.039 44.7784 111.039 45.1228C111.039 46.2543 113.843 45.6476 113.835 47.5171C113.835 48.4436 113.024 49.0175 111.876 49.0175C111.064 49.0175 110.285 48.6814 109.752 48.1976L110.129 47.4433C110.662 47.9352 111.326 48.1976 111.884 48.1976C112.491 48.1976 112.851 47.968 112.851 47.5662C112.851 46.4101 110.047 47.0579 110.047 45.2048C110.047 44.3111 110.81 43.7617 111.941 43.7617C112.614 43.7617 113.278 43.9749 113.761 44.2947L113.401 45.0654C112.835 44.721 112.277 44.5817 111.884 44.5817Z" fill="#1D1F22"/>
<path d="M117.017 48.239C117.862 48.239 118.387 47.7224 118.387 46.8369V43.7949H119.264V46.8369C119.264 48.1898 118.411 49.0261 117.009 49.0261C115.607 49.0261 114.746 48.198 114.746 46.8369V43.7949H115.623V46.8369C115.623 47.7142 116.165 48.239 117.017 48.239Z" fill="#1D1F22"/>
<path d="M124.642 45.566C124.642 46.7385 123.896 47.4191 122.584 47.4191H121.387V48.9851H120.51V43.7949H122.576C123.88 43.7949 124.634 44.4427 124.634 45.566H124.642ZM123.806 45.5906C123.806 44.91 123.355 44.5821 122.551 44.5821H121.395V46.6319H122.551C123.355 46.6319 123.806 46.2875 123.806 45.5824V45.5906Z" fill="#1D1F22"/>
<path d="M129.628 45.566C129.628 46.7385 128.882 47.4191 127.578 47.4191H126.381V48.9851H125.504V43.7949H127.57C128.874 43.7949 129.62 44.4427 129.62 45.566H129.628ZM128.792 45.5906C128.792 44.91 128.341 44.5821 127.537 44.5821H126.381V46.6319H127.537C128.341 46.6319 128.792 46.2875 128.792 45.5824V45.5906Z" fill="#1D1F22"/>
<path d="M131.375 43.7949V48.1898H133.622V48.9851H130.498V43.7949H131.375Z" fill="#1D1F22"/>
<path d="M135.327 43.7949V48.9851H134.449V43.7949H135.327Z" fill="#1D1F22"/>
<path d="M140.401 43.7949V44.5821H137.573V45.9924H140.106V46.7713H137.573V48.2062H140.492V48.9933H136.695V43.8031H140.401V43.7949Z" fill="#1D1F22"/>
<path d="M143.198 44.5817C142.69 44.5817 142.354 44.7784 142.354 45.1228C142.354 46.2543 145.158 45.6476 145.15 47.5171C145.15 48.4436 144.338 49.0175 143.19 49.0175C142.378 49.0175 141.608 48.6814 141.066 48.1976L141.444 47.4433C141.977 47.9352 142.641 48.1976 143.198 48.1976C143.805 48.1976 144.166 47.968 144.166 47.5662C144.166 46.4101 141.362 47.0579 141.362 45.2048C141.362 44.3111 142.124 43.7617 143.256 43.7617C143.928 43.7617 144.592 43.9749 145.076 44.2947L144.715 45.0654C144.149 44.721 143.592 44.5817 143.198 44.5817Z" fill="#1D1F22"/>
<path d="M152.095 43.7949V44.5821H149.266V45.9924H151.8V46.7713H149.266V48.2062H152.185V48.9933H148.389V43.8031H152.095V43.7949Z" fill="#1D1F22"/>
<path d="M154.89 44.5817C154.381 44.5817 154.045 44.7784 154.045 45.1228C154.045 46.2543 156.849 45.6476 156.841 47.5171C156.841 48.4436 156.029 49.0175 154.881 49.0175C154.07 49.0175 153.299 48.6814 152.758 48.1976L153.135 47.4433C153.668 47.9352 154.332 48.1976 154.89 48.1976C155.496 48.1976 155.857 47.968 155.857 47.5662C155.857 46.4101 153.053 47.0579 153.053 45.2048C153.053 44.3111 153.816 43.7617 154.947 43.7617C155.619 43.7617 156.284 43.9749 156.767 44.2947L156.407 45.0654C155.841 44.721 155.283 44.5817 154.89 44.5817Z" fill="#1D1F22"/>
<path d="M161.409 43.7949V44.5821H159.761V48.9851H158.884V44.5821H157.244V43.7949H161.401H161.409Z" fill="#1D1F22"/>
<path d="M162.335 48.5502C162.335 48.8372 162.138 49.0503 161.868 49.0503C161.597 49.0503 161.4 48.8454 161.4 48.5502C161.4 48.255 161.597 48.0664 161.868 48.0664C162.138 48.0664 162.335 48.2632 162.335 48.5502Z" fill="#1D1F22"/>
<path d="M162.819 21.8125H71.625V23.1818H162.819V21.8125Z" fill="#1D1F22"/>
<path d="M52.9227 15.9169L53.2342 15.0395H53.7672L53.7508 11.7598H54.6937L54.6527 13.7604C55.2021 13.3587 55.7678 13.2275 56.063 13.2603C57.1453 13.3668 57.5061 14.1786 57.6127 15.0395H58.49V15.9169C52.7997 15.9169 58.5966 15.9169 52.9062 15.9169H52.9227ZM55.8744 14.0966C55.5629 14.0966 55.0217 14.3098 54.5297 15.0477H56.6698C56.6452 14.6214 56.4648 14.0966 55.8744 14.0966Z" fill="#1D1F22"/>
<path d="M61.6223 15.9179C61.2206 15.9179 60.827 15.8441 60.458 15.7047C60.1055 15.8359 59.7201 15.9179 59.3183 15.9179H58.3672V15.0406H58.9411C59.1215 15.0406 59.3019 15.0406 59.4577 15.016C59.1707 14.6962 59.0641 14.3682 59.0641 14.0894C59.0641 13.2777 59.7365 12.8513 60.458 12.8513C61.1796 12.8513 61.8519 13.2777 61.8519 14.0894C61.8519 14.36 61.7453 14.688 61.4666 15.016C61.6715 15.0488 61.8109 15.0406 61.9913 15.0406H62.5407V15.9179H61.6223ZM60.0153 12.3102V11.4902H60.8598V12.3102H60.0153ZM60.458 13.5811C60.1793 13.5811 60.0153 13.7943 60.0153 14.0812C60.0153 14.5158 60.4252 14.7782 60.458 14.7782C60.4908 14.7782 60.9008 14.5158 60.9008 14.0812C60.9008 13.8025 60.745 13.5811 60.458 13.5811Z" fill="#1D1F22"/>
<path d="M65.0898 15.9181C64.7126 15.9181 64.483 15.6803 64.3683 15.5081C64.1715 15.7705 63.8353 15.9181 63.4991 15.9181C63.1055 15.9181 62.794 15.9181 62.4004 15.9181V15.0408H63.2203C63.4089 15.0408 63.6713 14.926 63.6713 14.68L63.6549 13.2451H64.6306C64.6306 13.6223 64.6306 14.0322 64.647 14.4094C64.647 14.8522 64.975 15.0326 65.1472 15.0326H65.8113V15.9099H65.0898V15.9181ZM63.7041 12.7203V11.9004H64.5486V12.7203H63.7041Z" fill="#1D1F22"/>
<path d="M66.7886 15.9179H65.6816V15.0405H66.5098C66.723 15.0405 66.8624 14.9339 66.8624 14.7043C66.8624 14.2124 66.8378 11.851 66.8378 11.3672H67.8217C67.8217 12.1707 67.8463 14.2452 67.8463 14.9339C67.8463 15.5243 67.4773 15.9097 66.7804 15.9097L66.7886 15.9179Z" fill="#1D1F22"/>
<path d="M68.7965 15.9175L68.7637 11.375H69.7394L69.7722 15.9175H68.7965Z" fill="#1D1F22"/>
<path d="M73.7663 17.4426C72.6676 17.4426 71.7902 16.557 71.7902 15.4829C71.7902 15.2779 71.7656 14.458 71.7656 14.0316H72.7414C72.7414 14.4088 72.7578 15.3353 72.7578 15.4829C72.7578 16.0487 73.2169 16.5078 73.7663 16.5078C74.3156 16.5078 74.783 16.0487 74.7748 15.4829L74.7502 11.375H75.7341L75.7505 15.4911C75.7505 16.557 74.8732 17.4426 73.7745 17.4426H73.7663Z" fill="#1D1F22"/>
<path d="M79.2586 15.9183C79.0044 16.7383 78.332 17.3368 77.3809 17.4188C77.0939 17.1072 77.0201 17.0006 76.7168 16.6727C77.2251 16.6399 77.9221 16.3529 78.2173 15.9265H77.8647C77.1103 15.9265 76.6348 15.246 76.6348 14.6228C76.6348 13.5569 77.4875 13.2617 78.0205 13.2617C78.1763 13.2617 79.2832 13.3355 79.357 14.3768C79.357 14.4014 79.357 14.5408 79.357 15.0574H80.1851V15.9347H79.2586V15.9183ZM78.373 14.4752C78.373 14.2211 78.332 13.9669 78.0041 13.9669C77.7007 13.9669 77.5449 14.2538 77.5449 14.5326C77.5449 14.8114 77.6843 15.0492 77.9795 15.0492H78.3812V14.4752H78.373Z" fill="#1D1F22"/>
<path d="M83.302 15.9179C82.9003 15.9179 82.5067 15.8441 82.1377 15.7047C81.777 15.8359 81.3998 15.9179 80.998 15.9179H80.0469V15.0406H80.6208C80.8012 15.0406 80.9816 15.0406 81.1374 15.016C80.8504 14.6962 80.7438 14.3682 80.7438 14.0894C80.7438 13.2777 81.4162 12.8513 82.1377 12.8513C82.8593 12.8513 83.5316 13.2777 83.5316 14.0894C83.5316 14.36 83.425 14.688 83.1463 15.016C83.3512 15.0488 83.4906 15.0406 83.671 15.0406H84.2204V15.9179H83.302ZM81.1128 12.3102V11.4902H81.9409V12.3102H81.1128ZM82.1377 13.5811C81.8589 13.5811 81.695 13.7943 81.695 14.0812C81.695 14.5158 82.1049 14.7782 82.1377 14.7782C82.1705 14.7782 82.5805 14.5158 82.5805 14.0812C82.5805 13.8025 82.4247 13.5811 82.1377 13.5811ZM82.3017 12.3102V11.4902H83.1299V12.3102H82.3017Z" fill="#1D1F22"/>
<path d="M84.0801 15.9168V15.0394H87.2123C87.0483 14.4655 86.6219 14.1211 86.1217 14.1211C85.5232 14.1211 85.1788 14.4327 85.1788 14.4327L84.7934 13.7439C84.9082 13.6209 85.3674 13.252 86.1217 13.252C87.6386 13.252 88.2372 14.6705 88.2372 15.9086H84.0801V15.9168Z" fill="#1D1F22"/>
<path d="M94.436 15.9175H92.2631C90.6151 15.9175 90.2461 14.4416 90.2461 13.2527H91.2136C91.2136 14.2202 91.476 15.0402 92.3123 15.0402H94.0834C94.19 15.0402 94.2474 14.9828 94.2474 14.786C94.231 14.13 94.2228 14.0234 94.2146 13.2445H95.1903C95.2067 13.9824 95.2067 14.5236 95.2067 15.1632C95.2067 15.6961 94.846 15.9093 94.4442 15.9093L94.436 15.9175ZM91.7138 13.0969V12.2852H92.5501V13.0969H91.7138ZM92.8945 13.0969V12.2852H93.739V13.0969H92.8945Z" fill="#1D1F22"/>
<path d="M96.1422 15.9175L96.1094 11.375H97.0851L97.1179 15.9175H96.1422Z" fill="#1D1F22"/>
<path d="M97.9629 15.9183L98.4385 15.041H100.316C100.242 14.4178 99.693 14.0899 99.3568 14.0899V13.2617C100.415 13.2617 101.087 13.8767 101.292 15.041H102.071V15.9183H97.9629Z" fill="#1D1F22"/>
<path d="M103.037 15.9168H101.93V15.0394H102.758C102.971 15.0394 103.119 14.9328 103.119 14.7032C103.119 14.2113 103.119 13.7275 103.102 13.252H104.078C104.078 14.0473 104.094 14.2441 104.094 14.9328C104.094 15.5232 103.725 15.9086 103.028 15.9086L103.037 15.9168ZM101.971 17.2861V16.4661H102.807V17.2861H101.971ZM103.16 17.2861V16.4661H103.996V17.2861H103.16Z" fill="#1D1F22"/>
<path d="M105.645 15.31V13.252H106.612L106.637 15.228C106.588 16.4333 105.866 17.3025 104.636 17.4009C104.349 17.0893 104.292 16.9909 103.98 16.6547C104.702 16.5973 105.645 16.1053 105.645 15.3018V15.31Z" fill="#1D1F22"/>
<path d="M110.155 15.9183C109.901 16.7383 109.229 17.3368 108.277 17.4188C107.99 17.1072 107.917 17.0006 107.613 16.6727C108.122 16.6399 108.819 16.3529 109.114 15.9265H108.761C108.007 15.9265 107.531 15.246 107.531 14.6228C107.531 13.5569 108.384 13.2617 108.917 13.2617C109.073 13.2617 110.18 13.3355 110.253 14.3768C110.253 14.4014 110.253 14.5408 110.253 15.0574H111.082V15.9347H110.155V15.9183ZM109.278 14.4752C109.278 14.2211 109.237 13.9669 108.909 13.9669C108.605 13.9669 108.45 14.2538 108.45 14.5326C108.45 14.8114 108.589 15.0492 108.884 15.0492H109.286V14.4752H109.278Z" fill="#1D1F22"/>
<path d="M113.639 15.9181C113.261 15.9181 113.032 15.6803 112.917 15.5081C112.72 15.7705 112.384 15.9181 112.048 15.9181C111.654 15.9181 111.343 15.9181 110.949 15.9181V15.0408H111.769C111.958 15.0408 112.22 14.926 112.22 14.68L112.204 13.2451H113.179C113.179 13.6223 113.179 14.0322 113.196 14.4094C113.196 14.8522 113.524 15.0326 113.696 15.0326H114.36V15.9099H113.639V15.9181ZM111.663 12.7203V11.9004H112.507V12.7203H111.663ZM112.851 12.7203V11.9004H113.696V12.7121H112.851V12.7203Z" fill="#1D1F22"/>
<path d="M115.337 15.9179H114.23V15.0405H115.059C115.272 15.0405 115.411 14.9339 115.411 14.7043C115.411 14.2124 115.387 11.851 115.387 11.3672H116.371C116.371 12.1707 116.395 14.2452 116.395 14.9339C116.395 15.5243 116.026 15.9097 115.329 15.9097L115.337 15.9179Z" fill="#1D1F22"/>
<path d="M120.395 17.4426C119.296 17.4426 118.419 16.557 118.419 15.4829C118.419 15.2779 118.395 14.458 118.395 14.0316H119.37C119.37 14.4088 119.387 15.3353 119.387 15.4829C119.387 16.0487 119.846 16.5078 120.395 16.5078C120.945 16.5078 121.412 16.0487 121.404 15.4829L121.379 11.375H122.363L122.379 15.4911C122.379 16.557 121.502 17.4426 120.403 17.4426H120.395Z" fill="#1D1F22"/>
<path d="M126.308 15.9179C125.898 15.9179 125.668 15.6801 125.496 15.3685C125.151 15.7211 124.586 15.9179 123.946 15.9179H123.102V15.0405H123.659C124.135 15.0405 124.881 14.8765 124.881 14.1878C124.881 14.1878 124.881 14.114 124.848 11.3672H125.832C125.857 13.5318 125.865 14.2124 125.865 14.4174C125.865 14.8601 126.193 15.0405 126.365 15.0405H127.029V15.9179H126.308ZM123.454 14.5814H123.266L123.225 11.3754H124.2L124.233 14.319C124.069 14.565 123.782 14.5814 123.454 14.5814Z" fill="#1D1F22"/>
<path d="M126.897 15.9171V15.0397H128.356C128.119 14.7692 128.004 14.2936 128.168 13.8262C127.856 13.9328 127.717 14.0148 127.717 14.0148C127.717 14.0148 127.643 13.8016 127.463 13.3097C127.586 13.2523 128.373 12.8259 129.381 12.8341C131.087 12.8505 131.858 13.9574 132.112 15.0479H132.833V15.9253C130.513 15.9253 132.833 15.9253 126.889 15.9253L126.897 15.9171ZM129.389 13.654C129.176 13.654 128.93 13.8672 128.93 14.269C128.93 14.6708 129.193 14.884 129.414 14.884C129.676 14.884 129.873 14.6708 129.873 14.269C129.873 13.8672 129.627 13.654 129.389 13.654ZM130.685 14.0804C130.767 14.3756 130.685 14.8594 130.521 15.0479H131.259C131.169 14.6872 130.947 14.269 130.685 14.0804Z" fill="#1D1F22"/>
<path d="M133.826 15.9179H132.719V15.0405H133.547C133.76 15.0405 133.908 14.9339 133.908 14.7043C133.908 14.2124 133.883 11.851 133.883 11.3672H134.867C134.867 12.1707 134.892 14.2452 134.892 14.9339C134.892 15.5243 134.523 15.9097 133.826 15.9097V15.9179Z" fill="#1D1F22"/>
<path d="M135.828 15.9175L135.795 11.375H136.771L136.803 15.9175H135.828Z" fill="#1D1F22"/>
<path d="M141.41 15.9175C140.819 15.9175 140.532 15.4009 140.516 15.2205H139.876C139.04 15.2205 138.811 14.376 138.811 13.9988C138.811 13.0231 139.475 12.7279 139.926 12.7279C140.155 12.7279 140.344 12.7771 140.5 12.9165V12.7279H141.475V14.7122C141.475 14.8761 141.549 15.0483 141.795 15.0483H142.59V15.9257H141.418L141.41 15.9175ZM139.286 12.1949V11.375H140.131V12.1949H139.286ZM140.491 13.7364C140.36 13.597 140.295 13.556 140.106 13.556C139.958 13.556 139.786 13.6626 139.762 13.9906C139.745 14.1136 139.835 14.4088 140.065 14.4088H140.5V13.7364H140.491ZM140.475 12.1949V11.375H141.32V12.1949H140.475Z" fill="#1D1F22"/>
<path d="M148.627 15.9171C148.307 15.9171 148.085 15.7368 147.954 15.581C147.766 15.8434 147.446 15.9581 147.077 15.9745C146.782 15.9745 146.421 15.9171 146.142 15.5728C145.929 15.8434 145.617 15.9581 145.248 15.9745C145.035 15.9745 144.781 15.9417 144.551 15.7942V15.9171H142.469V15.0398H143.576L143.559 13.4491H144.543C144.543 14.0395 144.543 14.1133 144.543 14.4741C144.543 14.9168 144.806 15.0808 145.076 15.0808C145.273 15.0808 145.388 14.9988 145.388 14.7528C145.388 14.3347 145.388 13.8591 145.371 13.4409H146.347C146.347 13.8427 146.372 14.4741 146.372 14.4741C146.372 14.9168 146.634 15.0808 146.905 15.0808C147.093 15.0808 147.216 14.9988 147.216 14.7528C147.216 14.0887 147.216 14.0231 147.2 13.2441H148.184C148.184 13.8427 148.184 14.0395 148.184 14.4085C148.2 14.8594 148.52 15.0398 148.684 15.0398H149.282V15.9171H148.618H148.627Z" fill="#1D1F22"/>
<path d="M153.792 15.9745C153.505 15.9745 153.136 15.9171 152.865 15.5728C152.652 15.8434 152.332 15.9581 151.963 15.9745C151.75 15.9745 151.496 15.9417 151.266 15.7942V15.9171H149.184V15.0398H150.291V13.4491H151.266C151.266 14.0395 151.266 14.1133 151.266 14.4741C151.283 14.9168 151.529 15.0808 151.807 15.0808C151.996 15.0808 152.119 14.9988 152.119 14.7528C152.119 14.3347 152.119 13.8591 152.119 13.4409H153.095C153.095 13.8427 153.095 14.4741 153.095 14.4741C153.095 14.9168 153.357 15.0808 153.636 15.0808C153.824 15.0808 153.947 14.9988 153.947 14.7528C153.947 14.0887 153.947 14.0231 153.947 13.2441H154.923C154.923 14.0313 154.948 14.1297 154.94 14.7938C154.94 15.5892 154.472 15.9499 153.824 15.9581L153.792 15.9745Z" fill="#1D1F22"/>
<path d="M158.432 15.9172C158.178 16.7371 157.506 17.3357 156.555 17.4177C156.268 17.1061 156.194 16.9995 155.891 16.6715C156.399 16.6387 157.096 16.3517 157.391 15.9254H157.039C156.284 15.9254 155.809 15.2448 155.809 14.6217C155.809 13.5557 156.661 13.2606 157.194 13.2606C157.35 13.2606 158.457 13.3344 158.531 14.3757C158.531 14.4003 158.531 14.5397 158.531 15.0562H159.359V15.9336H158.432V15.9172ZM157.621 12.211C157.58 12.0881 157.498 12.0389 157.407 12.0389C157.317 12.0389 157.243 12.1127 157.243 12.2192C157.243 12.3012 157.293 12.4324 157.457 12.4324H157.85V12.9408H156.284L156.538 12.4324H156.825C156.752 12.334 156.752 12.1946 156.752 12.1536C156.752 11.8421 156.965 11.5879 157.301 11.5879C157.514 11.5879 157.703 11.6617 157.875 11.8749C157.875 11.8913 157.629 12.2192 157.629 12.2192L157.621 12.211ZM157.555 14.4741C157.555 14.2199 157.514 13.9657 157.186 13.9657C156.883 13.9657 156.727 14.2527 156.727 14.5315C156.727 14.8103 156.866 15.048 157.161 15.048H157.563V14.4741H157.555Z" fill="#1D1F22"/>
<path d="M161.401 15.9175H159.236V15.0402H160.056C160.007 14.8844 159.982 14.7286 159.982 14.5564C159.982 13.7775 160.466 13.1953 161.401 13.1953C162.336 13.1953 162.819 13.7857 162.819 14.5482C162.819 15.3108 162.336 15.9093 161.401 15.9093V15.9175ZM161.401 13.9579C161.04 13.9579 160.934 14.2694 160.934 14.5564C160.934 14.8434 161.04 15.1468 161.401 15.1468C161.762 15.1468 161.868 14.8352 161.868 14.5564C161.868 14.2612 161.754 13.9579 161.401 13.9579Z" fill="#1D1F22"/>
</g>
<defs>
<clipPath id="clip0_53_3680">
<rect width="162.561" height="50" fill="white" transform="translate(0.257812 0.986328)"/>
</clipPath>
</defs>
</svg>
