<svg width="111" height="51" viewBox="0 0 111 51" fill="none" xmlns="http://www.w3.org/2000/svg">
<g clip-path="url(#clip0_53_3198)">
<mask id="mask0_53_3198" style="mask-type:luminance" maskUnits="userSpaceOnUse" x="59" y="14" width="7" height="17">
<path d="M65.3185 14.9961H59.1016V30.2609L65.3185 22.6695V14.9961Z" fill="white"/>
</mask>
<g mask="url(#mask0_53_3198)">
<path d="M110.842 0.986328H0.501953V35.6648H110.842V0.986328Z" fill="#1D1F22"/>
</g>
<mask id="mask1_53_3198" style="mask-type:luminance" maskUnits="userSpaceOnUse" x="54" y="7" width="24" height="7">
<path d="M59.6736 7.51172L54.5664 13.7034H72.6622L77.7316 7.51172H59.6736Z" fill="white"/>
</mask>
<g mask="url(#mask1_53_3198)">
<path d="M110.84 0.986328H0.5V35.6648H110.84V0.986328Z" fill="#1D1F22"/>
</g>
<mask id="mask2_53_3198" style="mask-type:luminance" maskUnits="userSpaceOnUse" x="74" y="7" width="35" height="28">
<path d="M91.4839 12.4298C91.2696 12.1586 91.0363 11.9001 90.803 11.6479C89.3465 10.0905 87.5621 8.93038 85.5949 8.24312C84.2204 7.76393 82.7576 7.51172 81.257 7.51172H79.4663L74.3906 13.7034H81.257C83.3692 13.7034 84.9896 14.6492 86.3074 16.2948L86.5155 16.5596L100.986 34.1385H108.974L91.4839 12.4298Z" fill="white"/>
</mask>
<g mask="url(#mask2_53_3198)">
<path d="M110.84 0.986328H0.5V35.6648H110.84V0.986328Z" fill="#1D1F22"/>
</g>
<mask id="mask3_53_3198" style="mask-type:luminance" maskUnits="userSpaceOnUse" x="57" y="14" width="39" height="21">
<path d="M92.084 25.2609L90.3564 23.2117H74.7637L80.0663 16.6354L79.8583 16.3706C79.8583 16.3706 79.8456 16.3517 79.8393 16.3454C79.1647 15.4942 78.1433 14.9961 77.0651 14.9961H73.345L57.6641 34.1386H66.0373L69.8015 29.4286H95.5077L92.0966 25.2609H92.084Z" fill="white"/>
</mask>
<g mask="url(#mask3_53_3198)">
<path d="M110.842 0.986328H0.501953V35.6648H110.842V0.986328Z" fill="#1D1F22"/>
</g>
<mask id="mask4_53_3198" style="mask-type:luminance" maskUnits="userSpaceOnUse" x="45" y="14" width="7" height="17">
<path d="M45.3926 14.9961H51.6095V30.2609L45.3926 22.6695V14.9961Z" fill="white"/>
</mask>
<g mask="url(#mask4_53_3198)">
<path d="M110.84 0.986328H0.5V35.6648H110.84V0.986328Z" fill="#1D1F22"/>
</g>
<mask id="mask5_53_3198" style="mask-type:luminance" maskUnits="userSpaceOnUse" x="32" y="7" width="26" height="7">
<path d="M57.9537 7.51172L52.7772 13.7034H38.0483L32.9727 7.51172H57.9537Z" fill="white"/>
</mask>
<g mask="url(#mask5_53_3198)">
<path d="M110.842 0.986328H0.501953V35.6648H110.842V0.986328Z" fill="#1D1F22"/>
</g>
<mask id="mask6_53_3198" style="mask-type:luminance" maskUnits="userSpaceOnUse" x="1" y="7" width="36" height="28">
<path d="M19.2269 12.4298C19.4412 12.1586 19.6745 11.9001 19.9078 11.6479C21.3643 10.0905 23.1487 8.93038 25.1159 8.24312C26.4904 7.76393 27.9532 7.51172 29.4538 7.51172H31.2445L36.3202 13.7034H29.5106H29.4538C27.3416 13.7034 25.7212 14.6492 24.4034 16.2948L24.1953 16.5596L9.72498 34.1385H1.73633L19.2269 12.4298Z" fill="white"/>
</mask>
<g mask="url(#mask6_53_3198)">
<path d="M110.84 0.986328H0.5V35.6648H110.84V0.986328Z" fill="#1D1F22"/>
</g>
<mask id="mask7_53_3198" style="mask-type:luminance" maskUnits="userSpaceOnUse" x="15" y="14" width="39" height="21">
<path d="M18.6283 25.2609L20.356 23.2117H35.9486L30.646 16.6354L30.8541 16.3706C30.8541 16.3706 30.8667 16.3517 30.873 16.3454C31.5476 15.4942 32.5691 14.9961 33.6473 14.9961H37.3673L53.0483 34.1386H44.675L40.9108 29.4286H15.2109L18.622 25.2609H18.6283Z" fill="white"/>
</mask>
<g mask="url(#mask7_53_3198)">
<path d="M110.84 0.986328H0.5V35.6648H110.84V0.986328Z" fill="#1D1F22"/>
</g>
<path d="M4.90815 50.2556H3.25619L2.97877 50.9491H2.14648L3.69125 47.3867H4.52353L6.04308 50.9491H5.18558L4.90815 50.2556ZM4.64964 49.6124L4.08848 48.2253L3.52101 49.6124H4.64333H4.64964Z" fill="#1D1F22"/>
<path d="M7.22894 47.3867V50.2493H8.75479V50.9491H6.42188V47.3867H7.22894Z" fill="#1D1F22"/>
<path d="M9.96427 47.3867L11.6919 49.6755V47.3867H12.4548V50.9491H11.7234L9.99579 48.6667V50.9491H9.22656V47.3867H9.95796H9.96427Z" fill="#1D1F22"/>
<path d="M15.5956 50.2556H13.9437L13.6663 50.9491H12.834L14.3788 47.3867H15.211L16.7306 50.9491H15.8731L15.5956 50.2556ZM15.3371 49.6124L14.776 48.2253L14.2085 49.6124H15.3308H15.3371Z" fill="#1D1F22"/>
<path d="M18.3247 48.0354C18.0536 48.0354 17.8707 48.1299 17.8707 48.3254C17.8707 48.9811 19.7686 48.6154 19.7623 49.8954C19.7623 50.5953 19.157 50.9673 18.3688 50.9673C17.7824 50.9673 17.1961 50.7403 16.7988 50.3998L17.1204 49.7441C17.4861 50.0719 18.0031 50.28 18.3814 50.28C18.7093 50.28 18.9111 50.1602 18.9111 49.9395C18.9111 49.2649 17.0132 49.6621 17.0132 48.3948C17.0132 47.7453 17.5681 47.3418 18.394 47.3418C18.8921 47.3418 19.3903 47.4931 19.7496 47.7264L19.4407 48.3948C19.0624 48.1678 18.6147 48.0291 18.331 48.0291L18.3247 48.0354Z" fill="#1D1F22"/>
<path d="M22.5184 50.9491L21.951 49.934H21.1313V50.9491H20.3242V47.3867H21.869C22.8021 47.3867 23.3318 47.8344 23.3318 48.6225C23.3318 49.1711 23.0985 49.5683 22.6634 49.7701L23.4201 50.9428H22.5058L22.5184 50.9491ZM21.1313 49.2594H21.8753C22.3167 49.2594 22.5752 49.0576 22.5752 48.6478C22.5752 48.2379 22.323 48.0551 21.8753 48.0551H21.1313V49.2594Z" fill="#1D1F22"/>
<path d="M28.1679 47.3867V48.0677H27.0771V50.9491H26.27V48.0677H25.1855V47.3867H28.1616H28.1679Z" fill="#1D1F22"/>
<path d="M31.3147 47.3867V48.0551H29.4043V48.8306H31.1193V49.499H29.4043V50.2871H31.3715V50.9554H28.6035V47.393H31.3147V47.3867Z" fill="#1D1F22"/>
<path d="M33.6542 48.0549C33.0426 48.0549 32.5697 48.5278 32.5697 49.152C32.5697 49.7762 33.0426 50.2491 33.6542 50.2491C33.9757 50.2491 34.3288 50.0852 34.581 49.833L35.0539 50.35C34.6756 50.7346 34.1334 50.9868 33.6163 50.9868C32.5508 50.9868 31.75 50.1987 31.75 49.1646C31.75 48.1306 32.5697 47.3613 33.6479 47.3613C34.1649 47.3613 34.7008 47.5883 35.0539 47.954L34.5873 48.5215C34.3414 48.244 33.9946 48.0612 33.6605 48.0612L33.6542 48.0549Z" fill="#1D1F22"/>
<path d="M36.3403 47.3867V48.8747H37.9544V47.3867H38.7614V50.9491H37.9544V49.5431H36.3403V50.9491H35.5332V47.3867H36.3403Z" fill="#1D1F22"/>
<path d="M40.2748 47.3867L42.0024 49.6755V47.3867H42.7654V50.9491H42.034L40.3063 48.6667V50.9491H39.5371V47.3867H40.2685H40.2748Z" fill="#1D1F22"/>
<path d="M44.3539 47.3867V50.9491H43.5469V47.3867H44.3539Z" fill="#1D1F22"/>
<path d="M46.8006 48.0549C46.189 48.0549 45.7162 48.5278 45.7162 49.152C45.7162 49.7762 46.189 50.2491 46.8006 50.2491C47.1222 50.2491 47.4753 50.0852 47.7275 49.833L48.2004 50.35C47.8221 50.7346 47.2798 50.9868 46.7628 50.9868C45.6972 50.9868 44.8965 50.1987 44.8965 49.1646C44.8965 48.1306 45.7162 47.3613 46.7943 47.3613C47.3114 47.3613 47.8473 47.5883 48.2004 47.954L47.7338 48.5215C47.4879 48.244 47.1411 48.0612 46.8069 48.0612L46.8006 48.0549Z" fill="#1D1F22"/>
<path d="M50.9921 50.2556H49.3402L49.0628 50.9491H48.2305L49.7752 47.3867H50.6075L52.1271 50.9491H51.2696L50.9921 50.2556ZM50.7336 49.6124L50.1725 48.2253L49.605 49.6124H50.7273H50.7336Z" fill="#1D1F22"/>
<path d="M53.3071 47.3867V50.2493H54.8329V50.9491H52.5V47.3867H53.3071Z" fill="#1D1F22"/>
<path d="M59.4667 47.3867V48.0677H58.3759V50.9491H57.5689V48.0677H56.4844V47.3867H59.4604H59.4667Z" fill="#1D1F22"/>
<path d="M62.0907 50.9491L61.5232 49.934H60.7036V50.9491H59.8965V47.3867H61.4413C62.3744 47.3867 62.9041 47.8344 62.9041 48.6225C62.9041 49.1711 62.6708 49.5683 62.2357 49.7701L62.9923 50.9428H62.0781L62.0907 50.9491ZM60.7036 49.2594H61.4476C61.8889 49.2594 62.1474 49.0576 62.1474 48.6478C62.1474 48.2379 61.8952 48.0551 61.4476 48.0551H60.7036V49.2594Z" fill="#1D1F22"/>
<path d="M65.9355 50.2556H64.2835L64.0061 50.9491H63.1738L64.7186 47.3867H65.5509L67.0704 50.9491H66.2129L65.9355 50.2556ZM65.677 49.6124L65.1158 48.2253L64.5484 49.6124H65.6707H65.677Z" fill="#1D1F22"/>
<path d="M70.8351 49.1648C70.8351 50.2114 70.0533 50.9491 68.9309 50.9491H67.4492V47.3867H68.9625C70.0659 47.3867 70.8351 48.1118 70.8351 49.1711V49.1648ZM70.0154 49.1711C70.0154 48.5153 69.5551 48.0614 68.9435 48.0614H68.25V50.2682H68.9751C69.5678 50.2682 70.0091 49.8205 70.0091 49.1711H70.0154Z" fill="#1D1F22"/>
<path d="M72.1645 47.3867V50.9491H71.3574V47.3867H72.1645Z" fill="#1D1F22"/>
<path d="M73.6908 47.3867L75.4184 49.6755V47.3867H76.1814V50.9491H75.45L73.7224 48.6667V50.9491H72.9531V47.3867H73.6845H73.6908Z" fill="#1D1F22"/>
<path d="M79.3587 49.1505H80.0585V50.5187C79.6802 50.7961 79.1065 50.979 78.6147 50.979C77.5365 50.979 76.7168 50.1971 76.7168 49.1631C76.7168 48.1291 77.5491 47.3535 78.6588 47.3535C79.1884 47.3535 79.7307 47.5553 80.0901 47.8705L79.6361 48.4443C79.3713 48.1984 79.0056 48.0471 78.6588 48.0471C78.0283 48.0471 77.5365 48.5326 77.5365 49.1568C77.5365 49.781 78.0283 50.2728 78.6588 50.2728C78.8732 50.2728 79.1254 50.1971 79.3587 50.0773V49.1379V49.1505Z" fill="#1D1F22"/>
<path d="M84.6367 50.2556H82.9847L82.7073 50.9491H81.875L83.4198 47.3867H84.2521L85.7716 50.9491H84.9141L84.6367 50.2556ZM84.3782 49.6124L83.817 48.2253L83.2495 49.6124H84.3719H84.3782Z" fill="#1D1F22"/>
<path d="M88.4446 49.1505H89.1445V50.5187C88.7662 50.7961 88.1924 50.979 87.7006 50.979C86.6224 50.979 85.8027 50.1971 85.8027 49.1631C85.8027 48.1291 86.635 47.3535 87.7447 47.3535C88.2744 47.3535 88.8166 47.5553 89.176 47.8705L88.722 48.4443C88.4572 48.1984 88.0915 48.0471 87.7447 48.0471C87.1142 48.0471 86.6224 48.5326 86.6224 49.1568C86.6224 49.781 87.1142 50.2728 87.7447 50.2728C87.9591 50.2728 88.2113 50.1971 88.4446 50.0773V49.1379V49.1505Z" fill="#1D1F22"/>
<path d="M92.5569 47.3867V48.0551H90.6465V48.8306H92.3615V49.499H90.6465V50.2871H92.6137V50.9554H89.8457V47.393H92.5569V47.3867Z" fill="#1D1F22"/>
<path d="M93.974 47.3867L95.7017 49.6755V47.3867H96.4646V50.9491H95.7332L94.0056 48.6667V50.9491H93.2363V47.3867H93.9677H93.974Z" fill="#1D1F22"/>
<path d="M98.912 48.0549C98.3004 48.0549 97.8275 48.5278 97.8275 49.152C97.8275 49.7762 98.3004 50.2491 98.912 50.2491C99.2335 50.2491 99.5866 50.0852 99.8388 49.833L100.312 50.35C99.9334 50.7346 99.3912 50.9868 98.8741 50.9868C97.8086 50.9868 97.0078 50.1987 97.0078 49.1646C97.0078 48.1306 97.8275 47.3613 98.9057 47.3613C99.4227 47.3613 99.9586 47.5883 100.312 47.954L99.8451 48.5215C99.5992 48.244 99.2525 48.0612 98.9183 48.0612L98.912 48.0549Z" fill="#1D1F22"/>
<path d="M101.592 47.3867V50.9491H100.785V47.3867H101.592Z" fill="#1D1F22"/>
<path d="M105.098 47.3867V48.0551H103.187V48.8306H104.902V49.499H103.187V50.2871H105.155V50.9554H102.387V47.393H105.098V47.3867Z" fill="#1D1F22"/>
<path d="M107.02 48.0354C106.749 48.0354 106.566 48.1299 106.566 48.3254C106.566 48.9811 108.464 48.6154 108.458 49.8954C108.458 50.5953 107.852 50.9673 107.064 50.9673C106.478 50.9673 105.891 50.7403 105.494 50.3998L105.816 49.7441C106.181 50.0719 106.698 50.28 107.077 50.28C107.405 50.28 107.606 50.1602 107.606 49.9395C107.606 49.2649 105.709 49.6621 105.709 48.3948C105.709 47.7453 106.263 47.3418 107.089 47.3418C107.587 47.3418 108.086 47.4931 108.445 47.7264L108.136 48.3948C107.758 48.1678 107.31 48.0291 107.026 48.0291L107.02 48.0354Z" fill="#1D1F22"/>
<path d="M4.33434 43.3504C3.87406 43.3504 3.64077 42.9469 3.62816 42.8019H3.12374C2.4617 42.8019 2.28516 42.1398 2.28516 41.8372C2.28516 41.0743 2.80849 40.8347 3.16157 40.8347C3.34442 40.8347 3.48944 40.8725 3.60924 40.986V40.8347H4.37217V42.3983C4.37217 42.5244 4.43522 42.6632 4.62437 42.6632H7.85262V43.3504H4.32803H4.33434ZM2.66347 40.4185V39.7754H3.32551V40.4185H2.66347ZM3.60924 41.6354C3.50205 41.5282 3.45792 41.4904 3.30659 41.4904C3.1931 41.4904 3.05439 41.5724 3.03547 41.8309C3.02286 41.9318 3.09222 42.1587 3.26876 42.1587H3.60924V41.6291V41.6354ZM3.59663 40.4185V39.7754H4.25867V40.4185H3.59663Z" fill="#1D1F22"/>
<path d="M9.87004 43.3511C9.5737 43.3511 9.39085 43.162 9.30258 43.0296C9.15125 43.2376 8.88644 43.3511 8.62162 43.3511C8.31267 43.3511 8.06677 43.3511 7.75781 43.3511V42.6639H8.40094C8.55226 42.6639 8.75403 42.5756 8.75403 42.3864L8.74142 41.2578H9.51065C9.51065 41.5542 9.51065 41.8757 9.52326 42.1784C9.52326 42.5252 9.78177 42.6702 9.91418 42.6702H10.4375V43.3574H9.87004V43.3511ZM8.3568 44.423V43.7799H9.01885V44.423H8.3568ZM9.28997 44.423V43.7799H9.95201V44.423H9.28997Z" fill="#1D1F22"/>
<path d="M15.0459 43.3507C14.7496 43.3507 14.5667 43.1616 14.4784 43.0292C14.3271 43.2373 14.0623 43.3507 13.7975 43.3507C13.4885 43.3507 10.6386 43.3507 10.3359 43.3507V42.6635H13.5831C13.7344 42.6635 13.9362 42.5752 13.9362 42.3861L13.9236 41.2574H14.6928C14.6928 41.5538 14.6928 41.8753 14.7054 42.178C14.7054 42.5248 14.9639 42.6698 15.0963 42.6698H18.2174V43.357H15.0522L15.0459 43.3507ZM13.9551 40.8287V40.1855H14.6171V40.8287H13.9551Z" fill="#1D1F22"/>
<path d="M20.6654 43.3496C20.3438 43.3496 20.0412 43.2865 19.7511 43.1857C19.4737 43.2928 19.171 43.3496 18.8558 43.3496H18.1055V42.6623H18.5531C18.6982 42.6623 18.8306 42.6623 18.9567 42.6434C18.7297 42.3912 18.6477 42.1327 18.6477 41.9183C18.6477 41.2815 19.1773 40.9473 19.7385 40.9473C20.2997 40.9473 20.8293 41.2815 20.8293 41.9183C20.8293 42.1327 20.7473 42.3912 20.5267 42.6434C20.6843 42.6686 20.7978 42.6623 20.9365 42.6623H23.9693V43.3496H20.6465H20.6654ZM19.398 40.5123V39.8691H20.0601V40.5123H19.398ZM19.7511 41.5085C19.5304 41.5085 19.4043 41.6787 19.4043 41.8994C19.4043 42.2399 19.7259 42.448 19.7511 42.448C19.7763 42.448 20.0979 42.2462 20.0979 41.8994C20.0979 41.6787 19.9781 41.5085 19.7511 41.5085Z" fill="#1D1F22"/>
<path d="M24.751 43.3504H23.8809V42.6632H24.5366C24.7005 42.6632 24.814 42.5812 24.814 42.3983C24.814 42.0137 24.7951 40.1537 24.7951 39.7754H25.5706C25.5706 40.4059 25.5896 42.0389 25.5896 42.5812C25.5896 43.0478 25.2995 43.3504 24.7573 43.3504H24.751Z" fill="#1D1F22"/>
<path d="M26.326 43.3504L26.3008 39.7754H27.07L27.0952 43.3504H26.326Z" fill="#1D1F22"/>
<path d="M30.7093 43.3504C30.2491 43.3504 30.0158 42.9469 30.0032 42.8019H29.4987C28.8367 42.8019 28.6602 42.1398 28.6602 41.8372C28.6602 41.0743 29.1835 40.8347 29.5366 40.8347C29.7194 40.8347 29.8644 40.8725 29.9842 40.986V40.8347H30.7472V42.3983C30.7472 42.5244 30.8102 42.6632 30.9994 42.6632H34.4546V43.3504H30.703H30.7093ZM29.0385 40.4185V39.7754H29.7005V40.4185H29.0385ZM29.9905 41.6354C29.8834 41.5282 29.8392 41.4904 29.6879 41.4904C29.5744 41.4904 29.4357 41.5724 29.4168 41.8309C29.4042 41.9318 29.4735 42.1587 29.6501 42.1587H29.9905V41.6291V41.6354ZM29.9779 40.4185V39.7754H30.64V40.4185H29.9779Z" fill="#1D1F22"/>
<path d="M35.2295 43.3507H34.3594V42.6634H35.0151C35.179 42.6634 35.2925 42.5815 35.2925 42.3986C35.2925 42.014 35.2925 41.6357 35.2799 41.2637H36.0492C36.0492 41.8879 36.0618 42.0455 36.0618 42.5815C36.0618 43.048 35.7717 43.3507 35.2295 43.3507ZM34.3972 44.4226V43.7794H35.0592V44.4226H34.3972ZM35.3304 44.4226V43.7794H35.9924V44.4226H35.3304Z" fill="#1D1F22"/>
<path d="M37.2783 42.8719V41.2578H38.0349L38.0538 42.8152C38.016 43.761 37.4485 44.4482 36.4838 44.5239C36.2568 44.278 36.2127 44.2023 35.9668 43.9375C36.5343 43.8934 37.272 43.5088 37.272 42.8782L37.2783 42.8719Z" fill="#1D1F22"/>
<path d="M39.4544 43.3504C39.1202 43.3504 38.7987 43.1171 38.7924 42.6505L38.7734 39.7754H39.5364L39.5553 42.4109C39.5553 42.5623 39.6309 42.6379 39.7381 42.6569H40.356V43.3441H39.4544V43.3504Z" fill="#1D1F22"/>
<path d="M40.2559 43.3507V42.6634H42.6707C42.5383 42.2158 42.2042 41.9446 41.8132 41.9446C41.3214 41.9446 41.0692 42.1905 41.0692 42.1905L40.7666 41.6483C40.8612 41.5411 41.189 41.2637 41.8132 41.2637C42.7212 41.2637 43.213 41.9194 43.3958 42.6634H46.7943V43.3507H40.2559ZM41.5106 44.4226V43.7794H42.1726V44.4226H41.5106Z" fill="#1D1F22"/>
<path d="M48.8056 43.3507C48.5092 43.3507 48.3264 43.1616 48.2381 43.0292C48.0868 43.2373 47.822 43.3507 47.5572 43.3507C47.2482 43.3507 47.0023 43.3507 46.6934 43.3507V42.6635H47.3365C47.4878 42.6635 47.6896 42.5752 47.6896 42.3861L47.677 41.2574H48.4462C48.4462 41.5538 48.4462 41.8753 48.4588 42.178C48.4588 42.5248 48.7173 42.6698 48.8497 42.6698H49.3731V43.357H48.8056V43.3507ZM47.2608 40.8287V40.1855H47.9229V40.8287H47.2608ZM48.194 40.8287V40.1855H48.856V40.8224H48.194V40.8287Z" fill="#1D1F22"/>
<path d="M52.9722 43.3504H49.2773V42.6632H52.7578C52.9217 42.6632 53.0352 42.5812 53.0352 42.3983C53.0352 42.0137 53.0163 40.1537 53.0163 39.7754H53.7918C53.7918 40.4059 53.8108 42.0389 53.8108 42.5812C53.8108 43.0478 53.5207 43.3504 52.9785 43.3504H52.9722Z" fill="#1D1F22"/>
<path d="M54.5487 43.3504L54.5234 39.7754H55.2927L55.3179 43.3504H54.5487Z" fill="#1D1F22"/>
<path d="M60.1785 43.3508H58.4698C57.1709 43.3508 56.8809 42.1907 56.8809 41.2575H57.6375C57.6375 42.0141 57.8392 42.6636 58.5013 42.6636H59.8947C59.9767 42.6636 60.0271 42.6194 60.0271 42.4681C60.0145 41.9511 60.0082 41.8691 60.0019 41.2575H60.7711C60.7838 41.8376 60.7838 42.26 60.7838 42.7644C60.7838 43.1806 60.5063 43.3508 60.1848 43.3508H60.1785ZM58.041 41.1251V40.4883H58.7031V41.1251H58.041ZM58.9679 41.1251V40.4883H59.6299V41.1251H58.9679Z" fill="#1D1F22"/>
<path d="M62.0195 43.3504H61.3574V42.6632H61.7988C62.1708 42.6632 62.7635 42.5308 62.7635 41.9948C62.7635 41.9948 62.7635 41.9318 62.7383 39.7817H63.5138C63.539 42.0579 63.539 42.2407 63.539 42.2407C63.539 42.9091 62.8833 43.3504 62.0258 43.3504H62.0195ZM61.679 42.2975H61.4835L61.452 39.7754H62.2149L62.2401 42.0894C62.1077 42.2785 61.9123 42.2975 61.679 42.2975Z" fill="#1D1F22"/>
<path d="M64.9271 43.3504C64.5929 43.3504 64.2713 43.1171 64.265 42.6505L64.2461 39.7754H65.009L65.0279 42.4109C65.0279 42.5623 65.1036 42.6379 65.2108 42.6569H68.5462V43.3441H64.9271V43.3504Z" fill="#1D1F22"/>
<path d="M68.4395 43.3506V42.6633H70.9741C70.7976 41.9193 69.9149 41.7428 69.1961 42.2346L68.9123 41.6797L70.4949 40.1602L71.0246 40.652L70.3436 41.2888C71.4281 41.3771 71.7686 42.3859 71.7686 43.3443H68.4521L68.4395 43.3506Z" fill="#1D1F22"/>
<path d="M74.5305 43.3507C74.3351 43.9938 73.8054 44.4667 73.0551 44.5297C72.8281 44.2838 72.7777 44.2019 72.5318 43.9434C72.9353 43.9181 73.4776 43.6912 73.7109 43.357H73.4334C72.8408 43.357 72.4688 42.821 72.4688 42.3356C72.4688 41.5033 73.1371 41.2637 73.5595 41.2637C73.6793 41.2637 74.5558 41.3204 74.6062 42.1401C74.6062 42.1653 74.6062 42.2725 74.6062 42.676H75.2556V43.3633H74.5305V43.3507ZM73.837 42.2094C73.837 42.014 73.8054 41.8059 73.5469 41.8059C73.3136 41.8059 73.1812 42.0329 73.1812 42.2536C73.1812 42.4743 73.2884 42.6571 73.5217 42.6571H73.837V42.2094Z" fill="#1D1F22"/>
<path d="M80.0912 43.35C79.7949 43.35 79.6121 43.1608 79.5238 43.0284C79.3725 43.2365 79.1076 43.35 78.8428 43.35H75.1543V42.6627H78.6221C78.7735 42.6627 78.9752 42.5744 78.9752 42.3853L78.9626 39.7812H79.7319C79.7319 40.0776 79.7318 41.8809 79.7445 42.1772C79.7445 42.524 80.003 42.669 80.1354 42.669H80.6587V43.3563H80.0912V43.35Z" fill="#1D1F22"/>
<path d="M84.2515 43.3504H80.5566V42.6632H84.0371C84.201 42.6632 84.3145 42.5812 84.3145 42.3983C84.3145 42.0137 84.2956 40.1537 84.2956 39.7754H85.0711C85.0711 40.4059 85.0901 42.0389 85.0901 42.5812C85.0901 43.0478 84.8 43.3504 84.2578 43.3504H84.2515Z" fill="#1D1F22"/>
<path d="M88.6282 43.3507C88.4769 43.3507 88.3508 43.3002 88.2562 43.2309C88.1049 43.956 87.5437 44.4541 86.7241 44.5234C86.4971 44.2775 86.4529 44.2019 86.207 43.9371C86.7745 43.8929 87.5185 43.5083 87.5122 42.8778L87.4933 41.2637H88.2688L88.2814 42.1905C88.2814 42.5247 88.5463 42.6697 88.6787 42.6697H92.033V43.357H88.6282V43.3507Z" fill="#1D1F22"/>
<path d="M91.9258 43.3508V42.6635H92.7959V41.7304H93.5525V42.5816C94.0822 41.4403 94.9649 41.2259 95.3306 41.2638C96.1881 41.3457 96.4655 41.9826 96.5538 42.6635H100.078V43.3508H91.9258ZM95.1793 41.9132C94.927 41.9132 94.5109 42.0834 94.1263 42.6635H95.8098C95.7909 42.3293 95.6458 41.9132 95.1856 41.9132H95.1793Z" fill="#1D1F22"/>
<path d="M102.046 43.3507C101.75 43.3507 101.567 43.1616 101.479 43.0292C101.328 43.2373 101.063 43.3507 100.798 43.3507C100.489 43.3507 97.412 43.3507 97.1094 43.3507V42.6635H100.577C100.729 42.6635 100.93 42.5752 100.93 42.3861L100.918 41.2574H101.687C101.687 41.5538 101.687 41.8753 101.7 42.178C101.7 42.5248 101.958 42.6698 102.09 42.6698H105.438V43.357H102.046V43.3507ZM100.962 40.8287V40.1855H101.624V40.8287H100.962Z" fill="#1D1F22"/>
<path d="M106.214 43.3504H105.344V42.6632H105.999C106.163 42.6632 106.277 42.5812 106.277 42.3983C106.277 42.0137 106.258 40.1537 106.258 39.7754H107.034C107.034 40.4059 107.052 42.0389 107.052 42.5812C107.052 43.0478 106.762 43.3504 106.22 43.3504H106.214Z" fill="#1D1F22"/>
<path d="M107.789 43.3504L107.764 39.7754H108.533L108.558 43.3504H107.789Z" fill="#1D1F22"/>
</g>
<defs>
<clipPath id="clip0_53_3198">
<rect width="110.34" height="50" fill="white" transform="translate(0.5 0.986328)"/>
</clipPath>
</defs>
</svg>
